<?xml version="1.0" encoding="utf-8" standalone="no"?>
<!DOCTYPE svg PUBLIC "-//W3C//DTD SVG 1.1//EN"
  "http://www.w3.org/Graphics/SVG/1.1/DTD/svg11.dtd">
<svg xmlns:xlink="http://www.w3.org/1999/xlink" width="720pt" height="360pt" viewBox="0 0 720 360" xmlns="http://www.w3.org/2000/svg" version="1.1">
 <metadata>
  <rdf:RDF xmlns:dc="http://purl.org/dc/elements/1.1/" xmlns:cc="http://creativecommons.org/ns#" xmlns:rdf="http://www.w3.org/1999/02/22-rdf-syntax-ns#">
   <cc:Work>
    <dc:type rdf:resource="http://purl.org/dc/dcmitype/StillImage"/>
    <dc:date>2024-10-05T11:13:28.713040</dc:date>
    <dc:format>image/svg+xml</dc:format>
    <dc:creator>
     <cc:Agent>
      <dc:title>Matplotlib v3.7.1, https://matplotlib.org/</dc:title>
     </cc:Agent>
    </dc:creator>
   </cc:Work>
  </rdf:RDF>
 </metadata>
 <defs>
  <style type="text/css">*{stroke-linejoin: round; stroke-linecap: butt}</style>
 </defs>
 <g id="figure_1">
  <g id="patch_1">
   <path d="M 0 360 
L 720 360 
L 720 0 
L 0 0 
z
" style="fill: #ffffff"/>
  </g>
  <g id="axes_1">
   <g id="patch_2">
    <path d="M 90 320.4 
L 648 320.4 
L 648 43.2 
L 90 43.2 
z
" style="fill: #ffffff"/>
   </g>
   <g id="matplotlib.axis_1">
    <g id="xtick_1">
     <g id="line2d_1">
      <defs>
       <path id="m1e5f0072b0" d="M 0 0 
L 0 3.5 
" style="stroke: #000000; stroke-width: 0.8"/>
      </defs>
      <g>
       <use xlink:href="#m1e5f0072b0" x="115.363636" y="320.4" style="stroke: #000000; stroke-width: 0.8"/>
      </g>
     </g>
     <g id="text_1">
      <!-- 0 -->
      <g transform="translate(111.363636 338.8375) scale(0.16 -0.16)">
       <defs>
        <path id="SimSun-30" d="M 1600 4225 
Q 1250 4225 1012 3687 
Q 775 3150 775 2250 
Q 775 1300 1012 775 
Q 1250 250 1600 250 
Q 1975 250 2187 775 
Q 2400 1300 2400 2250 
Q 2400 3150 2200 3687 
Q 2000 4225 1600 4225 
z
M 1600 50 
Q 1050 50 675 625 
Q 300 1200 300 2250 
Q 300 3225 662 3825 
Q 1025 4425 1600 4425 
Q 2150 4425 2512 3850 
Q 2875 3275 2875 2250 
Q 2875 1225 2512 637 
Q 2150 50 1600 50 
z
" transform="scale(0.015625)"/>
       </defs>
       <use xlink:href="#SimSun-30"/>
      </g>
     </g>
    </g>
    <g id="xtick_2">
     <g id="line2d_2">
      <g>
       <use xlink:href="#m1e5f0072b0" x="218.888683" y="320.4" style="stroke: #000000; stroke-width: 0.8"/>
      </g>
     </g>
     <g id="text_2">
      <!-- 10 -->
      <g transform="translate(210.888683 338.8375) scale(0.16 -0.16)">
       <defs>
        <path id="SimSun-31" d="M 1825 4450 
L 1825 650 
Q 1825 450 1950 350 
Q 2075 250 2300 250 
L 2550 250 
L 2550 100 
L 725 100 
L 725 250 
L 950 250 
Q 1200 250 1312 350 
Q 1425 450 1425 650 
L 1425 3675 
Q 1425 3775 1362 3837 
Q 1300 3900 1175 3900 
L 725 3900 
L 725 4050 
L 950 4050 
Q 1250 4050 1437 4150 
Q 1625 4250 1725 4450 
L 1825 4450 
z
" transform="scale(0.015625)"/>
       </defs>
       <use xlink:href="#SimSun-31"/>
       <use xlink:href="#SimSun-30" x="50"/>
      </g>
     </g>
    </g>
    <g id="xtick_3">
     <g id="line2d_3">
      <g>
       <use xlink:href="#m1e5f0072b0" x="322.413729" y="320.4" style="stroke: #000000; stroke-width: 0.8"/>
      </g>
     </g>
     <g id="text_3">
      <!-- 20 -->
      <g transform="translate(314.413729 338.8375) scale(0.16 -0.16)">
       <defs>
        <path id="SimSun-32" d="M 2325 3325 
Q 2325 3775 2125 4012 
Q 1925 4250 1525 4250 
Q 1225 4250 1012 4087 
Q 800 3925 800 3675 
Q 800 3525 900 3425 
Q 975 3325 975 3225 
Q 975 3100 912 3037 
Q 850 2975 725 2975 
Q 575 2975 487 3062 
Q 400 3150 400 3350 
Q 400 3875 775 4150 
Q 1150 4425 1575 4425 
Q 2175 4425 2462 4125 
Q 2750 3825 2750 3375 
Q 2750 3075 2612 2775 
Q 2475 2475 2175 2200 
Q 1450 1500 1062 1062 
Q 675 625 600 475 
L 2075 475 
Q 2300 475 2450 650 
Q 2600 825 2650 1175 
L 2800 1175 
L 2650 100 
L 325 100 
L 325 425 
Q 450 650 737 1000 
Q 1025 1350 1500 1825 
Q 1925 2250 2125 2625 
Q 2325 3000 2325 3325 
z
" transform="scale(0.015625)"/>
       </defs>
       <use xlink:href="#SimSun-32"/>
       <use xlink:href="#SimSun-30" x="50"/>
      </g>
     </g>
    </g>
    <g id="xtick_4">
     <g id="line2d_4">
      <g>
       <use xlink:href="#m1e5f0072b0" x="425.938776" y="320.4" style="stroke: #000000; stroke-width: 0.8"/>
      </g>
     </g>
     <g id="text_4">
      <!-- 30 -->
      <g transform="translate(417.938776 338.8375) scale(0.16 -0.16)">
       <defs>
        <path id="SimSun-33" d="M 2800 1250 
Q 2800 775 2450 412 
Q 2100 50 1475 50 
Q 1025 50 700 300 
Q 375 550 375 875 
Q 375 1025 475 1137 
Q 575 1250 675 1250 
Q 825 1250 887 1137 
Q 950 1025 950 950 
Q 950 825 900 750 
Q 850 650 850 575 
Q 850 425 1037 325 
Q 1225 225 1450 225 
Q 1900 225 2125 487 
Q 2350 750 2350 1300 
Q 2350 1750 2112 2025 
Q 1875 2300 1225 2300 
L 1225 2475 
Q 1725 2475 1962 2712 
Q 2200 2950 2200 3375 
Q 2200 3725 2012 3987 
Q 1825 4250 1425 4250 
Q 1250 4250 1050 4162 
Q 850 4075 850 3875 
Q 850 3675 900 3625 
Q 950 3575 950 3500 
Q 950 3375 900 3300 
Q 850 3225 725 3225 
Q 625 3225 537 3300 
Q 450 3375 450 3575 
Q 450 3950 775 4187 
Q 1100 4425 1525 4425 
Q 2025 4425 2325 4112 
Q 2625 3800 2625 3450 
Q 2625 3075 2437 2812 
Q 2250 2550 1850 2425 
Q 2400 2225 2600 1900 
Q 2800 1575 2800 1250 
z
" transform="scale(0.015625)"/>
       </defs>
       <use xlink:href="#SimSun-33"/>
       <use xlink:href="#SimSun-30" x="50"/>
      </g>
     </g>
    </g>
    <g id="xtick_5">
     <g id="line2d_5">
      <g>
       <use xlink:href="#m1e5f0072b0" x="529.463822" y="320.4" style="stroke: #000000; stroke-width: 0.8"/>
      </g>
     </g>
     <g id="text_5">
      <!-- 40 -->
      <g transform="translate(521.463822 338.8375) scale(0.16 -0.16)">
       <defs>
        <path id="SimSun-34" d="M 2300 575 
Q 2300 400 2400 325 
Q 2500 250 2675 250 
L 2900 250 
L 2900 100 
L 1250 100 
L 1250 250 
L 1525 250 
Q 1725 250 1812 325 
Q 1900 400 1900 575 
L 1900 1400 
L 225 1400 
L 225 1525 
L 2050 4425 
L 2300 4425 
L 2300 1550 
L 2975 1550 
L 2975 1400 
L 2300 1400 
L 2300 575 
z
M 1875 3800 
L 450 1550 
L 1900 1550 
L 1900 3800 
L 1875 3800 
z
" transform="scale(0.015625)"/>
       </defs>
       <use xlink:href="#SimSun-34"/>
       <use xlink:href="#SimSun-30" x="50"/>
      </g>
     </g>
    </g>
    <g id="xtick_6">
     <g id="line2d_6">
      <g>
       <use xlink:href="#m1e5f0072b0" x="632.988868" y="320.4" style="stroke: #000000; stroke-width: 0.8"/>
      </g>
     </g>
     <g id="text_6">
      <!-- 50 -->
      <g transform="translate(624.988868 338.8375) scale(0.16 -0.16)">
       <defs>
        <path id="SimSun-35" d="M 1725 2850 
Q 2200 2850 2500 2487 
Q 2800 2125 2800 1525 
Q 2800 850 2487 450 
Q 2175 50 1525 50 
Q 1075 50 725 312 
Q 375 575 375 950 
Q 375 1100 462 1212 
Q 550 1325 700 1325 
Q 850 1325 900 1225 
Q 950 1125 950 1050 
Q 950 900 875 825 
Q 800 725 800 625 
Q 800 425 1037 325 
Q 1275 225 1550 225 
Q 1950 225 2162 550 
Q 2375 875 2375 1475 
Q 2375 1975 2187 2287 
Q 2000 2600 1625 2600 
Q 1350 2600 1150 2500 
Q 950 2400 775 2075 
L 550 2100 
L 675 4375 
L 2725 4375 
L 2650 4000 
L 850 4000 
L 750 2350 
Q 1000 2700 1237 2775 
Q 1475 2850 1725 2850 
z
" transform="scale(0.015625)"/>
       </defs>
       <use xlink:href="#SimSun-35"/>
       <use xlink:href="#SimSun-30" x="50"/>
      </g>
     </g>
    </g>
    <g id="text_7">
     <!-- 迭代次数 -->
     <g transform="translate(337 357.5875) scale(0.16 -0.16)">
      <defs>
       <path id="SimSun-8fed" d="M 4075 2425 
L 3975 2025 
Q 5050 1525 5350 1275 
Q 5650 1025 5650 800 
Q 5650 700 5600 587 
Q 5550 475 5500 475 
Q 5425 475 5300 700 
Q 5075 1050 4700 1362 
Q 4325 1675 3950 1950 
Q 3500 900 2175 425 
L 2125 500 
Q 3525 1250 3725 2425 
L 2675 2425 
Q 2450 2425 2175 2350 
L 1950 2575 
L 3750 2575 
Q 3825 3150 3825 3750 
L 2900 3750 
Q 2600 3150 2150 2725 
L 2100 2775 
Q 2400 3275 2562 3737 
Q 2725 4200 2800 4725 
L 3275 4475 
Q 3125 4350 2950 3900 
L 3825 3900 
Q 3825 4400 3800 5150 
L 4375 4900 
L 4175 4725 
L 4175 3900 
L 4900 3900 
L 5200 4200 
L 5625 3750 
L 4175 3750 
Q 4150 3025 4100 2575 
L 5300 2575 
L 5600 2875 
L 6025 2425 
L 4075 2425 
z
M 1575 875 
Q 1800 625 2225 350 
Q 2650 75 3725 37 
Q 4800 0 6125 175 
L 6125 75 
Q 5675 -75 5650 -325 
Q 4475 -350 3725 -312 
Q 2975 -275 2562 -100 
Q 2150 75 1850 400 
Q 1525 725 1437 750 
Q 1350 775 1050 475 
Q 750 175 575 -125 
L 250 225 
Q 725 550 1250 875 
L 1250 2925 
L 925 2925 
Q 725 2925 450 2850 
L 225 3075 
L 1125 3075 
L 1425 3375 
L 1850 2975 
L 1575 2825 
L 1575 875 
z
M 950 5025 
L 975 5100 
Q 1350 4900 1575 4725 
Q 1800 4550 1800 4362 
Q 1800 4175 1712 4100 
Q 1625 4025 1600 4025 
Q 1500 4025 1400 4300 
Q 1275 4675 950 5025 
z
" transform="scale(0.015625)"/>
       <path id="SimSun-4ee3" d="M 5550 -75 
L 5875 1025 
L 5975 1025 
Q 5875 175 5912 -75 
Q 5950 -325 6025 -525 
Q 6075 -650 5950 -650 
Q 5900 -650 5662 -587 
Q 5425 -525 4925 -150 
Q 4425 225 4100 850 
Q 3775 1475 3600 2975 
L 2575 2925 
L 2350 2850 
L 2100 3050 
L 3575 3125 
Q 3525 3750 3500 4175 
Q 3475 4600 3450 5075 
L 4050 4775 
L 3850 4600 
Q 3875 3625 3925 3150 
L 5150 3225 
L 5475 3550 
L 5975 3125 
L 3950 3000 
Q 4100 1525 4550 862 
Q 5000 200 5550 -75 
z
M 4475 4700 
L 4500 4800 
Q 5450 4475 5537 4300 
Q 5625 4125 5625 4050 
Q 5625 3950 5550 3837 
Q 5475 3725 5425 3725 
Q 5325 3725 5225 3950 
Q 5025 4275 4475 4700 
z
M 1800 3100 
L 1800 400 
Q 1800 0 1825 -475 
L 1425 -650 
Q 1450 -25 1450 375 
L 1450 3125 
Q 850 2175 300 1675 
L 225 1750 
Q 550 2175 837 2662 
Q 1125 3150 1412 3787 
Q 1700 4425 1925 5250 
L 2475 4900 
Q 2275 4800 2050 4350 
Q 1825 3875 1625 3500 
L 1975 3275 
L 1800 3100 
z
" transform="scale(0.015625)"/>
       <path id="SimSun-6b21" d="M 4875 2725 
L 5275 3600 
L 3225 3600 
Q 3025 3250 2800 2887 
Q 2575 2525 2075 2025 
L 2000 2100 
Q 2575 2825 2925 3750 
Q 3275 4675 3350 5225 
L 3950 4925 
Q 3750 4825 3650 4600 
Q 3550 4375 3275 3750 
L 5250 3750 
L 5525 4025 
L 5975 3550 
Q 5725 3500 5550 3350 
Q 5375 3200 4950 2675 
L 4875 2725 
z
M 4050 2900 
Q 3900 1225 3175 437 
Q 2450 -350 1450 -650 
L 1400 -575 
Q 2675 0 3175 912 
Q 3675 1825 3700 3400 
L 4275 3100 
L 4125 2975 
Q 4300 1700 4812 912 
Q 5325 125 6150 -175 
L 6125 -250 
Q 5750 -225 5575 -500 
Q 4950 -25 4537 825 
Q 4125 1675 4050 2900 
z
M 750 4950 
Q 1275 4675 1487 4450 
Q 1700 4225 1700 4075 
Q 1700 3925 1587 3775 
Q 1475 3625 1450 3625 
Q 1350 3625 1275 3950 
Q 1150 4400 700 4875 
L 750 4950 
z
M 425 1650 
Q 600 1625 750 1625 
Q 975 1625 1100 1725 
Q 1225 1825 2275 4300 
L 2375 4250 
Q 1400 1700 1350 1600 
Q 1300 1500 1300 1187 
Q 1300 875 1375 350 
Q 1450 -200 1212 -175 
Q 975 -150 925 -25 
Q 875 100 875 200 
Q 875 300 925 575 
Q 1000 975 975 1187 
Q 950 1400 425 1550 
L 425 1650 
z
" transform="scale(0.015625)"/>
       <path id="SimSun-6570" d="M 1875 1525 
Q 1675 1200 1500 900 
Q 1825 825 2275 725 
Q 2500 975 2725 1525 
L 1875 1525 
z
M 850 4900 
Q 1325 4600 1425 4450 
Q 1525 4300 1525 4225 
Q 1525 4100 1437 3975 
Q 1350 3850 1300 3850 
Q 1225 3850 1150 4100 
Q 1050 4450 775 4850 
L 850 4900 
z
M 3000 4975 
L 3450 4675 
Q 3250 4625 3100 4425 
Q 2925 4225 2525 3825 
L 2450 3875 
Q 2925 4625 3000 4975 
z
M 1875 5250 
L 2425 5000 
L 2225 4825 
L 2225 3675 
L 2850 3675 
L 3125 3950 
L 3550 3525 
L 2225 3525 
L 2225 3300 
Q 2800 3175 2937 3062 
Q 3075 2950 3075 2775 
Q 3075 2700 3050 2587 
Q 3025 2475 2975 2475 
Q 2925 2475 2800 2650 
Q 2600 2925 2225 3175 
L 2225 2400 
L 1925 2200 
L 2275 2050 
Q 2150 2000 1950 1675 
L 2725 1675 
L 2900 1900 
L 3275 1575 
L 3050 1450 
Q 2800 875 2600 650 
Q 3000 550 3137 437 
Q 3275 325 3275 150 
Q 3275 -25 3200 -25 
Q 3125 -25 3025 75 
Q 2750 275 2400 425 
Q 1525 -275 325 -500 
L 300 -425 
Q 1450 -50 2100 550 
Q 1600 725 1125 800 
Q 1225 950 1525 1525 
L 1200 1525 
Q 875 1525 600 1450 
L 375 1675 
L 1575 1675 
Q 1675 1925 1775 2275 
L 1900 2225 
L 1900 3250 
Q 1225 2475 350 2050 
L 300 2125 
Q 1225 2775 1700 3525 
L 1250 3525 
Q 925 3525 650 3450 
L 425 3675 
L 1900 3675 
Q 1900 4575 1875 5250 
z
M 3925 3525 
Q 4050 2075 4525 1100 
Q 4925 1950 5025 3525 
L 3925 3525 
z
M 4050 5250 
L 4625 4925 
Q 4425 4850 4325 4625 
Q 4225 4400 3950 3675 
L 5375 3675 
L 5675 3975 
L 6125 3525 
L 5400 3525 
Q 5250 1675 4750 775 
Q 5325 75 6100 -100 
L 6100 -200 
Q 5625 -275 5600 -500 
Q 4950 -50 4525 525 
Q 3700 -275 2550 -650 
L 2500 -575 
Q 3650 -50 4325 800 
Q 3850 1975 3825 3375 
Q 3575 2725 3100 2150 
L 3025 2200 
Q 3625 3200 4050 5250 
z
" transform="scale(0.015625)"/>
      </defs>
      <use xlink:href="#SimSun-8fed"/>
      <use xlink:href="#SimSun-4ee3" x="100"/>
      <use xlink:href="#SimSun-6b21" x="200"/>
      <use xlink:href="#SimSun-6570" x="300"/>
     </g>
    </g>
   </g>
   <g id="matplotlib.axis_2">
    <g id="ytick_1">
     <g id="line2d_7">
      <defs>
       <path id="mb798f360a1" d="M 0 0 
L -3.5 0 
" style="stroke: #000000; stroke-width: 0.8"/>
      </defs>
      <g>
       <use xlink:href="#mb798f360a1" x="90" y="276.420338" style="stroke: #000000; stroke-width: 0.8"/>
      </g>
     </g>
     <g id="text_8">
      <!-- −0.03 -->
      <g transform="translate(35 282.139088) scale(0.16 -0.16)">
       <defs>
        <path id="SimSun-2212" transform="scale(0.015625)"/>
        <path id="SimSun-2e" d="M 800 25 
Q 650 25 537 125 
Q 425 225 425 400 
Q 425 575 537 675 
Q 650 775 800 775 
Q 950 775 1062 662 
Q 1175 550 1175 400 
Q 1175 225 1062 125 
Q 950 25 800 25 
z
" transform="scale(0.015625)"/>
       </defs>
       <use xlink:href="#SimSun-2212"/>
       <use xlink:href="#SimSun-30" x="100"/>
       <use xlink:href="#SimSun-2e" x="150"/>
       <use xlink:href="#SimSun-30" x="200"/>
       <use xlink:href="#SimSun-33" x="250"/>
      </g>
     </g>
    </g>
    <g id="ytick_2">
     <g id="line2d_8">
      <g>
       <use xlink:href="#mb798f360a1" x="90" y="207.578928" style="stroke: #000000; stroke-width: 0.8"/>
      </g>
     </g>
     <g id="text_9">
      <!-- −0.02 -->
      <g transform="translate(35 213.297678) scale(0.16 -0.16)">
       <use xlink:href="#SimSun-2212"/>
       <use xlink:href="#SimSun-30" x="100"/>
       <use xlink:href="#SimSun-2e" x="150"/>
       <use xlink:href="#SimSun-30" x="200"/>
       <use xlink:href="#SimSun-32" x="250"/>
      </g>
     </g>
    </g>
    <g id="ytick_3">
     <g id="line2d_9">
      <g>
       <use xlink:href="#mb798f360a1" x="90" y="138.737518" style="stroke: #000000; stroke-width: 0.8"/>
      </g>
     </g>
     <g id="text_10">
      <!-- −0.01 -->
      <g transform="translate(35 144.456268) scale(0.16 -0.16)">
       <use xlink:href="#SimSun-2212"/>
       <use xlink:href="#SimSun-30" x="100"/>
       <use xlink:href="#SimSun-2e" x="150"/>
       <use xlink:href="#SimSun-30" x="200"/>
       <use xlink:href="#SimSun-31" x="250"/>
      </g>
     </g>
    </g>
    <g id="ytick_4">
     <g id="line2d_10">
      <g>
       <use xlink:href="#mb798f360a1" x="90" y="69.896108" style="stroke: #000000; stroke-width: 0.8"/>
      </g>
     </g>
     <g id="text_11">
      <!-- 0.00 -->
      <g transform="translate(51 75.614858) scale(0.16 -0.16)">
       <use xlink:href="#SimSun-30"/>
       <use xlink:href="#SimSun-2e" x="50"/>
       <use xlink:href="#SimSun-30" x="100"/>
       <use xlink:href="#SimSun-30" x="150"/>
      </g>
     </g>
    </g>
    <g id="text_12">
     <!-- 损失值 -->
     <g transform="translate(28.9375 205.8) rotate(-90) scale(0.16 -0.16)">
      <defs>
       <path id="SimSun-635f" d="M 1450 3725 
Q 1450 4700 1425 5175 
L 2050 4900 
L 1800 4725 
L 1800 3725 
L 2050 3725 
L 2325 4000 
L 2750 3575 
L 1800 3575 
L 1800 2625 
L 2525 3050 
L 2575 2975 
L 1800 2400 
L 1800 50 
Q 1800 -325 1275 -550 
Q 1325 -225 575 -25 
L 575 75 
Q 1050 25 1262 12 
Q 1475 0 1450 375 
L 1450 2150 
Q 725 1650 625 1425 
L 250 1850 
Q 525 1925 1450 2475 
L 1450 3575 
L 750 3575 
L 475 3525 
L 275 3725 
L 1450 3725 
z
M 3050 3275 
Q 3075 3700 3075 4087 
Q 3075 4475 3050 4925 
L 3400 4725 
L 4975 4725 
L 5150 4925 
L 5525 4650 
L 5325 4500 
Q 5325 3850 5350 3475 
L 5000 3325 
L 5000 3550 
L 3400 3550 
L 3400 3400 
L 3050 3275 
z
M 3400 4575 
L 3400 3700 
L 5000 3700 
L 5000 4575 
L 3400 4575 
z
M 5575 2575 
Q 5575 1300 5600 825 
L 5250 700 
L 5250 2650 
L 3150 2650 
L 3150 725 
L 2800 575 
Q 2825 1175 2825 1862 
Q 2825 2550 2800 3000 
L 3150 2800 
L 5200 2800 
L 5375 3050 
L 5800 2750 
L 5575 2575 
z
M 3925 2375 
L 4500 2100 
L 4300 1950 
Q 4200 825 3650 237 
Q 3100 -350 1875 -600 
L 1850 -525 
Q 2700 -250 3175 162 
Q 3650 575 3787 1150 
Q 3925 1725 3925 2375 
z
M 4175 700 
Q 5175 375 5525 200 
Q 5875 25 5875 -187 
Q 5875 -400 5825 -475 
Q 5775 -550 5750 -550 
Q 5675 -550 5525 -375 
Q 5325 -125 4975 125 
Q 4625 375 4150 625 
L 4175 700 
z
" transform="scale(0.015625)"/>
       <path id="SimSun-5931" d="M 950 2525 
L 875 2575 
Q 1425 3600 1550 4675 
L 2125 4375 
Q 1900 4275 1700 3750 
L 3000 3750 
L 3000 4550 
Q 3000 4850 2975 5225 
L 3625 4925 
L 3375 4750 
L 3375 3750 
L 4575 3750 
L 4925 4100 
L 5425 3600 
L 3375 3600 
Q 3325 2875 3250 2325 
L 5025 2325 
L 5425 2725 
L 5975 2175 
L 3525 2175 
Q 4050 1050 4775 512 
Q 5500 -25 6075 -100 
L 6075 -200 
Q 5600 -275 5500 -550 
Q 4925 -225 4325 450 
Q 3725 1125 3400 2175 
L 3225 2175 
Q 2950 1025 2287 400 
Q 1625 -225 450 -600 
L 400 -525 
Q 1400 -100 1975 475 
Q 2550 1050 2850 2175 
L 1300 2175 
Q 975 2175 700 2100 
L 475 2325 
L 2875 2325 
Q 2975 2975 3000 3600 
L 1650 3600 
Q 1300 2925 950 2525 
z
" transform="scale(0.015625)"/>
       <path id="SimSun-503c" d="M 1525 650 
Q 1525 -225 1550 -525 
L 1175 -650 
Q 1200 250 1200 550 
L 1200 3025 
Q 750 2300 325 1850 
L 250 1900 
Q 725 2625 1100 3525 
Q 1475 4425 1675 5200 
L 2200 4875 
L 1950 4725 
Q 1550 3800 1425 3475 
L 1725 3300 
L 1525 3150 
L 1525 650 
z
M 2875 3225 
L 2875 2475 
L 4800 2475 
L 4800 3225 
L 2875 3225 
z
M 2875 2325 
L 2875 1575 
L 4800 1575 
L 4800 2325 
L 2875 2325 
z
M 2875 1425 
L 2875 675 
L 4800 675 
L 4800 1425 
L 2875 1425 
z
M 2875 525 
L 2875 -225 
L 4800 -225 
L 4800 525 
L 2875 525 
z
M 3550 4250 
Q 3575 4825 3550 5225 
L 4125 4950 
L 3925 4800 
L 3900 4250 
L 5025 4250 
L 5350 4575 
L 5825 4100 
L 3900 4100 
L 3875 3375 
L 4750 3375 
L 4975 3625 
L 5350 3300 
L 5125 3150 
L 5125 -225 
L 5350 -225 
L 5675 100 
L 6150 -375 
L 2450 -375 
Q 2125 -375 1850 -450 
L 1625 -225 
L 2550 -225 
L 2550 2550 
Q 2550 2850 2525 3575 
L 2875 3375 
L 3525 3375 
L 3550 4100 
L 2800 4100 
Q 2475 4100 2200 4025 
L 1975 4250 
L 3550 4250 
z
" transform="scale(0.015625)"/>
      </defs>
      <use xlink:href="#SimSun-635f"/>
      <use xlink:href="#SimSun-5931" x="100"/>
      <use xlink:href="#SimSun-503c" x="200"/>
     </g>
    </g>
   </g>
   <g id="line2d_11">
    <path d="M 115.363636 76.627823 
L 125.716141 307.8 
L 136.068646 61.861081 
L 146.42115 66.453987 
L 156.773655 66.456762 
L 167.12616 66.454466 
L 177.478664 66.457416 
L 187.831169 66.454197 
L 198.183673 66.454037 
L 208.536178 66.454037 
L 218.888683 66.454037 
L 229.241187 66.454037 
L 239.593692 66.454037 
L 249.946197 66.454037 
L 260.298701 66.454037 
L 270.651206 66.454037 
L 281.003711 66.454037 
L 291.356215 66.454037 
L 301.70872 66.454037 
L 312.061224 66.454037 
L 322.413729 66.454037 
L 332.766234 66.454037 
L 343.118738 66.454037 
L 353.471243 66.454037 
L 363.823748 66.454037 
L 374.176252 66.454037 
L 384.528757 66.454037 
L 394.881262 66.454037 
L 405.233766 66.454037 
L 415.586271 66.454037 
L 425.938776 66.454037 
L 436.29128 66.454037 
L 446.643785 66.454037 
L 456.996289 66.454037 
L 467.348794 66.454037 
L 477.701299 66.454037 
L 488.053803 66.454037 
L 498.406308 66.454037 
L 508.758813 66.454037 
L 519.111317 66.454037 
L 529.463822 66.454037 
L 539.816327 66.454037 
L 550.168831 66.454037 
L 560.521336 66.454037 
L 570.87384 66.454037 
L 581.226345 66.454037 
L 591.57885 66.454037 
L 601.931354 66.454037 
L 612.283859 66.454037 
L 622.636364 66.454037 
" clip-path="url(#pb3cd21c55c)" style="fill: none; stroke: #a8dadc; stroke-width: 1.5; stroke-linecap: square"/>
   </g>
   <g id="line2d_12">
    <path d="M 115.363636 75.403854 
L 125.716141 55.8 
L 136.068646 93.929127 
L 146.42115 79.49476 
L 156.773655 79.495835 
L 167.12616 79.495697 
L 177.478664 79.495697 
L 187.831169 79.495698 
L 198.183673 79.495697 
L 208.536178 79.495697 
L 218.888683 79.495697 
L 229.241187 79.495697 
L 239.593692 79.495697 
L 249.946197 79.495697 
L 260.298701 79.495697 
L 270.651206 79.495697 
L 281.003711 79.495697 
L 291.356215 79.495697 
L 301.70872 79.495697 
L 312.061224 79.495697 
L 322.413729 79.495697 
L 332.766234 79.495697 
L 343.118738 79.495697 
L 353.471243 79.495697 
L 363.823748 79.495697 
L 374.176252 79.495697 
L 384.528757 79.495697 
L 394.881262 79.495697 
L 405.233766 79.495697 
L 415.586271 79.495697 
L 425.938776 79.495697 
L 436.29128 79.495697 
L 446.643785 79.495697 
L 456.996289 79.495697 
L 467.348794 79.495697 
L 477.701299 79.495697 
L 488.053803 79.495697 
L 498.406308 79.495697 
L 508.758813 79.495697 
L 519.111317 79.495697 
L 529.463822 79.495697 
L 539.816327 79.495697 
L 550.168831 79.495697 
L 560.521336 79.495697 
L 570.87384 79.495697 
L 581.226345 79.495697 
L 591.57885 79.495697 
L 601.931354 79.495697 
L 612.283859 79.495697 
L 622.636364 79.495697 
" clip-path="url(#pb3cd21c55c)" style="fill: none; stroke: #e4c1f9; stroke-width: 1.5; stroke-linecap: square"/>
   </g>
   <g id="patch_3">
    <path d="M 90 320.4 
L 90 43.2 
" style="fill: none; stroke: #000000; stroke-width: 0.8; stroke-linejoin: miter; stroke-linecap: square"/>
   </g>
   <g id="patch_4">
    <path d="M 648 320.4 
L 648 43.2 
" style="fill: none; stroke: #000000; stroke-width: 0.8; stroke-linejoin: miter; stroke-linecap: square"/>
   </g>
   <g id="patch_5">
    <path d="M 90 320.4 
L 648 320.4 
" style="fill: none; stroke: #000000; stroke-width: 0.8; stroke-linejoin: miter; stroke-linecap: square"/>
   </g>
   <g id="patch_6">
    <path d="M 90 43.2 
L 648 43.2 
" style="fill: none; stroke: #000000; stroke-width: 0.8; stroke-linejoin: miter; stroke-linecap: square"/>
   </g>
   <g id="legend_1">
    <g id="line2d_13">
     <path d="M 508.8 275.7125 
L 524.8 275.7125 
L 540.8 275.7125 
" style="fill: none; stroke: #a8dadc; stroke-width: 1.5; stroke-linecap: square"/>
    </g>
    <g id="text_13">
     <!-- 判别器损失 -->
     <g transform="translate(553.6 281.3125) scale(0.16 -0.16)">
      <defs>
       <path id="SimSun-5224" d="M 850 4600 
Q 1600 3975 1600 3725 
Q 1600 3475 1487 3375 
Q 1375 3275 1325 3275 
Q 1225 3275 1200 3525 
Q 1125 3875 775 4550 
L 850 4600 
z
M 2025 4350 
Q 2025 4700 2000 5200 
L 2575 4975 
L 2350 4750 
L 2350 2900 
L 3100 2900 
L 3400 3200 
L 3850 2750 
L 2350 2750 
Q 2325 2275 2275 1725 
L 3225 1725 
L 3550 2050 
L 4025 1575 
L 2250 1575 
Q 2125 925 1612 337 
Q 1100 -250 300 -625 
L 250 -550 
Q 850 -150 1287 337 
Q 1725 825 1925 1575 
L 1150 1575 
Q 825 1575 550 1500 
L 325 1725 
L 1950 1725 
Q 2000 2275 2025 2750 
L 1475 2750 
Q 1150 2750 875 2675 
L 650 2900 
L 2025 2900 
L 2025 4350 
z
M 3275 4675 
L 3750 4325 
Q 3550 4250 3225 3825 
Q 2900 3375 2650 3150 
L 2575 3200 
Q 2775 3525 2987 3950 
Q 3200 4375 3275 4675 
z
M 4600 3850 
L 4600 1450 
Q 4600 1100 4625 775 
L 4250 600 
Q 4275 1400 4275 2512 
Q 4275 3625 4250 4275 
L 4800 4025 
L 4600 3850 
z
M 5400 275 
L 5400 4125 
Q 5400 4875 5375 5225 
L 5925 4975 
L 5725 4775 
L 5725 175 
Q 5750 -400 5150 -600 
Q 5100 -225 4400 -50 
L 4400 50 
Q 5000 0 5200 0 
Q 5400 0 5400 275 
z
" transform="scale(0.015625)"/>
       <path id="SimSun-522b" d="M 1375 4625 
L 1375 3400 
L 2925 3400 
L 2925 4625 
L 1375 4625 
z
M 1000 2875 
Q 1025 3400 1025 3912 
Q 1025 4425 1000 4975 
L 1425 4775 
L 2875 4775 
L 3075 5025 
L 3475 4700 
L 3250 4525 
L 3250 3675 
Q 3250 3325 3275 3075 
L 2925 2950 
L 2925 3250 
L 1375 3250 
L 1375 3000 
L 1000 2875 
z
M 2075 75 
Q 2550 -25 2675 -25 
Q 2800 -25 2900 100 
Q 3000 225 3150 1925 
L 2125 1925 
Q 2025 1075 1637 487 
Q 1250 -100 375 -550 
L 325 -475 
Q 1050 25 1375 625 
Q 1700 1225 1775 1925 
L 900 1925 
L 625 1875 
L 425 2075 
L 1775 2075 
Q 1800 2550 1775 3150 
L 2350 2900 
L 2175 2750 
Q 2150 2425 2125 2075 
L 3125 2075 
L 3350 2325 
L 3725 2000 
L 3500 1825 
Q 3375 150 3212 -137 
Q 3050 -425 2675 -550 
Q 2600 -225 2050 -25 
L 2075 75 
z
M 4050 725 
Q 4075 1600 4075 2562 
Q 4075 3525 4050 4225 
L 4600 3975 
L 4425 3800 
L 4425 1675 
Q 4425 1375 4450 950 
L 4050 725 
z
M 4300 50 
Q 4825 -25 5100 -25 
Q 5225 -25 5275 12 
Q 5325 50 5325 175 
L 5325 4375 
Q 5325 4625 5300 5150 
L 5875 4900 
L 5675 4700 
L 5675 175 
Q 5725 -400 5125 -625 
Q 4925 -225 4300 -75 
L 4300 50 
z
" transform="scale(0.015625)"/>
       <path id="SimSun-5668" d="M 1475 4625 
L 1475 3650 
L 2475 3650 
L 2475 4625 
L 1475 4625 
z
M 1125 3075 
Q 1150 3575 1150 4062 
Q 1150 4550 1125 5000 
L 1475 4775 
L 2450 4775 
L 2625 5000 
L 3025 4675 
L 2800 4525 
Q 2800 3625 2825 3350 
L 2475 3200 
L 2475 3500 
L 1475 3500 
L 1475 3250 
L 1125 3075 
z
M 5250 1200 
Q 5250 150 5275 -225 
L 4900 -375 
L 4900 25 
L 3775 25 
L 3775 -350 
L 3425 -475 
Q 3450 50 3450 562 
Q 3450 1075 3425 1550 
L 3775 1375 
L 4825 1375 
L 4875 1425 
Q 4025 1900 3600 2525 
L 2850 2525 
Q 2200 1750 1425 1375 
L 2475 1375 
L 2650 1600 
L 3025 1300 
L 2850 1150 
Q 2850 100 2875 -225 
L 2525 -350 
L 2525 25 
L 1550 25 
L 1550 -300 
L 1200 -425 
Q 1225 0 1225 475 
Q 1225 950 1225 1275 
Q 725 1100 275 1000 
L 250 1075 
Q 950 1325 1475 1662 
Q 2000 2000 2450 2525 
L 1250 2525 
Q 925 2525 650 2450 
L 425 2675 
L 2525 2675 
Q 2750 3025 2925 3400 
L 3400 3075 
Q 3150 2975 2925 2675 
L 4500 2675 
Q 4375 3025 4000 3275 
L 4050 3350 
Q 4525 3225 4650 3125 
Q 4775 3025 4775 2950 
Q 4775 2825 4650 2675 
L 5150 2675 
L 5500 3025 
L 6000 2525 
L 3750 2525 
Q 4175 2125 4737 1850 
Q 5300 1575 6125 1550 
L 6125 1450 
Q 5725 1400 5650 1100 
L 5275 1225 
L 5250 1200 
z
M 1550 1225 
L 1550 175 
L 2525 175 
L 2525 1225 
L 1550 1225 
z
M 3775 1225 
L 3775 175 
L 4900 175 
L 4900 1225 
L 3775 1225 
z
M 3925 4625 
L 3925 3650 
L 4900 3650 
L 4900 4625 
L 3925 4625 
z
M 3575 3200 
Q 3600 3650 3600 4112 
Q 3600 4575 3575 5000 
L 3925 4775 
L 4875 4775 
L 5050 5000 
L 5425 4700 
L 5225 4525 
Q 5225 3700 5250 3375 
L 4900 3250 
L 4900 3500 
L 3925 3500 
L 3925 3325 
L 3575 3200 
z
" transform="scale(0.015625)"/>
      </defs>
      <use xlink:href="#SimSun-5224"/>
      <use xlink:href="#SimSun-522b" x="100"/>
      <use xlink:href="#SimSun-5668" x="200"/>
      <use xlink:href="#SimSun-635f" x="300"/>
      <use xlink:href="#SimSun-5931" x="400"/>
     </g>
    </g>
    <g id="line2d_14">
     <path d="M 508.8 298.3375 
L 524.8 298.3375 
L 540.8 298.3375 
" style="fill: none; stroke: #e4c1f9; stroke-width: 1.5; stroke-linecap: square"/>
    </g>
    <g id="text_14">
     <!-- 生成器损失 -->
     <g transform="translate(553.6 303.9375) scale(0.16 -0.16)">
      <defs>
       <path id="SimSun-751f" d="M 1575 4825 
L 2150 4500 
Q 1900 4375 1550 3575 
L 3025 3575 
Q 3025 4725 3000 5250 
L 3600 5000 
L 3400 4825 
L 3400 3575 
L 4825 3575 
L 5200 3950 
L 5675 3425 
L 3400 3425 
L 3400 1875 
L 4525 1875 
L 4925 2250 
L 5375 1725 
L 3400 1725 
L 3400 -75 
L 5200 -75 
L 5600 325 
L 6100 -225 
L 1125 -225 
Q 800 -225 525 -300 
L 300 -75 
L 3025 -75 
L 3025 1725 
L 2075 1725 
Q 1750 1725 1475 1650 
L 1250 1875 
L 3025 1875 
L 3025 3425 
L 1500 3425 
Q 925 2350 475 1900 
L 400 1950 
Q 825 2600 1125 3375 
Q 1425 4150 1575 4825 
z
" transform="scale(0.015625)"/>
       <path id="SimSun-6210" d="M 4325 5075 
Q 4850 4775 5025 4612 
Q 5200 4450 5162 4287 
Q 5125 4125 5025 4062 
Q 4925 4000 4900 4000 
Q 4800 4000 4750 4200 
Q 4675 4475 4250 5000 
L 4325 5075 
z
M 5625 100 
L 5925 1175 
L 6025 1150 
Q 5925 375 5925 125 
Q 5925 -125 6050 -350 
Q 6100 -450 6000 -450 
Q 5825 -450 5350 -275 
Q 4875 -100 4250 675 
Q 3475 -125 2550 -525 
L 2525 -425 
Q 3525 225 4050 950 
Q 3550 1875 3400 3650 
L 1425 3650 
L 1400 2450 
L 2550 2450 
L 2775 2700 
L 3150 2350 
L 2925 2175 
Q 2850 675 2725 437 
Q 2600 200 2250 50 
Q 2175 400 1575 625 
L 1575 725 
Q 2050 650 2237 625 
Q 2425 600 2475 837 
Q 2525 1075 2575 2300 
L 1400 2300 
Q 1325 225 350 -600 
L 300 -525 
Q 950 400 987 1462 
Q 1025 2525 1025 3075 
Q 1025 3625 1000 4025 
L 1450 3800 
L 3375 3800 
Q 3300 4625 3250 5150 
L 3900 4900 
L 3725 4700 
Q 3725 4300 3775 3800 
L 5150 3800 
L 5500 4150 
L 6000 3650 
L 3775 3650 
Q 3925 2000 4300 1325 
Q 4500 1625 4700 2100 
Q 4900 2575 5100 3175 
L 5625 2775 
L 5400 2650 
Q 4975 1625 4525 975 
Q 5050 350 5625 100 
z
" transform="scale(0.015625)"/>
      </defs>
      <use xlink:href="#SimSun-751f"/>
      <use xlink:href="#SimSun-6210" x="100"/>
      <use xlink:href="#SimSun-5668" x="200"/>
      <use xlink:href="#SimSun-635f" x="300"/>
      <use xlink:href="#SimSun-5931" x="400"/>
     </g>
    </g>
   </g>
  </g>
 </g>
 <defs>
  <clipPath id="pb3cd21c55c">
   <rect x="90" y="43.2" width="558" height="277.2"/>
  </clipPath>
 </defs>
</svg>
