<?xml version="1.0" encoding="utf-8" standalone="no"?>
<!DOCTYPE svg PUBLIC "-//W3C//DTD SVG 1.1//EN"
  "http://www.w3.org/Graphics/SVG/1.1/DTD/svg11.dtd">
<svg xmlns:xlink="http://www.w3.org/1999/xlink" width="570.775205pt" height="567.477812pt" viewBox="0 0 570.775205 567.477812" xmlns="http://www.w3.org/2000/svg" version="1.1">
 <metadata>
  <rdf:RDF xmlns:dc="http://purl.org/dc/elements/1.1/" xmlns:cc="http://creativecommons.org/ns#" xmlns:rdf="http://www.w3.org/1999/02/22-rdf-syntax-ns#">
   <cc:Work>
    <dc:type rdf:resource="http://purl.org/dc/dcmitype/StillImage"/>
    <dc:date>2024-10-04T13:51:07.449492</dc:date>
    <dc:format>image/svg+xml</dc:format>
    <dc:creator>
     <cc:Agent>
      <dc:title>Matplotlib v3.7.1, https://matplotlib.org/</dc:title>
     </cc:Agent>
    </dc:creator>
   </cc:Work>
  </rdf:RDF>
 </metadata>
 <defs>
  <style type="text/css">*{stroke-linejoin: round; stroke-linecap: butt}</style>
 </defs>
 <g id="figure_1">
  <g id="patch_1">
   <path d="M 0 567.477812 
L 570.775205 567.477812 
L 570.775205 0 
L 0 0 
z
" style="fill: #ffffff"/>
  </g>
  <g id="axes_1">
   <g id="patch_2">
    <path d="M 48.90125 527.985937 
L 561.92625 527.985937 
L 561.92625 21.129687 
L 48.90125 21.129687 
z
" style="fill: #ffffff"/>
   </g>
   <g id="matplotlib.axis_1">
    <g id="xtick_1">
     <g id="line2d_1">
      <defs>
       <path id="mfe54aef1cf" d="M 0 0 
L 0 3.5 
" style="stroke: #000000; stroke-width: 0.8"/>
      </defs>
      <g>
       <use xlink:href="#mfe54aef1cf" x="110.182699" y="527.985937" style="stroke: #000000; stroke-width: 0.8"/>
      </g>
     </g>
     <g id="text_1">
      <!-- 1500 -->
      <g transform="translate(97.457699 542.584375) scale(0.1 -0.1)">
       <defs>
        <path id="DejaVuSans-31" d="M 794 531 
L 1825 531 
L 1825 4091 
L 703 3866 
L 703 4441 
L 1819 4666 
L 2450 4666 
L 2450 531 
L 3481 531 
L 3481 0 
L 794 0 
L 794 531 
z
" transform="scale(0.015625)"/>
        <path id="DejaVuSans-35" d="M 691 4666 
L 3169 4666 
L 3169 4134 
L 1269 4134 
L 1269 2991 
Q 1406 3038 1543 3061 
Q 1681 3084 1819 3084 
Q 2600 3084 3056 2656 
Q 3513 2228 3513 1497 
Q 3513 744 3044 326 
Q 2575 -91 1722 -91 
Q 1428 -91 1123 -41 
Q 819 9 494 109 
L 494 744 
Q 775 591 1075 516 
Q 1375 441 1709 441 
Q 2250 441 2565 725 
Q 2881 1009 2881 1497 
Q 2881 1984 2565 2268 
Q 2250 2553 1709 2553 
Q 1456 2553 1204 2497 
Q 953 2441 691 2322 
L 691 4666 
z
" transform="scale(0.015625)"/>
        <path id="DejaVuSans-30" d="M 2034 4250 
Q 1547 4250 1301 3770 
Q 1056 3291 1056 2328 
Q 1056 1369 1301 889 
Q 1547 409 2034 409 
Q 2525 409 2770 889 
Q 3016 1369 3016 2328 
Q 3016 3291 2770 3770 
Q 2525 4250 2034 4250 
z
M 2034 4750 
Q 2819 4750 3233 4129 
Q 3647 3509 3647 2328 
Q 3647 1150 3233 529 
Q 2819 -91 2034 -91 
Q 1250 -91 836 529 
Q 422 1150 422 2328 
Q 422 3509 836 4129 
Q 1250 4750 2034 4750 
z
" transform="scale(0.015625)"/>
       </defs>
       <use xlink:href="#DejaVuSans-31"/>
       <use xlink:href="#DejaVuSans-35" x="63.623047"/>
       <use xlink:href="#DejaVuSans-30" x="127.246094"/>
       <use xlink:href="#DejaVuSans-30" x="190.869141"/>
      </g>
     </g>
    </g>
    <g id="xtick_2">
     <g id="line2d_2">
      <g>
       <use xlink:href="#mfe54aef1cf" x="207.01005" y="527.985937" style="stroke: #000000; stroke-width: 0.8"/>
      </g>
     </g>
     <g id="text_2">
      <!-- 2000 -->
      <g transform="translate(194.28505 542.584375) scale(0.1 -0.1)">
       <defs>
        <path id="DejaVuSans-32" d="M 1228 531 
L 3431 531 
L 3431 0 
L 469 0 
L 469 531 
Q 828 903 1448 1529 
Q 2069 2156 2228 2338 
Q 2531 2678 2651 2914 
Q 2772 3150 2772 3378 
Q 2772 3750 2511 3984 
Q 2250 4219 1831 4219 
Q 1534 4219 1204 4116 
Q 875 4013 500 3803 
L 500 4441 
Q 881 4594 1212 4672 
Q 1544 4750 1819 4750 
Q 2544 4750 2975 4387 
Q 3406 4025 3406 3419 
Q 3406 3131 3298 2873 
Q 3191 2616 2906 2266 
Q 2828 2175 2409 1742 
Q 1991 1309 1228 531 
z
" transform="scale(0.015625)"/>
       </defs>
       <use xlink:href="#DejaVuSans-32"/>
       <use xlink:href="#DejaVuSans-30" x="63.623047"/>
       <use xlink:href="#DejaVuSans-30" x="127.246094"/>
       <use xlink:href="#DejaVuSans-30" x="190.869141"/>
      </g>
     </g>
    </g>
    <g id="xtick_3">
     <g id="line2d_3">
      <g>
       <use xlink:href="#mfe54aef1cf" x="303.837401" y="527.985937" style="stroke: #000000; stroke-width: 0.8"/>
      </g>
     </g>
     <g id="text_3">
      <!-- 2500 -->
      <g transform="translate(291.112401 542.584375) scale(0.1 -0.1)">
       <use xlink:href="#DejaVuSans-32"/>
       <use xlink:href="#DejaVuSans-35" x="63.623047"/>
       <use xlink:href="#DejaVuSans-30" x="127.246094"/>
       <use xlink:href="#DejaVuSans-30" x="190.869141"/>
      </g>
     </g>
    </g>
    <g id="xtick_4">
     <g id="line2d_4">
      <g>
       <use xlink:href="#mfe54aef1cf" x="400.664751" y="527.985937" style="stroke: #000000; stroke-width: 0.8"/>
      </g>
     </g>
     <g id="text_4">
      <!-- 3000 -->
      <g transform="translate(387.939751 542.584375) scale(0.1 -0.1)">
       <defs>
        <path id="DejaVuSans-33" d="M 2597 2516 
Q 3050 2419 3304 2112 
Q 3559 1806 3559 1356 
Q 3559 666 3084 287 
Q 2609 -91 1734 -91 
Q 1441 -91 1130 -33 
Q 819 25 488 141 
L 488 750 
Q 750 597 1062 519 
Q 1375 441 1716 441 
Q 2309 441 2620 675 
Q 2931 909 2931 1356 
Q 2931 1769 2642 2001 
Q 2353 2234 1838 2234 
L 1294 2234 
L 1294 2753 
L 1863 2753 
Q 2328 2753 2575 2939 
Q 2822 3125 2822 3475 
Q 2822 3834 2567 4026 
Q 2313 4219 1838 4219 
Q 1578 4219 1281 4162 
Q 984 4106 628 3988 
L 628 4550 
Q 988 4650 1302 4700 
Q 1616 4750 1894 4750 
Q 2613 4750 3031 4423 
Q 3450 4097 3450 3541 
Q 3450 3153 3228 2886 
Q 3006 2619 2597 2516 
z
" transform="scale(0.015625)"/>
       </defs>
       <use xlink:href="#DejaVuSans-33"/>
       <use xlink:href="#DejaVuSans-30" x="63.623047"/>
       <use xlink:href="#DejaVuSans-30" x="127.246094"/>
       <use xlink:href="#DejaVuSans-30" x="190.869141"/>
      </g>
     </g>
    </g>
    <g id="xtick_5">
     <g id="line2d_5">
      <g>
       <use xlink:href="#mfe54aef1cf" x="497.492102" y="527.985937" style="stroke: #000000; stroke-width: 0.8"/>
      </g>
     </g>
     <g id="text_5">
      <!-- 3500 -->
      <g transform="translate(484.767102 542.584375) scale(0.1 -0.1)">
       <use xlink:href="#DejaVuSans-33"/>
       <use xlink:href="#DejaVuSans-35" x="63.623047"/>
       <use xlink:href="#DejaVuSans-30" x="127.246094"/>
       <use xlink:href="#DejaVuSans-30" x="190.869141"/>
      </g>
     </g>
    </g>
    <g id="text_6">
     <!-- Carlos Alcaraz -->
     <g transform="translate(262.670313 557.782187) scale(0.12 -0.12)">
      <defs>
       <path id="DejaVuSans-43" d="M 4122 4306 
L 4122 3641 
Q 3803 3938 3442 4084 
Q 3081 4231 2675 4231 
Q 1875 4231 1450 3742 
Q 1025 3253 1025 2328 
Q 1025 1406 1450 917 
Q 1875 428 2675 428 
Q 3081 428 3442 575 
Q 3803 722 4122 1019 
L 4122 359 
Q 3791 134 3420 21 
Q 3050 -91 2638 -91 
Q 1578 -91 968 557 
Q 359 1206 359 2328 
Q 359 3453 968 4101 
Q 1578 4750 2638 4750 
Q 3056 4750 3426 4639 
Q 3797 4528 4122 4306 
z
" transform="scale(0.015625)"/>
       <path id="DejaVuSans-61" d="M 2194 1759 
Q 1497 1759 1228 1600 
Q 959 1441 959 1056 
Q 959 750 1161 570 
Q 1363 391 1709 391 
Q 2188 391 2477 730 
Q 2766 1069 2766 1631 
L 2766 1759 
L 2194 1759 
z
M 3341 1997 
L 3341 0 
L 2766 0 
L 2766 531 
Q 2569 213 2275 61 
Q 1981 -91 1556 -91 
Q 1019 -91 701 211 
Q 384 513 384 1019 
Q 384 1609 779 1909 
Q 1175 2209 1959 2209 
L 2766 2209 
L 2766 2266 
Q 2766 2663 2505 2880 
Q 2244 3097 1772 3097 
Q 1472 3097 1187 3025 
Q 903 2953 641 2809 
L 641 3341 
Q 956 3463 1253 3523 
Q 1550 3584 1831 3584 
Q 2591 3584 2966 3190 
Q 3341 2797 3341 1997 
z
" transform="scale(0.015625)"/>
       <path id="DejaVuSans-72" d="M 2631 2963 
Q 2534 3019 2420 3045 
Q 2306 3072 2169 3072 
Q 1681 3072 1420 2755 
Q 1159 2438 1159 1844 
L 1159 0 
L 581 0 
L 581 3500 
L 1159 3500 
L 1159 2956 
Q 1341 3275 1631 3429 
Q 1922 3584 2338 3584 
Q 2397 3584 2469 3576 
Q 2541 3569 2628 3553 
L 2631 2963 
z
" transform="scale(0.015625)"/>
       <path id="DejaVuSans-6c" d="M 603 4863 
L 1178 4863 
L 1178 0 
L 603 0 
L 603 4863 
z
" transform="scale(0.015625)"/>
       <path id="DejaVuSans-6f" d="M 1959 3097 
Q 1497 3097 1228 2736 
Q 959 2375 959 1747 
Q 959 1119 1226 758 
Q 1494 397 1959 397 
Q 2419 397 2687 759 
Q 2956 1122 2956 1747 
Q 2956 2369 2687 2733 
Q 2419 3097 1959 3097 
z
M 1959 3584 
Q 2709 3584 3137 3096 
Q 3566 2609 3566 1747 
Q 3566 888 3137 398 
Q 2709 -91 1959 -91 
Q 1206 -91 779 398 
Q 353 888 353 1747 
Q 353 2609 779 3096 
Q 1206 3584 1959 3584 
z
" transform="scale(0.015625)"/>
       <path id="DejaVuSans-73" d="M 2834 3397 
L 2834 2853 
Q 2591 2978 2328 3040 
Q 2066 3103 1784 3103 
Q 1356 3103 1142 2972 
Q 928 2841 928 2578 
Q 928 2378 1081 2264 
Q 1234 2150 1697 2047 
L 1894 2003 
Q 2506 1872 2764 1633 
Q 3022 1394 3022 966 
Q 3022 478 2636 193 
Q 2250 -91 1575 -91 
Q 1294 -91 989 -36 
Q 684 19 347 128 
L 347 722 
Q 666 556 975 473 
Q 1284 391 1588 391 
Q 1994 391 2212 530 
Q 2431 669 2431 922 
Q 2431 1156 2273 1281 
Q 2116 1406 1581 1522 
L 1381 1569 
Q 847 1681 609 1914 
Q 372 2147 372 2553 
Q 372 3047 722 3315 
Q 1072 3584 1716 3584 
Q 2034 3584 2315 3537 
Q 2597 3491 2834 3397 
z
" transform="scale(0.015625)"/>
       <path id="DejaVuSans-20" transform="scale(0.015625)"/>
       <path id="DejaVuSans-41" d="M 2188 4044 
L 1331 1722 
L 3047 1722 
L 2188 4044 
z
M 1831 4666 
L 2547 4666 
L 4325 0 
L 3669 0 
L 3244 1197 
L 1141 1197 
L 716 0 
L 50 0 
L 1831 4666 
z
" transform="scale(0.015625)"/>
       <path id="DejaVuSans-63" d="M 3122 3366 
L 3122 2828 
Q 2878 2963 2633 3030 
Q 2388 3097 2138 3097 
Q 1578 3097 1268 2742 
Q 959 2388 959 1747 
Q 959 1106 1268 751 
Q 1578 397 2138 397 
Q 2388 397 2633 464 
Q 2878 531 3122 666 
L 3122 134 
Q 2881 22 2623 -34 
Q 2366 -91 2075 -91 
Q 1284 -91 818 406 
Q 353 903 353 1747 
Q 353 2603 823 3093 
Q 1294 3584 2113 3584 
Q 2378 3584 2631 3529 
Q 2884 3475 3122 3366 
z
" transform="scale(0.015625)"/>
       <path id="DejaVuSans-7a" d="M 353 3500 
L 3084 3500 
L 3084 2975 
L 922 459 
L 3084 459 
L 3084 0 
L 275 0 
L 275 525 
L 2438 3041 
L 353 3041 
L 353 3500 
z
" transform="scale(0.015625)"/>
      </defs>
      <use xlink:href="#DejaVuSans-43"/>
      <use xlink:href="#DejaVuSans-61" x="69.824219"/>
      <use xlink:href="#DejaVuSans-72" x="131.103516"/>
      <use xlink:href="#DejaVuSans-6c" x="172.216797"/>
      <use xlink:href="#DejaVuSans-6f" x="200"/>
      <use xlink:href="#DejaVuSans-73" x="261.181641"/>
      <use xlink:href="#DejaVuSans-20" x="313.28125"/>
      <use xlink:href="#DejaVuSans-41" x="345.068359"/>
      <use xlink:href="#DejaVuSans-6c" x="413.476562"/>
      <use xlink:href="#DejaVuSans-63" x="441.259766"/>
      <use xlink:href="#DejaVuSans-61" x="496.240234"/>
      <use xlink:href="#DejaVuSans-72" x="557.519531"/>
      <use xlink:href="#DejaVuSans-61" x="598.632812"/>
      <use xlink:href="#DejaVuSans-7a" x="659.912109"/>
     </g>
    </g>
   </g>
   <g id="matplotlib.axis_2">
    <g id="ytick_1">
     <g id="line2d_6">
      <defs>
       <path id="m70343854f9" d="M 0 0 
L -3.5 0 
" style="stroke: #000000; stroke-width: 0.8"/>
      </defs>
      <g>
       <use xlink:href="#m70343854f9" x="48.90125" y="495.382441" style="stroke: #000000; stroke-width: 0.8"/>
      </g>
     </g>
     <g id="text_7">
      <!-- 200 -->
      <g transform="translate(22.81375 499.181659) scale(0.1 -0.1)">
       <use xlink:href="#DejaVuSans-32"/>
       <use xlink:href="#DejaVuSans-30" x="63.623047"/>
       <use xlink:href="#DejaVuSans-30" x="127.246094"/>
      </g>
     </g>
    </g>
    <g id="ytick_2">
     <g id="line2d_7">
      <g>
       <use xlink:href="#m70343854f9" x="48.90125" y="424.847216" style="stroke: #000000; stroke-width: 0.8"/>
      </g>
     </g>
     <g id="text_8">
      <!-- 300 -->
      <g transform="translate(22.81375 428.646435) scale(0.1 -0.1)">
       <use xlink:href="#DejaVuSans-33"/>
       <use xlink:href="#DejaVuSans-30" x="63.623047"/>
       <use xlink:href="#DejaVuSans-30" x="127.246094"/>
      </g>
     </g>
    </g>
    <g id="ytick_3">
     <g id="line2d_8">
      <g>
       <use xlink:href="#m70343854f9" x="48.90125" y="354.311991" style="stroke: #000000; stroke-width: 0.8"/>
      </g>
     </g>
     <g id="text_9">
      <!-- 400 -->
      <g transform="translate(22.81375 358.11121) scale(0.1 -0.1)">
       <defs>
        <path id="DejaVuSans-34" d="M 2419 4116 
L 825 1625 
L 2419 1625 
L 2419 4116 
z
M 2253 4666 
L 3047 4666 
L 3047 1625 
L 3713 1625 
L 3713 1100 
L 3047 1100 
L 3047 0 
L 2419 0 
L 2419 1100 
L 313 1100 
L 313 1709 
L 2253 4666 
z
" transform="scale(0.015625)"/>
       </defs>
       <use xlink:href="#DejaVuSans-34"/>
       <use xlink:href="#DejaVuSans-30" x="63.623047"/>
       <use xlink:href="#DejaVuSans-30" x="127.246094"/>
      </g>
     </g>
    </g>
    <g id="ytick_4">
     <g id="line2d_9">
      <g>
       <use xlink:href="#m70343854f9" x="48.90125" y="283.776766" style="stroke: #000000; stroke-width: 0.8"/>
      </g>
     </g>
     <g id="text_10">
      <!-- 500 -->
      <g transform="translate(22.81375 287.575985) scale(0.1 -0.1)">
       <use xlink:href="#DejaVuSans-35"/>
       <use xlink:href="#DejaVuSans-30" x="63.623047"/>
       <use xlink:href="#DejaVuSans-30" x="127.246094"/>
      </g>
     </g>
    </g>
    <g id="ytick_5">
     <g id="line2d_10">
      <g>
       <use xlink:href="#m70343854f9" x="48.90125" y="213.241542" style="stroke: #000000; stroke-width: 0.8"/>
      </g>
     </g>
     <g id="text_11">
      <!-- 600 -->
      <g transform="translate(22.81375 217.04076) scale(0.1 -0.1)">
       <defs>
        <path id="DejaVuSans-36" d="M 2113 2584 
Q 1688 2584 1439 2293 
Q 1191 2003 1191 1497 
Q 1191 994 1439 701 
Q 1688 409 2113 409 
Q 2538 409 2786 701 
Q 3034 994 3034 1497 
Q 3034 2003 2786 2293 
Q 2538 2584 2113 2584 
z
M 3366 4563 
L 3366 3988 
Q 3128 4100 2886 4159 
Q 2644 4219 2406 4219 
Q 1781 4219 1451 3797 
Q 1122 3375 1075 2522 
Q 1259 2794 1537 2939 
Q 1816 3084 2150 3084 
Q 2853 3084 3261 2657 
Q 3669 2231 3669 1497 
Q 3669 778 3244 343 
Q 2819 -91 2113 -91 
Q 1303 -91 875 529 
Q 447 1150 447 2328 
Q 447 3434 972 4092 
Q 1497 4750 2381 4750 
Q 2619 4750 2861 4703 
Q 3103 4656 3366 4563 
z
" transform="scale(0.015625)"/>
       </defs>
       <use xlink:href="#DejaVuSans-36"/>
       <use xlink:href="#DejaVuSans-30" x="63.623047"/>
       <use xlink:href="#DejaVuSans-30" x="127.246094"/>
      </g>
     </g>
    </g>
    <g id="ytick_6">
     <g id="line2d_11">
      <g>
       <use xlink:href="#m70343854f9" x="48.90125" y="142.706317" style="stroke: #000000; stroke-width: 0.8"/>
      </g>
     </g>
     <g id="text_12">
      <!-- 700 -->
      <g transform="translate(22.81375 146.505536) scale(0.1 -0.1)">
       <defs>
        <path id="DejaVuSans-37" d="M 525 4666 
L 3525 4666 
L 3525 4397 
L 1831 0 
L 1172 0 
L 2766 4134 
L 525 4134 
L 525 4666 
z
" transform="scale(0.015625)"/>
       </defs>
       <use xlink:href="#DejaVuSans-37"/>
       <use xlink:href="#DejaVuSans-30" x="63.623047"/>
       <use xlink:href="#DejaVuSans-30" x="127.246094"/>
      </g>
     </g>
    </g>
    <g id="ytick_7">
     <g id="line2d_12">
      <g>
       <use xlink:href="#m70343854f9" x="48.90125" y="72.171092" style="stroke: #000000; stroke-width: 0.8"/>
      </g>
     </g>
     <g id="text_13">
      <!-- 800 -->
      <g transform="translate(22.81375 75.970311) scale(0.1 -0.1)">
       <defs>
        <path id="DejaVuSans-38" d="M 2034 2216 
Q 1584 2216 1326 1975 
Q 1069 1734 1069 1313 
Q 1069 891 1326 650 
Q 1584 409 2034 409 
Q 2484 409 2743 651 
Q 3003 894 3003 1313 
Q 3003 1734 2745 1975 
Q 2488 2216 2034 2216 
z
M 1403 2484 
Q 997 2584 770 2862 
Q 544 3141 544 3541 
Q 544 4100 942 4425 
Q 1341 4750 2034 4750 
Q 2731 4750 3128 4425 
Q 3525 4100 3525 3541 
Q 3525 3141 3298 2862 
Q 3072 2584 2669 2484 
Q 3125 2378 3379 2068 
Q 3634 1759 3634 1313 
Q 3634 634 3220 271 
Q 2806 -91 2034 -91 
Q 1263 -91 848 271 
Q 434 634 434 1313 
Q 434 1759 690 2068 
Q 947 2378 1403 2484 
z
M 1172 3481 
Q 1172 3119 1398 2916 
Q 1625 2713 2034 2713 
Q 2441 2713 2670 2916 
Q 2900 3119 2900 3481 
Q 2900 3844 2670 4047 
Q 2441 4250 2034 4250 
Q 1625 4250 1398 4047 
Q 1172 3844 1172 3481 
z
" transform="scale(0.015625)"/>
       </defs>
       <use xlink:href="#DejaVuSans-38"/>
       <use xlink:href="#DejaVuSans-30" x="63.623047"/>
       <use xlink:href="#DejaVuSans-30" x="127.246094"/>
      </g>
     </g>
    </g>
    <g id="text_14">
     <!-- Novak Djokovic -->
     <g transform="translate(16.318125 320.730625) rotate(-90) scale(0.12 -0.12)">
      <defs>
       <path id="DejaVuSans-4e" d="M 628 4666 
L 1478 4666 
L 3547 763 
L 3547 4666 
L 4159 4666 
L 4159 0 
L 3309 0 
L 1241 3903 
L 1241 0 
L 628 0 
L 628 4666 
z
" transform="scale(0.015625)"/>
       <path id="DejaVuSans-76" d="M 191 3500 
L 800 3500 
L 1894 563 
L 2988 3500 
L 3597 3500 
L 2284 0 
L 1503 0 
L 191 3500 
z
" transform="scale(0.015625)"/>
       <path id="DejaVuSans-6b" d="M 581 4863 
L 1159 4863 
L 1159 1991 
L 2875 3500 
L 3609 3500 
L 1753 1863 
L 3688 0 
L 2938 0 
L 1159 1709 
L 1159 0 
L 581 0 
L 581 4863 
z
" transform="scale(0.015625)"/>
       <path id="DejaVuSans-44" d="M 1259 4147 
L 1259 519 
L 2022 519 
Q 2988 519 3436 956 
Q 3884 1394 3884 2338 
Q 3884 3275 3436 3711 
Q 2988 4147 2022 4147 
L 1259 4147 
z
M 628 4666 
L 1925 4666 
Q 3281 4666 3915 4102 
Q 4550 3538 4550 2338 
Q 4550 1131 3912 565 
Q 3275 0 1925 0 
L 628 0 
L 628 4666 
z
" transform="scale(0.015625)"/>
       <path id="DejaVuSans-6a" d="M 603 3500 
L 1178 3500 
L 1178 -63 
Q 1178 -731 923 -1031 
Q 669 -1331 103 -1331 
L -116 -1331 
L -116 -844 
L 38 -844 
Q 366 -844 484 -692 
Q 603 -541 603 -63 
L 603 3500 
z
M 603 4863 
L 1178 4863 
L 1178 4134 
L 603 4134 
L 603 4863 
z
" transform="scale(0.015625)"/>
       <path id="DejaVuSans-69" d="M 603 3500 
L 1178 3500 
L 1178 0 
L 603 0 
L 603 3500 
z
M 603 4863 
L 1178 4863 
L 1178 4134 
L 603 4134 
L 603 4863 
z
" transform="scale(0.015625)"/>
      </defs>
      <use xlink:href="#DejaVuSans-4e"/>
      <use xlink:href="#DejaVuSans-6f" x="74.804688"/>
      <use xlink:href="#DejaVuSans-76" x="135.986328"/>
      <use xlink:href="#DejaVuSans-61" x="195.166016"/>
      <use xlink:href="#DejaVuSans-6b" x="256.445312"/>
      <use xlink:href="#DejaVuSans-20" x="314.355469"/>
      <use xlink:href="#DejaVuSans-44" x="346.142578"/>
      <use xlink:href="#DejaVuSans-6a" x="423.144531"/>
      <use xlink:href="#DejaVuSans-6f" x="450.927734"/>
      <use xlink:href="#DejaVuSans-6b" x="512.109375"/>
      <use xlink:href="#DejaVuSans-6f" x="566.394531"/>
      <use xlink:href="#DejaVuSans-76" x="627.576172"/>
      <use xlink:href="#DejaVuSans-69" x="686.755859"/>
      <use xlink:href="#DejaVuSans-63" x="714.539062"/>
     </g>
    </g>
   </g>
   <g id="line2d_13">
    <defs>
     <path id="m4ce5e36582" d="M 0 4 
C 1.060812 4 2.078319 3.578535 2.828427 2.828427 
C 3.578535 2.078319 4 1.060812 4 0 
C 4 -1.060812 3.578535 -2.078319 2.828427 -2.828427 
C 2.078319 -3.578535 1.060812 -4 0 -4 
C -1.060812 -4 -2.078319 -3.578535 -2.828427 -2.828427 
C -3.578535 -2.078319 -4 -1.060812 -4 0 
C -4 1.060812 -3.578535 2.078319 -2.828427 2.828427 
C -2.078319 3.578535 -1.060812 4 0 4 
z
" style="stroke: #000000"/>
    </defs>
    <g clip-path="url(#p5687ae5e2e)">
     <use xlink:href="#m4ce5e36582" x="392.761703" y="120.988521" style="fill: #c06c84; stroke: #000000"/>
     <use xlink:href="#m4ce5e36582" x="296.046672" y="286.972012" style="fill: #c06c84; stroke: #000000"/>
     <use xlink:href="#m4ce5e36582" x="109.336428" y="272.561666" style="fill: #c06c84; stroke: #000000"/>
     <use xlink:href="#m4ce5e36582" x="92.043063" y="299.456747" style="fill: #c06c84; stroke: #000000"/>
     <use xlink:href="#m4ce5e36582" x="72.220568" y="266.64376" style="fill: #c06c84; stroke: #000000"/>
     <use xlink:href="#m4ce5e36582" x="154.885951" y="245.75828" style="fill: #c06c84; stroke: #000000"/>
     <use xlink:href="#m4ce5e36582" x="122.162179" y="289.123336" style="fill: #c06c84; stroke: #000000"/>
     <use xlink:href="#m4ce5e36582" x="92.775078" y="276.222444" style="fill: #c06c84; stroke: #000000"/>
     <use xlink:href="#m4ce5e36582" x="538.606932" y="247.987193" style="fill: #c06c84; stroke: #000000"/>
     <use xlink:href="#m4ce5e36582" x="247.208893" y="319.488751" style="fill: #c06c84; stroke: #000000"/>
     <use xlink:href="#m4ce5e36582" x="328.849842" y="243.345976" style="fill: #c06c84; stroke: #000000"/>
     <use xlink:href="#m4ce5e36582" x="176.950967" y="332.946872" style="fill: #c06c84; stroke: #000000"/>
     <use xlink:href="#m4ce5e36582" x="344.400314" y="334.484539" style="fill: #c06c84; stroke: #000000"/>
     <use xlink:href="#m4ce5e36582" x="122.533996" y="422.27268" style="fill: #c06c84; stroke: #000000"/>
     <use xlink:href="#m4ce5e36582" x="144.217513" y="203.84625" style="fill: #c06c84; stroke: #000000"/>
     <use xlink:href="#m4ce5e36582" x="96.171782" y="331.888843" style="fill: #c06c84; stroke: #000000"/>
     <use xlink:href="#m4ce5e36582" x="195.822618" y="275.122094" style="fill: #c06c84; stroke: #000000"/>
     <use xlink:href="#m4ce5e36582" x="165.070251" y="275.397182" style="fill: #c06c84; stroke: #000000"/>
     <use xlink:href="#m4ce5e36582" x="411.348681" y="387.301316" style="fill: #c06c84; stroke: #000000"/>
     <use xlink:href="#m4ce5e36582" x="213.569135" y="424.268827" style="fill: #c06c84; stroke: #000000"/>
     <use xlink:href="#m4ce5e36582" x="218.214911" y="504.947017" style="fill: #c06c84; stroke: #000000"/>
     <use xlink:href="#m4ce5e36582" x="265.743584" y="220.302118" style="fill: #c06c84; stroke: #000000"/>
     <use xlink:href="#m4ce5e36582" x="202.029251" y="278.303233" style="fill: #c06c84; stroke: #000000"/>
     <use xlink:href="#m4ce5e36582" x="143.84376" y="327.684944" style="fill: #c06c84; stroke: #000000"/>
     <use xlink:href="#m4ce5e36582" x="244.627476" y="257.67168" style="fill: #c06c84; stroke: #000000"/>
     <use xlink:href="#m4ce5e36582" x="332.229117" y="44.168608" style="fill: #c06c84; stroke: #000000"/>
     <use xlink:href="#m4ce5e36582" x="104.94434" y="360.73775" style="fill: #c06c84; stroke: #000000"/>
     <use xlink:href="#m4ce5e36582" x="115.13445" y="302.835384" style="fill: #c06c84; stroke: #000000"/>
     <use xlink:href="#m4ce5e36582" x="140.139145" y="327.670837" style="fill: #c06c84; stroke: #000000"/>
     <use xlink:href="#m4ce5e36582" x="86.064943" y="297.256048" style="fill: #c06c84; stroke: #000000"/>
     <use xlink:href="#m4ce5e36582" x="131.256204" y="258.348818" style="fill: #c06c84; stroke: #000000"/>
    </g>
   </g>
   <g id="patch_3">
    <path d="M 48.90125 527.985937 
L 48.90125 21.129687 
" style="fill: none; stroke: #000000; stroke-width: 0.8; stroke-linejoin: miter; stroke-linecap: square"/>
   </g>
   <g id="patch_4">
    <path d="M 561.92625 527.985937 
L 561.92625 21.129687 
" style="fill: none; stroke: #000000; stroke-width: 0.8; stroke-linejoin: miter; stroke-linecap: square"/>
   </g>
   <g id="patch_5">
    <path d="M 48.90125 527.985937 
L 561.92625 527.985937 
" style="fill: none; stroke: #000000; stroke-width: 0.8; stroke-linejoin: miter; stroke-linecap: square"/>
   </g>
   <g id="patch_6">
    <path d="M 48.90125 21.129687 
L 561.92625 21.129687 
" style="fill: none; stroke: #000000; stroke-width: 0.8; stroke-linejoin: miter; stroke-linecap: square"/>
   </g>
   <g id="text_15">
    <!-- 北京 -->
    <g transform="translate(393.729977 133.984032) scale(0.12 -0.12)">
     <defs>
      <path id="SimSun-5317" d="M 2175 3325 
Q 2175 4625 2150 5175 
L 2750 4925 
L 2525 4700 
L 2525 900 
Q 2525 375 2550 -375 
L 2150 -525 
Q 2175 325 2175 950 
Q 925 400 650 125 
L 350 575 
Q 650 600 2175 1075 
L 2175 3175 
L 850 3175 
L 625 3125 
L 425 3325 
L 2175 3325 
z
M 3625 200 
L 3625 3675 
Q 3625 4425 3600 5150 
L 4200 4850 
L 3975 4675 
L 3975 2675 
Q 4925 3175 5475 3850 
L 5900 3400 
Q 5650 3350 5125 3075 
Q 4575 2800 3975 2525 
L 3975 350 
Q 3975 25 4300 25 
L 5200 25 
Q 5500 25 5537 462 
Q 5575 900 5600 1375 
L 5725 1375 
Q 5750 600 5812 400 
Q 5875 200 6075 100 
Q 5925 -225 5425 -300 
L 4175 -300 
Q 3625 -300 3625 200 
z
" transform="scale(0.015625)"/>
      <path id="SimSun-4eac" d="M 400 4250 
L 5125 4250 
L 5525 4650 
L 6075 4100 
L 1200 4100 
Q 900 4100 625 4025 
L 400 4250 
z
M 1925 3175 
L 1925 1950 
L 4500 1950 
L 4500 3175 
L 1925 3175 
z
M 4875 3075 
Q 4875 2150 4900 1750 
L 4500 1550 
L 4500 1800 
L 3400 1800 
L 3400 -25 
Q 3425 -500 2825 -650 
Q 2825 -350 2075 -100 
L 2075 25 
Q 2550 -75 2787 -75 
Q 3025 -75 3025 225 
L 3025 1800 
L 1925 1800 
L 1925 1625 
L 1525 1450 
Q 1550 1975 1550 2512 
Q 1550 3050 1525 3550 
L 1950 3325 
L 4475 3325 
L 4725 3575 
L 5125 3225 
L 4875 3075 
z
M 2525 950 
L 2250 875 
Q 1375 50 475 -450 
L 400 -375 
Q 1600 550 2050 1350 
L 2525 950 
z
M 4075 1275 
L 4125 1350 
Q 5325 550 5437 337 
Q 5550 125 5550 25 
Q 5550 -100 5462 -225 
Q 5375 -350 5325 -350 
Q 5225 -350 5100 -25 
Q 4900 425 4075 1275 
z
M 2700 5150 
L 2750 5225 
Q 3400 4950 3475 4812 
Q 3550 4675 3550 4625 
Q 3550 4500 3462 4387 
Q 3375 4275 3325 4275 
Q 3225 4275 3175 4475 
Q 3050 4775 2700 5150 
z
" transform="scale(0.015625)"/>
     </defs>
     <use xlink:href="#SimSun-5317"/>
     <use xlink:href="#SimSun-4eac" x="100"/>
    </g>
   </g>
   <g id="text_16">
    <!-- 天津 -->
    <g transform="translate(297.014946 299.967523) scale(0.12 -0.12)">
     <defs>
      <path id="SimSun-5929" d="M 975 4650 
L 4525 4650 
L 4900 5025 
L 5425 4500 
L 3275 4500 
Q 3250 3825 3175 2775 
L 4900 2775 
L 5325 3200 
L 5900 2625 
L 3500 2625 
Q 3925 1325 4625 725 
Q 5325 125 6100 -25 
L 6100 -125 
Q 5675 -150 5525 -475 
Q 4500 100 3987 1025 
Q 3475 1950 3375 2625 
L 3150 2625 
Q 2925 1325 2187 550 
Q 1450 -225 425 -625 
L 375 -550 
Q 1400 0 1987 762 
Q 2575 1525 2775 2625 
L 1225 2625 
Q 900 2625 625 2550 
L 400 2775 
L 2800 2775 
Q 2875 3925 2875 4500 
L 1800 4500 
Q 1475 4500 1200 4425 
L 975 4650 
z
" transform="scale(0.015625)"/>
      <path id="SimSun-6d25" d="M 3500 4350 
Q 3500 4950 3475 5225 
L 3975 5025 
L 3825 4850 
L 3825 4350 
L 4825 4350 
L 5050 4575 
L 5350 4275 
L 5175 4125 
L 5175 3525 
L 5450 3525 
L 5725 3800 
L 6125 3375 
L 5175 3375 
Q 5175 2675 5200 2475 
L 4850 2325 
L 4850 2525 
L 3825 2525 
L 3825 1825 
L 4925 1825 
L 5225 2125 
L 5650 1675 
L 3825 1675 
L 3825 925 
L 5350 925 
L 5650 1225 
L 6075 775 
L 3825 775 
Q 3825 -225 3850 -525 
L 3475 -650 
Q 3500 -325 3500 775 
L 2425 775 
Q 2100 775 1825 700 
L 1600 925 
L 3500 925 
L 3500 1675 
L 2775 1675 
Q 2450 1675 2175 1600 
L 1950 1825 
L 3500 1825 
L 3500 2525 
L 2900 2525 
Q 2575 2525 2300 2450 
L 2075 2675 
L 3500 2675 
L 3500 3375 
L 2800 3375 
Q 2475 3375 2200 3300 
L 1975 3525 
L 3500 3525 
L 3500 4200 
L 3025 4200 
Q 2700 4200 2425 4125 
L 2200 4350 
L 3500 4350 
z
M 3825 4200 
L 3825 3525 
L 4850 3525 
L 4850 4200 
L 3825 4200 
z
M 3825 3375 
L 3825 2675 
L 4850 2675 
L 4850 3375 
L 3825 3375 
z
M 2075 4075 
Q 1350 1450 1275 1150 
Q 1175 825 1187 375 
Q 1200 -75 1225 -250 
Q 1225 -350 1100 -350 
Q 1000 -350 850 -300 
Q 700 -250 700 -75 
Q 700 50 775 300 
Q 850 550 850 700 
Q 850 875 737 975 
Q 625 1075 250 1175 
L 250 1275 
Q 700 1225 812 1237 
Q 925 1250 1062 1462 
Q 1200 1675 1975 4100 
L 2075 4075 
z
M 300 3925 
Q 1050 3475 1050 3237 
Q 1050 3000 962 2925 
Q 875 2850 850 2850 
Q 750 2850 675 3125 
Q 575 3450 250 3850 
L 300 3925 
z
M 900 5100 
Q 1475 4775 1550 4637 
Q 1625 4500 1625 4400 
Q 1625 4250 1537 4150 
Q 1450 4050 1425 4050 
Q 1350 4050 1250 4325 
Q 1125 4700 850 5025 
L 900 5100 
z
" transform="scale(0.015625)"/>
     </defs>
     <use xlink:href="#SimSun-5929"/>
     <use xlink:href="#SimSun-6d25" x="100"/>
    </g>
   </g>
   <g id="text_17">
    <!-- 河北 -->
    <g transform="translate(110.304702 285.322802) scale(0.12 -0.12)">
     <defs>
      <path id="SimSun-6cb3" d="M 4000 100 
Q 4750 0 4850 12 
Q 4950 25 4950 200 
L 4950 4375 
L 2775 4375 
Q 2450 4375 2175 4300 
L 1950 4525 
L 5325 4525 
L 5650 4825 
L 6075 4375 
L 5275 4375 
L 5275 25 
Q 5275 -200 5175 -337 
Q 5075 -475 4775 -575 
Q 4625 -175 4000 0 
L 4000 100 
z
M 2375 800 
Q 2400 1250 2400 2187 
Q 2400 3125 2375 3500 
L 2750 3300 
L 3675 3300 
L 3925 3550 
L 4250 3225 
L 4025 3050 
Q 4025 1575 4050 1175 
L 3725 1000 
L 3725 1425 
L 2725 1425 
L 2725 950 
L 2375 800 
z
M 2725 3150 
L 2725 1575 
L 3725 1575 
L 3725 3150 
L 2725 3150 
z
M 2050 3925 
Q 1350 1475 1262 1162 
Q 1175 850 1187 400 
Q 1200 -50 1225 -225 
Q 1225 -325 1100 -325 
Q 1000 -325 850 -275 
Q 700 -225 700 -50 
Q 700 75 775 325 
Q 850 575 850 725 
Q 850 900 737 1000 
Q 625 1100 250 1200 
L 250 1300 
Q 700 1250 812 1262 
Q 925 1275 1062 1487 
Q 1200 1700 1950 3950 
L 2050 3925 
z
M 250 3750 
Q 1000 3350 1037 3087 
Q 1075 2825 975 2737 
Q 875 2650 850 2650 
Q 750 2650 650 2950 
Q 525 3325 225 3675 
L 250 3750 
z
M 775 4975 
Q 1450 4625 1525 4450 
Q 1600 4275 1600 4225 
Q 1600 4125 1512 4012 
Q 1425 3900 1375 3900 
Q 1300 3900 1225 4125 
Q 1100 4450 725 4925 
L 775 4975 
z
" transform="scale(0.015625)"/>
     </defs>
     <use xlink:href="#SimSun-6cb3"/>
     <use xlink:href="#SimSun-5317" x="100"/>
    </g>
   </g>
   <g id="text_18">
    <!-- 山西 -->
    <g transform="translate(93.011337 311.936633) scale(0.12 -0.12)">
     <defs>
      <path id="SimSun-5c71" d="M 5000 275 
Q 5000 2600 5000 2850 
Q 5000 3100 4975 3600 
L 5575 3325 
L 5350 3100 
Q 5350 775 5350 487 
Q 5350 200 5375 -200 
L 5000 -375 
L 5000 125 
L 1400 125 
L 1175 -125 
L 825 225 
L 1025 400 
Q 1025 2625 1025 2875 
Q 1025 3125 1000 3600 
L 1575 3350 
L 1375 3175 
L 1375 275 
L 2950 275 
Q 2950 3875 2950 4187 
Q 2950 4500 2925 5075 
L 3525 4800 
L 3300 4625 
L 3300 275 
L 5000 275 
z
" transform="scale(0.015625)"/>
      <path id="SimSun-897f" d="M 5675 3275 
L 5475 3075 
Q 5475 200 5500 -275 
L 5150 -450 
L 5150 50 
L 1275 50 
L 1275 -350 
L 925 -525 
Q 950 0 950 1500 
Q 950 3000 925 3500 
L 1275 3300 
L 2400 3300 
L 2400 4475 
L 1100 4475 
Q 900 4475 625 4400 
L 400 4625 
L 5050 4625 
L 5425 4975 
L 5900 4475 
L 4000 4475 
L 4000 3300 
L 5100 3300 
L 5275 3575 
L 5675 3275 
z
M 2725 4475 
L 2725 3300 
L 3675 3300 
L 3675 4475 
L 2725 4475 
z
M 4000 3150 
L 4000 1650 
Q 4000 1425 4150 1425 
Q 4300 1425 4450 1425 
Q 4600 1425 4725 1475 
Q 4825 1525 4900 1462 
Q 4975 1400 5012 1275 
Q 5050 1150 4950 1137 
Q 4850 1125 4650 1125 
L 4125 1125 
Q 3650 1125 3675 1525 
L 3675 3150 
L 2725 3150 
Q 2725 2075 2387 1537 
Q 2050 1000 1450 600 
L 1400 675 
Q 1925 1150 2150 1687 
Q 2375 2225 2400 3150 
L 1275 3150 
L 1275 200 
L 5150 200 
L 5150 3150 
L 4000 3150 
z
" transform="scale(0.015625)"/>
     </defs>
     <use xlink:href="#SimSun-5c71"/>
     <use xlink:href="#SimSun-897f" x="100"/>
    </g>
   </g>
   <g id="text_19">
    <!-- 内蒙古 -->
    <g transform="translate(73.188842 279.733022) scale(0.12 -0.12)">
     <defs>
      <path id="SimSun-5185" d="M 1400 3625 
L 1400 975 
Q 2075 1350 2500 2025 
Q 2925 2700 2975 3625 
L 1400 3625 
z
M 1025 -650 
Q 1050 0 1050 425 
L 1050 2850 
Q 1050 3675 1025 4025 
L 1400 3775 
L 2975 3775 
Q 3000 4475 2975 5250 
L 3625 4950 
L 3375 4775 
Q 3375 4275 3350 3775 
L 4875 3775 
L 5100 4050 
L 5525 3725 
L 5300 3550 
L 5300 200 
Q 5325 -375 4725 -600 
Q 4700 -200 3825 -25 
L 3825 75 
Q 4500 25 4737 25 
Q 4975 25 4950 475 
L 4950 3625 
L 3350 3625 
Q 3300 3100 3200 2700 
Q 4525 1950 4562 1750 
Q 4600 1550 4600 1425 
Q 4600 1225 4525 1112 
Q 4450 1000 4425 1000 
Q 4350 1000 4275 1225 
Q 4125 1550 3812 1912 
Q 3500 2275 3150 2575 
Q 2900 1950 2425 1512 
Q 1950 1075 1400 850 
L 1400 -450 
L 1025 -650 
z
" transform="scale(0.015625)"/>
      <path id="SimSun-8499" d="M 5050 2925 
L 5350 3550 
L 1125 3550 
Q 1150 3125 1000 3000 
Q 850 2875 687 2912 
Q 525 2950 525 3025 
Q 525 3100 650 3225 
Q 900 3475 1025 3975 
L 1125 3975 
L 1125 3700 
L 5300 3700 
L 5525 3950 
L 5975 3500 
Q 5600 3500 5125 2900 
L 5050 2925 
z
M 1550 3050 
L 4100 3050 
L 4450 3375 
L 4900 2900 
L 2375 2900 
Q 2050 2900 1775 2825 
L 1550 3050 
z
M 5075 1725 
Q 4700 1550 4125 1325 
Q 4400 725 4887 350 
Q 5375 -25 6000 -100 
L 6000 -200 
Q 5500 -225 5425 -500 
Q 5050 -275 4662 150 
Q 4275 575 4025 1275 
L 3700 1150 
Q 3825 725 3825 400 
Q 3825 125 3700 -200 
Q 3575 -525 3025 -650 
Q 3025 -400 2325 -150 
L 2350 -50 
Q 2875 -175 3075 -187 
Q 3275 -200 3375 12 
Q 3475 225 3475 525 
Q 3475 725 3450 925 
Q 2850 375 2075 37 
Q 1300 -300 450 -450 
L 425 -375 
Q 1225 -150 2012 262 
Q 2800 675 3350 1300 
Q 3300 1425 3225 1550 
Q 2225 625 700 375 
L 675 450 
Q 2150 850 3025 1800 
L 2850 2025 
Q 2425 1700 1862 1450 
Q 1300 1200 525 1025 
L 500 1100 
Q 1075 1275 1687 1600 
Q 2300 1925 2650 2275 
L 1575 2275 
Q 1250 2275 975 2200 
L 750 2425 
L 4925 2425 
L 5325 2750 
L 5825 2275 
L 3200 2275 
Q 3100 2225 3000 2125 
Q 3350 1825 3675 1275 
Q 4575 1725 4925 2175 
L 5350 1725 
L 5075 1725 
z
M 2175 4550 
Q 2175 4900 2150 5275 
L 2775 5025 
L 2525 4875 
L 2525 4550 
L 3850 4550 
Q 3850 4975 3825 5250 
L 4425 5025 
L 4200 4850 
L 4200 4550 
L 4950 4550 
L 5375 4925 
L 5900 4400 
L 4200 4400 
L 4200 4050 
L 3850 3850 
L 3850 4400 
L 2525 4400 
L 2525 3975 
L 2175 3800 
L 2175 4400 
L 1425 4400 
Q 1100 4400 825 4325 
L 600 4550 
L 2175 4550 
z
" transform="scale(0.015625)"/>
      <path id="SimSun-53e4" d="M 5000 1850 
L 5000 300 
Q 5000 0 5025 -350 
L 4650 -500 
L 4650 25 
L 1850 25 
L 1850 -450 
L 1475 -575 
Q 1500 125 1500 887 
Q 1500 1650 1475 2350 
L 1850 2125 
L 3025 2125 
L 3025 3675 
L 1225 3675 
Q 900 3675 625 3600 
L 400 3825 
L 3025 3825 
Q 3025 4850 3000 5225 
L 3600 4950 
L 3375 4775 
L 3375 3825 
L 5175 3825 
L 5525 4175 
L 6025 3675 
L 3375 3675 
L 3375 2125 
L 4600 2125 
L 4850 2375 
L 5225 2025 
L 5000 1850 
z
M 1850 1975 
L 1850 175 
L 4650 175 
L 4650 1975 
L 1850 1975 
z
" transform="scale(0.015625)"/>
     </defs>
     <use xlink:href="#SimSun-5185"/>
     <use xlink:href="#SimSun-8499" x="100"/>
     <use xlink:href="#SimSun-53e4" x="200"/>
    </g>
   </g>
   <g id="text_20">
    <!-- 辽宁 -->
    <g transform="translate(155.854224 258.660041) scale(0.12 -0.12)">
     <defs>
      <path id="SimSun-8fbd" d="M 3775 2625 
Q 3775 3075 3725 3600 
L 3975 3475 
L 4950 4450 
L 2825 4450 
Q 2625 4450 2350 4375 
L 2125 4600 
L 4950 4600 
L 5225 4875 
L 5700 4350 
Q 5450 4350 5025 4112 
Q 4600 3875 4075 3400 
L 4325 3250 
L 4125 3125 
L 4125 1050 
Q 4125 550 3575 350 
Q 3525 775 2800 900 
L 2800 1000 
Q 3350 950 3562 962 
Q 3775 975 3775 1150 
L 3775 2625 
z
M 750 4825 
L 825 4900 
Q 1350 4600 1512 4437 
Q 1675 4275 1650 4100 
Q 1625 3925 1525 3812 
Q 1425 3700 1375 3700 
Q 1275 3700 1200 3975 
Q 1100 4375 750 4825 
z
M 1775 850 
Q 2000 625 2400 387 
Q 2800 150 3575 112 
Q 4350 75 5025 100 
Q 5700 125 6100 175 
L 6100 75 
Q 5575 -100 5600 -375 
Q 4475 -375 3837 -325 
Q 3200 -275 2750 -87 
Q 2300 100 2025 400 
Q 1725 700 1600 675 
Q 1475 650 1200 350 
Q 925 50 850 -175 
L 450 200 
Q 900 525 1450 850 
L 1450 2825 
L 1225 2825 
Q 900 2825 625 2750 
L 400 2975 
L 1400 2975 
L 1600 3250 
L 2000 2925 
L 1775 2750 
L 1775 850 
z
" transform="scale(0.015625)"/>
      <path id="SimSun-5b81" d="M 2625 5150 
L 2675 5225 
Q 3175 5000 3337 4825 
Q 3500 4650 3500 4550 
Q 3500 4425 3375 4262 
Q 3250 4100 3200 4100 
Q 3125 4100 3075 4350 
Q 2975 4750 2625 5150 
z
M 4800 3075 
L 5250 3825 
L 1175 3825 
Q 1225 3300 1075 3162 
Q 925 3025 750 3050 
Q 575 3075 575 3150 
Q 575 3225 650 3300 
Q 800 3500 900 3700 
Q 1000 3900 1050 4275 
L 1150 4275 
L 1175 3975 
L 5200 3975 
L 5450 4250 
L 5900 3750 
Q 5500 3725 4900 3025 
L 4800 3075 
z
M 575 2750 
L 4925 2750 
L 5325 3150 
L 5875 2600 
L 3400 2600 
L 3400 250 
Q 3425 -375 2750 -600 
Q 2750 -225 1900 0 
L 1900 125 
Q 2550 50 2775 50 
Q 3000 50 3025 300 
L 3025 2600 
L 1400 2600 
Q 1075 2600 800 2525 
L 575 2750 
z
" transform="scale(0.015625)"/>
     </defs>
     <use xlink:href="#SimSun-8fbd"/>
     <use xlink:href="#SimSun-5b81" x="100"/>
    </g>
   </g>
   <g id="text_21">
    <!-- 吉林 -->
    <g transform="translate(123.130453 302.165723) scale(0.12 -0.12)">
     <defs>
      <path id="SimSun-5409" d="M 1600 1975 
L 2000 1750 
L 4450 1750 
L 4675 2000 
L 5025 1650 
L 4850 1500 
Q 4850 350 4875 -350 
L 4500 -450 
L 4500 75 
L 1975 75 
L 1975 -450 
L 1600 -575 
Q 1625 0 1625 737 
Q 1625 1475 1600 1975 
z
M 1975 1600 
L 1975 225 
L 4500 225 
L 4500 1600 
L 1975 1600 
z
M 475 3900 
L 3025 3900 
Q 3025 4650 3000 5250 
L 3600 4950 
L 3375 4750 
L 3375 3900 
L 5075 3900 
L 5450 4275 
L 5975 3750 
L 3375 3750 
L 3375 2725 
L 4800 2725 
L 5125 3050 
L 5600 2575 
L 1725 2575 
Q 1400 2575 1125 2500 
L 900 2725 
L 3025 2725 
L 3025 3750 
L 1300 3750 
Q 975 3750 700 3675 
L 475 3900 
z
" transform="scale(0.015625)"/>
      <path id="SimSun-6797" d="M 3975 -625 
Q 4000 625 4000 2850 
Q 3350 1425 2275 550 
L 2225 625 
Q 3400 1850 3875 3600 
L 3350 3600 
L 3125 3550 
L 2925 3750 
L 4000 3750 
Q 4000 4650 3975 5250 
L 4575 4975 
L 4350 4825 
L 4350 3750 
L 5100 3750 
L 5425 4075 
L 5900 3600 
L 4425 3600 
Q 5025 1500 6150 1025 
L 6150 925 
Q 5700 925 5625 675 
Q 4675 1725 4350 3500 
Q 4350 0 4375 -425 
L 3975 -625 
z
M 1975 2775 
Q 1975 -25 2000 -450 
L 1600 -650 
Q 1625 550 1625 2425 
Q 1150 1475 325 650 
L 275 725 
Q 1275 2025 1625 3575 
L 800 3575 
L 600 3525 
L 400 3725 
L 1625 3725 
Q 1625 4550 1600 5250 
L 2200 4950 
L 1975 4775 
L 1975 3725 
L 2200 3725 
L 2475 4000 
L 2900 3575 
L 1975 3575 
L 1975 2900 
Q 2525 2625 2675 2450 
Q 2825 2275 2825 2150 
Q 2825 2050 2750 1900 
Q 2675 1750 2625 1750 
Q 2550 1750 2475 2000 
Q 2350 2350 1975 2775 
z
" transform="scale(0.015625)"/>
     </defs>
     <use xlink:href="#SimSun-5409"/>
     <use xlink:href="#SimSun-6797" x="100"/>
    </g>
   </g>
   <g id="text_22">
    <!-- 黑龙江 -->
    <g transform="translate(93.743352 289.26483) scale(0.12 -0.12)">
     <defs>
      <path id="SimSun-9ed1" d="M 3375 4600 
L 3375 2950 
L 4925 2950 
L 4925 4600 
L 3375 4600 
z
M 1925 4350 
Q 2400 4050 2525 3875 
Q 2650 3700 2650 3575 
Q 2650 3450 2550 3312 
Q 2450 3175 2400 3175 
Q 2325 3175 2275 3450 
Q 2200 3825 1850 4300 
L 1925 4350 
z
M 4175 4400 
L 4675 4050 
L 4475 3975 
Q 3925 3350 3675 3075 
L 3600 3125 
Q 4100 4000 4175 4400 
z
M 1525 850 
Q 1525 -50 1375 -237 
Q 1225 -425 1075 -425 
Q 975 -425 875 -387 
Q 775 -350 775 -300 
Q 775 -250 850 -200 
Q 1000 -50 1150 162 
Q 1300 375 1425 850 
L 1525 850 
z
M 2250 825 
Q 2750 350 2812 150 
Q 2875 -50 2875 -75 
Q 2875 -250 2750 -350 
Q 2625 -450 2600 -450 
Q 2500 -450 2475 -150 
Q 2425 250 2175 775 
L 2250 825 
z
M 4750 850 
Q 5225 575 5450 350 
Q 5675 125 5675 -50 
Q 5675 -200 5575 -337 
Q 5475 -475 5450 -475 
Q 5375 -475 5300 -200 
Q 5175 200 4675 800 
L 4750 850 
z
M 5275 4425 
Q 5275 3275 5300 2750 
L 4925 2575 
L 4925 2800 
L 3375 2800 
L 3375 2025 
L 4625 2025 
L 4950 2350 
L 5425 1875 
L 3375 1875 
L 3375 1200 
L 5025 1200 
L 5425 1600 
L 5975 1050 
L 1250 1050 
Q 925 1050 650 975 
L 425 1200 
L 3050 1200 
L 3050 1875 
L 1725 1875 
Q 1400 1875 1125 1800 
L 900 2025 
L 3050 2025 
L 3050 2800 
L 1575 2800 
L 1575 2650 
L 1200 2475 
Q 1225 3750 1200 4950 
L 1575 4750 
L 4900 4750 
L 5150 5000 
L 5525 4625 
L 5275 4425 
z
M 1575 4600 
L 1575 2950 
L 3050 2950 
L 3050 4600 
L 1575 4600 
z
M 3525 800 
Q 3975 475 4087 287 
Q 4200 100 4200 -25 
Q 4200 -175 4087 -300 
Q 3975 -425 3950 -425 
Q 3850 -425 3800 -125 
Q 3725 300 3450 750 
L 3525 800 
z
" transform="scale(0.015625)"/>
      <path id="SimSun-9f99" d="M 5250 2550 
Q 4475 1625 3925 1150 
L 3925 425 
Q 3925 -50 4400 -25 
L 5250 -25 
Q 5525 -25 5587 262 
Q 5650 550 5650 1175 
L 5775 1175 
Q 5775 800 5812 475 
Q 5850 150 6125 75 
Q 5925 -300 5450 -325 
L 4225 -325 
Q 3575 -350 3600 200 
L 3600 875 
Q 2850 350 2175 100 
L 2125 175 
Q 3025 675 3600 1250 
L 3600 3500 
L 2850 3500 
Q 2725 1725 2075 837 
Q 1425 -50 350 -650 
L 300 -575 
Q 1225 75 1800 975 
Q 2375 1875 2500 3500 
L 1125 3500 
Q 800 3500 525 3425 
L 300 3650 
L 2500 3650 
Q 2500 4350 2475 5250 
L 3125 4975 
L 2850 4775 
L 2850 3650 
L 5150 3650 
L 5550 4050 
L 6050 3500 
L 3925 3500 
L 3925 1550 
Q 4550 2175 5050 3100 
L 5500 2625 
L 5250 2550 
z
M 3700 4975 
Q 4525 4700 4687 4550 
Q 4850 4400 4850 4225 
Q 4850 4100 4787 3975 
Q 4725 3850 4675 3850 
Q 4575 3850 4450 4100 
Q 4225 4450 3650 4900 
L 3700 4975 
z
" transform="scale(0.015625)"/>
      <path id="SimSun-6c5f" d="M 2050 4275 
L 5125 4275 
L 5425 4575 
L 5850 4125 
L 4025 4125 
L 4025 175 
L 5325 175 
L 5675 525 
L 6150 25 
L 2250 25 
Q 1925 25 1650 -50 
L 1425 175 
L 3650 175 
L 3650 4125 
L 2875 4125 
Q 2550 4125 2275 4050 
L 2050 4275 
z
M 2175 3975 
Q 1400 1525 1312 1212 
Q 1225 900 1237 450 
Q 1250 0 1275 -175 
Q 1275 -275 1150 -275 
Q 1050 -275 900 -225 
Q 750 -175 750 0 
Q 750 125 825 375 
Q 900 625 900 775 
Q 900 950 787 1050 
Q 675 1150 300 1250 
L 300 1350 
Q 750 1300 862 1312 
Q 975 1325 1112 1537 
Q 1250 1750 2075 4000 
L 2175 3975 
z
M 325 3625 
Q 1200 3175 1200 2887 
Q 1200 2600 1062 2500 
Q 925 2400 825 2750 
Q 700 3075 275 3550 
L 325 3625 
z
M 800 4925 
Q 1500 4575 1562 4400 
Q 1625 4225 1625 4150 
Q 1625 4025 1537 3925 
Q 1450 3825 1400 3825 
Q 1325 3825 1250 4075 
Q 1125 4400 750 4850 
L 800 4925 
z
" transform="scale(0.015625)"/>
     </defs>
     <use xlink:href="#SimSun-9ed1"/>
     <use xlink:href="#SimSun-9f99" x="100"/>
     <use xlink:href="#SimSun-6c5f" x="200"/>
    </g>
   </g>
   <g id="text_23">
    <!-- 上海 -->
    <g transform="translate(539.575205 260.888955) scale(0.12 -0.12)">
     <defs>
      <path id="SimSun-4e0a" d="M 2725 5175 
L 3400 4875 
L 3125 4675 
L 3125 3000 
L 4600 3000 
L 4975 3375 
L 5500 2850 
L 3125 2850 
L 3125 25 
L 5175 25 
L 5575 425 
L 6125 -125 
L 1125 -125 
Q 800 -125 525 -200 
L 300 25 
L 2750 25 
L 2750 4225 
Q 2750 4675 2725 5175 
z
" transform="scale(0.015625)"/>
      <path id="SimSun-6d77" d="M 4700 2175 
L 4775 3350 
L 2800 3350 
L 2625 2175 
L 4700 2175 
z
M 2050 850 
L 2250 2025 
Q 2000 2025 1725 1950 
L 1500 2175 
L 2275 2175 
L 2500 3750 
L 2800 3500 
L 4725 3500 
L 4975 3750 
L 5300 3425 
L 5100 3275 
L 5025 2175 
L 5450 2175 
L 5725 2450 
L 6125 2025 
L 5025 2025 
L 4950 725 
L 5350 725 
L 5625 1000 
L 6025 575 
L 4950 575 
Q 4900 150 4850 -137 
Q 4800 -425 4225 -600 
Q 4200 -225 3450 25 
L 3450 125 
Q 4175 -25 4325 -12 
Q 4475 0 4525 125 
Q 4575 250 4600 575 
L 2350 575 
L 2150 375 
L 1825 725 
L 2050 850 
z
M 3275 3150 
L 3300 3225 
Q 3800 2975 3887 2837 
Q 3975 2700 3975 2625 
Q 3975 2500 3900 2400 
Q 3825 2300 3800 2300 
Q 3725 2300 3625 2550 
Q 3500 2900 3275 3150 
z
M 3250 1850 
L 3300 1900 
Q 3750 1600 3825 1437 
Q 3900 1275 3900 1225 
Q 3900 1125 3812 1012 
Q 3725 900 3675 900 
Q 3600 900 3550 1125 
Q 3475 1475 3250 1850 
z
M 4625 725 
L 4700 2025 
L 2600 2025 
L 2375 725 
L 4625 725 
z
M 3250 4950 
L 3075 4825 
Q 2950 4600 2800 4325 
L 5075 4325 
L 5375 4625 
L 5800 4175 
L 2750 4175 
Q 2300 3400 1775 2900 
L 1725 2950 
Q 2125 3525 2387 4150 
Q 2650 4775 2725 5225 
L 3250 4950 
z
M 1875 3900 
Q 1225 1450 1150 1137 
Q 1075 825 1087 375 
Q 1100 -75 1125 -250 
Q 1125 -350 1000 -350 
Q 900 -350 750 -300 
Q 600 -250 600 -75 
Q 600 50 675 300 
Q 750 550 750 700 
Q 750 875 637 975 
Q 525 1075 225 1175 
L 250 1275 
Q 600 1225 712 1237 
Q 825 1250 962 1462 
Q 1100 1675 1775 3925 
L 1875 3900 
z
M 300 3725 
Q 975 3350 1012 3100 
Q 1050 2850 962 2775 
Q 875 2700 850 2700 
Q 750 2700 650 2975 
Q 525 3325 250 3650 
L 300 3725 
z
M 800 5000 
Q 1450 4650 1487 4525 
Q 1525 4400 1525 4325 
Q 1525 4175 1437 4075 
Q 1350 3975 1325 3975 
Q 1250 3975 1175 4225 
Q 1050 4575 750 4925 
L 800 5000 
z
" transform="scale(0.015625)"/>
     </defs>
     <use xlink:href="#SimSun-4e0a"/>
     <use xlink:href="#SimSun-6d77" x="100"/>
    </g>
   </g>
   <g id="text_24">
    <!-- 江苏 -->
    <g transform="translate(248.177166 332.390512) scale(0.12 -0.12)">
     <defs>
      <path id="SimSun-82cf" d="M 4975 2000 
L 5050 2050 
Q 5650 1575 5762 1387 
Q 5875 1200 5875 1075 
Q 5875 925 5775 800 
Q 5675 675 5625 675 
Q 5525 675 5450 975 
Q 5350 1400 4975 2000 
z
M 4975 2725 
L 4700 2525 
Q 4625 1100 4562 612 
Q 4500 125 4337 -137 
Q 4175 -400 3675 -525 
Q 3650 -150 2950 75 
L 2950 175 
Q 3600 50 3812 37 
Q 4025 25 4137 337 
Q 4250 650 4350 2600 
L 3050 2600 
Q 2900 1325 2337 562 
Q 1775 -200 575 -625 
L 525 -575 
Q 1625 25 2087 750 
Q 2550 1475 2700 2600 
L 1725 2600 
Q 1400 2600 1125 2525 
L 900 2750 
L 2725 2750 
Q 2775 3325 2775 3800 
L 3325 3525 
L 3150 3375 
Q 3100 3025 3075 2750 
L 4275 2750 
L 4475 3075 
L 4975 2725 
z
M 1275 2075 
L 1375 2050 
Q 1375 1325 1187 1012 
Q 1000 700 762 750 
Q 525 800 525 875 
Q 525 925 600 1000 
Q 775 1175 950 1400 
Q 1125 1625 1275 2075 
z
M 4175 4175 
L 4175 3525 
L 3825 3350 
L 3825 4175 
L 2500 4175 
L 2500 3450 
L 2150 3275 
L 2150 4175 
L 1200 4175 
Q 875 4175 600 4100 
L 375 4325 
L 2150 4325 
Q 2150 4775 2125 5200 
L 2700 4975 
L 2500 4800 
L 2500 4325 
L 3825 4325 
Q 3825 4750 3800 5175 
L 4375 4950 
L 4175 4775 
L 4175 4325 
L 5075 4325 
L 5525 4700 
L 6050 4175 
L 4175 4175 
z
" transform="scale(0.015625)"/>
     </defs>
     <use xlink:href="#SimSun-6c5f"/>
     <use xlink:href="#SimSun-82cf" x="100"/>
    </g>
   </g>
   <g id="text_25">
    <!-- 浙江 -->
    <g transform="translate(329.818115 255.919612) scale(0.12 -0.12)">
     <defs>
      <path id="SimSun-6d59" d="M 1800 200 
Q 2175 175 2362 175 
Q 2550 175 2550 450 
L 2550 2100 
Q 2025 1800 1800 1550 
L 1575 1950 
Q 1925 2050 2550 2350 
L 2550 3550 
Q 2325 3550 2050 3475 
L 1825 3700 
L 2550 3700 
Q 2550 4850 2525 5100 
L 3050 4875 
L 2875 4675 
L 2875 3700 
L 3150 3700 
L 3400 3950 
L 3725 3550 
L 2875 3550 
L 2875 2500 
L 3625 2825 
L 3650 2750 
L 2875 2300 
L 2875 325 
Q 2900 -150 2400 -350 
Q 2400 -25 1800 100 
L 1800 200 
z
M 3800 4625 
L 4125 4400 
Q 4500 4450 4875 4575 
Q 5250 4700 5575 4900 
L 5925 4450 
Q 5525 4475 5025 4400 
Q 4525 4300 4150 4275 
L 4150 3025 
L 5400 3025 
L 5725 3350 
L 6125 2875 
L 5225 2875 
L 5225 475 
Q 5225 -100 5250 -400 
L 4875 -550 
Q 4900 0 4900 400 
L 4900 2875 
L 4150 2875 
Q 4150 1500 3775 712 
Q 3400 -75 2725 -550 
L 2675 -475 
Q 3225 75 3500 825 
Q 3775 1575 3800 2650 
Q 3825 3725 3800 4625 
z
M 1900 4150 
Q 1250 1500 1200 1200 
Q 1150 900 1150 437 
Q 1150 -25 1150 -175 
Q 1150 -325 1050 -325 
Q 1000 -325 837 -250 
Q 675 -175 675 0 
Q 675 150 750 350 
Q 825 600 825 725 
Q 825 900 687 1012 
Q 550 1125 275 1175 
L 275 1275 
Q 725 1225 875 1387 
Q 1025 1550 1800 4175 
L 1900 4150 
z
M 325 3575 
Q 1050 3225 1087 3000 
Q 1125 2775 1037 2662 
Q 950 2550 900 2550 
Q 800 2550 750 2750 
Q 650 3050 275 3525 
L 325 3575 
z
M 725 5075 
Q 1425 4750 1475 4625 
Q 1525 4500 1525 4425 
Q 1525 4300 1437 4175 
Q 1350 4050 1300 4050 
Q 1225 4050 1175 4250 
Q 1050 4550 675 5025 
L 725 5075 
z
" transform="scale(0.015625)"/>
     </defs>
     <use xlink:href="#SimSun-6d59"/>
     <use xlink:href="#SimSun-6c5f" x="100"/>
    </g>
   </g>
   <g id="text_26">
    <!-- 安徽 -->
    <g transform="translate(177.919241 345.942383) scale(0.12 -0.12)">
     <defs>
      <path id="SimSun-5b89" d="M 2650 3575 
L 3175 3275 
L 2950 3100 
L 2700 2525 
L 5125 2525 
L 5500 2900 
L 6025 2375 
L 4675 2375 
Q 4250 1425 3800 800 
Q 4825 475 5262 237 
Q 5700 0 5675 -237 
Q 5650 -475 5550 -475 
Q 5425 -475 5150 -250 
Q 4675 175 3625 575 
Q 3075 50 2287 -237 
Q 1500 -525 550 -600 
L 525 -500 
Q 2425 -175 3275 700 
Q 2400 1000 1675 1150 
Q 1975 1625 2275 2375 
L 825 2375 
L 575 2325 
L 375 2525 
L 2325 2525 
Q 2575 3125 2650 3575 
z
M 2650 2375 
Q 2375 1775 2075 1225 
Q 3000 1025 3425 900 
Q 3875 1500 4250 2375 
L 2650 2375 
z
M 2800 5175 
L 2850 5250 
Q 3325 4975 3462 4812 
Q 3600 4650 3600 4525 
Q 3600 4400 3500 4275 
Q 3400 4150 3350 4150 
Q 3275 4150 3225 4400 
Q 3125 4775 2800 5175 
z
M 4925 3275 
L 5200 3925 
L 1400 3925 
Q 1425 3475 1275 3350 
Q 1125 3225 1025 3225 
Q 975 3225 862 3275 
Q 750 3325 750 3375 
Q 750 3450 925 3600 
Q 1200 3825 1275 4375 
L 1400 4375 
L 1400 4075 
L 5150 4075 
L 5425 4375 
L 5875 3925 
Q 5500 3900 5025 3250 
L 4925 3275 
z
" transform="scale(0.015625)"/>
      <path id="SimSun-5fbd" d="M 2725 3925 
Q 2725 4825 2700 5225 
L 3175 5000 
L 3025 4825 
L 3025 3925 
L 3575 3925 
Q 3575 4400 3550 4775 
L 4025 4550 
L 3875 4425 
Q 3875 4000 3900 3775 
L 3575 3625 
L 3575 3775 
L 2175 3775 
L 2025 3625 
L 1750 3875 
L 1900 4000 
Q 1900 4575 1875 4800 
L 2350 4600 
L 2200 4425 
L 2200 3925 
L 2725 3925 
z
M 2200 2475 
L 2975 2475 
Q 3275 2800 3300 2900 
L 3675 2550 
L 3450 2500 
Q 2575 1825 2200 1625 
Q 2825 1675 3500 1725 
Q 3375 1950 3250 2100 
L 3325 2150 
Q 3750 1875 3837 1725 
Q 3925 1575 3925 1525 
Q 3925 1450 3837 1350 
Q 3750 1250 3725 1250 
Q 3675 1250 3637 1362 
Q 3600 1475 3550 1625 
L 2950 1525 
L 2950 50 
Q 2900 -300 2475 -475 
Q 2475 -225 1950 50 
L 1975 150 
Q 2400 25 2525 37 
Q 2650 50 2650 275 
L 2650 1475 
Q 2125 1375 2000 1250 
L 1775 1650 
Q 2000 1650 2300 1862 
Q 2600 2075 2900 2350 
Q 2200 2250 2050 2125 
L 1850 2475 
Q 2075 2525 2262 2712 
Q 2450 2900 2625 3200 
L 2175 3200 
L 1950 3150 
L 1750 3350 
L 3250 3350 
L 3475 3575 
L 3850 3200 
L 2750 3200 
L 3025 2975 
Q 2850 2950 2700 2825 
Q 2525 2700 2200 2475 
z
M 2025 1125 
L 2400 825 
Q 2200 750 1950 475 
Q 1675 200 1450 25 
L 1400 100 
Q 1575 325 1762 612 
Q 1950 900 2025 1125 
z
M 3225 1100 
Q 3525 900 3675 725 
Q 3825 550 3825 425 
Q 3825 375 3787 275 
Q 3750 175 3650 112 
Q 3550 50 3475 425 
Q 3375 775 3175 1025 
L 3225 1100 
z
M 4450 5200 
L 5000 4925 
L 4775 4800 
Q 4600 4150 4400 3650 
L 5425 3650 
L 5675 3900 
L 6075 3500 
L 5500 3500 
Q 5300 1625 4900 825 
Q 5325 125 6050 -175 
L 6050 -250 
Q 5675 -250 5575 -500 
Q 5050 -50 4725 550 
Q 4125 -200 2975 -625 
L 2950 -525 
Q 3950 -50 4575 850 
Q 4300 1700 4200 3175 
Q 4000 2700 3725 2250 
L 3650 2300 
Q 3850 2750 4000 3225 
Q 4150 3700 4262 4225 
Q 4375 4750 4450 5200 
z
M 4350 3500 
L 4300 3375 
Q 4475 1950 4750 1200 
Q 5050 2150 5150 3500 
L 4350 3500 
z
M 1200 5175 
L 1650 4875 
L 1450 4750 
Q 850 3950 425 3600 
L 375 3675 
Q 650 4000 887 4437 
Q 1125 4875 1200 5175 
z
M 1300 2975 
L 1300 -375 
L 975 -575 
Q 1000 100 1000 525 
L 1000 2550 
Q 675 2125 350 1875 
L 300 1950 
Q 750 2500 1000 3050 
Q 1250 3600 1350 3950 
L 1825 3625 
L 1600 3525 
Q 1450 3250 1300 2975 
z
" transform="scale(0.015625)"/>
     </defs>
     <use xlink:href="#SimSun-5b89"/>
     <use xlink:href="#SimSun-5fbd" x="100"/>
    </g>
   </g>
   <g id="text_27">
    <!-- 福建 -->
    <g transform="translate(345.368588 347.386301) scale(0.12 -0.12)">
     <defs>
      <path id="SimSun-798f" d="M 3525 3875 
L 3525 3075 
L 5050 3075 
L 5050 3875 
L 3525 3875 
z
M 3100 2125 
L 3100 1275 
L 4075 1275 
L 4075 2125 
L 3100 2125 
z
M 4375 2125 
L 4375 1275 
L 5350 1275 
L 5350 2125 
L 4375 2125 
z
M 3100 1125 
L 3100 200 
L 4075 200 
L 4075 1125 
L 3100 1125 
z
M 4375 1125 
L 4375 200 
L 5350 200 
L 5350 1125 
L 4375 1125 
z
M 2525 4775 
L 5275 4775 
L 5575 5050 
L 5975 4625 
L 3350 4625 
Q 3025 4625 2750 4550 
L 2525 4775 
z
M 3175 2600 
Q 3200 3025 3200 3437 
Q 3200 3850 3175 4225 
L 3525 4025 
L 5025 4025 
L 5250 4250 
L 5575 3950 
L 5375 3825 
Q 5375 3150 5400 2825 
L 5050 2675 
L 5050 2925 
L 3525 2925 
L 3525 2775 
L 3175 2600 
z
M 2750 -550 
Q 2775 200 2775 975 
Q 2775 1750 2750 2500 
L 3125 2275 
L 5350 2275 
L 5575 2500 
L 5900 2200 
L 5700 2025 
Q 5700 275 5725 -275 
L 5375 -425 
L 5375 50 
L 3100 50 
L 3100 -400 
L 2750 -550 
z
M 1150 5200 
Q 1550 4975 1712 4787 
Q 1875 4600 1875 4475 
Q 1875 4375 1787 4250 
Q 1700 4125 1650 4125 
Q 1575 4125 1500 4400 
Q 1375 4800 1100 5150 
L 1150 5200 
z
M 1725 2550 
Q 1725 0 1750 -425 
L 1400 -600 
Q 1425 75 1425 2125 
Q 825 1450 275 1100 
L 225 1175 
Q 750 1700 1137 2250 
Q 1525 2800 1825 3575 
L 1075 3575 
Q 750 3575 475 3500 
L 250 3725 
L 1800 3725 
L 2050 3975 
L 2400 3625 
L 2175 3500 
Q 1900 2925 1750 2650 
Q 2250 2450 2387 2325 
Q 2525 2200 2525 2075 
Q 2525 1975 2462 1850 
Q 2400 1725 2375 1725 
Q 2300 1725 2200 1950 
Q 2025 2300 1725 2550 
z
" transform="scale(0.015625)"/>
      <path id="SimSun-5efa" d="M 2200 2375 
Q 2000 1175 1700 575 
Q 2050 250 2600 75 
Q 3150 -100 3950 -125 
Q 4750 -150 6125 0 
L 6125 -100 
Q 5750 -250 5675 -475 
Q 4950 -500 4050 -487 
Q 3150 -475 2562 -275 
Q 1975 -75 1550 325 
Q 1175 -150 375 -600 
L 325 -525 
Q 950 -100 1375 525 
Q 975 1100 775 1800 
L 875 1850 
Q 1125 1250 1475 800 
Q 1725 1350 1875 2475 
L 1100 2475 
L 900 2250 
L 575 2575 
L 850 2700 
L 1700 4250 
L 825 4250 
L 600 4200 
L 400 4400 
L 1700 4400 
L 1925 4625 
L 2275 4275 
L 2025 4150 
L 1125 2625 
L 1875 2625 
L 2050 2850 
L 2400 2525 
L 2200 2375 
z
M 5275 3425 
Q 5275 2850 5300 2600 
L 4950 2425 
L 4950 2650 
L 4000 2650 
L 4000 1950 
L 4675 1950 
L 4950 2225 
L 5350 1800 
L 4000 1800 
L 4000 1150 
L 5150 1150 
L 5450 1450 
L 5875 1000 
L 4000 1000 
Q 4000 600 4025 125 
L 3650 -25 
Q 3675 550 3675 1000 
L 2500 1000 
L 2275 950 
L 2075 1150 
L 3675 1150 
L 3675 1800 
L 2875 1800 
L 2650 1750 
L 2450 1950 
L 3675 1950 
L 3675 2650 
L 2875 2650 
L 2650 2600 
L 2450 2800 
L 3675 2800 
L 3675 3425 
L 2500 3425 
L 2300 3375 
L 2100 3575 
L 3675 3575 
L 3675 4175 
L 2900 4175 
L 2700 4125 
L 2500 4325 
L 3675 4325 
Q 3675 4850 3650 5225 
L 4225 4950 
L 4000 4775 
L 4000 4325 
L 4900 4325 
L 5125 4550 
L 5475 4225 
L 5275 4075 
L 5275 3575 
L 5350 3575 
L 5625 3850 
L 6050 3425 
L 5275 3425 
z
M 4000 4175 
L 4000 3575 
L 4950 3575 
L 4950 4175 
L 4000 4175 
z
M 4000 3425 
L 4000 2800 
L 4950 2800 
L 4950 3425 
L 4000 3425 
z
" transform="scale(0.015625)"/>
     </defs>
     <use xlink:href="#SimSun-798f"/>
     <use xlink:href="#SimSun-5efa" x="100"/>
    </g>
   </g>
   <g id="text_28">
    <!-- 江西 -->
    <g transform="translate(123.50227 434.565066) scale(0.12 -0.12)">
     <use xlink:href="#SimSun-6c5f"/>
     <use xlink:href="#SimSun-897f" x="100"/>
    </g>
   </g>
   <g id="text_29">
    <!-- 山东 -->
    <g transform="translate(145.185787 216.888636) scale(0.12 -0.12)">
     <defs>
      <path id="SimSun-4e1c" d="M 2200 50 
Q 2775 -50 2987 -50 
Q 3200 -50 3200 125 
L 3200 2225 
L 1700 2225 
L 1475 2000 
L 1125 2325 
Q 1350 2450 1637 2812 
Q 1925 3175 2400 4050 
L 1400 4050 
Q 1075 4050 800 3975 
L 575 4200 
L 2450 4200 
Q 2825 5000 2850 5250 
L 3350 4950 
Q 3150 4800 2850 4200 
L 4950 4200 
L 5300 4550 
L 5800 4050 
L 2800 4050 
Q 2250 3025 1725 2375 
L 3200 2375 
Q 3200 3125 3175 3475 
L 3750 3200 
L 3550 3025 
L 3550 2375 
L 4675 2375 
L 5000 2700 
L 5475 2225 
L 3550 2225 
L 3550 0 
Q 3575 -425 3000 -650 
Q 2975 -325 2175 -50 
L 2200 50 
z
M 2250 1950 
L 2750 1550 
Q 2525 1500 1975 975 
Q 1400 425 525 -125 
L 475 -25 
Q 1650 850 2250 1950 
z
M 4075 1800 
Q 5500 950 5662 725 
Q 5825 500 5825 300 
Q 5825 175 5762 62 
Q 5700 -50 5650 -50 
Q 5550 -50 5350 325 
Q 5075 825 4000 1725 
L 4075 1800 
z
" transform="scale(0.015625)"/>
     </defs>
     <use xlink:href="#SimSun-5c71"/>
     <use xlink:href="#SimSun-4e1c" x="100"/>
    </g>
   </g>
   <g id="text_30">
    <!-- 河南 -->
    <g transform="translate(97.140055 344.743729) scale(0.12 -0.12)">
     <defs>
      <path id="SimSun-5357" d="M 1325 3150 
L 1325 -375 
L 975 -550 
Q 1000 325 1000 1662 
Q 1000 3000 975 3525 
L 1350 3300 
L 2900 3300 
L 2950 4100 
L 1150 4100 
Q 825 4100 550 4025 
L 325 4250 
L 2975 4250 
Q 3000 4750 3000 5225 
L 3575 4975 
L 3375 4825 
L 3325 4250 
L 5125 4250 
L 5525 4650 
L 6075 4100 
L 3300 4100 
L 3250 3300 
L 5050 3300 
L 5225 3550 
L 5625 3250 
L 5425 3075 
L 5425 275 
Q 5450 -350 4825 -575 
Q 4800 -175 3975 0 
L 3975 125 
Q 4425 75 4762 50 
Q 5100 25 5100 350 
L 5100 3150 
L 1325 3150 
z
M 2125 3025 
Q 2550 2800 2687 2662 
Q 2825 2525 2825 2400 
Q 2825 2275 2737 2150 
Q 2650 2025 2625 2025 
Q 2550 2025 2500 2250 
Q 2400 2575 2075 2975 
L 2125 3025 
z
M 3850 3100 
L 4325 2750 
L 4100 2675 
Q 3800 2325 3450 1975 
L 4050 1975 
L 4325 2250 
L 4750 1825 
L 3300 1825 
L 3300 1175 
L 4175 1175 
L 4475 1475 
L 4925 1025 
L 3300 1025 
L 3300 -250 
L 2975 -425 
L 2975 1025 
L 2300 1025 
Q 1975 1025 1700 950 
L 1475 1175 
L 2975 1175 
L 2975 1825 
L 2525 1825 
Q 2200 1825 1925 1750 
L 1700 1975 
L 3300 1975 
Q 3675 2550 3850 3100 
z
" transform="scale(0.015625)"/>
     </defs>
     <use xlink:href="#SimSun-6cb3"/>
     <use xlink:href="#SimSun-5357" x="100"/>
    </g>
   </g>
   <g id="text_31">
    <!-- 湖南 -->
    <g transform="translate(196.790891 287.976981) scale(0.12 -0.12)">
     <defs>
      <path id="SimSun-6e56" d="M 2675 3750 
Q 2675 4825 2650 5200 
L 3200 4925 
L 2975 4750 
L 2975 3750 
L 3350 3750 
L 3600 4000 
L 3975 3600 
L 2975 3600 
L 2975 2375 
L 3200 2375 
L 3400 2600 
L 3700 2325 
L 3525 2200 
Q 3525 1050 3550 600 
L 3225 450 
L 3225 750 
L 2325 750 
L 2325 175 
L 2000 25 
Q 2025 650 2025 1287 
Q 2025 1925 2000 2575 
L 2325 2375 
L 2675 2375 
L 2675 3600 
Q 2425 3600 2150 3525 
L 1925 3750 
L 2675 3750 
z
M 2325 2225 
L 2325 900 
L 3225 900 
L 3225 2225 
L 2325 2225 
z
M 4500 1875 
Q 4350 100 2700 -575 
L 2675 -500 
Q 3600 75 3912 837 
Q 4225 1600 4200 2912 
Q 4175 4225 4150 4825 
L 4500 4625 
L 5375 4625 
L 5600 4850 
L 5900 4550 
L 5700 4400 
L 5700 50 
Q 5700 -150 5600 -287 
Q 5500 -425 5200 -550 
Q 5075 -175 4425 0 
L 4425 100 
Q 5025 25 5212 12 
Q 5400 0 5400 200 
L 5400 1875 
L 4500 1875 
z
M 4500 4475 
L 4500 3350 
L 5400 3350 
L 5400 4475 
L 4500 4475 
z
M 4500 3200 
L 4500 2025 
L 5400 2025 
L 5400 3200 
L 4500 3200 
z
M 2050 4275 
Q 1375 1475 1300 1175 
Q 1200 850 1212 400 
Q 1225 -50 1250 -225 
Q 1250 -325 1125 -325 
Q 1025 -325 887 -275 
Q 750 -225 750 -50 
Q 750 75 825 350 
Q 875 550 875 750 
Q 875 925 762 1012 
Q 650 1100 275 1200 
L 275 1300 
Q 725 1250 837 1262 
Q 950 1275 1087 1487 
Q 1225 1700 1950 4300 
L 2050 4275 
z
M 275 3625 
Q 1050 3175 1062 2912 
Q 1075 2650 937 2550 
Q 800 2450 700 2800 
Q 575 3125 225 3550 
L 275 3625 
z
M 775 5000 
Q 1425 4650 1475 4525 
Q 1525 4400 1525 4350 
Q 1525 4200 1437 4100 
Q 1350 4000 1325 4000 
Q 1250 4000 1175 4225 
Q 1050 4550 725 4925 
L 775 5000 
z
" transform="scale(0.015625)"/>
     </defs>
     <use xlink:href="#SimSun-6e56"/>
     <use xlink:href="#SimSun-5357" x="100"/>
    </g>
   </g>
   <g id="text_32">
    <!-- 湖北 -->
    <g transform="translate(166.038525 288.205193) scale(0.12 -0.12)">
     <use xlink:href="#SimSun-6e56"/>
     <use xlink:href="#SimSun-5317" x="100"/>
    </g>
   </g>
   <g id="text_33">
    <!-- 广东 -->
    <g transform="translate(412.316955 400.343702) scale(0.12 -0.12)">
     <defs>
      <path id="SimSun-5e7f" d="M 1000 4450 
L 1425 4200 
L 5100 4200 
L 5475 4575 
L 6000 4050 
L 1400 4050 
Q 1425 2025 1250 1187 
Q 1075 350 325 -600 
L 250 -550 
Q 1025 700 1037 2362 
Q 1050 4025 1000 4450 
z
M 3000 5250 
Q 3525 4950 3612 4837 
Q 3700 4725 3700 4600 
Q 3700 4525 3662 4437 
Q 3625 4350 3500 4275 
Q 3375 4200 3300 4500 
Q 3225 4775 2925 5175 
L 3000 5250 
z
" transform="scale(0.015625)"/>
     </defs>
     <use xlink:href="#SimSun-5e7f"/>
     <use xlink:href="#SimSun-4e1c" x="100"/>
    </g>
   </g>
   <g id="text_34">
    <!-- 广西 -->
    <g transform="translate(214.537408 437.217463) scale(0.12 -0.12)">
     <use xlink:href="#SimSun-5e7f"/>
     <use xlink:href="#SimSun-897f" x="100"/>
    </g>
   </g>
   <g id="text_35">
    <!-- 海南 -->
    <g transform="translate(219.183185 517.848778) scale(0.12 -0.12)">
     <use xlink:href="#SimSun-6d77"/>
     <use xlink:href="#SimSun-5357" x="100"/>
    </g>
   </g>
   <g id="text_36">
    <!-- 重庆 -->
    <g transform="translate(266.711858 233.297629) scale(0.12 -0.12)">
     <defs>
      <path id="SimSun-91cd" d="M 3325 2275 
L 3325 1600 
L 4575 1600 
L 4575 2275 
L 3325 2275 
z
M 1400 1150 
Q 1425 1750 1425 2300 
Q 1425 2850 1400 3425 
L 1775 3225 
L 3000 3225 
L 3000 3800 
L 1400 3800 
Q 1075 3800 800 3725 
L 575 3950 
L 3000 3950 
L 3000 4550 
Q 1700 4500 1125 4475 
L 1125 4575 
Q 2350 4650 3350 4812 
Q 4350 4975 4725 5175 
L 5100 4725 
Q 4800 4750 4475 4725 
Q 4125 4675 3325 4600 
L 3325 3950 
L 4975 3950 
L 5350 4300 
L 5825 3800 
L 3325 3800 
L 3325 3225 
L 4550 3225 
L 4725 3475 
L 5100 3175 
L 4900 3000 
Q 4900 1950 4925 1325 
L 4575 1150 
L 4575 1450 
L 3325 1450 
L 3325 775 
L 4675 775 
L 5000 1100 
L 5450 625 
L 3325 625 
L 3325 -125 
L 5200 -125 
L 5600 275 
L 6100 -275 
L 1100 -275 
Q 775 -275 500 -350 
L 275 -125 
L 3000 -125 
L 3000 625 
L 1725 625 
Q 1400 625 1125 550 
L 900 775 
L 3000 775 
L 3000 1450 
L 1775 1450 
L 1775 1300 
L 1400 1150 
z
M 1775 3075 
L 1775 2425 
L 3000 2425 
L 3000 3075 
L 1775 3075 
z
M 1775 2275 
L 1775 1600 
L 3000 1600 
L 3000 2275 
L 1775 2275 
z
M 3325 3075 
L 3325 2425 
L 4575 2425 
L 4575 3075 
L 3325 3075 
z
" transform="scale(0.015625)"/>
      <path id="SimSun-5e86" d="M 1500 2600 
L 3275 2600 
Q 3300 3500 3250 4000 
L 3875 3725 
L 3675 3550 
Q 3650 3100 3625 2600 
L 5200 2600 
L 5525 2925 
L 6000 2450 
L 3800 2450 
Q 4125 1250 4837 637 
Q 5550 25 6100 0 
L 6100 -100 
Q 5625 -200 5525 -450 
Q 3900 650 3675 2450 
L 3625 2450 
Q 3475 825 2725 225 
Q 1975 -375 1000 -625 
L 950 -550 
Q 1775 -275 2437 312 
Q 3100 900 3275 2450 
L 2325 2450 
Q 2000 2450 1725 2375 
L 1500 2600 
z
M 300 -625 
L 225 -575 
Q 725 250 862 1025 
Q 1000 1800 1012 2825 
Q 1025 3850 1000 4525 
L 1425 4275 
L 3325 4275 
Q 3325 4725 2950 5175 
L 3000 5250 
Q 3525 5000 3625 4850 
Q 3725 4700 3725 4600 
Q 3725 4450 3550 4275 
L 5050 4275 
L 5425 4650 
L 5950 4125 
L 1400 4125 
Q 1400 2975 1350 2062 
Q 1300 1150 1050 550 
Q 800 -50 300 -625 
z
" transform="scale(0.015625)"/>
     </defs>
     <use xlink:href="#SimSun-91cd"/>
     <use xlink:href="#SimSun-5e86" x="100"/>
    </g>
   </g>
   <g id="text_37">
    <!-- 四川 -->
    <g transform="translate(202.997525 291.111244) scale(0.12 -0.12)">
     <defs>
      <path id="SimSun-56db" d="M 5525 600 
Q 5525 350 5550 -425 
L 5175 -550 
L 5175 75 
L 1225 75 
L 1225 -400 
L 850 -550 
Q 875 300 875 2300 
Q 875 4300 850 5025 
L 1225 4800 
L 5125 4800 
L 5300 5075 
L 5725 4750 
L 5525 4575 
L 5525 600 
z
M 1225 4650 
L 1225 775 
Q 2050 1475 2225 2325 
Q 2400 3175 2375 4650 
L 1225 4650 
z
M 2725 4650 
Q 2750 3050 2525 2162 
Q 2300 1275 1225 625 
L 1225 225 
L 5175 225 
L 5175 4650 
L 4000 4650 
L 4000 2050 
Q 3975 1575 4275 1600 
L 4525 1600 
Q 4650 1650 4800 1650 
Q 4875 1650 4962 1612 
Q 5050 1575 5100 1412 
Q 5150 1250 4650 1275 
L 4125 1275 
Q 3625 1275 3650 1775 
L 3650 4650 
L 2725 4650 
z
" transform="scale(0.015625)"/>
      <path id="SimSun-5ddd" d="M 1875 4650 
Q 1900 1900 1550 975 
Q 1200 50 500 -650 
L 425 -600 
Q 1450 675 1487 2100 
Q 1525 3525 1525 4150 
Q 1525 4775 1500 5075 
L 2075 4800 
L 1875 4650 
z
M 3650 4150 
L 3650 1550 
Q 3650 1050 3675 700 
L 3275 425 
Q 3300 1150 3300 1437 
Q 3300 1725 3300 2975 
Q 3300 4225 3275 4600 
L 3850 4350 
L 3650 4150 
z
M 5450 4650 
L 5450 650 
Q 5450 150 5475 -350 
L 5075 -600 
Q 5100 425 5100 1050 
Q 5100 4500 5075 5125 
L 5650 4850 
L 5450 4650 
z
" transform="scale(0.015625)"/>
     </defs>
     <use xlink:href="#SimSun-56db"/>
     <use xlink:href="#SimSun-5ddd" x="100"/>
    </g>
   </g>
   <g id="text_38">
    <!-- 贵州 -->
    <g transform="translate(144.812033 340.774205) scale(0.12 -0.12)">
     <defs>
      <path id="SimSun-8d35" d="M 1600 4400 
L 1600 3675 
L 2975 3675 
L 2975 4400 
L 1600 4400 
z
M 3300 4400 
L 3300 3675 
L 4675 3675 
L 4675 4400 
L 3300 4400 
z
M 1225 3250 
Q 1250 3625 1250 3987 
Q 1250 4350 1225 4725 
L 1600 4550 
L 2975 4550 
Q 2975 4925 2950 5250 
L 3500 4975 
L 3300 4800 
L 3300 4550 
L 4675 4550 
L 4925 4800 
L 5225 4500 
L 5000 4325 
Q 5000 3750 5025 3400 
L 4675 3250 
L 4675 3525 
L 3300 3525 
L 3300 2925 
L 5350 2925 
L 5650 3225 
L 6075 2775 
L 1025 2775 
Q 825 2775 550 2700 
L 325 2925 
L 2975 2925 
L 2975 3525 
L 1600 3525 
L 1600 3350 
L 1225 3250 
z
M 1300 400 
Q 1325 925 1325 1425 
Q 1325 1925 1300 2450 
L 1675 2275 
L 4525 2275 
L 4775 2525 
L 5125 2175 
L 4900 2025 
Q 4900 1050 4925 650 
L 4550 500 
L 4550 2125 
L 1675 2125 
L 1675 550 
L 1300 400 
z
M 2900 1875 
L 3450 1550 
L 3275 1425 
Q 3175 750 2900 362 
Q 2625 -25 2050 -262 
Q 1475 -500 500 -650 
L 475 -550 
Q 1575 -300 2050 0 
Q 2525 300 2700 725 
Q 2875 1150 2900 1875 
z
M 3200 425 
L 3225 525 
Q 4000 400 4625 237 
Q 5250 75 5387 -87 
Q 5525 -250 5525 -375 
Q 5525 -450 5487 -525 
Q 5450 -600 5400 -600 
Q 5325 -600 5175 -475 
Q 4950 -275 4562 -75 
Q 4175 125 3200 425 
z
" transform="scale(0.015625)"/>
      <path id="SimSun-5dde" d="M 1100 3300 
Q 1125 2975 1125 2675 
Q 1125 2450 1100 2262 
Q 1075 2075 900 2000 
Q 725 1925 675 1925 
Q 625 1925 550 1962 
Q 475 2000 475 2025 
Q 475 2125 650 2350 
Q 900 2675 1000 3300 
L 1100 3300 
z
M 1650 4975 
L 2200 4700 
L 2000 4525 
Q 2000 1575 1537 675 
Q 1075 -225 325 -675 
L 275 -600 
Q 1400 450 1550 2150 
Q 1700 3850 1650 4975 
z
M 2375 3300 
Q 2850 2850 2925 2675 
Q 3000 2500 3000 2400 
Q 3000 2300 2900 2137 
Q 2800 1975 2712 2000 
Q 2625 2025 2600 2350 
Q 2550 2675 2325 3250 
L 2375 3300 
z
M 3375 25 
Q 3400 825 3400 1425 
Q 3400 4250 3375 4775 
L 3925 4525 
L 3725 4350 
L 3725 1200 
Q 3725 750 3750 200 
L 3375 25 
z
M 4125 3300 
Q 4650 2775 4687 2662 
Q 4725 2550 4725 2475 
Q 4725 2400 4687 2287 
Q 4650 2175 4575 2125 
Q 4500 2075 4475 2075 
Q 4400 2075 4350 2375 
Q 4275 2750 4050 3250 
L 4125 3300 
z
M 5450 4625 
L 5450 625 
Q 5450 175 5475 -425 
L 5100 -575 
Q 5125 325 5125 925 
Q 5125 4800 5100 5125 
L 5675 4825 
L 5450 4625 
z
" transform="scale(0.015625)"/>
     </defs>
     <use xlink:href="#SimSun-8d35"/>
     <use xlink:href="#SimSun-5dde" x="100"/>
    </g>
   </g>
   <g id="text_39">
    <!-- 云南 -->
    <g transform="translate(245.595749 270.526566) scale(0.12 -0.12)">
     <defs>
      <path id="SimSun-4e91" d="M 1200 4450 
L 4500 4450 
L 4850 4800 
L 5350 4300 
L 1975 4300 
Q 1700 4300 1425 4225 
L 1200 4450 
z
M 1600 275 
Q 2300 300 4725 450 
Q 4425 975 3850 1700 
L 3925 1775 
Q 5200 725 5287 500 
Q 5375 275 5375 175 
Q 5375 0 5250 -162 
Q 5125 -325 5075 -325 
Q 5025 -325 4975 -200 
Q 4875 50 4775 300 
Q 1650 -25 1300 -300 
L 975 300 
Q 1225 350 1462 550 
Q 1700 750 2150 1462 
Q 2600 2175 2725 2600 
L 1250 2600 
Q 925 2600 650 2525 
L 425 2750 
L 5025 2750 
L 5450 3175 
L 6025 2600 
L 3250 2600 
Q 3000 2025 2500 1375 
Q 2000 725 1600 275 
z
" transform="scale(0.015625)"/>
     </defs>
     <use xlink:href="#SimSun-4e91"/>
     <use xlink:href="#SimSun-5357" x="100"/>
    </g>
   </g>
   <g id="text_40">
    <!-- 西藏 -->
    <g transform="translate(333.19739 57.210994) scale(0.12 -0.12)">
     <defs>
      <path id="SimSun-85cf" d="M 2300 4600 
Q 2300 4950 2275 5250 
L 2800 5025 
L 2625 4850 
L 2625 4600 
L 3650 4600 
Q 3650 4925 3625 5250 
L 4150 5025 
L 3975 4875 
L 3975 4600 
L 5200 4600 
L 5575 4900 
L 6000 4450 
L 3975 4450 
L 3975 4000 
L 3650 3850 
L 3650 4450 
L 2625 4450 
L 2625 3925 
L 2300 3775 
L 2300 4450 
L 1100 4450 
Q 900 4450 625 4375 
L 400 4600 
L 2300 4600 
z
M 675 2825 
Q 675 3550 650 3875 
L 1125 3625 
L 975 3450 
L 975 2775 
L 1575 2775 
Q 1575 3275 1550 3650 
L 1925 3475 
L 4175 3475 
Q 4175 3875 4150 4250 
L 4675 4025 
L 4500 3875 
L 4500 3475 
L 5200 3475 
L 5550 3775 
L 5975 3325 
L 4500 3325 
Q 4500 2125 4700 1350 
Q 4925 1850 5025 2250 
Q 5125 2650 5150 3000 
L 5625 2725 
L 5450 2550 
Q 5100 1375 4875 975 
Q 5300 225 5700 0 
Q 5825 375 5975 875 
L 6050 850 
Q 5975 300 5975 25 
Q 5975 -250 6075 -500 
Q 6100 -600 6025 -600 
Q 5950 -600 5550 -362 
Q 5150 -125 4675 625 
Q 3925 -200 2900 -575 
L 2850 -500 
Q 3450 -150 3950 325 
L 2600 325 
L 2400 125 
L 2125 450 
L 2300 575 
Q 2300 2350 2275 3025 
L 2625 2850 
L 3450 2850 
L 3725 3100 
L 4075 2700 
L 3300 2700 
L 3300 2075 
L 3525 2075 
L 3725 2275 
L 4000 1975 
L 3850 1850 
Q 3850 1325 3875 1150 
L 3550 1025 
L 3550 1175 
L 3300 1175 
L 3300 475 
L 3575 475 
L 3850 700 
L 4075 450 
Q 4350 725 4500 975 
Q 4375 1300 4287 1950 
Q 4200 2600 4175 3325 
L 1900 3325 
Q 1925 1900 1875 1337 
Q 1825 775 1612 287 
Q 1400 -200 725 -650 
L 675 -575 
Q 1200 -125 1375 475 
Q 1550 1075 1575 1725 
L 1125 1725 
Q 1125 1200 950 700 
Q 775 200 300 -200 
L 250 -150 
Q 600 300 712 800 
Q 825 1300 825 1700 
Q 625 1700 475 1625 
L 300 1875 
L 1575 1875 
L 1575 2625 
L 1000 2625 
L 825 2425 
L 500 2725 
L 675 2825 
z
M 2600 2700 
L 2600 2075 
L 3000 2075 
L 3000 2700 
L 2600 2700 
z
M 2600 1925 
L 2600 1325 
L 3550 1325 
L 3550 1925 
L 2600 1925 
z
M 2600 1175 
L 2600 475 
L 3000 475 
L 3000 1175 
L 2600 1175 
z
M 4700 4375 
Q 4975 4250 5125 4150 
Q 5275 4050 5312 3925 
Q 5350 3800 5262 3700 
Q 5175 3600 5125 3600 
Q 5075 3600 5025 3725 
Q 4950 3900 4887 4025 
Q 4825 4150 4675 4325 
L 4700 4375 
z
" transform="scale(0.015625)"/>
     </defs>
     <use xlink:href="#SimSun-897f"/>
     <use xlink:href="#SimSun-85cf" x="100"/>
    </g>
   </g>
   <g id="text_41">
    <!-- 陕西 -->
    <g transform="translate(105.912613 373.686386) scale(0.12 -0.12)">
     <defs>
      <path id="SimSun-9655" d="M 2575 4575 
L 2350 4450 
L 1625 3050 
Q 2000 2750 2200 2487 
Q 2400 2225 2462 1987 
Q 2525 1750 2525 1675 
Q 2525 1475 2387 1175 
Q 2250 875 1650 725 
Q 1650 1050 1100 1250 
L 1100 -475 
L 725 -650 
Q 750 75 750 2300 
Q 750 4525 725 4900 
L 1100 4675 
L 1975 4675 
L 2175 4925 
L 2575 4575 
z
M 2000 4525 
L 1100 4525 
L 1100 1375 
Q 1500 1275 1700 1275 
Q 1825 1275 1975 1337 
Q 2125 1400 2162 1675 
Q 2200 1950 2025 2287 
Q 1850 2625 1475 3050 
L 2000 4525 
z
M 2525 4000 
L 3825 4000 
Q 3825 4600 3800 5200 
L 4375 4975 
L 4175 4800 
L 4175 4000 
L 5025 4000 
L 5350 4300 
L 5750 3850 
L 4175 3850 
Q 4150 2475 4100 1875 
L 5300 1875 
L 5650 2225 
L 6075 1725 
L 4325 1725 
Q 4600 950 5062 475 
Q 5525 0 6125 -125 
L 6125 -225 
Q 5775 -200 5550 -500 
Q 5125 -175 4762 350 
Q 4400 875 4200 1725 
L 4075 1725 
Q 3825 600 3162 87 
Q 2500 -425 1650 -625 
L 1625 -550 
Q 2450 -225 2987 287 
Q 3525 800 3725 1725 
L 3325 1725 
Q 3000 1725 2725 1650 
L 2500 1875 
L 3750 1875 
Q 3800 2475 3825 3850 
L 3350 3850 
Q 3025 3850 2750 3775 
L 2525 4000 
z
M 2725 3450 
Q 3275 2975 3337 2800 
Q 3400 2625 3400 2575 
Q 3400 2425 3275 2287 
Q 3150 2150 3125 2150 
Q 3025 2150 3000 2450 
Q 2925 2875 2650 3400 
L 2725 3450 
z
M 5000 3525 
L 5500 3175 
L 5300 3075 
Q 4775 2350 4500 2100 
L 4425 2150 
Q 4850 2800 5000 3525 
z
" transform="scale(0.015625)"/>
     </defs>
     <use xlink:href="#SimSun-9655"/>
     <use xlink:href="#SimSun-897f" x="100"/>
    </g>
   </g>
   <g id="text_42">
    <!-- 甘肃 -->
    <g transform="translate(116.102724 315.924645) scale(0.12 -0.12)">
     <defs>
      <path id="SimSun-7518" d="M 1775 3650 
Q 1775 4350 1750 5250 
L 2325 5000 
L 2125 4775 
L 2125 3650 
L 4200 3650 
Q 4200 4625 4175 5200 
L 4750 4975 
L 4550 4750 
L 4550 3650 
L 5175 3650 
L 5600 4050 
L 6100 3500 
L 4550 3500 
Q 4550 425 4600 -400 
L 4200 -575 
L 4200 -25 
L 2125 -25 
L 2125 -475 
L 1725 -625 
Q 1775 700 1775 3500 
L 1050 3500 
Q 725 3500 450 3425 
L 225 3650 
L 1775 3650 
z
M 2125 3500 
L 2125 2000 
L 4200 2000 
L 4200 3500 
L 2125 3500 
z
M 2125 1850 
L 2125 125 
L 4200 125 
L 4200 1850 
L 2125 1850 
z
" transform="scale(0.015625)"/>
      <path id="SimSun-8083" d="M 3350 4250 
L 3350 3650 
L 4775 3650 
L 4775 4250 
L 3350 4250 
z
M 3350 3500 
L 3350 2850 
L 4775 2850 
L 4775 3500 
L 3350 3500 
z
M 300 -575 
Q 725 -75 900 387 
Q 1075 850 1100 1437 
Q 1125 2025 1100 2500 
L 1675 2225 
L 1475 2050 
Q 1475 1200 1312 600 
Q 1150 0 350 -650 
L 300 -575 
z
M 2225 2075 
L 2700 1800 
Q 2525 1725 2250 1100 
Q 1950 475 1525 25 
L 1450 75 
Q 1650 350 1862 887 
Q 2075 1425 2225 2075 
z
M 3675 2000 
Q 4275 1300 4437 1012 
Q 4600 725 4575 537 
Q 4550 350 4462 262 
Q 4375 175 4325 175 
Q 4250 175 4200 400 
Q 4125 725 3975 1125 
Q 3825 1525 3600 1950 
L 3675 2000 
z
M 4850 2425 
L 5400 2200 
L 5225 2000 
L 5225 450 
Q 5225 -75 5225 -500 
L 4850 -675 
Q 4875 -275 4875 900 
Q 4875 2075 4850 2425 
z
M 2975 -650 
Q 3000 -375 3000 2700 
L 1850 2700 
Q 1525 2700 1250 2625 
L 1025 2850 
L 3000 2850 
L 3000 3500 
L 1100 3500 
Q 775 3500 500 3425 
L 275 3650 
L 3000 3650 
L 3000 4250 
L 1900 4250 
Q 1575 4250 1300 4175 
L 1075 4400 
L 3000 4400 
Q 3000 5025 2975 5250 
L 3550 5000 
L 3350 4850 
L 3350 4400 
L 4725 4400 
L 4900 4625 
L 5325 4325 
L 5125 4175 
L 5125 3650 
L 5475 3650 
L 5750 3925 
L 6150 3500 
L 5125 3500 
Q 5125 2925 5150 2600 
L 4775 2475 
L 4775 2700 
L 3350 2700 
L 3350 100 
Q 3350 -225 3375 -500 
L 2975 -650 
z
" transform="scale(0.015625)"/>
     </defs>
     <use xlink:href="#SimSun-7518"/>
     <use xlink:href="#SimSun-8083" x="100"/>
    </g>
   </g>
   <g id="text_43">
    <!-- 青海 -->
    <g transform="translate(141.107419 340.806973) scale(0.12 -0.12)">
     <defs>
      <path id="SimSun-9752" d="M 1925 1475 
L 1925 825 
L 4450 825 
L 4450 1475 
L 1925 1475 
z
M 2875 5275 
L 3475 5025 
L 3250 4850 
L 3250 4425 
L 4875 4425 
L 5250 4800 
L 5750 4275 
L 3250 4275 
L 3250 3775 
L 4575 3775 
L 4900 4075 
L 5325 3625 
L 3250 3625 
L 3250 2975 
L 5250 2975 
L 5625 3350 
L 6125 2825 
L 1075 2825 
Q 750 2825 475 2750 
L 250 2975 
L 2900 2975 
L 2900 3625 
L 1775 3625 
Q 1450 3625 1175 3550 
L 950 3775 
L 2900 3775 
L 2900 4275 
L 1225 4275 
Q 900 4275 625 4200 
L 400 4425 
L 2900 4425 
Q 2900 4875 2875 5275 
z
M 1550 2575 
L 1975 2375 
L 4400 2375 
L 4575 2600 
L 4975 2300 
L 4800 2150 
L 4800 25 
Q 4825 -475 4250 -625 
Q 4250 -275 3525 -125 
L 3525 -25 
Q 4250 -75 4350 -62 
Q 4450 -50 4450 100 
L 4450 675 
L 1925 675 
L 1925 -500 
L 1550 -675 
Q 1575 -125 1575 962 
Q 1575 2050 1550 2575 
z
M 1925 2225 
L 1925 1625 
L 4450 1625 
L 4450 2225 
L 1925 2225 
z
" transform="scale(0.015625)"/>
     </defs>
     <use xlink:href="#SimSun-9752"/>
     <use xlink:href="#SimSun-6d77" x="100"/>
    </g>
   </g>
   <g id="text_44">
    <!-- 宁夏 -->
    <g transform="translate(87.033216 310.157809) scale(0.12 -0.12)">
     <defs>
      <path id="SimSun-590f" d="M 2600 4225 
Q 2725 4550 2750 4700 
L 1375 4700 
Q 1050 4700 775 4625 
L 550 4850 
L 4875 4850 
L 5225 5200 
L 5725 4700 
L 3225 4700 
Q 3050 4600 2725 4225 
L 4500 4225 
L 4700 4450 
L 5125 4125 
L 4900 3975 
L 4900 2750 
Q 4900 2525 4925 2075 
L 4550 1925 
L 4550 2125 
L 2775 2125 
Q 2600 1875 2400 1625 
L 4125 1625 
L 4350 1850 
L 4775 1450 
L 4525 1375 
Q 3975 825 3550 475 
Q 4725 -100 6125 -50 
L 6125 -150 
Q 5575 -250 5525 -525 
Q 4275 -300 3300 300 
Q 2250 -350 275 -575 
L 250 -500 
Q 2225 -100 3050 475 
Q 2550 975 2250 1425 
Q 1950 1075 1500 725 
Q 1050 375 600 150 
L 550 225 
Q 1150 650 1612 1125 
Q 2075 1600 2325 2125 
L 1725 2125 
L 1725 1950 
L 1350 1800 
Q 1375 2225 1375 3175 
Q 1375 4125 1350 4425 
L 1725 4225 
L 2600 4225 
z
M 1725 4075 
L 1725 3550 
L 4550 3550 
L 4550 4075 
L 1725 4075 
z
M 1725 3400 
L 1725 2900 
L 4550 2900 
L 4550 3400 
L 1725 3400 
z
M 1725 2750 
L 1725 2275 
L 4550 2275 
L 4550 2750 
L 1725 2750 
z
M 2350 1475 
Q 2725 1000 3275 650 
Q 3750 1025 4100 1475 
L 2350 1475 
z
" transform="scale(0.015625)"/>
     </defs>
     <use xlink:href="#SimSun-5b81"/>
     <use xlink:href="#SimSun-590f" x="100"/>
    </g>
   </g>
   <g id="text_45">
    <!-- 新疆 -->
    <g transform="translate(132.224477 271.203704) scale(0.12 -0.12)">
     <defs>
      <path id="SimSun-65b0" d="M 5225 2775 
L 5225 475 
Q 5225 75 5250 -450 
L 4875 -625 
Q 4900 700 4900 2775 
L 4100 2775 
Q 4150 1150 3687 450 
Q 3225 -250 2600 -625 
L 2550 -550 
Q 3050 -125 3325 337 
Q 3600 800 3687 1362 
Q 3775 1925 3775 2775 
Q 3775 3625 3750 4700 
L 4100 4475 
Q 5150 4725 5475 5025 
L 5900 4575 
Q 5550 4575 5225 4525 
Q 4900 4475 4100 4350 
L 4100 2925 
L 5325 2925 
L 5650 3250 
L 6125 2775 
L 5225 2775 
z
M 1075 4050 
Q 1425 3825 1562 3675 
Q 1700 3525 1700 3400 
Q 1700 3275 1612 3150 
Q 1525 3025 1500 3025 
Q 1425 3025 1375 3225 
Q 1300 3525 1000 4000 
L 1075 4050 
z
M 2450 1400 
Q 2925 1125 3075 975 
Q 3225 825 3225 700 
Q 3225 600 3150 462 
Q 3075 325 3025 325 
Q 2975 325 2900 550 
Q 2775 875 2400 1325 
L 2450 1400 
z
M 1125 1475 
L 1600 1175 
L 1400 1075 
Q 850 200 350 -225 
L 275 -175 
Q 800 475 1125 1475 
z
M 1075 75 
Q 1525 0 1687 0 
Q 1850 0 1850 200 
L 1850 1775 
L 950 1775 
L 725 1725 
L 525 1925 
L 1850 1925 
L 1850 2800 
L 1125 2800 
Q 800 2800 525 2725 
L 300 2950 
L 2125 2950 
Q 2400 3650 2500 4150 
L 1325 4150 
Q 1000 4150 725 4075 
L 500 4300 
L 1875 4300 
Q 1850 4650 1525 5125 
L 1575 5175 
Q 2025 4925 2112 4787 
Q 2200 4650 2200 4600 
Q 2200 4475 2050 4300 
L 2675 4300 
L 2975 4600 
L 3425 4150 
L 2550 4150 
L 2975 3875 
Q 2800 3800 2637 3562 
Q 2475 3325 2250 2950 
L 2900 2950 
L 3200 3250 
L 3650 2800 
L 2175 2800 
L 2175 1925 
L 2750 1925 
L 3050 2225 
L 3500 1775 
L 2175 1775 
L 2175 25 
Q 2175 -350 1700 -525 
Q 1700 -225 1075 -25 
L 1075 75 
z
" transform="scale(0.015625)"/>
      <path id="SimSun-7586" d="M 2000 1475 
L 2025 2425 
L 1000 2425 
L 825 2225 
L 475 2500 
L 700 2650 
Q 825 3100 925 3800 
L 1200 3550 
L 1925 3550 
L 1925 4575 
L 1275 4575 
Q 950 4575 675 4500 
L 450 4725 
L 1900 4725 
L 2125 4950 
L 2425 4650 
L 2225 4525 
Q 2225 3725 2250 3325 
L 1925 3175 
L 1925 3400 
L 1200 3400 
L 1000 2575 
L 2000 2575 
L 2225 2800 
L 2525 2500 
L 2350 2350 
Q 2300 850 2250 437 
Q 2200 25 2050 -187 
Q 1900 -400 1525 -525 
Q 1375 -175 925 -50 
L 925 50 
Q 1475 -50 1612 -50 
Q 1750 -50 1837 75 
Q 1925 200 1975 875 
Q 850 500 525 250 
L 325 650 
Q 550 675 1000 750 
L 1000 1400 
Q 875 1400 600 1325 
L 375 1550 
L 1000 1550 
Q 1000 1925 975 2275 
L 1475 2050 
L 1300 1900 
L 1300 1550 
L 1475 1550 
L 1700 1775 
L 2000 1475 
z
M 1975 950 
L 2000 1400 
L 1300 1400 
L 1300 800 
L 1975 950 
z
M 2600 4775 
L 5375 4775 
L 5650 5050 
L 6050 4625 
L 3425 4625 
Q 3100 4625 2825 4550 
L 2600 4775 
z
M 3000 2500 
Q 3025 3000 3025 3487 
Q 3025 3975 3000 4450 
L 3325 4275 
L 5150 4275 
L 5350 4475 
L 5650 4175 
L 5450 4025 
Q 5450 3275 5475 2725 
L 5150 2575 
L 5150 2725 
L 3350 2725 
L 3350 2675 
L 3000 2500 
z
M 2650 2375 
L 5450 2375 
L 5725 2650 
L 6125 2225 
L 3475 2225 
Q 3150 2225 2875 2150 
L 2650 2375 
z
M 3000 50 
Q 3025 550 3025 1037 
Q 3025 1525 3000 2025 
L 3350 1850 
L 5200 1850 
L 5425 2075 
L 5725 1775 
L 5525 1650 
Q 5525 750 5550 250 
L 5225 100 
L 5225 300 
L 3325 300 
L 3325 200 
L 3000 50 
z
M 3325 4125 
L 3325 3575 
L 4150 3575 
L 4150 4125 
L 3325 4125 
z
M 4450 4125 
L 4450 3575 
L 5150 3575 
L 5150 4125 
L 4450 4125 
z
M 3325 3425 
L 3325 2875 
L 4150 2875 
L 4150 3425 
L 3325 3425 
z
M 4450 3425 
L 4450 2875 
L 5150 2875 
L 5150 3425 
L 4450 3425 
z
M 3325 1700 
L 3325 1150 
L 4150 1150 
L 4150 1700 
L 3325 1700 
z
M 4450 1700 
L 4450 1150 
L 5225 1150 
L 5225 1700 
L 4450 1700 
z
M 4450 1000 
L 4450 450 
L 5225 450 
L 5225 1000 
L 4450 1000 
z
M 3325 1000 
L 3325 450 
L 4150 450 
L 4150 1000 
L 3325 1000 
z
M 2250 -125 
L 5475 -125 
L 5750 150 
L 6150 -275 
L 3075 -275 
Q 2750 -275 2475 -350 
L 2250 -125 
z
" transform="scale(0.015625)"/>
     </defs>
     <use xlink:href="#SimSun-65b0"/>
     <use xlink:href="#SimSun-7586" x="100"/>
    </g>
   </g>
   <g id="text_46">
    <!-- 原始数据 -->
    <g transform="translate(285.41375 15.129687) scale(0.1 -0.1)">
     <defs>
      <path id="SimSun-539f" d="M 1150 4325 
Q 1150 4650 1125 5050 
L 1500 4850 
L 4900 4850 
L 5275 5225 
L 5800 4700 
L 1500 4700 
L 1500 2550 
Q 1525 1700 1350 975 
Q 1175 250 475 -500 
L 400 -450 
Q 900 300 1037 962 
Q 1175 1625 1150 2425 
L 1150 4325 
z
M 2775 125 
Q 3075 100 3350 87 
Q 3625 75 3625 325 
L 3625 1925 
L 2575 1925 
L 2575 1750 
L 2225 1600 
Q 2250 2000 2250 2762 
Q 2250 3525 2225 4000 
L 2575 3825 
L 3175 3825 
Q 3400 4350 3475 4675 
L 3925 4450 
Q 3750 4350 3612 4212 
Q 3475 4075 3325 3825 
L 4900 3825 
L 5075 4075 
L 5450 3775 
L 5275 3625 
L 5275 2400 
Q 5275 2125 5300 1775 
L 4950 1625 
L 4950 1925 
L 3950 1925 
L 3950 175 
Q 3975 -300 3450 -475 
Q 3425 -125 2775 25 
L 2775 125 
z
M 2575 3675 
L 2575 2950 
L 4950 2950 
L 4950 3675 
L 2575 3675 
z
M 2575 2800 
L 2575 2075 
L 4950 2075 
L 4950 2800 
L 2575 2800 
z
M 2775 1425 
L 3200 1050 
Q 2925 950 2425 525 
Q 1925 100 1350 -200 
L 1300 -125 
Q 1775 250 2175 675 
Q 2575 1100 2775 1425 
z
M 4275 1300 
Q 5750 700 5812 512 
Q 5875 325 5875 200 
Q 5875 50 5837 -50 
Q 5800 -150 5750 -150 
Q 5700 -150 5600 0 
Q 5425 250 5075 575 
Q 4725 900 4250 1200 
L 4275 1300 
z
" transform="scale(0.015625)"/>
      <path id="SimSun-59cb" d="M 3600 1800 
L 3600 150 
L 5250 150 
L 5250 1800 
L 3600 1800 
z
M 4025 5250 
L 4575 4900 
L 4350 4775 
Q 3575 3375 3275 3025 
Q 3875 3050 5450 3100 
Q 5200 3575 4775 4025 
L 4850 4100 
Q 5850 3425 5912 3250 
Q 5975 3075 5975 2950 
Q 5975 2775 5875 2650 
Q 5775 2525 5725 2525 
Q 5675 2525 5650 2625 
Q 5575 2800 5500 2975 
Q 4425 2900 3887 2787 
Q 3350 2675 3150 2500 
L 2850 3025 
Q 3125 3125 3437 3700 
Q 3750 4275 4025 5250 
z
M 5600 1700 
Q 5600 -50 5625 -325 
L 5250 -500 
L 5250 0 
L 3600 0 
L 3600 -400 
L 3225 -550 
Q 3250 -175 3250 762 
Q 3250 1700 3225 2175 
L 3600 1950 
L 5200 1950 
L 5375 2200 
L 5800 1875 
L 5600 1700 
z
M 1500 3525 
Q 1325 2950 900 1500 
Q 1350 1350 1725 1200 
Q 2100 2050 2325 3525 
L 1500 3525 
z
M 2050 4925 
L 1825 4775 
Q 1725 4450 1525 3675 
L 2300 3675 
L 2475 3900 
L 2875 3575 
L 2675 3425 
Q 2400 1925 2050 1075 
Q 2525 825 2625 700 
Q 2725 575 2725 375 
Q 2725 250 2700 137 
Q 2675 25 2650 25 
Q 2575 25 2450 225 
Q 2225 550 1925 800 
Q 1300 -100 375 -600 
L 325 -525 
Q 1200 175 1625 950 
Q 1000 1300 575 1450 
Q 875 2450 1150 3525 
L 1100 3525 
Q 775 3525 500 3450 
L 275 3675 
L 1175 3675 
Q 1425 4750 1475 5200 
L 2050 4925 
z
" transform="scale(0.015625)"/>
      <path id="SimSun-6570" d="M 1875 1525 
Q 1675 1200 1500 900 
Q 1825 825 2275 725 
Q 2500 975 2725 1525 
L 1875 1525 
z
M 850 4900 
Q 1325 4600 1425 4450 
Q 1525 4300 1525 4225 
Q 1525 4100 1437 3975 
Q 1350 3850 1300 3850 
Q 1225 3850 1150 4100 
Q 1050 4450 775 4850 
L 850 4900 
z
M 3000 4975 
L 3450 4675 
Q 3250 4625 3100 4425 
Q 2925 4225 2525 3825 
L 2450 3875 
Q 2925 4625 3000 4975 
z
M 1875 5250 
L 2425 5000 
L 2225 4825 
L 2225 3675 
L 2850 3675 
L 3125 3950 
L 3550 3525 
L 2225 3525 
L 2225 3300 
Q 2800 3175 2937 3062 
Q 3075 2950 3075 2775 
Q 3075 2700 3050 2587 
Q 3025 2475 2975 2475 
Q 2925 2475 2800 2650 
Q 2600 2925 2225 3175 
L 2225 2400 
L 1925 2200 
L 2275 2050 
Q 2150 2000 1950 1675 
L 2725 1675 
L 2900 1900 
L 3275 1575 
L 3050 1450 
Q 2800 875 2600 650 
Q 3000 550 3137 437 
Q 3275 325 3275 150 
Q 3275 -25 3200 -25 
Q 3125 -25 3025 75 
Q 2750 275 2400 425 
Q 1525 -275 325 -500 
L 300 -425 
Q 1450 -50 2100 550 
Q 1600 725 1125 800 
Q 1225 950 1525 1525 
L 1200 1525 
Q 875 1525 600 1450 
L 375 1675 
L 1575 1675 
Q 1675 1925 1775 2275 
L 1900 2225 
L 1900 3250 
Q 1225 2475 350 2050 
L 300 2125 
Q 1225 2775 1700 3525 
L 1250 3525 
Q 925 3525 650 3450 
L 425 3675 
L 1900 3675 
Q 1900 4575 1875 5250 
z
M 3925 3525 
Q 4050 2075 4525 1100 
Q 4925 1950 5025 3525 
L 3925 3525 
z
M 4050 5250 
L 4625 4925 
Q 4425 4850 4325 4625 
Q 4225 4400 3950 3675 
L 5375 3675 
L 5675 3975 
L 6125 3525 
L 5400 3525 
Q 5250 1675 4750 775 
Q 5325 75 6100 -100 
L 6100 -200 
Q 5625 -275 5600 -500 
Q 4950 -50 4525 525 
Q 3700 -275 2550 -650 
L 2500 -575 
Q 3650 -50 4325 800 
Q 3850 1975 3825 3375 
Q 3575 2725 3100 2150 
L 3025 2200 
Q 3625 3200 4050 5250 
z
" transform="scale(0.015625)"/>
      <path id="SimSun-636e" d="M 3125 -650 
Q 3150 -100 3150 512 
Q 3150 1125 3125 1600 
L 3475 1400 
L 4175 1400 
L 4175 2400 
L 3000 2400 
Q 2825 625 1675 -525 
L 1600 -450 
Q 2150 275 2437 1187 
Q 2725 2100 2737 3312 
Q 2750 4525 2725 5050 
L 3100 4825 
L 5150 4825 
L 5350 5025 
L 5700 4700 
L 5500 4575 
Q 5500 3825 5525 3475 
L 5175 3325 
L 5175 3625 
L 3075 3625 
Q 3075 3150 3025 2550 
L 4175 2550 
Q 4175 3025 4150 3475 
L 4700 3225 
L 4500 3075 
L 4500 2550 
L 5325 2550 
L 5600 2825 
L 6025 2400 
L 4500 2400 
L 4500 1400 
L 5150 1400 
L 5350 1625 
L 5700 1300 
L 5500 1150 
Q 5500 150 5525 -400 
L 5175 -600 
L 5175 -75 
L 3475 -75 
L 3475 -500 
L 3125 -650 
z
M 3075 4675 
L 3075 3775 
L 5175 3775 
L 5175 4675 
L 3075 4675 
z
M 3475 1250 
L 3475 75 
L 5175 75 
L 5175 1250 
L 3475 1250 
z
M 1675 2450 
L 2500 2925 
L 2550 2825 
L 1675 2175 
L 1675 150 
Q 1650 -300 1125 -500 
Q 1175 -250 500 25 
L 500 125 
Q 1050 25 1187 37 
Q 1325 50 1325 225 
L 1325 2000 
Q 625 1500 600 1350 
L 225 1800 
Q 375 1825 1325 2300 
L 1325 3575 
L 750 3575 
L 450 3525 
L 250 3725 
L 1325 3725 
Q 1325 4750 1300 5175 
L 1875 4875 
L 1675 4700 
L 1675 3725 
L 1950 3725 
L 2275 4000 
L 2650 3575 
L 1675 3575 
L 1675 2450 
z
" transform="scale(0.015625)"/>
     </defs>
     <use xlink:href="#SimSun-539f"/>
     <use xlink:href="#SimSun-59cb" x="100"/>
     <use xlink:href="#SimSun-6570" x="200"/>
     <use xlink:href="#SimSun-636e" x="300"/>
    </g>
   </g>
  </g>
 </g>
 <defs>
  <clipPath id="p5687ae5e2e">
   <rect x="48.90125" y="21.129687" width="513.025" height="506.85625"/>
  </clipPath>
 </defs>
</svg>
