<?xml version="1.0" encoding="utf-8" standalone="no"?>
<!DOCTYPE svg PUBLIC "-//W3C//DTD SVG 1.1//EN"
  "http://www.w3.org/Graphics/SVG/1.1/DTD/svg11.dtd">
<svg xmlns:xlink="http://www.w3.org/1999/xlink" width="453.05375pt" height="333.29737pt" viewBox="0 0 453.05375 333.29737" xmlns="http://www.w3.org/2000/svg" version="1.1">
 <metadata>
  <rdf:RDF xmlns:dc="http://purl.org/dc/elements/1.1/" xmlns:cc="http://creativecommons.org/ns#" xmlns:rdf="http://www.w3.org/1999/02/22-rdf-syntax-ns#">
   <cc:Work>
    <dc:type rdf:resource="http://purl.org/dc/dcmitype/StillImage"/>
    <dc:date>2024-01-27T13:14:05.791818</dc:date>
    <dc:format>image/svg+xml</dc:format>
    <dc:creator>
     <cc:Agent>
      <dc:title>Matplotlib v3.7.1, https://matplotlib.org/</dc:title>
     </cc:Agent>
    </dc:creator>
   </cc:Work>
  </rdf:RDF>
 </metadata>
 <defs>
  <style type="text/css">*{stroke-linejoin: round; stroke-linecap: butt}</style>
 </defs>
 <g id="figure_1">
  <g id="patch_1">
   <path d="M 0 333.29737 
L 453.05375 333.29737 
L 453.05375 0 
L 0 0 
z
" style="fill: #ffffff"/>
  </g>
  <g id="axes_1">
   <g id="patch_2">
    <path d="M 46.965625 295.74112 
L 399.725625 295.74112 
L 399.725625 51.12352 
L 46.965625 51.12352 
z
" style="fill: #ffffff"/>
   </g>
   <g id="matplotlib.axis_1">
    <g id="xtick_1">
     <g id="line2d_1">
      <defs>
       <path id="mb19a671efa" d="M 0 0 
L 0 3.5 
" style="stroke: #000000; stroke-width: 0.8"/>
      </defs>
      <g>
       <use xlink:href="#mb19a671efa" x="63.00017" y="295.74112" style="stroke: #000000; stroke-width: 0.8"/>
      </g>
     </g>
     <g id="text_1">
      <!-- category1 -->
      <g transform="translate(37.720483 310.339558) scale(0.1 -0.1)">
       <defs>
        <path id="DejaVuSans-63" d="M 3122 3366 
L 3122 2828 
Q 2878 2963 2633 3030 
Q 2388 3097 2138 3097 
Q 1578 3097 1268 2742 
Q 959 2388 959 1747 
Q 959 1106 1268 751 
Q 1578 397 2138 397 
Q 2388 397 2633 464 
Q 2878 531 3122 666 
L 3122 134 
Q 2881 22 2623 -34 
Q 2366 -91 2075 -91 
Q 1284 -91 818 406 
Q 353 903 353 1747 
Q 353 2603 823 3093 
Q 1294 3584 2113 3584 
Q 2378 3584 2631 3529 
Q 2884 3475 3122 3366 
z
" transform="scale(0.015625)"/>
        <path id="DejaVuSans-61" d="M 2194 1759 
Q 1497 1759 1228 1600 
Q 959 1441 959 1056 
Q 959 750 1161 570 
Q 1363 391 1709 391 
Q 2188 391 2477 730 
Q 2766 1069 2766 1631 
L 2766 1759 
L 2194 1759 
z
M 3341 1997 
L 3341 0 
L 2766 0 
L 2766 531 
Q 2569 213 2275 61 
Q 1981 -91 1556 -91 
Q 1019 -91 701 211 
Q 384 513 384 1019 
Q 384 1609 779 1909 
Q 1175 2209 1959 2209 
L 2766 2209 
L 2766 2266 
Q 2766 2663 2505 2880 
Q 2244 3097 1772 3097 
Q 1472 3097 1187 3025 
Q 903 2953 641 2809 
L 641 3341 
Q 956 3463 1253 3523 
Q 1550 3584 1831 3584 
Q 2591 3584 2966 3190 
Q 3341 2797 3341 1997 
z
" transform="scale(0.015625)"/>
        <path id="DejaVuSans-74" d="M 1172 4494 
L 1172 3500 
L 2356 3500 
L 2356 3053 
L 1172 3053 
L 1172 1153 
Q 1172 725 1289 603 
Q 1406 481 1766 481 
L 2356 481 
L 2356 0 
L 1766 0 
Q 1100 0 847 248 
Q 594 497 594 1153 
L 594 3053 
L 172 3053 
L 172 3500 
L 594 3500 
L 594 4494 
L 1172 4494 
z
" transform="scale(0.015625)"/>
        <path id="DejaVuSans-65" d="M 3597 1894 
L 3597 1613 
L 953 1613 
Q 991 1019 1311 708 
Q 1631 397 2203 397 
Q 2534 397 2845 478 
Q 3156 559 3463 722 
L 3463 178 
Q 3153 47 2828 -22 
Q 2503 -91 2169 -91 
Q 1331 -91 842 396 
Q 353 884 353 1716 
Q 353 2575 817 3079 
Q 1281 3584 2069 3584 
Q 2775 3584 3186 3129 
Q 3597 2675 3597 1894 
z
M 3022 2063 
Q 3016 2534 2758 2815 
Q 2500 3097 2075 3097 
Q 1594 3097 1305 2825 
Q 1016 2553 972 2059 
L 3022 2063 
z
" transform="scale(0.015625)"/>
        <path id="DejaVuSans-67" d="M 2906 1791 
Q 2906 2416 2648 2759 
Q 2391 3103 1925 3103 
Q 1463 3103 1205 2759 
Q 947 2416 947 1791 
Q 947 1169 1205 825 
Q 1463 481 1925 481 
Q 2391 481 2648 825 
Q 2906 1169 2906 1791 
z
M 3481 434 
Q 3481 -459 3084 -895 
Q 2688 -1331 1869 -1331 
Q 1566 -1331 1297 -1286 
Q 1028 -1241 775 -1147 
L 775 -588 
Q 1028 -725 1275 -790 
Q 1522 -856 1778 -856 
Q 2344 -856 2625 -561 
Q 2906 -266 2906 331 
L 2906 616 
Q 2728 306 2450 153 
Q 2172 0 1784 0 
Q 1141 0 747 490 
Q 353 981 353 1791 
Q 353 2603 747 3093 
Q 1141 3584 1784 3584 
Q 2172 3584 2450 3431 
Q 2728 3278 2906 2969 
L 2906 3500 
L 3481 3500 
L 3481 434 
z
" transform="scale(0.015625)"/>
        <path id="DejaVuSans-6f" d="M 1959 3097 
Q 1497 3097 1228 2736 
Q 959 2375 959 1747 
Q 959 1119 1226 758 
Q 1494 397 1959 397 
Q 2419 397 2687 759 
Q 2956 1122 2956 1747 
Q 2956 2369 2687 2733 
Q 2419 3097 1959 3097 
z
M 1959 3584 
Q 2709 3584 3137 3096 
Q 3566 2609 3566 1747 
Q 3566 888 3137 398 
Q 2709 -91 1959 -91 
Q 1206 -91 779 398 
Q 353 888 353 1747 
Q 353 2609 779 3096 
Q 1206 3584 1959 3584 
z
" transform="scale(0.015625)"/>
        <path id="DejaVuSans-72" d="M 2631 2963 
Q 2534 3019 2420 3045 
Q 2306 3072 2169 3072 
Q 1681 3072 1420 2755 
Q 1159 2438 1159 1844 
L 1159 0 
L 581 0 
L 581 3500 
L 1159 3500 
L 1159 2956 
Q 1341 3275 1631 3429 
Q 1922 3584 2338 3584 
Q 2397 3584 2469 3576 
Q 2541 3569 2628 3553 
L 2631 2963 
z
" transform="scale(0.015625)"/>
        <path id="DejaVuSans-79" d="M 2059 -325 
Q 1816 -950 1584 -1140 
Q 1353 -1331 966 -1331 
L 506 -1331 
L 506 -850 
L 844 -850 
Q 1081 -850 1212 -737 
Q 1344 -625 1503 -206 
L 1606 56 
L 191 3500 
L 800 3500 
L 1894 763 
L 2988 3500 
L 3597 3500 
L 2059 -325 
z
" transform="scale(0.015625)"/>
        <path id="DejaVuSans-31" d="M 794 531 
L 1825 531 
L 1825 4091 
L 703 3866 
L 703 4441 
L 1819 4666 
L 2450 4666 
L 2450 531 
L 3481 531 
L 3481 0 
L 794 0 
L 794 531 
z
" transform="scale(0.015625)"/>
       </defs>
       <use xlink:href="#DejaVuSans-63"/>
       <use xlink:href="#DejaVuSans-61" x="54.980469"/>
       <use xlink:href="#DejaVuSans-74" x="116.259766"/>
       <use xlink:href="#DejaVuSans-65" x="155.46875"/>
       <use xlink:href="#DejaVuSans-67" x="216.992188"/>
       <use xlink:href="#DejaVuSans-6f" x="280.46875"/>
       <use xlink:href="#DejaVuSans-72" x="341.650391"/>
       <use xlink:href="#DejaVuSans-79" x="382.763672"/>
       <use xlink:href="#DejaVuSans-31" x="441.943359"/>
      </g>
     </g>
    </g>
    <g id="xtick_2">
     <g id="line2d_2">
      <g>
       <use xlink:href="#mb19a671efa" x="169.359969" y="295.74112" style="stroke: #000000; stroke-width: 0.8"/>
      </g>
     </g>
     <g id="text_2">
      <!-- category67 -->
      <g transform="translate(140.899032 310.339558) scale(0.1 -0.1)">
       <defs>
        <path id="DejaVuSans-36" d="M 2113 2584 
Q 1688 2584 1439 2293 
Q 1191 2003 1191 1497 
Q 1191 994 1439 701 
Q 1688 409 2113 409 
Q 2538 409 2786 701 
Q 3034 994 3034 1497 
Q 3034 2003 2786 2293 
Q 2538 2584 2113 2584 
z
M 3366 4563 
L 3366 3988 
Q 3128 4100 2886 4159 
Q 2644 4219 2406 4219 
Q 1781 4219 1451 3797 
Q 1122 3375 1075 2522 
Q 1259 2794 1537 2939 
Q 1816 3084 2150 3084 
Q 2853 3084 3261 2657 
Q 3669 2231 3669 1497 
Q 3669 778 3244 343 
Q 2819 -91 2113 -91 
Q 1303 -91 875 529 
Q 447 1150 447 2328 
Q 447 3434 972 4092 
Q 1497 4750 2381 4750 
Q 2619 4750 2861 4703 
Q 3103 4656 3366 4563 
z
" transform="scale(0.015625)"/>
        <path id="DejaVuSans-37" d="M 525 4666 
L 3525 4666 
L 3525 4397 
L 1831 0 
L 1172 0 
L 2766 4134 
L 525 4134 
L 525 4666 
z
" transform="scale(0.015625)"/>
       </defs>
       <use xlink:href="#DejaVuSans-63"/>
       <use xlink:href="#DejaVuSans-61" x="54.980469"/>
       <use xlink:href="#DejaVuSans-74" x="116.259766"/>
       <use xlink:href="#DejaVuSans-65" x="155.46875"/>
       <use xlink:href="#DejaVuSans-67" x="216.992188"/>
       <use xlink:href="#DejaVuSans-6f" x="280.46875"/>
       <use xlink:href="#DejaVuSans-72" x="341.650391"/>
       <use xlink:href="#DejaVuSans-79" x="382.763672"/>
       <use xlink:href="#DejaVuSans-36" x="441.943359"/>
       <use xlink:href="#DejaVuSans-37" x="505.566406"/>
      </g>
     </g>
    </g>
    <g id="xtick_3">
     <g id="line2d_3">
      <g>
       <use xlink:href="#mb19a671efa" x="275.719768" y="295.74112" style="stroke: #000000; stroke-width: 0.8"/>
      </g>
     </g>
     <g id="text_3">
      <!-- category133 -->
      <g transform="translate(244.077581 310.339558) scale(0.1 -0.1)">
       <defs>
        <path id="DejaVuSans-33" d="M 2597 2516 
Q 3050 2419 3304 2112 
Q 3559 1806 3559 1356 
Q 3559 666 3084 287 
Q 2609 -91 1734 -91 
Q 1441 -91 1130 -33 
Q 819 25 488 141 
L 488 750 
Q 750 597 1062 519 
Q 1375 441 1716 441 
Q 2309 441 2620 675 
Q 2931 909 2931 1356 
Q 2931 1769 2642 2001 
Q 2353 2234 1838 2234 
L 1294 2234 
L 1294 2753 
L 1863 2753 
Q 2328 2753 2575 2939 
Q 2822 3125 2822 3475 
Q 2822 3834 2567 4026 
Q 2313 4219 1838 4219 
Q 1578 4219 1281 4162 
Q 984 4106 628 3988 
L 628 4550 
Q 988 4650 1302 4700 
Q 1616 4750 1894 4750 
Q 2613 4750 3031 4423 
Q 3450 4097 3450 3541 
Q 3450 3153 3228 2886 
Q 3006 2619 2597 2516 
z
" transform="scale(0.015625)"/>
       </defs>
       <use xlink:href="#DejaVuSans-63"/>
       <use xlink:href="#DejaVuSans-61" x="54.980469"/>
       <use xlink:href="#DejaVuSans-74" x="116.259766"/>
       <use xlink:href="#DejaVuSans-65" x="155.46875"/>
       <use xlink:href="#DejaVuSans-67" x="216.992188"/>
       <use xlink:href="#DejaVuSans-6f" x="280.46875"/>
       <use xlink:href="#DejaVuSans-72" x="341.650391"/>
       <use xlink:href="#DejaVuSans-79" x="382.763672"/>
       <use xlink:href="#DejaVuSans-31" x="441.943359"/>
       <use xlink:href="#DejaVuSans-33" x="505.566406"/>
       <use xlink:href="#DejaVuSans-33" x="569.189453"/>
      </g>
     </g>
    </g>
    <g id="xtick_4">
     <g id="line2d_4">
      <g>
       <use xlink:href="#mb19a671efa" x="382.079567" y="295.74112" style="stroke: #000000; stroke-width: 0.8"/>
      </g>
     </g>
     <g id="text_4">
      <!-- category199 -->
      <g transform="translate(350.43738 310.339558) scale(0.1 -0.1)">
       <defs>
        <path id="DejaVuSans-39" d="M 703 97 
L 703 672 
Q 941 559 1184 500 
Q 1428 441 1663 441 
Q 2288 441 2617 861 
Q 2947 1281 2994 2138 
Q 2813 1869 2534 1725 
Q 2256 1581 1919 1581 
Q 1219 1581 811 2004 
Q 403 2428 403 3163 
Q 403 3881 828 4315 
Q 1253 4750 1959 4750 
Q 2769 4750 3195 4129 
Q 3622 3509 3622 2328 
Q 3622 1225 3098 567 
Q 2575 -91 1691 -91 
Q 1453 -91 1209 -44 
Q 966 3 703 97 
z
M 1959 2075 
Q 2384 2075 2632 2365 
Q 2881 2656 2881 3163 
Q 2881 3666 2632 3958 
Q 2384 4250 1959 4250 
Q 1534 4250 1286 3958 
Q 1038 3666 1038 3163 
Q 1038 2656 1286 2365 
Q 1534 2075 1959 2075 
z
" transform="scale(0.015625)"/>
       </defs>
       <use xlink:href="#DejaVuSans-63"/>
       <use xlink:href="#DejaVuSans-61" x="54.980469"/>
       <use xlink:href="#DejaVuSans-74" x="116.259766"/>
       <use xlink:href="#DejaVuSans-65" x="155.46875"/>
       <use xlink:href="#DejaVuSans-67" x="216.992188"/>
       <use xlink:href="#DejaVuSans-6f" x="280.46875"/>
       <use xlink:href="#DejaVuSans-72" x="341.650391"/>
       <use xlink:href="#DejaVuSans-79" x="382.763672"/>
       <use xlink:href="#DejaVuSans-31" x="441.943359"/>
       <use xlink:href="#DejaVuSans-39" x="505.566406"/>
       <use xlink:href="#DejaVuSans-39" x="569.189453"/>
      </g>
     </g>
    </g>
    <g id="text_5">
     <!-- Category -->
     <g transform="translate(200.505 324.017682) scale(0.1 -0.1)">
      <defs>
       <path id="DejaVuSans-43" d="M 4122 4306 
L 4122 3641 
Q 3803 3938 3442 4084 
Q 3081 4231 2675 4231 
Q 1875 4231 1450 3742 
Q 1025 3253 1025 2328 
Q 1025 1406 1450 917 
Q 1875 428 2675 428 
Q 3081 428 3442 575 
Q 3803 722 4122 1019 
L 4122 359 
Q 3791 134 3420 21 
Q 3050 -91 2638 -91 
Q 1578 -91 968 557 
Q 359 1206 359 2328 
Q 359 3453 968 4101 
Q 1578 4750 2638 4750 
Q 3056 4750 3426 4639 
Q 3797 4528 4122 4306 
z
" transform="scale(0.015625)"/>
      </defs>
      <use xlink:href="#DejaVuSans-43"/>
      <use xlink:href="#DejaVuSans-61" x="69.824219"/>
      <use xlink:href="#DejaVuSans-74" x="131.103516"/>
      <use xlink:href="#DejaVuSans-65" x="170.3125"/>
      <use xlink:href="#DejaVuSans-67" x="231.835938"/>
      <use xlink:href="#DejaVuSans-6f" x="295.3125"/>
      <use xlink:href="#DejaVuSans-72" x="356.494141"/>
      <use xlink:href="#DejaVuSans-79" x="397.607422"/>
     </g>
    </g>
   </g>
   <g id="matplotlib.axis_2">
    <g id="ytick_1">
     <g id="line2d_5">
      <defs>
       <path id="meb79331049" d="M 0 0 
L -3.5 0 
" style="stroke: #000000; stroke-width: 0.8"/>
      </defs>
      <g>
       <use xlink:href="#meb79331049" x="46.965625" y="289.160498" style="stroke: #000000; stroke-width: 0.8"/>
      </g>
     </g>
     <g id="text_6">
      <!-- 0 -->
      <g transform="translate(33.603125 292.959717) scale(0.1 -0.1)">
       <defs>
        <path id="DejaVuSans-30" d="M 2034 4250 
Q 1547 4250 1301 3770 
Q 1056 3291 1056 2328 
Q 1056 1369 1301 889 
Q 1547 409 2034 409 
Q 2525 409 2770 889 
Q 3016 1369 3016 2328 
Q 3016 3291 2770 3770 
Q 2525 4250 2034 4250 
z
M 2034 4750 
Q 2819 4750 3233 4129 
Q 3647 3509 3647 2328 
Q 3647 1150 3233 529 
Q 2819 -91 2034 -91 
Q 1250 -91 836 529 
Q 422 1150 422 2328 
Q 422 3509 836 4129 
Q 1250 4750 2034 4750 
z
" transform="scale(0.015625)"/>
       </defs>
       <use xlink:href="#DejaVuSans-30"/>
      </g>
     </g>
    </g>
    <g id="ytick_2">
     <g id="line2d_6">
      <g>
       <use xlink:href="#meb79331049" x="46.965625" y="243.776899" style="stroke: #000000; stroke-width: 0.8"/>
      </g>
     </g>
     <g id="text_7">
      <!-- 20 -->
      <g transform="translate(27.240625 247.576118) scale(0.1 -0.1)">
       <defs>
        <path id="DejaVuSans-32" d="M 1228 531 
L 3431 531 
L 3431 0 
L 469 0 
L 469 531 
Q 828 903 1448 1529 
Q 2069 2156 2228 2338 
Q 2531 2678 2651 2914 
Q 2772 3150 2772 3378 
Q 2772 3750 2511 3984 
Q 2250 4219 1831 4219 
Q 1534 4219 1204 4116 
Q 875 4013 500 3803 
L 500 4441 
Q 881 4594 1212 4672 
Q 1544 4750 1819 4750 
Q 2544 4750 2975 4387 
Q 3406 4025 3406 3419 
Q 3406 3131 3298 2873 
Q 3191 2616 2906 2266 
Q 2828 2175 2409 1742 
Q 1991 1309 1228 531 
z
" transform="scale(0.015625)"/>
       </defs>
       <use xlink:href="#DejaVuSans-32"/>
       <use xlink:href="#DejaVuSans-30" x="63.623047"/>
      </g>
     </g>
    </g>
    <g id="ytick_3">
     <g id="line2d_7">
      <g>
       <use xlink:href="#meb79331049" x="46.965625" y="198.3933" style="stroke: #000000; stroke-width: 0.8"/>
      </g>
     </g>
     <g id="text_8">
      <!-- 40 -->
      <g transform="translate(27.240625 202.192518) scale(0.1 -0.1)">
       <defs>
        <path id="DejaVuSans-34" d="M 2419 4116 
L 825 1625 
L 2419 1625 
L 2419 4116 
z
M 2253 4666 
L 3047 4666 
L 3047 1625 
L 3713 1625 
L 3713 1100 
L 3047 1100 
L 3047 0 
L 2419 0 
L 2419 1100 
L 313 1100 
L 313 1709 
L 2253 4666 
z
" transform="scale(0.015625)"/>
       </defs>
       <use xlink:href="#DejaVuSans-34"/>
       <use xlink:href="#DejaVuSans-30" x="63.623047"/>
      </g>
     </g>
    </g>
    <g id="ytick_4">
     <g id="line2d_8">
      <g>
       <use xlink:href="#meb79331049" x="46.965625" y="153.0097" style="stroke: #000000; stroke-width: 0.8"/>
      </g>
     </g>
     <g id="text_9">
      <!-- 60 -->
      <g transform="translate(27.240625 156.808919) scale(0.1 -0.1)">
       <use xlink:href="#DejaVuSans-36"/>
       <use xlink:href="#DejaVuSans-30" x="63.623047"/>
      </g>
     </g>
    </g>
    <g id="ytick_5">
     <g id="line2d_9">
      <g>
       <use xlink:href="#meb79331049" x="46.965625" y="107.626101" style="stroke: #000000; stroke-width: 0.8"/>
      </g>
     </g>
     <g id="text_10">
      <!-- 80 -->
      <g transform="translate(27.240625 111.42532) scale(0.1 -0.1)">
       <defs>
        <path id="DejaVuSans-38" d="M 2034 2216 
Q 1584 2216 1326 1975 
Q 1069 1734 1069 1313 
Q 1069 891 1326 650 
Q 1584 409 2034 409 
Q 2484 409 2743 651 
Q 3003 894 3003 1313 
Q 3003 1734 2745 1975 
Q 2488 2216 2034 2216 
z
M 1403 2484 
Q 997 2584 770 2862 
Q 544 3141 544 3541 
Q 544 4100 942 4425 
Q 1341 4750 2034 4750 
Q 2731 4750 3128 4425 
Q 3525 4100 3525 3541 
Q 3525 3141 3298 2862 
Q 3072 2584 2669 2484 
Q 3125 2378 3379 2068 
Q 3634 1759 3634 1313 
Q 3634 634 3220 271 
Q 2806 -91 2034 -91 
Q 1263 -91 848 271 
Q 434 634 434 1313 
Q 434 1759 690 2068 
Q 947 2378 1403 2484 
z
M 1172 3481 
Q 1172 3119 1398 2916 
Q 1625 2713 2034 2713 
Q 2441 2713 2670 2916 
Q 2900 3119 2900 3481 
Q 2900 3844 2670 4047 
Q 2441 4250 2034 4250 
Q 1625 4250 1398 4047 
Q 1172 3844 1172 3481 
z
" transform="scale(0.015625)"/>
       </defs>
       <use xlink:href="#DejaVuSans-38"/>
       <use xlink:href="#DejaVuSans-30" x="63.623047"/>
      </g>
     </g>
    </g>
    <g id="ytick_6">
     <g id="line2d_10">
      <g>
       <use xlink:href="#meb79331049" x="46.965625" y="62.242502" style="stroke: #000000; stroke-width: 0.8"/>
      </g>
     </g>
     <g id="text_11">
      <!-- 100 -->
      <g transform="translate(20.878125 66.041721) scale(0.1 -0.1)">
       <use xlink:href="#DejaVuSans-31"/>
       <use xlink:href="#DejaVuSans-30" x="63.623047"/>
       <use xlink:href="#DejaVuSans-30" x="127.246094"/>
      </g>
     </g>
    </g>
    <g id="text_12">
     <!-- Value -->
     <g transform="translate(14.798438 187.16357) rotate(-90) scale(0.1 -0.1)">
      <defs>
       <path id="DejaVuSans-56" d="M 1831 0 
L 50 4666 
L 709 4666 
L 2188 738 
L 3669 4666 
L 4325 4666 
L 2547 0 
L 1831 0 
z
" transform="scale(0.015625)"/>
       <path id="DejaVuSans-6c" d="M 603 4863 
L 1178 4863 
L 1178 0 
L 603 0 
L 603 4863 
z
" transform="scale(0.015625)"/>
       <path id="DejaVuSans-75" d="M 544 1381 
L 544 3500 
L 1119 3500 
L 1119 1403 
Q 1119 906 1312 657 
Q 1506 409 1894 409 
Q 2359 409 2629 706 
Q 2900 1003 2900 1516 
L 2900 3500 
L 3475 3500 
L 3475 0 
L 2900 0 
L 2900 538 
Q 2691 219 2414 64 
Q 2138 -91 1772 -91 
Q 1169 -91 856 284 
Q 544 659 544 1381 
z
M 1991 3584 
L 1991 3584 
z
" transform="scale(0.015625)"/>
      </defs>
      <use xlink:href="#DejaVuSans-56"/>
      <use xlink:href="#DejaVuSans-61" x="60.658203"/>
      <use xlink:href="#DejaVuSans-6c" x="121.9375"/>
      <use xlink:href="#DejaVuSans-75" x="149.720703"/>
      <use xlink:href="#DejaVuSans-65" x="213.099609"/>
     </g>
    </g>
   </g>
   <g id="line2d_11">
    <path d="M 63.00017 100.818561 
L 64.611683 168.89396 
L 66.223195 193.85494 
L 67.834707 264.199519 
L 69.446219 248.315259 
L 71.057731 180.23986 
L 72.669243 173.43232 
L 74.280755 280.083778 
L 75.892267 266.468698 
L 77.503779 141.663801 
L 79.115292 261.930339 
L 80.726804 241.507719 
L 82.338316 205.200839 
L 83.949828 230.161819 
L 85.56134 221.085099 
L 87.172852 114.433641 
L 88.784364 187.0474 
L 90.395876 168.89396 
L 92.007388 234.700179 
L 93.6189 250.584439 
L 95.230413 128.048721 
L 96.841925 173.43232 
L 98.453437 103.087741 
L 100.064949 198.3933 
L 101.676461 214.277559 
L 103.287973 266.468698 
L 104.899485 182.50904 
L 106.510997 75.857582 
L 108.122509 277.814598 
L 109.734022 71.319222 
L 111.345534 164.3556 
L 112.957046 114.433641 
L 114.568558 166.62478 
L 116.18007 62.242502 
L 117.791582 87.203481 
L 119.403094 82.665121 
L 121.014606 143.93298 
L 122.626118 96.280201 
L 124.23763 112.164461 
L 125.849143 148.47134 
L 127.460655 80.395942 
L 129.072167 196.12412 
L 130.683679 243.776899 
L 132.295191 128.048721 
L 133.906703 280.083778 
L 135.518215 182.50904 
L 137.129727 94.011021 
L 138.741239 146.20216 
L 140.352752 69.050042 
L 141.964264 212.008379 
L 143.575776 182.50904 
L 145.187288 84.934301 
L 146.7988 159.81724 
L 148.410312 282.352958 
L 150.021824 191.58576 
L 151.633336 250.584439 
L 153.244848 205.200839 
L 154.85636 121.241181 
L 156.467873 225.623459 
L 158.079385 261.930339 
L 159.690897 71.319222 
L 161.302409 103.087741 
L 162.913921 255.122799 
L 164.525433 261.930339 
L 166.136945 153.0097 
L 167.748457 209.739199 
L 169.359969 103.087741 
L 170.971482 202.93166 
L 172.582994 71.319222 
L 174.194506 75.857582 
L 175.806018 69.050042 
L 177.41753 134.856261 
L 179.029042 175.7015 
L 180.640554 232.430999 
L 182.252066 202.93166 
L 183.863578 164.3556 
L 185.475091 264.199519 
L 187.086603 271.007058 
L 188.698115 180.23986 
L 190.309627 191.58576 
L 191.921139 282.352958 
L 193.532651 175.7015 
L 195.144163 98.549381 
L 196.755675 118.972001 
L 198.367187 193.85494 
L 199.978699 168.89396 
L 201.590212 116.702821 
L 203.201724 155.27888 
L 204.813236 184.77822 
L 206.424748 64.511682 
L 208.03626 246.046079 
L 209.647772 177.97068 
L 211.259284 191.58576 
L 212.870796 157.54806 
L 214.482308 214.277559 
L 216.093821 75.857582 
L 217.705333 132.587081 
L 219.316845 66.780862 
L 220.928357 96.280201 
L 222.539869 252.853619 
L 224.151381 157.54806 
L 225.762893 96.280201 
L 227.374405 139.394621 
L 228.985917 150.74052 
L 230.597429 98.549381 
L 232.208942 250.584439 
L 235.431966 168.89396 
L 237.043478 196.12412 
L 238.65499 280.083778 
L 240.266502 118.972001 
L 241.878014 277.814598 
L 243.489526 184.77822 
L 245.101038 69.050042 
L 248.324063 227.892639 
L 249.935575 252.853619 
L 251.547087 230.161819 
L 253.158599 171.16314 
L 254.770111 71.319222 
L 256.381623 78.126762 
L 257.993135 162.08642 
L 259.604647 159.81724 
L 261.216159 241.507719 
L 262.827672 241.507719 
L 264.439184 139.394621 
L 266.050696 196.12412 
L 267.662208 243.776899 
L 269.27372 141.663801 
L 270.885232 155.27888 
L 272.496744 202.93166 
L 274.108256 121.241181 
L 275.719768 96.280201 
L 277.331281 105.356921 
L 278.942793 175.7015 
L 280.554305 112.164461 
L 282.165817 114.433641 
L 283.777329 264.199519 
L 285.388841 94.011021 
L 287.000353 73.588402 
L 288.611865 132.587081 
L 290.223377 130.317901 
L 291.83489 141.663801 
L 293.446402 177.97068 
L 295.057914 221.085099 
L 296.669426 268.737878 
L 298.280938 230.161819 
L 299.89245 150.74052 
L 301.503962 78.126762 
L 303.115474 202.93166 
L 304.726986 84.934301 
L 306.338498 187.0474 
L 307.950011 175.7015 
L 309.561523 209.739199 
L 311.173035 118.972001 
L 312.784547 187.0474 
L 314.396059 73.588402 
L 316.007571 121.241181 
L 317.619083 216.546739 
L 319.230595 225.623459 
L 320.842107 89.472661 
L 322.45362 75.857582 
L 324.065132 103.087741 
L 325.676644 134.856261 
L 327.288156 114.433641 
L 328.899668 116.702821 
L 330.51118 227.892639 
L 332.122692 202.93166 
L 335.345716 273.276238 
L 336.957228 246.046079 
L 338.568741 171.16314 
L 340.180253 277.814598 
L 341.791765 218.815919 
L 343.403277 212.008379 
L 345.014789 250.584439 
L 346.626301 153.0097 
L 348.237813 236.969359 
L 349.849325 246.046079 
L 351.460837 69.050042 
L 353.07235 153.0097 
L 354.683862 134.856261 
L 356.295374 139.394621 
L 357.906886 261.930339 
L 359.518398 112.164461 
L 361.12991 98.549381 
L 362.741422 200.66248 
L 364.352934 189.31658 
L 365.964446 125.779541 
L 367.575958 227.892639 
L 369.187471 246.046079 
L 370.798983 64.511682 
L 372.410495 146.20216 
L 374.022007 146.20216 
L 375.633519 166.62478 
L 377.245031 198.3933 
L 378.856543 130.317901 
L 380.468055 180.23986 
L 382.079567 62.242502 
L 383.69108 91.741841 
L 383.69108 91.741841 
" clip-path="url(#p1e07caeb27)" style="fill: none; stroke: #ffc6cc; stroke-width: 1.5; stroke-linecap: square"/>
   </g>
   <g id="line2d_12">
    <path d="M 63.00017 182.50904 
L 64.611683 264.199519 
L 66.223195 187.0474 
L 67.834707 171.16314 
L 69.446219 64.511682 
L 71.057731 275.545418 
L 72.669243 125.779541 
L 74.280755 255.122799 
L 75.892267 107.626101 
L 77.503779 207.470019 
L 79.115292 94.011021 
L 80.726804 218.815919 
L 82.338316 277.814598 
L 83.949828 255.122799 
L 85.56134 157.54806 
L 87.172852 250.584439 
L 88.784364 200.66248 
L 90.395876 241.507719 
L 92.007388 80.395942 
L 93.6189 159.81724 
L 95.230413 173.43232 
L 96.841925 73.588402 
L 98.453437 116.702821 
L 100.064949 255.122799 
L 101.676461 75.857582 
L 103.287973 87.203481 
L 104.899485 84.934301 
L 106.510997 218.815919 
L 108.122509 87.203481 
L 109.734022 114.433641 
L 111.345534 171.16314 
L 112.957046 250.584439 
L 114.568558 175.7015 
L 116.18007 264.199519 
L 117.791582 284.622138 
L 119.403094 248.315259 
L 121.014606 177.97068 
L 122.626118 250.584439 
L 124.23763 155.27888 
L 125.849143 69.050042 
L 127.460655 130.317901 
L 129.072167 223.354279 
L 130.683679 266.468698 
L 132.295191 116.702821 
L 133.906703 146.20216 
L 135.518215 257.391979 
L 137.129727 143.93298 
L 138.741239 200.66248 
L 140.352752 164.3556 
L 141.964264 69.050042 
L 143.575776 214.277559 
L 145.187288 143.93298 
L 146.7988 202.93166 
L 148.410312 243.776899 
L 150.021824 78.126762 
L 151.633336 166.62478 
L 153.244848 268.737878 
L 154.85636 123.510361 
L 156.467873 248.315259 
L 158.079385 73.588402 
L 159.690897 162.08642 
L 161.302409 214.277559 
L 162.913921 234.700179 
L 164.525433 125.779541 
L 166.136945 196.12412 
L 167.748457 116.702821 
L 169.359969 157.54806 
L 170.971482 255.122799 
L 172.582994 225.623459 
L 174.194506 205.200839 
L 177.41753 66.780862 
L 179.029042 243.776899 
L 180.640554 182.50904 
L 182.252066 130.317901 
L 183.863578 173.43232 
L 185.475091 96.280201 
L 187.086603 255.122799 
L 188.698115 248.315259 
L 190.309627 164.3556 
L 191.921139 280.083778 
L 193.532651 209.739199 
L 195.144163 166.62478 
L 196.755675 198.3933 
L 198.367187 84.934301 
L 199.978699 82.665121 
L 201.590212 261.930339 
L 203.201724 196.12412 
L 204.813236 75.857582 
L 206.424748 168.89396 
L 208.03626 82.665121 
L 209.647772 261.930339 
L 211.259284 268.737878 
L 212.870796 196.12412 
L 214.482308 255.122799 
L 216.093821 94.011021 
L 217.705333 209.739199 
L 219.316845 121.241181 
L 220.928357 221.085099 
L 222.539869 202.93166 
L 224.151381 166.62478 
L 225.762893 143.93298 
L 227.374405 205.200839 
L 228.985917 248.315259 
L 230.597429 212.008379 
L 232.208942 157.54806 
L 233.820454 225.623459 
L 235.431966 252.853619 
L 237.043478 182.50904 
L 238.65499 123.510361 
L 240.266502 280.083778 
L 241.878014 148.47134 
L 243.489526 78.126762 
L 245.101038 116.702821 
L 246.712551 137.125441 
L 248.324063 130.317901 
L 249.935575 259.661159 
L 251.547087 78.126762 
L 253.158599 109.895281 
L 254.770111 148.47134 
L 256.381623 105.356921 
L 257.993135 132.587081 
L 259.604647 64.511682 
L 261.216159 282.352958 
L 262.827672 264.199519 
L 264.439184 236.969359 
L 266.050696 250.584439 
L 267.662208 223.354279 
L 269.27372 216.546739 
L 270.885232 141.663801 
L 272.496744 162.08642 
L 274.108256 275.545418 
L 275.719768 162.08642 
L 277.331281 252.853619 
L 278.942793 82.665121 
L 280.554305 69.050042 
L 282.165817 148.47134 
L 283.777329 275.545418 
L 285.388841 130.317901 
L 287.000353 187.0474 
L 288.611865 248.315259 
L 290.223377 173.43232 
L 291.83489 73.588402 
L 293.446402 246.046079 
L 295.057914 107.626101 
L 296.669426 100.818561 
L 298.280938 205.200839 
L 299.89245 261.930339 
L 301.503962 139.394621 
L 303.115474 66.780862 
L 304.726986 227.892639 
L 306.338498 261.930339 
L 307.950011 143.93298 
L 309.561523 84.934301 
L 311.173035 191.58576 
L 312.784547 257.391979 
L 314.396059 255.122799 
L 316.007571 218.815919 
L 317.619083 69.050042 
L 319.230595 62.242502 
L 320.842107 216.546739 
L 322.45362 134.856261 
L 324.065132 84.934301 
L 325.676644 137.125441 
L 327.288156 84.934301 
L 328.899668 198.3933 
L 330.51118 107.626101 
L 332.122692 184.77822 
L 333.734204 162.08642 
L 335.345716 107.626101 
L 336.957228 177.97068 
L 338.568741 100.818561 
L 340.180253 87.203481 
L 341.791765 246.046079 
L 343.403277 221.085099 
L 345.014789 64.511682 
L 346.626301 162.08642 
L 348.237813 232.430999 
L 349.849325 150.74052 
L 351.460837 252.853619 
L 353.07235 193.85494 
L 354.683862 202.93166 
L 356.295374 66.780862 
L 357.906886 182.50904 
L 359.518398 89.472661 
L 361.12991 125.779541 
L 362.741422 168.89396 
L 364.352934 221.085099 
L 365.964446 146.20216 
L 367.575958 155.27888 
L 369.187471 128.048721 
L 370.798983 227.892639 
L 372.410495 78.126762 
L 374.022007 250.584439 
L 375.633519 187.0474 
L 377.245031 191.58576 
L 378.856543 91.741841 
L 380.468055 164.3556 
L 382.079567 75.857582 
L 383.69108 196.12412 
L 383.69108 196.12412 
" clip-path="url(#p1e07caeb27)" style="fill: none; stroke: #e4c1f9; stroke-width: 1.5; stroke-linecap: square"/>
   </g>
   <g id="patch_3">
    <path d="M 46.965625 295.74112 
L 46.965625 51.12352 
" style="fill: none; stroke: #000000; stroke-width: 0.8; stroke-linejoin: miter; stroke-linecap: square"/>
   </g>
   <g id="patch_4">
    <path d="M 399.725625 295.74112 
L 399.725625 51.12352 
" style="fill: none; stroke: #000000; stroke-width: 0.8; stroke-linejoin: miter; stroke-linecap: square"/>
   </g>
   <g id="patch_5">
    <path d="M 46.965625 295.74112 
L 399.725625 295.74112 
" style="fill: none; stroke: #000000; stroke-width: 0.8; stroke-linejoin: miter; stroke-linecap: square"/>
   </g>
   <g id="patch_6">
    <path d="M 46.965625 51.12352 
L 399.725625 51.12352 
" style="fill: none; stroke: #000000; stroke-width: 0.8; stroke-linejoin: miter; stroke-linecap: square"/>
   </g>
  </g>
  <g id="axes_2">
   <g id="matplotlib.axis_3">
    <g id="ytick_7">
     <g id="line2d_13">
      <defs>
       <path id="mf30ff125c5" d="M 0 0 
L 3.5 0 
" style="stroke: #000000; stroke-width: 0.8"/>
      </defs>
      <g>
       <use xlink:href="#mf30ff125c5" x="399.725625" y="279.892844" style="stroke: #000000; stroke-width: 0.8"/>
      </g>
     </g>
     <g id="text_13">
      <!-- 0 -->
      <g transform="translate(406.725625 283.692063) scale(0.1 -0.1)">
       <use xlink:href="#DejaVuSans-30"/>
      </g>
     </g>
    </g>
    <g id="ytick_8">
     <g id="line2d_14">
      <g>
       <use xlink:href="#mf30ff125c5" x="399.725625" y="229.858283" style="stroke: #000000; stroke-width: 0.8"/>
      </g>
     </g>
     <g id="text_14">
      <!-- 1000 -->
      <g transform="translate(406.725625 233.657501) scale(0.1 -0.1)">
       <use xlink:href="#DejaVuSans-31"/>
       <use xlink:href="#DejaVuSans-30" x="63.623047"/>
       <use xlink:href="#DejaVuSans-30" x="127.246094"/>
       <use xlink:href="#DejaVuSans-30" x="190.869141"/>
      </g>
     </g>
    </g>
    <g id="ytick_9">
     <g id="line2d_15">
      <g>
       <use xlink:href="#mf30ff125c5" x="399.725625" y="179.823721" style="stroke: #000000; stroke-width: 0.8"/>
      </g>
     </g>
     <g id="text_15">
      <!-- 2000 -->
      <g transform="translate(406.725625 183.62294) scale(0.1 -0.1)">
       <use xlink:href="#DejaVuSans-32"/>
       <use xlink:href="#DejaVuSans-30" x="63.623047"/>
       <use xlink:href="#DejaVuSans-30" x="127.246094"/>
       <use xlink:href="#DejaVuSans-30" x="190.869141"/>
      </g>
     </g>
    </g>
    <g id="ytick_10">
     <g id="line2d_16">
      <g>
       <use xlink:href="#mf30ff125c5" x="399.725625" y="129.78916" style="stroke: #000000; stroke-width: 0.8"/>
      </g>
     </g>
     <g id="text_16">
      <!-- 3000 -->
      <g transform="translate(406.725625 133.588378) scale(0.1 -0.1)">
       <use xlink:href="#DejaVuSans-33"/>
       <use xlink:href="#DejaVuSans-30" x="63.623047"/>
       <use xlink:href="#DejaVuSans-30" x="127.246094"/>
       <use xlink:href="#DejaVuSans-30" x="190.869141"/>
      </g>
     </g>
    </g>
    <g id="ytick_11">
     <g id="line2d_17">
      <g>
       <use xlink:href="#mf30ff125c5" x="399.725625" y="79.754598" style="stroke: #000000; stroke-width: 0.8"/>
      </g>
     </g>
     <g id="text_17">
      <!-- 4000 -->
      <g transform="translate(406.725625 83.553817) scale(0.1 -0.1)">
       <use xlink:href="#DejaVuSans-34"/>
       <use xlink:href="#DejaVuSans-30" x="63.623047"/>
       <use xlink:href="#DejaVuSans-30" x="127.246094"/>
       <use xlink:href="#DejaVuSans-30" x="190.869141"/>
      </g>
     </g>
    </g>
    <g id="text_18">
     <!-- Difference (%) -->
     <g transform="translate(443.774063 209.523726) rotate(-90) scale(0.1 -0.1)">
      <defs>
       <path id="DejaVuSans-44" d="M 1259 4147 
L 1259 519 
L 2022 519 
Q 2988 519 3436 956 
Q 3884 1394 3884 2338 
Q 3884 3275 3436 3711 
Q 2988 4147 2022 4147 
L 1259 4147 
z
M 628 4666 
L 1925 4666 
Q 3281 4666 3915 4102 
Q 4550 3538 4550 2338 
Q 4550 1131 3912 565 
Q 3275 0 1925 0 
L 628 0 
L 628 4666 
z
" transform="scale(0.015625)"/>
       <path id="DejaVuSans-69" d="M 603 3500 
L 1178 3500 
L 1178 0 
L 603 0 
L 603 3500 
z
M 603 4863 
L 1178 4863 
L 1178 4134 
L 603 4134 
L 603 4863 
z
" transform="scale(0.015625)"/>
       <path id="DejaVuSans-66" d="M 2375 4863 
L 2375 4384 
L 1825 4384 
Q 1516 4384 1395 4259 
Q 1275 4134 1275 3809 
L 1275 3500 
L 2222 3500 
L 2222 3053 
L 1275 3053 
L 1275 0 
L 697 0 
L 697 3053 
L 147 3053 
L 147 3500 
L 697 3500 
L 697 3744 
Q 697 4328 969 4595 
Q 1241 4863 1831 4863 
L 2375 4863 
z
" transform="scale(0.015625)"/>
       <path id="DejaVuSans-6e" d="M 3513 2113 
L 3513 0 
L 2938 0 
L 2938 2094 
Q 2938 2591 2744 2837 
Q 2550 3084 2163 3084 
Q 1697 3084 1428 2787 
Q 1159 2491 1159 1978 
L 1159 0 
L 581 0 
L 581 3500 
L 1159 3500 
L 1159 2956 
Q 1366 3272 1645 3428 
Q 1925 3584 2291 3584 
Q 2894 3584 3203 3211 
Q 3513 2838 3513 2113 
z
" transform="scale(0.015625)"/>
       <path id="DejaVuSans-20" transform="scale(0.015625)"/>
       <path id="DejaVuSans-28" d="M 1984 4856 
Q 1566 4138 1362 3434 
Q 1159 2731 1159 2009 
Q 1159 1288 1364 580 
Q 1569 -128 1984 -844 
L 1484 -844 
Q 1016 -109 783 600 
Q 550 1309 550 2009 
Q 550 2706 781 3412 
Q 1013 4119 1484 4856 
L 1984 4856 
z
" transform="scale(0.015625)"/>
       <path id="DejaVuSans-25" d="M 4653 2053 
Q 4381 2053 4226 1822 
Q 4072 1591 4072 1178 
Q 4072 772 4226 539 
Q 4381 306 4653 306 
Q 4919 306 5073 539 
Q 5228 772 5228 1178 
Q 5228 1588 5073 1820 
Q 4919 2053 4653 2053 
z
M 4653 2450 
Q 5147 2450 5437 2106 
Q 5728 1763 5728 1178 
Q 5728 594 5436 251 
Q 5144 -91 4653 -91 
Q 4153 -91 3862 251 
Q 3572 594 3572 1178 
Q 3572 1766 3864 2108 
Q 4156 2450 4653 2450 
z
M 1428 4353 
Q 1159 4353 1004 4120 
Q 850 3888 850 3481 
Q 850 3069 1003 2837 
Q 1156 2606 1428 2606 
Q 1700 2606 1854 2837 
Q 2009 3069 2009 3481 
Q 2009 3884 1853 4118 
Q 1697 4353 1428 4353 
z
M 4250 4750 
L 4750 4750 
L 1831 -91 
L 1331 -91 
L 4250 4750 
z
M 1428 4750 
Q 1922 4750 2215 4408 
Q 2509 4066 2509 3481 
Q 2509 2891 2217 2550 
Q 1925 2209 1428 2209 
Q 931 2209 642 2551 
Q 353 2894 353 3481 
Q 353 4063 643 4406 
Q 934 4750 1428 4750 
z
" transform="scale(0.015625)"/>
       <path id="DejaVuSans-29" d="M 513 4856 
L 1013 4856 
Q 1481 4119 1714 3412 
Q 1947 2706 1947 2009 
Q 1947 1309 1714 600 
Q 1481 -109 1013 -844 
L 513 -844 
Q 928 -128 1133 580 
Q 1338 1288 1338 2009 
Q 1338 2731 1133 3434 
Q 928 4138 513 4856 
z
" transform="scale(0.015625)"/>
      </defs>
      <use xlink:href="#DejaVuSans-44"/>
      <use xlink:href="#DejaVuSans-69" x="77.001953"/>
      <use xlink:href="#DejaVuSans-66" x="104.785156"/>
      <use xlink:href="#DejaVuSans-66" x="139.990234"/>
      <use xlink:href="#DejaVuSans-65" x="175.195312"/>
      <use xlink:href="#DejaVuSans-72" x="236.71875"/>
      <use xlink:href="#DejaVuSans-65" x="275.582031"/>
      <use xlink:href="#DejaVuSans-6e" x="337.105469"/>
      <use xlink:href="#DejaVuSans-63" x="400.484375"/>
      <use xlink:href="#DejaVuSans-65" x="455.464844"/>
      <use xlink:href="#DejaVuSans-20" x="516.988281"/>
      <use xlink:href="#DejaVuSans-28" x="548.775391"/>
      <use xlink:href="#DejaVuSans-25" x="587.789062"/>
      <use xlink:href="#DejaVuSans-29" x="682.808594"/>
     </g>
    </g>
   </g>
   <g id="line2d_18">
    <path d="M 63.00017 276.06041 
L 64.611683 260.788739 
L 66.223195 280.226408 
L 67.834707 283.837877 
L 69.446219 283.986581 
L 71.057731 244.868651 
L 72.669243 281.352185 
L 74.280755 283.562045 
L 75.892267 284.270868 
L 77.503779 275.862282 
L 79.115292 284.198143 
L 80.726804 281.506862 
L 82.338316 247.870725 
L 83.949828 276.223643 
L 85.56134 282.308306 
L 87.172852 262.233587 
L 88.784364 279.123082 
L 90.395876 272.26853 
L 92.007388 283.591051 
L 93.6189 283.404041 
L 95.230413 277.930704 
L 96.841925 282.210234 
L 98.453437 279.497834 
L 100.064949 271.55375 
L 101.676461 283.139768 
L 103.287973 284.334114 
L 104.899485 282.283384 
L 106.510997 269.72453 
L 108.122509 284.615207 
L 109.734022 278.658225 
L 111.345534 279.604183 
L 112.957046 262.233587 
L 114.568558 279.492568 
L 116.18007 239.410335 
L 117.791582 62.242502 
L 119.403094 259.60105 
L 121.014606 278.361174 
L 122.626118 259.879019 
L 124.23763 278.281562 
L 125.849143 281.698215 
L 127.460655 278.320329 
L 129.072167 277.822448 
L 130.683679 274.889388 
L 132.295191 280.222019 
L 133.906703 284.57862 
L 135.518215 268.098983 
L 137.129727 278.172906 
L 138.741239 276.813794 
L 140.352752 276.072023 
L 141.964264 283.142511 
L 143.575776 277.770166 
L 145.187288 277.86019 
L 146.7988 277.391116 
L 148.410312 284.145782 
L 150.021824 282.582874 
L 151.633336 283.321138 
L 153.244848 264.326536 
L 154.85636 279.824304 
L 156.467873 277.113146 
L 158.079385 284.264285 
L 159.690897 276.318947 
L 161.302409 272.46347 
L 162.913921 281.76914 
L 164.525433 284.062391 
L 166.136945 277.574169 
L 167.748457 282.592077 
L 169.359969 277.822448 
L 170.971482 272.220878 
L 172.582994 267.741593 
L 174.194506 272.184817 
L 175.806018 277.652491 
L 177.41753 281.424514 
L 179.029042 272.38766 
L 180.640554 282.234887 
L 182.252066 282.180138 
L 183.863578 279.500416 
L 185.475091 284.248794 
L 187.086603 282.22779 
L 188.698115 271.55375 
L 190.309627 280.984507 
L 191.921139 281.143708 
L 193.532651 277.748506 
L 195.144163 277.113146 
L 196.755675 275.51482 
L 198.367187 282.561354 
L 199.978699 281.982199 
L 201.590212 253.207745 
L 203.201724 277.696205 
L 204.813236 282.4478 
L 206.424748 275.550222 
L 208.03626 283.851623 
L 209.647772 264.465521 
L 211.259284 260.990899 
L 212.870796 277.81824 
L 214.482308 273.888697 
L 216.093821 279.427406 
L 217.705333 275.032344 
L 219.316845 278.270101 
L 220.928357 270.719841 
L 222.539869 282.789582 
L 224.151381 279.522218 
L 225.762893 278.251085 
L 227.374405 275.971216 
L 228.985917 267.940143 
L 230.597429 272.53482 
L 232.208942 283.42977 
L 233.820454 278.64198 
L 235.431966 268.322352 
L 237.043478 280.531583 
L 238.65499 284.622138 
L 240.266502 191.081497 
L 241.878014 284.492796 
L 243.489526 282.421472 
L 245.101038 278.51031 
L 246.712551 280.340915 
L 248.324063 282.966396 
L 249.935575 278.7382 
L 251.547087 283.497484 
L 253.158599 281.602886 
L 254.770111 277.149013 
L 256.381623 279.151591 
L 257.993135 280.835524 
L 259.604647 282.015522 
L 261.216159 249.872107 
L 262.827672 275.344248 
L 264.439184 270.538556 
L 266.050696 272.829141 
L 267.662208 281.445641 
L 269.27372 274.73303 
L 270.885232 280.354702 
L 272.496744 281.501098 
L 274.108256 223.187008 
L 275.719768 277.301769 
L 277.331281 259.566303 
L 278.942793 282.147148 
L 280.554305 280.872902 
L 282.165817 278.68233 
L 283.777329 275.723297 
L 285.388841 278.749197 
L 287.000353 274.333448 
L 288.611865 265.716385 
L 290.223377 278.028811 
L 291.83489 281.472883 
L 293.446402 271.99265 
L 295.057914 283.020004 
L 296.669426 284.353757 
L 298.280938 281.380358 
L 299.89245 259.462065 
L 301.503962 277.845976 
L 303.115474 282.956185 
L 304.726986 268.218113 
L 306.338498 266.13334 
L 307.950011 280.98735 
L 309.561523 282.950512 
L 311.173035 276.169342 
L 312.784547 268.813763 
L 314.396059 253.207745 
L 316.007571 272.952566 
L 317.619083 283.245675 
L 319.230595 283.495332 
L 320.842107 271.136796 
L 322.45362 277.979758 
L 324.065132 280.337596 
L 325.676644 279.818166 
L 327.288156 280.615565 
L 328.899668 275.389733 
L 330.51118 283.207634 
L 332.122692 280.76301 
L 333.734204 282.930657 
L 335.345716 284.458498 
L 336.957228 282.956185 
L 338.568741 281.761605 
L 340.180253 284.615207 
L 341.791765 276.732766 
L 343.403277 279.225717 
L 345.014789 284.037121 
L 346.626301 279.535454 
L 348.237813 280.293121 
L 349.849325 283.337847 
L 351.460837 254.562847 
L 353.07235 277.748506 
L 354.683862 275.942747 
L 356.295374 281.526626 
L 357.906886 283.618822 
L 359.518398 280.461419 
L 361.12991 279.058935 
L 362.741422 281.214512 
L 364.352934 277.557898 
L 365.964446 279.178065 
L 367.575958 282.606583 
L 369.187471 283.557347 
L 370.798983 266.550294 
L 372.410495 281.506862 
L 374.022007 266.35408 
L 375.633519 278.892153 
L 377.245031 280.241922 
L 378.856543 280.870531 
L 380.468055 280.529648 
L 382.079567 279.573474 
L 383.69108 274.27921 
L 383.69108 274.27921 
" clip-path="url(#p1e07caeb27)" style="fill: none; stroke: #7fffd4; stroke-width: 1.5; stroke-linecap: square"/>
    <defs>
     <path id="m309729c738" d="M 0 3 
C 0.795609 3 1.55874 2.683901 2.12132 2.12132 
C 2.683901 1.55874 3 0.795609 3 0 
C 3 -0.795609 2.683901 -1.55874 2.12132 -2.12132 
C 1.55874 -2.683901 0.795609 -3 0 -3 
C -0.795609 -3 -1.55874 -2.683901 -2.12132 -2.12132 
C -2.683901 -1.55874 -3 -0.795609 -3 0 
C -3 0.795609 -2.683901 1.55874 -2.12132 2.12132 
C -1.55874 2.683901 -0.795609 3 0 3 
z
" style="stroke: #7fffd4"/>
    </defs>
    <g clip-path="url(#p1e07caeb27)">
     <use xlink:href="#m309729c738" x="63.00017" y="276.06041" style="fill: #7fffd4; stroke: #7fffd4"/>
     <use xlink:href="#m309729c738" x="64.611683" y="260.788739" style="fill: #7fffd4; stroke: #7fffd4"/>
     <use xlink:href="#m309729c738" x="66.223195" y="280.226408" style="fill: #7fffd4; stroke: #7fffd4"/>
     <use xlink:href="#m309729c738" x="67.834707" y="283.837877" style="fill: #7fffd4; stroke: #7fffd4"/>
     <use xlink:href="#m309729c738" x="69.446219" y="283.986581" style="fill: #7fffd4; stroke: #7fffd4"/>
     <use xlink:href="#m309729c738" x="71.057731" y="244.868651" style="fill: #7fffd4; stroke: #7fffd4"/>
     <use xlink:href="#m309729c738" x="72.669243" y="281.352185" style="fill: #7fffd4; stroke: #7fffd4"/>
     <use xlink:href="#m309729c738" x="74.280755" y="283.562045" style="fill: #7fffd4; stroke: #7fffd4"/>
     <use xlink:href="#m309729c738" x="75.892267" y="284.270868" style="fill: #7fffd4; stroke: #7fffd4"/>
     <use xlink:href="#m309729c738" x="77.503779" y="275.862282" style="fill: #7fffd4; stroke: #7fffd4"/>
     <use xlink:href="#m309729c738" x="79.115292" y="284.198143" style="fill: #7fffd4; stroke: #7fffd4"/>
     <use xlink:href="#m309729c738" x="80.726804" y="281.506862" style="fill: #7fffd4; stroke: #7fffd4"/>
     <use xlink:href="#m309729c738" x="82.338316" y="247.870725" style="fill: #7fffd4; stroke: #7fffd4"/>
     <use xlink:href="#m309729c738" x="83.949828" y="276.223643" style="fill: #7fffd4; stroke: #7fffd4"/>
     <use xlink:href="#m309729c738" x="85.56134" y="282.308306" style="fill: #7fffd4; stroke: #7fffd4"/>
     <use xlink:href="#m309729c738" x="87.172852" y="262.233587" style="fill: #7fffd4; stroke: #7fffd4"/>
     <use xlink:href="#m309729c738" x="88.784364" y="279.123082" style="fill: #7fffd4; stroke: #7fffd4"/>
     <use xlink:href="#m309729c738" x="90.395876" y="272.26853" style="fill: #7fffd4; stroke: #7fffd4"/>
     <use xlink:href="#m309729c738" x="92.007388" y="283.591051" style="fill: #7fffd4; stroke: #7fffd4"/>
     <use xlink:href="#m309729c738" x="93.6189" y="283.404041" style="fill: #7fffd4; stroke: #7fffd4"/>
     <use xlink:href="#m309729c738" x="95.230413" y="277.930704" style="fill: #7fffd4; stroke: #7fffd4"/>
     <use xlink:href="#m309729c738" x="96.841925" y="282.210234" style="fill: #7fffd4; stroke: #7fffd4"/>
     <use xlink:href="#m309729c738" x="98.453437" y="279.497834" style="fill: #7fffd4; stroke: #7fffd4"/>
     <use xlink:href="#m309729c738" x="100.064949" y="271.55375" style="fill: #7fffd4; stroke: #7fffd4"/>
     <use xlink:href="#m309729c738" x="101.676461" y="283.139768" style="fill: #7fffd4; stroke: #7fffd4"/>
     <use xlink:href="#m309729c738" x="103.287973" y="284.334114" style="fill: #7fffd4; stroke: #7fffd4"/>
     <use xlink:href="#m309729c738" x="104.899485" y="282.283384" style="fill: #7fffd4; stroke: #7fffd4"/>
     <use xlink:href="#m309729c738" x="106.510997" y="269.72453" style="fill: #7fffd4; stroke: #7fffd4"/>
     <use xlink:href="#m309729c738" x="108.122509" y="284.615207" style="fill: #7fffd4; stroke: #7fffd4"/>
     <use xlink:href="#m309729c738" x="109.734022" y="278.658225" style="fill: #7fffd4; stroke: #7fffd4"/>
     <use xlink:href="#m309729c738" x="111.345534" y="279.604183" style="fill: #7fffd4; stroke: #7fffd4"/>
     <use xlink:href="#m309729c738" x="112.957046" y="262.233587" style="fill: #7fffd4; stroke: #7fffd4"/>
     <use xlink:href="#m309729c738" x="114.568558" y="279.492568" style="fill: #7fffd4; stroke: #7fffd4"/>
     <use xlink:href="#m309729c738" x="116.18007" y="239.410335" style="fill: #7fffd4; stroke: #7fffd4"/>
     <use xlink:href="#m309729c738" x="117.791582" y="62.242502" style="fill: #7fffd4; stroke: #7fffd4"/>
     <use xlink:href="#m309729c738" x="119.403094" y="259.60105" style="fill: #7fffd4; stroke: #7fffd4"/>
     <use xlink:href="#m309729c738" x="121.014606" y="278.361174" style="fill: #7fffd4; stroke: #7fffd4"/>
     <use xlink:href="#m309729c738" x="122.626118" y="259.879019" style="fill: #7fffd4; stroke: #7fffd4"/>
     <use xlink:href="#m309729c738" x="124.23763" y="278.281562" style="fill: #7fffd4; stroke: #7fffd4"/>
     <use xlink:href="#m309729c738" x="125.849143" y="281.698215" style="fill: #7fffd4; stroke: #7fffd4"/>
     <use xlink:href="#m309729c738" x="127.460655" y="278.320329" style="fill: #7fffd4; stroke: #7fffd4"/>
     <use xlink:href="#m309729c738" x="129.072167" y="277.822448" style="fill: #7fffd4; stroke: #7fffd4"/>
     <use xlink:href="#m309729c738" x="130.683679" y="274.889388" style="fill: #7fffd4; stroke: #7fffd4"/>
     <use xlink:href="#m309729c738" x="132.295191" y="280.222019" style="fill: #7fffd4; stroke: #7fffd4"/>
     <use xlink:href="#m309729c738" x="133.906703" y="284.57862" style="fill: #7fffd4; stroke: #7fffd4"/>
     <use xlink:href="#m309729c738" x="135.518215" y="268.098983" style="fill: #7fffd4; stroke: #7fffd4"/>
     <use xlink:href="#m309729c738" x="137.129727" y="278.172906" style="fill: #7fffd4; stroke: #7fffd4"/>
     <use xlink:href="#m309729c738" x="138.741239" y="276.813794" style="fill: #7fffd4; stroke: #7fffd4"/>
     <use xlink:href="#m309729c738" x="140.352752" y="276.072023" style="fill: #7fffd4; stroke: #7fffd4"/>
     <use xlink:href="#m309729c738" x="141.964264" y="283.142511" style="fill: #7fffd4; stroke: #7fffd4"/>
     <use xlink:href="#m309729c738" x="143.575776" y="277.770166" style="fill: #7fffd4; stroke: #7fffd4"/>
     <use xlink:href="#m309729c738" x="145.187288" y="277.86019" style="fill: #7fffd4; stroke: #7fffd4"/>
     <use xlink:href="#m309729c738" x="146.7988" y="277.391116" style="fill: #7fffd4; stroke: #7fffd4"/>
     <use xlink:href="#m309729c738" x="148.410312" y="284.145782" style="fill: #7fffd4; stroke: #7fffd4"/>
     <use xlink:href="#m309729c738" x="150.021824" y="282.582874" style="fill: #7fffd4; stroke: #7fffd4"/>
     <use xlink:href="#m309729c738" x="151.633336" y="283.321138" style="fill: #7fffd4; stroke: #7fffd4"/>
     <use xlink:href="#m309729c738" x="153.244848" y="264.326536" style="fill: #7fffd4; stroke: #7fffd4"/>
     <use xlink:href="#m309729c738" x="154.85636" y="279.824304" style="fill: #7fffd4; stroke: #7fffd4"/>
     <use xlink:href="#m309729c738" x="156.467873" y="277.113146" style="fill: #7fffd4; stroke: #7fffd4"/>
     <use xlink:href="#m309729c738" x="158.079385" y="284.264285" style="fill: #7fffd4; stroke: #7fffd4"/>
     <use xlink:href="#m309729c738" x="159.690897" y="276.318947" style="fill: #7fffd4; stroke: #7fffd4"/>
     <use xlink:href="#m309729c738" x="161.302409" y="272.46347" style="fill: #7fffd4; stroke: #7fffd4"/>
     <use xlink:href="#m309729c738" x="162.913921" y="281.76914" style="fill: #7fffd4; stroke: #7fffd4"/>
     <use xlink:href="#m309729c738" x="164.525433" y="284.062391" style="fill: #7fffd4; stroke: #7fffd4"/>
     <use xlink:href="#m309729c738" x="166.136945" y="277.574169" style="fill: #7fffd4; stroke: #7fffd4"/>
     <use xlink:href="#m309729c738" x="167.748457" y="282.592077" style="fill: #7fffd4; stroke: #7fffd4"/>
     <use xlink:href="#m309729c738" x="169.359969" y="277.822448" style="fill: #7fffd4; stroke: #7fffd4"/>
     <use xlink:href="#m309729c738" x="170.971482" y="272.220878" style="fill: #7fffd4; stroke: #7fffd4"/>
     <use xlink:href="#m309729c738" x="172.582994" y="267.741593" style="fill: #7fffd4; stroke: #7fffd4"/>
     <use xlink:href="#m309729c738" x="174.194506" y="272.184817" style="fill: #7fffd4; stroke: #7fffd4"/>
     <use xlink:href="#m309729c738" x="175.806018" y="277.652491" style="fill: #7fffd4; stroke: #7fffd4"/>
     <use xlink:href="#m309729c738" x="177.41753" y="281.424514" style="fill: #7fffd4; stroke: #7fffd4"/>
     <use xlink:href="#m309729c738" x="179.029042" y="272.38766" style="fill: #7fffd4; stroke: #7fffd4"/>
     <use xlink:href="#m309729c738" x="180.640554" y="282.234887" style="fill: #7fffd4; stroke: #7fffd4"/>
     <use xlink:href="#m309729c738" x="182.252066" y="282.180138" style="fill: #7fffd4; stroke: #7fffd4"/>
     <use xlink:href="#m309729c738" x="183.863578" y="279.500416" style="fill: #7fffd4; stroke: #7fffd4"/>
     <use xlink:href="#m309729c738" x="185.475091" y="284.248794" style="fill: #7fffd4; stroke: #7fffd4"/>
     <use xlink:href="#m309729c738" x="187.086603" y="282.22779" style="fill: #7fffd4; stroke: #7fffd4"/>
     <use xlink:href="#m309729c738" x="188.698115" y="271.55375" style="fill: #7fffd4; stroke: #7fffd4"/>
     <use xlink:href="#m309729c738" x="190.309627" y="280.984507" style="fill: #7fffd4; stroke: #7fffd4"/>
     <use xlink:href="#m309729c738" x="191.921139" y="281.143708" style="fill: #7fffd4; stroke: #7fffd4"/>
     <use xlink:href="#m309729c738" x="193.532651" y="277.748506" style="fill: #7fffd4; stroke: #7fffd4"/>
     <use xlink:href="#m309729c738" x="195.144163" y="277.113146" style="fill: #7fffd4; stroke: #7fffd4"/>
     <use xlink:href="#m309729c738" x="196.755675" y="275.51482" style="fill: #7fffd4; stroke: #7fffd4"/>
     <use xlink:href="#m309729c738" x="198.367187" y="282.561354" style="fill: #7fffd4; stroke: #7fffd4"/>
     <use xlink:href="#m309729c738" x="199.978699" y="281.982199" style="fill: #7fffd4; stroke: #7fffd4"/>
     <use xlink:href="#m309729c738" x="201.590212" y="253.207745" style="fill: #7fffd4; stroke: #7fffd4"/>
     <use xlink:href="#m309729c738" x="203.201724" y="277.696205" style="fill: #7fffd4; stroke: #7fffd4"/>
     <use xlink:href="#m309729c738" x="204.813236" y="282.4478" style="fill: #7fffd4; stroke: #7fffd4"/>
     <use xlink:href="#m309729c738" x="206.424748" y="275.550222" style="fill: #7fffd4; stroke: #7fffd4"/>
     <use xlink:href="#m309729c738" x="208.03626" y="283.851623" style="fill: #7fffd4; stroke: #7fffd4"/>
     <use xlink:href="#m309729c738" x="209.647772" y="264.465521" style="fill: #7fffd4; stroke: #7fffd4"/>
     <use xlink:href="#m309729c738" x="211.259284" y="260.990899" style="fill: #7fffd4; stroke: #7fffd4"/>
     <use xlink:href="#m309729c738" x="212.870796" y="277.81824" style="fill: #7fffd4; stroke: #7fffd4"/>
     <use xlink:href="#m309729c738" x="214.482308" y="273.888697" style="fill: #7fffd4; stroke: #7fffd4"/>
     <use xlink:href="#m309729c738" x="216.093821" y="279.427406" style="fill: #7fffd4; stroke: #7fffd4"/>
     <use xlink:href="#m309729c738" x="217.705333" y="275.032344" style="fill: #7fffd4; stroke: #7fffd4"/>
     <use xlink:href="#m309729c738" x="219.316845" y="278.270101" style="fill: #7fffd4; stroke: #7fffd4"/>
     <use xlink:href="#m309729c738" x="220.928357" y="270.719841" style="fill: #7fffd4; stroke: #7fffd4"/>
     <use xlink:href="#m309729c738" x="222.539869" y="282.789582" style="fill: #7fffd4; stroke: #7fffd4"/>
     <use xlink:href="#m309729c738" x="224.151381" y="279.522218" style="fill: #7fffd4; stroke: #7fffd4"/>
     <use xlink:href="#m309729c738" x="225.762893" y="278.251085" style="fill: #7fffd4; stroke: #7fffd4"/>
     <use xlink:href="#m309729c738" x="227.374405" y="275.971216" style="fill: #7fffd4; stroke: #7fffd4"/>
     <use xlink:href="#m309729c738" x="228.985917" y="267.940143" style="fill: #7fffd4; stroke: #7fffd4"/>
     <use xlink:href="#m309729c738" x="230.597429" y="272.53482" style="fill: #7fffd4; stroke: #7fffd4"/>
     <use xlink:href="#m309729c738" x="232.208942" y="283.42977" style="fill: #7fffd4; stroke: #7fffd4"/>
     <use xlink:href="#m309729c738" x="233.820454" y="278.64198" style="fill: #7fffd4; stroke: #7fffd4"/>
     <use xlink:href="#m309729c738" x="235.431966" y="268.322352" style="fill: #7fffd4; stroke: #7fffd4"/>
     <use xlink:href="#m309729c738" x="237.043478" y="280.531583" style="fill: #7fffd4; stroke: #7fffd4"/>
     <use xlink:href="#m309729c738" x="238.65499" y="284.622138" style="fill: #7fffd4; stroke: #7fffd4"/>
     <use xlink:href="#m309729c738" x="240.266502" y="191.081497" style="fill: #7fffd4; stroke: #7fffd4"/>
     <use xlink:href="#m309729c738" x="241.878014" y="284.492796" style="fill: #7fffd4; stroke: #7fffd4"/>
     <use xlink:href="#m309729c738" x="243.489526" y="282.421472" style="fill: #7fffd4; stroke: #7fffd4"/>
     <use xlink:href="#m309729c738" x="245.101038" y="278.51031" style="fill: #7fffd4; stroke: #7fffd4"/>
     <use xlink:href="#m309729c738" x="246.712551" y="280.340915" style="fill: #7fffd4; stroke: #7fffd4"/>
     <use xlink:href="#m309729c738" x="248.324063" y="282.966396" style="fill: #7fffd4; stroke: #7fffd4"/>
     <use xlink:href="#m309729c738" x="249.935575" y="278.7382" style="fill: #7fffd4; stroke: #7fffd4"/>
     <use xlink:href="#m309729c738" x="251.547087" y="283.497484" style="fill: #7fffd4; stroke: #7fffd4"/>
     <use xlink:href="#m309729c738" x="253.158599" y="281.602886" style="fill: #7fffd4; stroke: #7fffd4"/>
     <use xlink:href="#m309729c738" x="254.770111" y="277.149013" style="fill: #7fffd4; stroke: #7fffd4"/>
     <use xlink:href="#m309729c738" x="256.381623" y="279.151591" style="fill: #7fffd4; stroke: #7fffd4"/>
     <use xlink:href="#m309729c738" x="257.993135" y="280.835524" style="fill: #7fffd4; stroke: #7fffd4"/>
     <use xlink:href="#m309729c738" x="259.604647" y="282.015522" style="fill: #7fffd4; stroke: #7fffd4"/>
     <use xlink:href="#m309729c738" x="261.216159" y="249.872107" style="fill: #7fffd4; stroke: #7fffd4"/>
     <use xlink:href="#m309729c738" x="262.827672" y="275.344248" style="fill: #7fffd4; stroke: #7fffd4"/>
     <use xlink:href="#m309729c738" x="264.439184" y="270.538556" style="fill: #7fffd4; stroke: #7fffd4"/>
     <use xlink:href="#m309729c738" x="266.050696" y="272.829141" style="fill: #7fffd4; stroke: #7fffd4"/>
     <use xlink:href="#m309729c738" x="267.662208" y="281.445641" style="fill: #7fffd4; stroke: #7fffd4"/>
     <use xlink:href="#m309729c738" x="269.27372" y="274.73303" style="fill: #7fffd4; stroke: #7fffd4"/>
     <use xlink:href="#m309729c738" x="270.885232" y="280.354702" style="fill: #7fffd4; stroke: #7fffd4"/>
     <use xlink:href="#m309729c738" x="272.496744" y="281.501098" style="fill: #7fffd4; stroke: #7fffd4"/>
     <use xlink:href="#m309729c738" x="274.108256" y="223.187008" style="fill: #7fffd4; stroke: #7fffd4"/>
     <use xlink:href="#m309729c738" x="275.719768" y="277.301769" style="fill: #7fffd4; stroke: #7fffd4"/>
     <use xlink:href="#m309729c738" x="277.331281" y="259.566303" style="fill: #7fffd4; stroke: #7fffd4"/>
     <use xlink:href="#m309729c738" x="278.942793" y="282.147148" style="fill: #7fffd4; stroke: #7fffd4"/>
     <use xlink:href="#m309729c738" x="280.554305" y="280.872902" style="fill: #7fffd4; stroke: #7fffd4"/>
     <use xlink:href="#m309729c738" x="282.165817" y="278.68233" style="fill: #7fffd4; stroke: #7fffd4"/>
     <use xlink:href="#m309729c738" x="283.777329" y="275.723297" style="fill: #7fffd4; stroke: #7fffd4"/>
     <use xlink:href="#m309729c738" x="285.388841" y="278.749197" style="fill: #7fffd4; stroke: #7fffd4"/>
     <use xlink:href="#m309729c738" x="287.000353" y="274.333448" style="fill: #7fffd4; stroke: #7fffd4"/>
     <use xlink:href="#m309729c738" x="288.611865" y="265.716385" style="fill: #7fffd4; stroke: #7fffd4"/>
     <use xlink:href="#m309729c738" x="290.223377" y="278.028811" style="fill: #7fffd4; stroke: #7fffd4"/>
     <use xlink:href="#m309729c738" x="291.83489" y="281.472883" style="fill: #7fffd4; stroke: #7fffd4"/>
     <use xlink:href="#m309729c738" x="293.446402" y="271.99265" style="fill: #7fffd4; stroke: #7fffd4"/>
     <use xlink:href="#m309729c738" x="295.057914" y="283.020004" style="fill: #7fffd4; stroke: #7fffd4"/>
     <use xlink:href="#m309729c738" x="296.669426" y="284.353757" style="fill: #7fffd4; stroke: #7fffd4"/>
     <use xlink:href="#m309729c738" x="298.280938" y="281.380358" style="fill: #7fffd4; stroke: #7fffd4"/>
     <use xlink:href="#m309729c738" x="299.89245" y="259.462065" style="fill: #7fffd4; stroke: #7fffd4"/>
     <use xlink:href="#m309729c738" x="301.503962" y="277.845976" style="fill: #7fffd4; stroke: #7fffd4"/>
     <use xlink:href="#m309729c738" x="303.115474" y="282.956185" style="fill: #7fffd4; stroke: #7fffd4"/>
     <use xlink:href="#m309729c738" x="304.726986" y="268.218113" style="fill: #7fffd4; stroke: #7fffd4"/>
     <use xlink:href="#m309729c738" x="306.338498" y="266.13334" style="fill: #7fffd4; stroke: #7fffd4"/>
     <use xlink:href="#m309729c738" x="307.950011" y="280.98735" style="fill: #7fffd4; stroke: #7fffd4"/>
     <use xlink:href="#m309729c738" x="309.561523" y="282.950512" style="fill: #7fffd4; stroke: #7fffd4"/>
     <use xlink:href="#m309729c738" x="311.173035" y="276.169342" style="fill: #7fffd4; stroke: #7fffd4"/>
     <use xlink:href="#m309729c738" x="312.784547" y="268.813763" style="fill: #7fffd4; stroke: #7fffd4"/>
     <use xlink:href="#m309729c738" x="314.396059" y="253.207745" style="fill: #7fffd4; stroke: #7fffd4"/>
     <use xlink:href="#m309729c738" x="316.007571" y="272.952566" style="fill: #7fffd4; stroke: #7fffd4"/>
     <use xlink:href="#m309729c738" x="317.619083" y="283.245675" style="fill: #7fffd4; stroke: #7fffd4"/>
     <use xlink:href="#m309729c738" x="319.230595" y="283.495332" style="fill: #7fffd4; stroke: #7fffd4"/>
     <use xlink:href="#m309729c738" x="320.842107" y="271.136796" style="fill: #7fffd4; stroke: #7fffd4"/>
     <use xlink:href="#m309729c738" x="322.45362" y="277.979758" style="fill: #7fffd4; stroke: #7fffd4"/>
     <use xlink:href="#m309729c738" x="324.065132" y="280.337596" style="fill: #7fffd4; stroke: #7fffd4"/>
     <use xlink:href="#m309729c738" x="325.676644" y="279.818166" style="fill: #7fffd4; stroke: #7fffd4"/>
     <use xlink:href="#m309729c738" x="327.288156" y="280.615565" style="fill: #7fffd4; stroke: #7fffd4"/>
     <use xlink:href="#m309729c738" x="328.899668" y="275.389733" style="fill: #7fffd4; stroke: #7fffd4"/>
     <use xlink:href="#m309729c738" x="330.51118" y="283.207634" style="fill: #7fffd4; stroke: #7fffd4"/>
     <use xlink:href="#m309729c738" x="332.122692" y="280.76301" style="fill: #7fffd4; stroke: #7fffd4"/>
     <use xlink:href="#m309729c738" x="333.734204" y="282.930657" style="fill: #7fffd4; stroke: #7fffd4"/>
     <use xlink:href="#m309729c738" x="335.345716" y="284.458498" style="fill: #7fffd4; stroke: #7fffd4"/>
     <use xlink:href="#m309729c738" x="336.957228" y="282.956185" style="fill: #7fffd4; stroke: #7fffd4"/>
     <use xlink:href="#m309729c738" x="338.568741" y="281.761605" style="fill: #7fffd4; stroke: #7fffd4"/>
     <use xlink:href="#m309729c738" x="340.180253" y="284.615207" style="fill: #7fffd4; stroke: #7fffd4"/>
     <use xlink:href="#m309729c738" x="341.791765" y="276.732766" style="fill: #7fffd4; stroke: #7fffd4"/>
     <use xlink:href="#m309729c738" x="343.403277" y="279.225717" style="fill: #7fffd4; stroke: #7fffd4"/>
     <use xlink:href="#m309729c738" x="345.014789" y="284.037121" style="fill: #7fffd4; stroke: #7fffd4"/>
     <use xlink:href="#m309729c738" x="346.626301" y="279.535454" style="fill: #7fffd4; stroke: #7fffd4"/>
     <use xlink:href="#m309729c738" x="348.237813" y="280.293121" style="fill: #7fffd4; stroke: #7fffd4"/>
     <use xlink:href="#m309729c738" x="349.849325" y="283.337847" style="fill: #7fffd4; stroke: #7fffd4"/>
     <use xlink:href="#m309729c738" x="351.460837" y="254.562847" style="fill: #7fffd4; stroke: #7fffd4"/>
     <use xlink:href="#m309729c738" x="353.07235" y="277.748506" style="fill: #7fffd4; stroke: #7fffd4"/>
     <use xlink:href="#m309729c738" x="354.683862" y="275.942747" style="fill: #7fffd4; stroke: #7fffd4"/>
     <use xlink:href="#m309729c738" x="356.295374" y="281.526626" style="fill: #7fffd4; stroke: #7fffd4"/>
     <use xlink:href="#m309729c738" x="357.906886" y="283.618822" style="fill: #7fffd4; stroke: #7fffd4"/>
     <use xlink:href="#m309729c738" x="359.518398" y="280.461419" style="fill: #7fffd4; stroke: #7fffd4"/>
     <use xlink:href="#m309729c738" x="361.12991" y="279.058935" style="fill: #7fffd4; stroke: #7fffd4"/>
     <use xlink:href="#m309729c738" x="362.741422" y="281.214512" style="fill: #7fffd4; stroke: #7fffd4"/>
     <use xlink:href="#m309729c738" x="364.352934" y="277.557898" style="fill: #7fffd4; stroke: #7fffd4"/>
     <use xlink:href="#m309729c738" x="365.964446" y="279.178065" style="fill: #7fffd4; stroke: #7fffd4"/>
     <use xlink:href="#m309729c738" x="367.575958" y="282.606583" style="fill: #7fffd4; stroke: #7fffd4"/>
     <use xlink:href="#m309729c738" x="369.187471" y="283.557347" style="fill: #7fffd4; stroke: #7fffd4"/>
     <use xlink:href="#m309729c738" x="370.798983" y="266.550294" style="fill: #7fffd4; stroke: #7fffd4"/>
     <use xlink:href="#m309729c738" x="372.410495" y="281.506862" style="fill: #7fffd4; stroke: #7fffd4"/>
     <use xlink:href="#m309729c738" x="374.022007" y="266.35408" style="fill: #7fffd4; stroke: #7fffd4"/>
     <use xlink:href="#m309729c738" x="375.633519" y="278.892153" style="fill: #7fffd4; stroke: #7fffd4"/>
     <use xlink:href="#m309729c738" x="377.245031" y="280.241922" style="fill: #7fffd4; stroke: #7fffd4"/>
     <use xlink:href="#m309729c738" x="378.856543" y="280.870531" style="fill: #7fffd4; stroke: #7fffd4"/>
     <use xlink:href="#m309729c738" x="380.468055" y="280.529648" style="fill: #7fffd4; stroke: #7fffd4"/>
     <use xlink:href="#m309729c738" x="382.079567" y="279.573474" style="fill: #7fffd4; stroke: #7fffd4"/>
     <use xlink:href="#m309729c738" x="383.69108" y="274.27921" style="fill: #7fffd4; stroke: #7fffd4"/>
    </g>
   </g>
   <g id="patch_7">
    <path d="M 46.965625 295.74112 
L 46.965625 51.12352 
" style="fill: none; stroke: #000000; stroke-width: 0.8; stroke-linejoin: miter; stroke-linecap: square"/>
   </g>
   <g id="patch_8">
    <path d="M 399.725625 295.74112 
L 399.725625 51.12352 
" style="fill: none; stroke: #000000; stroke-width: 0.8; stroke-linejoin: miter; stroke-linecap: square"/>
   </g>
   <g id="patch_9">
    <path d="M 46.965625 295.74112 
L 399.725625 295.74112 
" style="fill: none; stroke: #000000; stroke-width: 0.8; stroke-linejoin: miter; stroke-linecap: square"/>
   </g>
   <g id="patch_10">
    <path d="M 46.965625 51.12352 
L 399.725625 51.12352 
" style="fill: none; stroke: #000000; stroke-width: 0.8; stroke-linejoin: miter; stroke-linecap: square"/>
   </g>
   <g id="text_19">
    <!-- Line Chart -->
    <g transform="translate(192.446563 45.12352) scale(0.12 -0.12)">
     <defs>
      <path id="DejaVuSans-4c" d="M 628 4666 
L 1259 4666 
L 1259 531 
L 3531 531 
L 3531 0 
L 628 0 
L 628 4666 
z
" transform="scale(0.015625)"/>
      <path id="DejaVuSans-68" d="M 3513 2113 
L 3513 0 
L 2938 0 
L 2938 2094 
Q 2938 2591 2744 2837 
Q 2550 3084 2163 3084 
Q 1697 3084 1428 2787 
Q 1159 2491 1159 1978 
L 1159 0 
L 581 0 
L 581 4863 
L 1159 4863 
L 1159 2956 
Q 1366 3272 1645 3428 
Q 1925 3584 2291 3584 
Q 2894 3584 3203 3211 
Q 3513 2838 3513 2113 
z
" transform="scale(0.015625)"/>
     </defs>
     <use xlink:href="#DejaVuSans-4c"/>
     <use xlink:href="#DejaVuSans-69" x="55.712891"/>
     <use xlink:href="#DejaVuSans-6e" x="83.496094"/>
     <use xlink:href="#DejaVuSans-65" x="146.875"/>
     <use xlink:href="#DejaVuSans-20" x="208.398438"/>
     <use xlink:href="#DejaVuSans-43" x="240.185547"/>
     <use xlink:href="#DejaVuSans-68" x="310.009766"/>
     <use xlink:href="#DejaVuSans-61" x="373.388672"/>
     <use xlink:href="#DejaVuSans-72" x="434.667969"/>
     <use xlink:href="#DejaVuSans-74" x="475.78125"/>
    </g>
   </g>
   <g id="legend_1">
    <g id="line2d_19">
     <path d="M 290.542813 15.298438 
L 300.542813 15.298438 
L 310.542813 15.298438 
" style="fill: none; stroke: #ffc6cc; stroke-width: 1.5; stroke-linecap: square"/>
    </g>
    <g id="text_20">
     <!-- number1 -->
     <g transform="translate(318.542813 18.798438) scale(0.1 -0.1)">
      <defs>
       <path id="DejaVuSans-6d" d="M 3328 2828 
Q 3544 3216 3844 3400 
Q 4144 3584 4550 3584 
Q 5097 3584 5394 3201 
Q 5691 2819 5691 2113 
L 5691 0 
L 5113 0 
L 5113 2094 
Q 5113 2597 4934 2840 
Q 4756 3084 4391 3084 
Q 3944 3084 3684 2787 
Q 3425 2491 3425 1978 
L 3425 0 
L 2847 0 
L 2847 2094 
Q 2847 2600 2669 2842 
Q 2491 3084 2119 3084 
Q 1678 3084 1418 2786 
Q 1159 2488 1159 1978 
L 1159 0 
L 581 0 
L 581 3500 
L 1159 3500 
L 1159 2956 
Q 1356 3278 1631 3431 
Q 1906 3584 2284 3584 
Q 2666 3584 2933 3390 
Q 3200 3197 3328 2828 
z
" transform="scale(0.015625)"/>
       <path id="DejaVuSans-62" d="M 3116 1747 
Q 3116 2381 2855 2742 
Q 2594 3103 2138 3103 
Q 1681 3103 1420 2742 
Q 1159 2381 1159 1747 
Q 1159 1113 1420 752 
Q 1681 391 2138 391 
Q 2594 391 2855 752 
Q 3116 1113 3116 1747 
z
M 1159 2969 
Q 1341 3281 1617 3432 
Q 1894 3584 2278 3584 
Q 2916 3584 3314 3078 
Q 3713 2572 3713 1747 
Q 3713 922 3314 415 
Q 2916 -91 2278 -91 
Q 1894 -91 1617 61 
Q 1341 213 1159 525 
L 1159 0 
L 581 0 
L 581 4863 
L 1159 4863 
L 1159 2969 
z
" transform="scale(0.015625)"/>
      </defs>
      <use xlink:href="#DejaVuSans-6e"/>
      <use xlink:href="#DejaVuSans-75" x="63.378906"/>
      <use xlink:href="#DejaVuSans-6d" x="126.757812"/>
      <use xlink:href="#DejaVuSans-62" x="224.169922"/>
      <use xlink:href="#DejaVuSans-65" x="287.646484"/>
      <use xlink:href="#DejaVuSans-72" x="349.169922"/>
      <use xlink:href="#DejaVuSans-31" x="390.283203"/>
     </g>
    </g>
    <g id="line2d_20">
     <path d="M 290.542813 29.976563 
L 300.542813 29.976563 
L 310.542813 29.976563 
" style="fill: none; stroke: #e4c1f9; stroke-width: 1.5; stroke-linecap: square"/>
    </g>
    <g id="text_21">
     <!-- number2 -->
     <g transform="translate(318.542813 33.476563) scale(0.1 -0.1)">
      <use xlink:href="#DejaVuSans-6e"/>
      <use xlink:href="#DejaVuSans-75" x="63.378906"/>
      <use xlink:href="#DejaVuSans-6d" x="126.757812"/>
      <use xlink:href="#DejaVuSans-62" x="224.169922"/>
      <use xlink:href="#DejaVuSans-65" x="287.646484"/>
      <use xlink:href="#DejaVuSans-72" x="349.169922"/>
      <use xlink:href="#DejaVuSans-32" x="390.283203"/>
     </g>
    </g>
    <g id="line2d_21">
     <path d="M 290.542813 44.654688 
L 300.542813 44.654688 
L 310.542813 44.654688 
" style="fill: none; stroke: #7fffd4; stroke-width: 1.5; stroke-linecap: square"/>
     <g>
      <use xlink:href="#m309729c738" x="300.542813" y="44.654688" style="fill: #7fffd4; stroke: #7fffd4"/>
     </g>
    </g>
    <g id="text_22">
     <!-- Difference (%) -->
     <g transform="translate(318.542813 48.154688) scale(0.1 -0.1)">
      <use xlink:href="#DejaVuSans-44"/>
      <use xlink:href="#DejaVuSans-69" x="77.001953"/>
      <use xlink:href="#DejaVuSans-66" x="104.785156"/>
      <use xlink:href="#DejaVuSans-66" x="139.990234"/>
      <use xlink:href="#DejaVuSans-65" x="175.195312"/>
      <use xlink:href="#DejaVuSans-72" x="236.71875"/>
      <use xlink:href="#DejaVuSans-65" x="275.582031"/>
      <use xlink:href="#DejaVuSans-6e" x="337.105469"/>
      <use xlink:href="#DejaVuSans-63" x="400.484375"/>
      <use xlink:href="#DejaVuSans-65" x="455.464844"/>
      <use xlink:href="#DejaVuSans-20" x="516.988281"/>
      <use xlink:href="#DejaVuSans-28" x="548.775391"/>
      <use xlink:href="#DejaVuSans-25" x="587.789062"/>
      <use xlink:href="#DejaVuSans-29" x="682.808594"/>
     </g>
    </g>
   </g>
  </g>
 </g>
 <defs>
  <clipPath id="p1e07caeb27">
   <rect x="46.965625" y="51.12352" width="352.76" height="244.6176"/>
  </clipPath>
 </defs>
</svg>
