<?xml version="1.0" encoding="utf-8" standalone="no"?>
<!DOCTYPE svg PUBLIC "-//W3C//DTD SVG 1.1//EN"
  "http://www.w3.org/Graphics/SVG/1.1/DTD/svg11.dtd">
<svg xmlns:xlink="http://www.w3.org/1999/xlink" width="572.669888pt" height="478.114125pt" viewBox="0 0 572.669888 478.114125" xmlns="http://www.w3.org/2000/svg" version="1.1">
 <metadata>
  <rdf:RDF xmlns:dc="http://purl.org/dc/elements/1.1/" xmlns:cc="http://creativecommons.org/ns#" xmlns:rdf="http://www.w3.org/1999/02/22-rdf-syntax-ns#">
   <cc:Work>
    <dc:type rdf:resource="http://purl.org/dc/dcmitype/StillImage"/>
    <dc:date>2024-01-27T14:47:42.760068</dc:date>
    <dc:format>image/svg+xml</dc:format>
    <dc:creator>
     <cc:Agent>
      <dc:title>Matplotlib v3.7.1, https://matplotlib.org/</dc:title>
     </cc:Agent>
    </dc:creator>
   </cc:Work>
  </rdf:RDF>
 </metadata>
 <defs>
  <style type="text/css">*{stroke-linejoin: round; stroke-linecap: butt}</style>
 </defs>
 <g id="figure_1">
  <g id="patch_1">
   <path d="M 0 478.114125 
L 572.669888 478.114125 
L 572.669888 0 
L 0 0 
z
" style="fill: #ffffff"/>
  </g>
  <g id="axes_1">
   <g id="patch_2">
    <path d="M 480.750688 246.616125 
C 480.750688 217.161582 474.948785 187.993446 463.677019 160.780996 
C 452.405253 133.568547 435.882832 108.840996 415.055324 88.013488 
C 394.227817 67.185981 369.500266 50.663559 342.287816 39.391794 
C 315.075366 28.120028 285.907231 22.318125 256.452688 22.318125 
C 226.998144 22.318125 197.830009 28.120028 170.617559 39.391794 
C 143.405109 50.663559 118.677558 67.185981 97.850051 88.013488 
C 77.022543 108.840996 60.500122 133.568547 49.228356 160.780996 
C 37.95659 187.993446 32.154687 217.161582 32.154687 246.616125 
C 32.154687 276.070668 37.95659 305.238804 49.228356 332.451254 
C 60.500122 359.663703 77.022543 384.391254 97.850051 405.218762 
C 118.677558 426.046269 143.405109 442.568691 170.617559 453.840456 
C 197.830009 465.112222 226.998144 470.914125 256.452687 470.914125 
C 285.907231 470.914125 315.075366 465.112222 342.287816 453.840456 
C 369.500266 442.568691 394.227817 426.046269 415.055324 405.218762 
C 435.882832 384.391254 452.405253 359.663703 463.677019 332.451254 
C 474.948785 305.238804 480.750688 276.070668 480.750688 246.616125 
M 256.452688 246.616125 
C 256.452688 246.616125 256.452688 246.616125 256.452688 246.616125 
C 256.452688 246.616125 256.452688 246.616125 256.452688 246.616125 
C 256.452688 246.616125 256.452688 246.616125 256.452688 246.616125 
C 256.452688 246.616125 256.452688 246.616125 256.452688 246.616125 
C 256.452688 246.616125 256.452688 246.616125 256.452688 246.616125 
C 256.452688 246.616125 256.452688 246.616125 256.452688 246.616125 
C 256.452688 246.616125 256.452688 246.616125 256.452688 246.616125 
C 256.452688 246.616125 256.452688 246.616125 256.452688 246.616125 
C 256.452688 246.616125 256.452688 246.616125 256.452688 246.616125 
C 256.452688 246.616125 256.452688 246.616125 256.452688 246.616125 
C 256.452688 246.616125 256.452688 246.616125 256.452688 246.616125 
C 256.452688 246.616125 256.452688 246.616125 256.452688 246.616125 
C 256.452688 246.616125 256.452688 246.616125 256.452688 246.616125 
C 256.452688 246.616125 256.452688 246.616125 256.452688 246.616125 
C 256.452688 246.616125 256.452688 246.616125 256.452688 246.616125 
C 256.452688 246.616125 256.452688 246.616125 256.452688 246.616125 
z
" style="fill: #ffffff"/>
   </g>
   <g id="patch_3">
    <path d="M 314.149922 246.616125 
L 306.937768 159.173401 
L 201.159504 150.845522 
L 198.755453 246.616125 
L 201.159504 342.386728 
L 364.635003 433.993391 
z
" clip-path="url(#pea4e5f85a6)" style="fill: #0000ff; opacity: 0.25; stroke: #0000ff; stroke-linejoin: miter"/>
   </g>
   <g id="patch_4">
    <path d="M 323.766128 246.616125 
L 314.149922 146.681583 
L 203.563556 155.009461 
L 189.139247 246.616125 
L 205.967607 334.058849 
L 364.635003 433.993391 
z
" clip-path="url(#pea4e5f85a6)" style="fill: #008000; opacity: 0.25; stroke: #008000; stroke-linejoin: miter"/>
   </g>
   <g id="matplotlib.axis_1">
    <g id="xtick_1">
     <g id="text_1">
      <!-- cat1 -->
      <g transform="translate(483.796 249.3755) scale(0.1 -0.1)">
       <defs>
        <path id="DejaVuSans-63" d="M 3122 3366 
L 3122 2828 
Q 2878 2963 2633 3030 
Q 2388 3097 2138 3097 
Q 1578 3097 1268 2742 
Q 959 2388 959 1747 
Q 959 1106 1268 751 
Q 1578 397 2138 397 
Q 2388 397 2633 464 
Q 2878 531 3122 666 
L 3122 134 
Q 2881 22 2623 -34 
Q 2366 -91 2075 -91 
Q 1284 -91 818 406 
Q 353 903 353 1747 
Q 353 2603 823 3093 
Q 1294 3584 2113 3584 
Q 2378 3584 2631 3529 
Q 2884 3475 3122 3366 
z
" transform="scale(0.015625)"/>
        <path id="DejaVuSans-61" d="M 2194 1759 
Q 1497 1759 1228 1600 
Q 959 1441 959 1056 
Q 959 750 1161 570 
Q 1363 391 1709 391 
Q 2188 391 2477 730 
Q 2766 1069 2766 1631 
L 2766 1759 
L 2194 1759 
z
M 3341 1997 
L 3341 0 
L 2766 0 
L 2766 531 
Q 2569 213 2275 61 
Q 1981 -91 1556 -91 
Q 1019 -91 701 211 
Q 384 513 384 1019 
Q 384 1609 779 1909 
Q 1175 2209 1959 2209 
L 2766 2209 
L 2766 2266 
Q 2766 2663 2505 2880 
Q 2244 3097 1772 3097 
Q 1472 3097 1187 3025 
Q 903 2953 641 2809 
L 641 3341 
Q 956 3463 1253 3523 
Q 1550 3584 1831 3584 
Q 2591 3584 2966 3190 
Q 3341 2797 3341 1997 
z
" transform="scale(0.015625)"/>
        <path id="DejaVuSans-74" d="M 1172 4494 
L 1172 3500 
L 2356 3500 
L 2356 3053 
L 1172 3053 
L 1172 1153 
Q 1172 725 1289 603 
Q 1406 481 1766 481 
L 2356 481 
L 2356 0 
L 1766 0 
Q 1100 0 847 248 
Q 594 497 594 1153 
L 594 3053 
L 172 3053 
L 172 3500 
L 594 3500 
L 594 4494 
L 1172 4494 
z
" transform="scale(0.015625)"/>
        <path id="DejaVuSans-31" d="M 794 531 
L 1825 531 
L 1825 4091 
L 703 3866 
L 703 4441 
L 1819 4666 
L 2450 4666 
L 2450 531 
L 3481 531 
L 3481 0 
L 794 0 
L 794 531 
z
" transform="scale(0.015625)"/>
       </defs>
       <use xlink:href="#DejaVuSans-63"/>
       <use xlink:href="#DejaVuSans-61" x="54.980469"/>
       <use xlink:href="#DejaVuSans-74" x="116.259766"/>
       <use xlink:href="#DejaVuSans-31" x="155.46875"/>
      </g>
     </g>
    </g>
    <g id="xtick_2">
     <g id="text_2">
      <!-- cat2 -->
      <g transform="translate(364.647 43.003378) scale(0.1 -0.1)">
       <defs>
        <path id="DejaVuSans-32" d="M 1228 531 
L 3431 531 
L 3431 0 
L 469 0 
L 469 531 
Q 828 903 1448 1529 
Q 2069 2156 2228 2338 
Q 2531 2678 2651 2914 
Q 2772 3150 2772 3378 
Q 2772 3750 2511 3984 
Q 2250 4219 1831 4219 
Q 1534 4219 1204 4116 
Q 875 4013 500 3803 
L 500 4441 
Q 881 4594 1212 4672 
Q 1544 4750 1819 4750 
Q 2544 4750 2975 4387 
Q 3406 4025 3406 3419 
Q 3406 3131 3298 2873 
Q 3191 2616 2906 2266 
Q 2828 2175 2409 1742 
Q 1991 1309 1228 531 
z
" transform="scale(0.015625)"/>
       </defs>
       <use xlink:href="#DejaVuSans-63"/>
       <use xlink:href="#DejaVuSans-61" x="54.980469"/>
       <use xlink:href="#DejaVuSans-74" x="116.259766"/>
       <use xlink:href="#DejaVuSans-32" x="155.46875"/>
      </g>
     </g>
    </g>
    <g id="xtick_3">
     <g id="text_3">
      <!-- cat3 -->
      <g transform="translate(126.349 43.003378) scale(0.1 -0.1)">
       <defs>
        <path id="DejaVuSans-33" d="M 2597 2516 
Q 3050 2419 3304 2112 
Q 3559 1806 3559 1356 
Q 3559 666 3084 287 
Q 2609 -91 1734 -91 
Q 1441 -91 1130 -33 
Q 819 25 488 141 
L 488 750 
Q 750 597 1062 519 
Q 1375 441 1716 441 
Q 2309 441 2620 675 
Q 2931 909 2931 1356 
Q 2931 1769 2642 2001 
Q 2353 2234 1838 2234 
L 1294 2234 
L 1294 2753 
L 1863 2753 
Q 2328 2753 2575 2939 
Q 2822 3125 2822 3475 
Q 2822 3834 2567 4026 
Q 2313 4219 1838 4219 
Q 1578 4219 1281 4162 
Q 984 4106 628 3988 
L 628 4550 
Q 988 4650 1302 4700 
Q 1616 4750 1894 4750 
Q 2613 4750 3031 4423 
Q 3450 4097 3450 3541 
Q 3450 3153 3228 2886 
Q 3006 2619 2597 2516 
z
" transform="scale(0.015625)"/>
       </defs>
       <use xlink:href="#DejaVuSans-63"/>
       <use xlink:href="#DejaVuSans-61" x="54.980469"/>
       <use xlink:href="#DejaVuSans-74" x="116.259766"/>
       <use xlink:href="#DejaVuSans-33" x="155.46875"/>
      </g>
     </g>
    </g>
    <g id="xtick_4">
     <g id="text_4">
      <!-- cat4 -->
      <g transform="translate(7.2 249.3755) scale(0.1 -0.1)">
       <defs>
        <path id="DejaVuSans-34" d="M 2419 4116 
L 825 1625 
L 2419 1625 
L 2419 4116 
z
M 2253 4666 
L 3047 4666 
L 3047 1625 
L 3713 1625 
L 3713 1100 
L 3047 1100 
L 3047 0 
L 2419 0 
L 2419 1100 
L 313 1100 
L 313 1709 
L 2253 4666 
z
" transform="scale(0.015625)"/>
       </defs>
       <use xlink:href="#DejaVuSans-63"/>
       <use xlink:href="#DejaVuSans-61" x="54.980469"/>
       <use xlink:href="#DejaVuSans-74" x="116.259766"/>
       <use xlink:href="#DejaVuSans-34" x="155.46875"/>
      </g>
     </g>
    </g>
    <g id="xtick_5">
     <g id="text_5">
      <!-- cat5 -->
      <g transform="translate(126.349 455.747622) scale(0.1 -0.1)">
       <defs>
        <path id="DejaVuSans-35" d="M 691 4666 
L 3169 4666 
L 3169 4134 
L 1269 4134 
L 1269 2991 
Q 1406 3038 1543 3061 
Q 1681 3084 1819 3084 
Q 2600 3084 3056 2656 
Q 3513 2228 3513 1497 
Q 3513 744 3044 326 
Q 2575 -91 1722 -91 
Q 1428 -91 1123 -41 
Q 819 9 494 109 
L 494 744 
Q 775 591 1075 516 
Q 1375 441 1709 441 
Q 2250 441 2565 725 
Q 2881 1009 2881 1497 
Q 2881 1984 2565 2268 
Q 2250 2553 1709 2553 
Q 1456 2553 1204 2497 
Q 953 2441 691 2322 
L 691 4666 
z
" transform="scale(0.015625)"/>
       </defs>
       <use xlink:href="#DejaVuSans-63"/>
       <use xlink:href="#DejaVuSans-61" x="54.980469"/>
       <use xlink:href="#DejaVuSans-74" x="116.259766"/>
       <use xlink:href="#DejaVuSans-35" x="155.46875"/>
      </g>
     </g>
    </g>
    <g id="xtick_6">
     <g id="text_6">
      <!-- cat6 -->
      <g transform="translate(364.647 455.747622) scale(0.1 -0.1)">
       <defs>
        <path id="DejaVuSans-36" d="M 2113 2584 
Q 1688 2584 1439 2293 
Q 1191 2003 1191 1497 
Q 1191 994 1439 701 
Q 1688 409 2113 409 
Q 2538 409 2786 701 
Q 3034 994 3034 1497 
Q 3034 2003 2786 2293 
Q 2538 2584 2113 2584 
z
M 3366 4563 
L 3366 3988 
Q 3128 4100 2886 4159 
Q 2644 4219 2406 4219 
Q 1781 4219 1451 3797 
Q 1122 3375 1075 2522 
Q 1259 2794 1537 2939 
Q 1816 3084 2150 3084 
Q 2853 3084 3261 2657 
Q 3669 2231 3669 1497 
Q 3669 778 3244 343 
Q 2819 -91 2113 -91 
Q 1303 -91 875 529 
Q 447 1150 447 2328 
Q 447 3434 972 4092 
Q 1497 4750 2381 4750 
Q 2619 4750 2861 4703 
Q 3103 4656 3366 4563 
z
" transform="scale(0.015625)"/>
       </defs>
       <use xlink:href="#DejaVuSans-63"/>
       <use xlink:href="#DejaVuSans-61" x="54.980469"/>
       <use xlink:href="#DejaVuSans-74" x="116.259766"/>
       <use xlink:href="#DejaVuSans-36" x="155.46875"/>
      </g>
     </g>
    </g>
   </g>
   <g id="matplotlib.axis_2">
    <g id="ytick_1">
     <g id="line2d_1">
      <path d="M 256.452688 246.616125 
C 256.452688 246.616125 256.452688 246.616125 256.452688 246.616125 
C 256.452688 246.616125 256.452688 246.616125 256.452688 246.616125 
C 256.452688 246.616125 256.452688 246.616125 256.452688 246.616125 
C 256.452688 246.616125 256.452688 246.616125 256.452688 246.616125 
C 256.452688 246.616125 256.452688 246.616125 256.452688 246.616125 
C 256.452688 246.616125 256.452688 246.616125 256.452688 246.616125 
C 256.452688 246.616125 256.452688 246.616125 256.452688 246.616125 
C 256.452688 246.616125 256.452688 246.616125 256.452688 246.616125 
C 256.452688 246.616125 256.452688 246.616125 256.452688 246.616125 
C 256.452688 246.616125 256.452688 246.616125 256.452688 246.616125 
C 256.452688 246.616125 256.452688 246.616125 256.452688 246.616125 
C 256.452688 246.616125 256.452688 246.616125 256.452688 246.616125 
C 256.452688 246.616125 256.452688 246.616125 256.452688 246.616125 
C 256.452688 246.616125 256.452688 246.616125 256.452688 246.616125 
C 256.452688 246.616125 256.452688 246.616125 256.452688 246.616125 
C 256.452688 246.616125 256.452688 246.616125 256.452688 246.616125 
" clip-path="url(#pea4e5f85a6)" style="fill: none; stroke: #b0b0b0; stroke-width: 0.8; stroke-linecap: square"/>
     </g>
     <g id="text_7">
      <!-- 0 -->
      <g style="fill: #848484" transform="translate(256.452688 245.576281) scale(0.05 -0.05)">
       <defs>
        <path id="DejaVuSans-30" d="M 2034 4250 
Q 1547 4250 1301 3770 
Q 1056 3291 1056 2328 
Q 1056 1369 1301 889 
Q 1547 409 2034 409 
Q 2525 409 2770 889 
Q 3016 1369 3016 2328 
Q 3016 3291 2770 3770 
Q 2525 4250 2034 4250 
z
M 2034 4750 
Q 2819 4750 3233 4129 
Q 3647 3509 3647 2328 
Q 3647 1150 3233 529 
Q 2819 -91 2034 -91 
Q 1250 -91 836 529 
Q 422 1150 422 2328 
Q 422 3509 836 4129 
Q 1250 4750 2034 4750 
z
" transform="scale(0.015625)"/>
       </defs>
       <use xlink:href="#DejaVuSans-30"/>
      </g>
     </g>
    </g>
    <g id="ytick_2">
     <g id="line2d_2">
      <path d="M 299.725614 246.616125 
C 299.725614 240.933576 298.606275 235.306283 296.431658 230.056293 
C 294.257041 224.806303 291.069436 220.035714 287.051267 216.017546 
C 283.033098 211.999377 278.26251 208.811772 273.012519 206.637154 
C 267.762529 204.462537 262.135236 203.343199 256.452688 203.343199 
C 250.770139 203.343199 245.142846 204.462537 239.892856 206.637154 
C 234.642865 208.811772 229.872277 211.999377 225.854108 216.017546 
C 221.835939 220.035714 218.648334 224.806303 216.473717 230.056293 
C 214.2991 235.306283 213.179761 240.933576 213.179761 246.616125 
C 213.179761 252.298674 214.2991 257.925967 216.473717 263.175957 
C 218.648334 268.425947 221.835939 273.196536 225.854108 277.214704 
C 229.872277 281.232873 234.642865 284.420478 239.892856 286.595096 
C 245.142846 288.769713 250.770139 289.889051 256.452688 289.889051 
C 262.135236 289.889051 267.762529 288.769713 273.012519 286.595096 
C 278.26251 284.420478 283.033098 281.232873 287.051267 277.214704 
C 291.069436 273.196536 294.257041 268.425947 296.431658 263.175957 
C 298.606275 257.925967 299.725614 252.298674 299.725614 246.616125 
" clip-path="url(#pea4e5f85a6)" style="fill: none; stroke: #b0b0b0; stroke-width: 0.8; stroke-linecap: square"/>
     </g>
     <g id="text_8">
      <!-- 9 -->
      <g style="fill: #848484" transform="translate(296.431658 229.016449) scale(0.05 -0.05)">
       <defs>
        <path id="DejaVuSans-39" d="M 703 97 
L 703 672 
Q 941 559 1184 500 
Q 1428 441 1663 441 
Q 2288 441 2617 861 
Q 2947 1281 2994 2138 
Q 2813 1869 2534 1725 
Q 2256 1581 1919 1581 
Q 1219 1581 811 2004 
Q 403 2428 403 3163 
Q 403 3881 828 4315 
Q 1253 4750 1959 4750 
Q 2769 4750 3195 4129 
Q 3622 3509 3622 2328 
Q 3622 1225 3098 567 
Q 2575 -91 1691 -91 
Q 1453 -91 1209 -44 
Q 966 3 703 97 
z
M 1959 2075 
Q 2384 2075 2632 2365 
Q 2881 2656 2881 3163 
Q 2881 3666 2632 3958 
Q 2384 4250 1959 4250 
Q 1534 4250 1286 3958 
Q 1038 3666 1038 3163 
Q 1038 2656 1286 2365 
Q 1534 2075 1959 2075 
z
" transform="scale(0.015625)"/>
       </defs>
       <use xlink:href="#DejaVuSans-39"/>
      </g>
     </g>
    </g>
    <g id="ytick_3">
     <g id="line2d_3">
      <path d="M 342.99854 246.616125 
C 342.99854 235.251028 340.759863 223.996442 336.410629 213.496461 
C 332.061394 202.996481 325.686184 193.455303 317.649846 185.418966 
C 309.613509 177.382629 300.072332 171.007418 289.572351 166.658184 
C 279.072371 162.308949 267.817785 160.070273 256.452688 160.070273 
C 245.08759 160.070273 233.833004 162.308949 223.333024 166.658184 
C 212.833043 171.007418 203.291866 177.382629 195.255529 185.418966 
C 187.219191 193.455303 180.843981 202.996481 176.494746 213.496461 
C 172.145512 223.996442 169.906835 235.251028 169.906835 246.616125 
C 169.906835 257.981222 172.145512 269.235808 176.494746 279.735789 
C 180.843981 290.235769 187.219191 299.776947 195.255529 307.813284 
C 203.291866 315.849621 212.833043 322.224832 223.333024 326.574066 
C 233.833004 330.923301 245.08759 333.161977 256.452688 333.161977 
C 267.817785 333.161977 279.072371 330.923301 289.572351 326.574066 
C 300.072332 322.224832 309.613509 315.849621 317.649846 307.813284 
C 325.686184 299.776947 332.061394 290.235769 336.410629 279.735789 
C 340.759863 269.235808 342.99854 257.981222 342.99854 246.616125 
" clip-path="url(#pea4e5f85a6)" style="fill: none; stroke: #b0b0b0; stroke-width: 0.8; stroke-linecap: square"/>
     </g>
     <g id="text_9">
      <!-- 18 -->
      <g style="fill: #848484" transform="translate(336.410629 212.456618) scale(0.05 -0.05)">
       <defs>
        <path id="DejaVuSans-38" d="M 2034 2216 
Q 1584 2216 1326 1975 
Q 1069 1734 1069 1313 
Q 1069 891 1326 650 
Q 1584 409 2034 409 
Q 2484 409 2743 651 
Q 3003 894 3003 1313 
Q 3003 1734 2745 1975 
Q 2488 2216 2034 2216 
z
M 1403 2484 
Q 997 2584 770 2862 
Q 544 3141 544 3541 
Q 544 4100 942 4425 
Q 1341 4750 2034 4750 
Q 2731 4750 3128 4425 
Q 3525 4100 3525 3541 
Q 3525 3141 3298 2862 
Q 3072 2584 2669 2484 
Q 3125 2378 3379 2068 
Q 3634 1759 3634 1313 
Q 3634 634 3220 271 
Q 2806 -91 2034 -91 
Q 1263 -91 848 271 
Q 434 634 434 1313 
Q 434 1759 690 2068 
Q 947 2378 1403 2484 
z
M 1172 3481 
Q 1172 3119 1398 2916 
Q 1625 2713 2034 2713 
Q 2441 2713 2670 2916 
Q 2900 3119 2900 3481 
Q 2900 3844 2670 4047 
Q 2441 4250 2034 4250 
Q 1625 4250 1398 4047 
Q 1172 3844 1172 3481 
z
" transform="scale(0.015625)"/>
       </defs>
       <use xlink:href="#DejaVuSans-31"/>
       <use xlink:href="#DejaVuSans-38" x="63.623047"/>
      </g>
     </g>
    </g>
    <g id="ytick_4">
     <g id="line2d_4">
      <path d="M 386.271466 246.616125 
C 386.271466 229.568479 382.913451 212.6866 376.3896 196.936629 
C 369.865748 181.186658 360.302932 166.874893 348.248426 154.820387 
C 336.19392 142.765881 321.882154 133.203065 306.132183 126.679213 
C 290.382212 120.155361 273.500333 116.797347 256.452688 116.797347 
C 239.405042 116.797347 222.523163 120.155361 206.773192 126.679213 
C 191.023221 133.203065 176.711455 142.765881 164.656949 154.820387 
C 152.602443 166.874893 143.039627 181.186658 136.515775 196.936629 
C 129.991924 212.6866 126.633909 229.568479 126.633909 246.616125 
C 126.633909 263.663771 129.991924 280.54565 136.515775 296.295621 
C 143.039627 312.045592 152.602443 326.357357 164.656949 338.411863 
C 176.711455 350.466369 191.023221 360.029185 206.773192 366.553037 
C 222.523163 373.076889 239.405042 376.434903 256.452688 376.434903 
C 273.500333 376.434903 290.382212 373.076889 306.132183 366.553037 
C 321.882154 360.029185 336.19392 350.466369 348.248426 338.411863 
C 360.302932 326.357357 369.865748 312.045592 376.3896 296.295621 
C 382.913451 280.54565 386.271466 263.663771 386.271466 246.616125 
" clip-path="url(#pea4e5f85a6)" style="fill: none; stroke: #b0b0b0; stroke-width: 0.8; stroke-linecap: square"/>
     </g>
     <g id="text_10">
      <!-- 27 -->
      <g style="fill: #848484" transform="translate(376.3896 195.896786) scale(0.05 -0.05)">
       <defs>
        <path id="DejaVuSans-37" d="M 525 4666 
L 3525 4666 
L 3525 4397 
L 1831 0 
L 1172 0 
L 2766 4134 
L 525 4134 
L 525 4666 
z
" transform="scale(0.015625)"/>
       </defs>
       <use xlink:href="#DejaVuSans-32"/>
       <use xlink:href="#DejaVuSans-37" x="63.623047"/>
      </g>
     </g>
    </g>
    <g id="ytick_5">
     <g id="line2d_5">
      <path d="M 429.544392 246.616125 
C 429.544392 223.885931 425.067039 201.376759 416.36857 180.376798 
C 407.670101 159.376836 394.91968 140.294482 378.847005 124.221807 
C 362.774331 108.149133 343.691976 95.398711 322.692015 86.700242 
C 301.692054 78.001773 279.182882 73.524421 256.452688 73.524421 
C 233.722493 73.524421 211.213321 78.001773 190.21336 86.700242 
C 169.213399 95.398711 150.131044 108.149133 134.05837 124.221807 
C 117.985695 140.294482 105.235274 159.376836 96.536805 180.376798 
C 87.838336 201.376759 83.360983 223.885931 83.360983 246.616125 
C 83.360983 269.346319 87.838336 291.855491 96.536805 312.855452 
C 105.235274 333.855414 117.985695 352.937768 134.05837 369.010443 
C 150.131044 385.083117 169.213399 397.833539 190.21336 406.532008 
C 211.213321 415.230477 233.722493 419.707829 256.452687 419.707829 
C 279.182882 419.707829 301.692054 415.230477 322.692015 406.532008 
C 343.691976 397.833539 362.774331 385.083117 378.847005 369.010443 
C 394.91968 352.937768 407.670101 333.855414 416.36857 312.855452 
C 425.067039 291.855491 429.544392 269.346319 429.544392 246.616125 
" clip-path="url(#pea4e5f85a6)" style="fill: none; stroke: #b0b0b0; stroke-width: 0.8; stroke-linecap: square"/>
     </g>
     <g id="text_11">
      <!-- 36 -->
      <g style="fill: #848484" transform="translate(416.36857 179.336954) scale(0.05 -0.05)">
       <use xlink:href="#DejaVuSans-33"/>
       <use xlink:href="#DejaVuSans-36" x="63.623047"/>
      </g>
     </g>
    </g>
    <g id="ytick_6">
     <g id="line2d_6">
      <path d="M 472.817318 246.616125 
C 472.817318 218.203382 467.220627 190.066917 456.347541 163.816966 
C 445.474455 137.567014 429.536428 113.714071 409.445585 93.623228 
C 389.354742 73.532385 365.501798 57.594358 339.251847 46.721272 
C 313.001895 35.848186 284.86543 30.251495 256.452688 30.251495 
C 228.039945 30.251495 199.90348 35.848186 173.653528 46.721272 
C 147.403577 57.594358 123.550633 73.532385 103.45979 93.623228 
C 83.368947 113.714071 67.43092 137.567014 56.557834 163.816966 
C 45.684748 190.066917 40.088057 218.203382 40.088057 246.616125 
C 40.088057 275.028868 45.684748 303.165333 56.557834 329.415284 
C 67.43092 355.665236 83.368947 379.518179 103.45979 399.609022 
C 123.550633 419.699865 147.403577 435.637892 173.653528 446.510978 
C 199.90348 457.384064 228.039945 462.980755 256.452687 462.980755 
C 284.86543 462.980755 313.001895 457.384064 339.251847 446.510978 
C 365.501798 435.637892 389.354742 419.699865 409.445585 399.609022 
C 429.536428 379.518179 445.474455 355.665236 456.347541 329.415284 
C 467.220627 303.165333 472.817318 275.028868 472.817318 246.616125 
" clip-path="url(#pea4e5f85a6)" style="fill: none; stroke: #b0b0b0; stroke-width: 0.8; stroke-linecap: square"/>
     </g>
     <g id="text_12">
      <!-- 45 -->
      <g style="fill: #848484" transform="translate(456.347541 162.777122) scale(0.05 -0.05)">
       <use xlink:href="#DejaVuSans-34"/>
       <use xlink:href="#DejaVuSans-35" x="63.623047"/>
      </g>
     </g>
    </g>
   </g>
   <g id="patch_5">
    <path d="M 480.750688 246.616125 
C 480.750688 217.161582 474.948785 187.993446 463.677019 160.780996 
C 452.405253 133.568547 435.882832 108.840996 415.055324 88.013488 
C 394.227817 67.185981 369.500266 50.663559 342.287816 39.391794 
C 315.075366 28.120028 285.907231 22.318125 256.452688 22.318125 
C 226.998144 22.318125 197.830009 28.120028 170.617559 39.391794 
C 143.405109 50.663559 118.677558 67.185981 97.850051 88.013488 
C 77.022543 108.840996 60.500122 133.568547 49.228356 160.780996 
C 37.95659 187.993446 32.154687 217.161582 32.154687 246.616125 
C 32.154687 276.070668 37.95659 305.238804 49.228356 332.451254 
C 60.500122 359.663703 77.022543 384.391254 97.850051 405.218762 
C 118.677558 426.046269 143.405109 442.568691 170.617559 453.840456 
C 197.830009 465.112222 226.998144 470.914125 256.452687 470.914125 
C 285.907231 470.914125 315.075366 465.112222 342.287816 453.840456 
C 369.500266 442.568691 394.227817 426.046269 415.055324 405.218762 
C 435.882832 384.391254 452.405253 359.663703 463.677019 332.451254 
C 474.948785 305.238804 480.750688 276.070668 480.750688 246.616125 
" style="fill: none; stroke: #000000; stroke-width: 0.8; stroke-linejoin: miter; stroke-linecap: square"/>
   </g>
   <g id="text_13">
    <!-- Radar Chart -->
    <g transform="translate(220.394563 16.318125) scale(0.12 -0.12)">
     <defs>
      <path id="DejaVuSans-52" d="M 2841 2188 
Q 3044 2119 3236 1894 
Q 3428 1669 3622 1275 
L 4263 0 
L 3584 0 
L 2988 1197 
Q 2756 1666 2539 1819 
Q 2322 1972 1947 1972 
L 1259 1972 
L 1259 0 
L 628 0 
L 628 4666 
L 2053 4666 
Q 2853 4666 3247 4331 
Q 3641 3997 3641 3322 
Q 3641 2881 3436 2590 
Q 3231 2300 2841 2188 
z
M 1259 4147 
L 1259 2491 
L 2053 2491 
Q 2509 2491 2742 2702 
Q 2975 2913 2975 3322 
Q 2975 3731 2742 3939 
Q 2509 4147 2053 4147 
L 1259 4147 
z
" transform="scale(0.015625)"/>
      <path id="DejaVuSans-64" d="M 2906 2969 
L 2906 4863 
L 3481 4863 
L 3481 0 
L 2906 0 
L 2906 525 
Q 2725 213 2448 61 
Q 2172 -91 1784 -91 
Q 1150 -91 751 415 
Q 353 922 353 1747 
Q 353 2572 751 3078 
Q 1150 3584 1784 3584 
Q 2172 3584 2448 3432 
Q 2725 3281 2906 2969 
z
M 947 1747 
Q 947 1113 1208 752 
Q 1469 391 1925 391 
Q 2381 391 2643 752 
Q 2906 1113 2906 1747 
Q 2906 2381 2643 2742 
Q 2381 3103 1925 3103 
Q 1469 3103 1208 2742 
Q 947 2381 947 1747 
z
" transform="scale(0.015625)"/>
      <path id="DejaVuSans-72" d="M 2631 2963 
Q 2534 3019 2420 3045 
Q 2306 3072 2169 3072 
Q 1681 3072 1420 2755 
Q 1159 2438 1159 1844 
L 1159 0 
L 581 0 
L 581 3500 
L 1159 3500 
L 1159 2956 
Q 1341 3275 1631 3429 
Q 1922 3584 2338 3584 
Q 2397 3584 2469 3576 
Q 2541 3569 2628 3553 
L 2631 2963 
z
" transform="scale(0.015625)"/>
      <path id="DejaVuSans-20" transform="scale(0.015625)"/>
      <path id="DejaVuSans-43" d="M 4122 4306 
L 4122 3641 
Q 3803 3938 3442 4084 
Q 3081 4231 2675 4231 
Q 1875 4231 1450 3742 
Q 1025 3253 1025 2328 
Q 1025 1406 1450 917 
Q 1875 428 2675 428 
Q 3081 428 3442 575 
Q 3803 722 4122 1019 
L 4122 359 
Q 3791 134 3420 21 
Q 3050 -91 2638 -91 
Q 1578 -91 968 557 
Q 359 1206 359 2328 
Q 359 3453 968 4101 
Q 1578 4750 2638 4750 
Q 3056 4750 3426 4639 
Q 3797 4528 4122 4306 
z
" transform="scale(0.015625)"/>
      <path id="DejaVuSans-68" d="M 3513 2113 
L 3513 0 
L 2938 0 
L 2938 2094 
Q 2938 2591 2744 2837 
Q 2550 3084 2163 3084 
Q 1697 3084 1428 2787 
Q 1159 2491 1159 1978 
L 1159 0 
L 581 0 
L 581 4863 
L 1159 4863 
L 1159 2956 
Q 1366 3272 1645 3428 
Q 1925 3584 2291 3584 
Q 2894 3584 3203 3211 
Q 3513 2838 3513 2113 
z
" transform="scale(0.015625)"/>
     </defs>
     <use xlink:href="#DejaVuSans-52"/>
     <use xlink:href="#DejaVuSans-61" x="67.232422"/>
     <use xlink:href="#DejaVuSans-64" x="128.511719"/>
     <use xlink:href="#DejaVuSans-61" x="191.988281"/>
     <use xlink:href="#DejaVuSans-72" x="253.267578"/>
     <use xlink:href="#DejaVuSans-20" x="294.380859"/>
     <use xlink:href="#DejaVuSans-43" x="326.167969"/>
     <use xlink:href="#DejaVuSans-68" x="395.992188"/>
     <use xlink:href="#DejaVuSans-61" x="459.371094"/>
     <use xlink:href="#DejaVuSans-72" x="520.650391"/>
     <use xlink:href="#DejaVuSans-74" x="561.763672"/>
    </g>
   </g>
   <g id="legend_1">
    <g id="patch_6">
     <path d="M 488.079263 128.635762 
L 508.079263 128.635762 
L 508.079263 121.635762 
L 488.079263 121.635762 
z
" style="fill: #0000ff; opacity: 0.25; stroke: #0000ff; stroke-linejoin: miter"/>
    </g>
    <g id="text_14">
     <!-- number1 -->
     <g transform="translate(516.079263 128.635762) scale(0.1 -0.1)">
      <defs>
       <path id="DejaVuSans-6e" d="M 3513 2113 
L 3513 0 
L 2938 0 
L 2938 2094 
Q 2938 2591 2744 2837 
Q 2550 3084 2163 3084 
Q 1697 3084 1428 2787 
Q 1159 2491 1159 1978 
L 1159 0 
L 581 0 
L 581 3500 
L 1159 3500 
L 1159 2956 
Q 1366 3272 1645 3428 
Q 1925 3584 2291 3584 
Q 2894 3584 3203 3211 
Q 3513 2838 3513 2113 
z
" transform="scale(0.015625)"/>
       <path id="DejaVuSans-75" d="M 544 1381 
L 544 3500 
L 1119 3500 
L 1119 1403 
Q 1119 906 1312 657 
Q 1506 409 1894 409 
Q 2359 409 2629 706 
Q 2900 1003 2900 1516 
L 2900 3500 
L 3475 3500 
L 3475 0 
L 2900 0 
L 2900 538 
Q 2691 219 2414 64 
Q 2138 -91 1772 -91 
Q 1169 -91 856 284 
Q 544 659 544 1381 
z
M 1991 3584 
L 1991 3584 
z
" transform="scale(0.015625)"/>
       <path id="DejaVuSans-6d" d="M 3328 2828 
Q 3544 3216 3844 3400 
Q 4144 3584 4550 3584 
Q 5097 3584 5394 3201 
Q 5691 2819 5691 2113 
L 5691 0 
L 5113 0 
L 5113 2094 
Q 5113 2597 4934 2840 
Q 4756 3084 4391 3084 
Q 3944 3084 3684 2787 
Q 3425 2491 3425 1978 
L 3425 0 
L 2847 0 
L 2847 2094 
Q 2847 2600 2669 2842 
Q 2491 3084 2119 3084 
Q 1678 3084 1418 2786 
Q 1159 2488 1159 1978 
L 1159 0 
L 581 0 
L 581 3500 
L 1159 3500 
L 1159 2956 
Q 1356 3278 1631 3431 
Q 1906 3584 2284 3584 
Q 2666 3584 2933 3390 
Q 3200 3197 3328 2828 
z
" transform="scale(0.015625)"/>
       <path id="DejaVuSans-62" d="M 3116 1747 
Q 3116 2381 2855 2742 
Q 2594 3103 2138 3103 
Q 1681 3103 1420 2742 
Q 1159 2381 1159 1747 
Q 1159 1113 1420 752 
Q 1681 391 2138 391 
Q 2594 391 2855 752 
Q 3116 1113 3116 1747 
z
M 1159 2969 
Q 1341 3281 1617 3432 
Q 1894 3584 2278 3584 
Q 2916 3584 3314 3078 
Q 3713 2572 3713 1747 
Q 3713 922 3314 415 
Q 2916 -91 2278 -91 
Q 1894 -91 1617 61 
Q 1341 213 1159 525 
L 1159 0 
L 581 0 
L 581 4863 
L 1159 4863 
L 1159 2969 
z
" transform="scale(0.015625)"/>
       <path id="DejaVuSans-65" d="M 3597 1894 
L 3597 1613 
L 953 1613 
Q 991 1019 1311 708 
Q 1631 397 2203 397 
Q 2534 397 2845 478 
Q 3156 559 3463 722 
L 3463 178 
Q 3153 47 2828 -22 
Q 2503 -91 2169 -91 
Q 1331 -91 842 396 
Q 353 884 353 1716 
Q 353 2575 817 3079 
Q 1281 3584 2069 3584 
Q 2775 3584 3186 3129 
Q 3597 2675 3597 1894 
z
M 3022 2063 
Q 3016 2534 2758 2815 
Q 2500 3097 2075 3097 
Q 1594 3097 1305 2825 
Q 1016 2553 972 2059 
L 3022 2063 
z
" transform="scale(0.015625)"/>
      </defs>
      <use xlink:href="#DejaVuSans-6e"/>
      <use xlink:href="#DejaVuSans-75" x="63.378906"/>
      <use xlink:href="#DejaVuSans-6d" x="126.757812"/>
      <use xlink:href="#DejaVuSans-62" x="224.169922"/>
      <use xlink:href="#DejaVuSans-65" x="287.646484"/>
      <use xlink:href="#DejaVuSans-72" x="349.169922"/>
      <use xlink:href="#DejaVuSans-31" x="390.283203"/>
     </g>
    </g>
    <g id="patch_7">
     <path d="M 488.079263 143.313887 
L 508.079263 143.313887 
L 508.079263 136.313887 
L 488.079263 136.313887 
z
" style="fill: #008000; opacity: 0.25; stroke: #008000; stroke-linejoin: miter"/>
    </g>
    <g id="text_15">
     <!-- number2 -->
     <g transform="translate(516.079263 143.313887) scale(0.1 -0.1)">
      <use xlink:href="#DejaVuSans-6e"/>
      <use xlink:href="#DejaVuSans-75" x="63.378906"/>
      <use xlink:href="#DejaVuSans-6d" x="126.757812"/>
      <use xlink:href="#DejaVuSans-62" x="224.169922"/>
      <use xlink:href="#DejaVuSans-65" x="287.646484"/>
      <use xlink:href="#DejaVuSans-72" x="349.169922"/>
      <use xlink:href="#DejaVuSans-32" x="390.283203"/>
     </g>
    </g>
   </g>
  </g>
 </g>
 <defs>
  <clipPath id="pea4e5f85a6">
   <path d="M 480.750688 246.616125 
C 480.750688 217.161582 474.948785 187.993446 463.677019 160.780996 
C 452.405253 133.568547 435.882832 108.840996 415.055324 88.013488 
C 394.227817 67.185981 369.500266 50.663559 342.287816 39.391794 
C 315.075366 28.120028 285.907231 22.318125 256.452688 22.318125 
C 226.998144 22.318125 197.830009 28.120028 170.617559 39.391794 
C 143.405109 50.663559 118.677558 67.185981 97.850051 88.013488 
C 77.022543 108.840996 60.500122 133.568547 49.228356 160.780996 
C 37.95659 187.993446 32.154687 217.161582 32.154687 246.616125 
C 32.154687 276.070668 37.95659 305.238804 49.228356 332.451254 
C 60.500122 359.663703 77.022543 384.391254 97.850051 405.218762 
C 118.677558 426.046269 143.405109 442.568691 170.617559 453.840456 
C 197.830009 465.112222 226.998144 470.914125 256.452687 470.914125 
C 285.907231 470.914125 315.075366 465.112222 342.287816 453.840456 
C 369.500266 442.568691 394.227817 426.046269 415.055324 405.218762 
C 435.882832 384.391254 452.405253 359.663703 463.677019 332.451254 
C 474.948785 305.238804 480.750688 276.070668 480.750688 246.616125 
M 256.452688 246.616125 
C 256.452688 246.616125 256.452688 246.616125 256.452688 246.616125 
C 256.452688 246.616125 256.452688 246.616125 256.452688 246.616125 
C 256.452688 246.616125 256.452688 246.616125 256.452688 246.616125 
C 256.452688 246.616125 256.452688 246.616125 256.452688 246.616125 
C 256.452688 246.616125 256.452688 246.616125 256.452688 246.616125 
C 256.452688 246.616125 256.452688 246.616125 256.452688 246.616125 
C 256.452688 246.616125 256.452688 246.616125 256.452688 246.616125 
C 256.452688 246.616125 256.452688 246.616125 256.452688 246.616125 
C 256.452688 246.616125 256.452688 246.616125 256.452688 246.616125 
C 256.452688 246.616125 256.452688 246.616125 256.452688 246.616125 
C 256.452688 246.616125 256.452688 246.616125 256.452688 246.616125 
C 256.452688 246.616125 256.452688 246.616125 256.452688 246.616125 
C 256.452688 246.616125 256.452688 246.616125 256.452688 246.616125 
C 256.452688 246.616125 256.452688 246.616125 256.452688 246.616125 
C 256.452688 246.616125 256.452688 246.616125 256.452688 246.616125 
C 256.452688 246.616125 256.452688 246.616125 256.452688 246.616125 
z
"/>
  </clipPath>
 </defs>
</svg>
