<?xml version="1.0" encoding="utf-8" standalone="no"?>
<!DOCTYPE svg PUBLIC "-//W3C//DTD SVG 1.1//EN"
  "http://www.w3.org/Graphics/SVG/1.1/DTD/svg11.dtd">
<svg xmlns:xlink="http://www.w3.org/1999/xlink" width="681.279687pt" height="346.953125pt" viewBox="0 0 681.279687 346.953125" xmlns="http://www.w3.org/2000/svg" version="1.1">
 <metadata>
  <rdf:RDF xmlns:dc="http://purl.org/dc/elements/1.1/" xmlns:cc="http://creativecommons.org/ns#" xmlns:rdf="http://www.w3.org/1999/02/22-rdf-syntax-ns#">
   <cc:Work>
    <dc:type rdf:resource="http://purl.org/dc/dcmitype/StillImage"/>
    <dc:date>2024-03-23T14:56:26.867909</dc:date>
    <dc:format>image/svg+xml</dc:format>
    <dc:creator>
     <cc:Agent>
      <dc:title>Matplotlib v3.7.1, https://matplotlib.org/</dc:title>
     </cc:Agent>
    </dc:creator>
   </cc:Work>
  </rdf:RDF>
 </metadata>
 <defs>
  <style type="text/css">*{stroke-linejoin: round; stroke-linecap: butt}</style>
 </defs>
 <g id="figure_1">
  <g id="patch_1">
   <path d="M 0 346.953125 
L 681.279687 346.953125 
L 681.279687 0 
L 0 0 
z
" style="fill: #ffffff"/>
  </g>
  <g id="axes_1">
   <g id="patch_2">
    <path d="M 37.379688 311.409375 
L 595.379688 311.409375 
L 595.379688 34.209375 
L 37.379688 34.209375 
z
" style="fill: #ffffff"/>
   </g>
   <g id="matplotlib.axis_1">
    <g id="xtick_1">
     <g id="line2d_1">
      <defs>
       <path id="m09f9988658" d="M 0 0 
L 0 3.5 
" style="stroke: #000000; stroke-width: 0.8"/>
      </defs>
      <g>
       <use xlink:href="#m09f9988658" x="62.743324" y="311.409375" style="stroke: #000000; stroke-width: 0.8"/>
      </g>
     </g>
     <g id="text_1">
      <!-- 0 -->
      <g transform="translate(60.243324 325.284375) scale(0.1 -0.1)">
       <defs>
        <path id="SimHei-30" d="M 225 2537 
Q 250 3200 412 3587 
Q 575 3975 875 4225 
Q 1175 4475 1612 4475 
Q 2050 4475 2375 4112 
Q 2700 3750 2800 3200 
Q 2900 2650 2862 1937 
Q 2825 1225 2612 775 
Q 2400 325 1975 150 
Q 1550 -25 1125 187 
Q 700 400 525 750 
Q 350 1100 275 1487 
Q 200 1875 225 2537 
z
M 750 2687 
Q 675 2000 800 1462 
Q 925 925 1212 700 
Q 1500 475 1800 612 
Q 2100 750 2237 1162 
Q 2375 1575 2375 2062 
Q 2375 2550 2337 2950 
Q 2300 3350 2112 3675 
Q 1925 4000 1612 4012 
Q 1300 4025 1062 3700 
Q 825 3375 750 2687 
z
" transform="scale(0.015625)"/>
       </defs>
       <use xlink:href="#SimHei-30"/>
      </g>
     </g>
    </g>
    <g id="xtick_2">
     <g id="line2d_2">
      <g>
       <use xlink:href="#m09f9988658" x="126.152415" y="311.409375" style="stroke: #000000; stroke-width: 0.8"/>
      </g>
     </g>
     <g id="text_2">
      <!-- 10 -->
      <g transform="translate(121.152415 325.284375) scale(0.1 -0.1)">
       <defs>
        <path id="SimHei-31" d="M 1400 3600 
Q 1075 3275 575 2975 
L 575 3450 
Q 1200 3875 1600 4450 
L 1900 4450 
L 1900 150 
L 1400 150 
L 1400 3600 
z
" transform="scale(0.015625)"/>
       </defs>
       <use xlink:href="#SimHei-31"/>
       <use xlink:href="#SimHei-30" x="50"/>
      </g>
     </g>
    </g>
    <g id="xtick_3">
     <g id="line2d_3">
      <g>
       <use xlink:href="#m09f9988658" x="189.561506" y="311.409375" style="stroke: #000000; stroke-width: 0.8"/>
      </g>
     </g>
     <g id="text_3">
      <!-- 20 -->
      <g transform="translate(184.561506 325.284375) scale(0.1 -0.1)">
       <defs>
        <path id="SimHei-32" d="M 300 250 
Q 325 625 650 925 
Q 975 1225 1475 1862 
Q 1975 2500 2125 2850 
Q 2275 3200 2237 3450 
Q 2200 3700 2000 3862 
Q 1800 4025 1537 4000 
Q 1275 3975 1037 3800 
Q 800 3625 675 3275 
L 200 3350 
Q 400 3925 712 4187 
Q 1025 4450 1450 4475 
Q 1700 4500 1900 4462 
Q 2100 4425 2312 4287 
Q 2525 4150 2662 3875 
Q 2800 3600 2762 3212 
Q 2725 2825 2375 2287 
Q 2025 1750 1025 600 
L 2825 600 
L 2825 150 
L 300 150 
L 300 250 
z
" transform="scale(0.015625)"/>
       </defs>
       <use xlink:href="#SimHei-32"/>
       <use xlink:href="#SimHei-30" x="50"/>
      </g>
     </g>
    </g>
    <g id="xtick_4">
     <g id="line2d_4">
      <g>
       <use xlink:href="#m09f9988658" x="252.970597" y="311.409375" style="stroke: #000000; stroke-width: 0.8"/>
      </g>
     </g>
     <g id="text_4">
      <!-- 30 -->
      <g transform="translate(247.970597 325.284375) scale(0.1 -0.1)">
       <defs>
        <path id="SimHei-33" d="M 250 1225 
L 700 1300 
Q 800 975 1025 762 
Q 1250 550 1587 562 
Q 1925 575 2125 837 
Q 2325 1100 2300 1437 
Q 2275 1775 2037 1962 
Q 1800 2150 1275 2225 
L 1275 2550 
Q 1800 2600 2037 2825 
Q 2275 3050 2250 3412 
Q 2225 3775 1925 3937 
Q 1625 4100 1287 3975 
Q 950 3850 750 3275 
L 300 3350 
Q 450 3800 712 4100 
Q 975 4400 1425 4450 
Q 1875 4500 2212 4337 
Q 2550 4175 2687 3837 
Q 2825 3500 2725 3100 
Q 2625 2700 2150 2400 
Q 2500 2250 2687 1950 
Q 2875 1650 2812 1162 
Q 2750 675 2375 375 
Q 2000 75 1525 87 
Q 1050 100 700 387 
Q 350 675 250 1225 
z
" transform="scale(0.015625)"/>
       </defs>
       <use xlink:href="#SimHei-33"/>
       <use xlink:href="#SimHei-30" x="50"/>
      </g>
     </g>
    </g>
    <g id="xtick_5">
     <g id="line2d_5">
      <g>
       <use xlink:href="#m09f9988658" x="316.379687" y="311.409375" style="stroke: #000000; stroke-width: 0.8"/>
      </g>
     </g>
     <g id="text_5">
      <!-- 40 -->
      <g transform="translate(311.379687 325.284375) scale(0.1 -0.1)">
       <defs>
        <path id="SimHei-34" d="M 2000 1100 
L 75 1100 
L 75 1525 
L 2100 4450 
L 2475 4450 
L 2475 1525 
L 3075 1525 
L 3075 1100 
L 2475 1100 
L 2475 150 
L 2000 150 
L 2000 1100 
z
M 2000 1525 
L 2000 3500 
L 600 1525 
L 2000 1525 
z
" transform="scale(0.015625)"/>
       </defs>
       <use xlink:href="#SimHei-34"/>
       <use xlink:href="#SimHei-30" x="50"/>
      </g>
     </g>
    </g>
    <g id="xtick_6">
     <g id="line2d_6">
      <g>
       <use xlink:href="#m09f9988658" x="379.788778" y="311.409375" style="stroke: #000000; stroke-width: 0.8"/>
      </g>
     </g>
     <g id="text_6">
      <!-- 50 -->
      <g transform="translate(374.788778 325.284375) scale(0.1 -0.1)">
       <defs>
        <path id="SimHei-35" d="M 550 1325 
Q 725 650 1150 575 
Q 1575 500 1837 662 
Q 2100 825 2212 1087 
Q 2325 1350 2312 1675 
Q 2300 2000 2137 2225 
Q 1975 2450 1725 2525 
Q 1475 2600 1162 2525 
Q 850 2450 650 2175 
L 225 2225 
Q 275 2375 700 4375 
L 2675 4375 
L 2675 3925 
L 1075 3925 
Q 950 3250 825 2850 
Q 1200 3025 1525 3012 
Q 1850 3000 2150 2862 
Q 2450 2725 2587 2487 
Q 2725 2250 2787 2012 
Q 2850 1775 2837 1500 
Q 2825 1225 2725 937 
Q 2625 650 2425 462 
Q 2225 275 1937 162 
Q 1650 50 1275 75 
Q 900 100 562 350 
Q 225 600 100 1200 
L 550 1325 
z
" transform="scale(0.015625)"/>
       </defs>
       <use xlink:href="#SimHei-35"/>
       <use xlink:href="#SimHei-30" x="50"/>
      </g>
     </g>
    </g>
    <g id="xtick_7">
     <g id="line2d_7">
      <g>
       <use xlink:href="#m09f9988658" x="443.197869" y="311.409375" style="stroke: #000000; stroke-width: 0.8"/>
      </g>
     </g>
     <g id="text_7">
      <!-- 60 -->
      <g transform="translate(438.197869 325.284375) scale(0.1 -0.1)">
       <defs>
        <path id="SimHei-36" d="M 250 1612 
Q 275 1975 387 2225 
Q 500 2475 725 2850 
L 1750 4450 
L 2325 4450 
L 1275 2800 
Q 1950 2975 2350 2750 
Q 2750 2525 2887 2237 
Q 3025 1950 3037 1612 
Q 3050 1275 2937 950 
Q 2825 625 2537 362 
Q 2250 100 1737 75 
Q 1225 50 862 262 
Q 500 475 362 862 
Q 225 1250 250 1612 
z
M 1025 787 
Q 1250 550 1625 525 
Q 2000 500 2250 775 
Q 2500 1050 2500 1575 
Q 2500 2100 2187 2300 
Q 1875 2500 1487 2450 
Q 1100 2400 925 2075 
Q 750 1750 775 1387 
Q 800 1025 1025 787 
z
" transform="scale(0.015625)"/>
       </defs>
       <use xlink:href="#SimHei-36"/>
       <use xlink:href="#SimHei-30" x="50"/>
      </g>
     </g>
    </g>
    <g id="xtick_8">
     <g id="line2d_8">
      <g>
       <use xlink:href="#m09f9988658" x="506.60696" y="311.409375" style="stroke: #000000; stroke-width: 0.8"/>
      </g>
     </g>
     <g id="text_8">
      <!-- 70 -->
      <g transform="translate(501.60696 325.284375) scale(0.1 -0.1)">
       <defs>
        <path id="SimHei-37" d="M 850 150 
Q 1300 2050 2425 3925 
L 275 3925 
L 275 4375 
L 2950 4375 
L 2950 3950 
Q 1775 2050 1400 150 
L 850 150 
z
" transform="scale(0.015625)"/>
       </defs>
       <use xlink:href="#SimHei-37"/>
       <use xlink:href="#SimHei-30" x="50"/>
      </g>
     </g>
    </g>
    <g id="xtick_9">
     <g id="line2d_9">
      <g>
       <use xlink:href="#m09f9988658" x="570.016051" y="311.409375" style="stroke: #000000; stroke-width: 0.8"/>
      </g>
     </g>
     <g id="text_9">
      <!-- 80 -->
      <g transform="translate(565.016051 325.284375) scale(0.1 -0.1)">
       <defs>
        <path id="SimHei-38" d="M 175 1375 
Q 175 1675 325 1962 
Q 475 2250 825 2425 
Q 525 2600 425 2812 
Q 325 3025 312 3300 
Q 300 3575 387 3775 
Q 475 3975 650 4150 
Q 825 4325 1037 4387 
Q 1250 4450 1500 4450 
Q 1750 4450 1950 4400 
Q 2150 4350 2375 4187 
Q 2600 4025 2700 3725 
Q 2800 3425 2687 3025 
Q 2575 2625 2100 2400 
Q 2525 2275 2700 2012 
Q 2875 1750 2875 1375 
Q 2875 1000 2762 775 
Q 2650 550 2512 400 
Q 2375 250 2137 162 
Q 1900 75 1537 75 
Q 1175 75 912 162 
Q 650 250 475 425 
Q 300 600 237 837 
Q 175 1075 175 1375 
z
M 687 1400 
Q 675 1100 787 875 
Q 900 650 1200 587 
Q 1500 525 1825 600 
Q 2150 675 2275 950 
Q 2400 1225 2362 1500 
Q 2325 1775 2050 1962 
Q 1775 2150 1450 2125 
Q 1125 2100 912 1900 
Q 700 1700 687 1400 
z
M 775 3350 
Q 775 3100 950 2875 
Q 1125 2650 1500 2650 
Q 1875 2650 2062 2875 
Q 2250 3100 2237 3412 
Q 2225 3725 2012 3875 
Q 1800 4025 1437 4000 
Q 1075 3975 925 3787 
Q 775 3600 775 3350 
z
" transform="scale(0.015625)"/>
       </defs>
       <use xlink:href="#SimHei-38"/>
       <use xlink:href="#SimHei-30" x="50"/>
      </g>
     </g>
    </g>
    <g id="text_10">
     <!-- 样本序号 -->
     <g transform="translate(296.379687 338.503125) scale(0.1 -0.1)">
      <defs>
       <path id="SimHei-6837" d="M 4350 4025 
Q 4600 4575 4850 5225 
Q 5250 5075 5375 5000 
Q 5150 4725 4850 4025 
L 4950 4025 
Q 5650 4050 5950 4050 
L 5950 3600 
Q 5675 3625 5175 3625 
L 4550 3625 
L 4550 2650 
L 4950 2650 
Q 5525 2675 5800 2675 
L 5800 2225 
Q 5475 2250 5025 2250 
L 4550 2250 
L 4550 1225 
L 5325 1225 
Q 5800 1250 6100 1250 
L 6100 800 
Q 5825 825 5325 825 
L 4550 825 
L 4550 275 
Q 4550 -250 4575 -600 
L 4075 -600 
L 4075 825 
L 3475 825 
Q 3000 825 2550 800 
L 2550 1275 
Q 3000 1250 3500 1225 
L 4075 1225 
L 4075 2250 
L 3650 2250 
Q 3225 2250 2900 2225 
L 2900 2700 
Q 3200 2675 3675 2650 
L 4075 2650 
L 4075 3625 
L 3475 3625 
Q 3050 3625 2750 3600 
L 2750 4075 
Q 3050 4050 3475 4025 
L 4350 4025 
z
M 1325 4350 
Q 1325 4775 1300 5125 
L 1825 5125 
Q 1800 4725 1800 4350 
L 1800 3750 
Q 2125 3750 2475 3775 
L 2475 3325 
Q 2125 3350 1800 3350 
L 1800 2425 
Q 2000 2600 2100 2675 
Q 2375 2325 2725 1775 
Q 2575 1700 2300 1475 
Q 2025 1975 1800 2350 
L 1800 475 
Q 1800 -50 1825 -575 
L 1300 -575 
Q 1325 -25 1325 475 
L 1325 2250 
Q 925 1300 525 725 
Q 425 950 225 1175 
Q 950 2150 1225 3350 
Q 825 3350 350 3325 
L 350 3775 
Q 825 3750 1325 3750 
L 1325 4350 
z
M 3575 5200 
Q 3800 4775 3950 4350 
Q 3650 4250 3525 4175 
Q 3350 4600 3150 5000 
Q 3425 5125 3575 5200 
z
" transform="scale(0.015625)"/>
       <path id="SimHei-672c" d="M 2950 3925 
L 2950 4425 
Q 2950 4825 2925 5175 
L 3475 5175 
Q 3450 4900 3450 4450 
L 3450 3925 
L 4850 3925 
Q 5275 3925 5850 3950 
L 5850 3475 
Q 5300 3500 4875 3500 
L 3850 3500 
Q 4200 2350 4862 1687 
Q 5525 1025 6075 800 
Q 5850 625 5650 325 
Q 4800 900 4262 1637 
Q 3725 2375 3450 3350 
L 3450 1000 
L 3775 1000 
Q 4175 1000 4600 1025 
L 4600 550 
Q 4175 575 3750 575 
L 3450 575 
Q 3450 0 3475 -600 
L 2925 -600 
Q 2950 0 2950 575 
L 2625 575 
Q 2225 575 1825 550 
L 1825 1025 
Q 2225 1000 2625 1000 
L 2950 1000 
L 2950 3300 
Q 2550 2275 2062 1575 
Q 1575 875 750 175 
Q 550 450 275 575 
Q 1100 1075 1650 1825 
Q 2200 2575 2525 3500 
L 1425 3500 
Q 1025 3500 575 3475 
L 575 3950 
Q 1025 3925 1400 3925 
L 2950 3925 
z
" transform="scale(0.015625)"/>
       <path id="SimHei-5e8f" d="M 4000 2075 
L 5975 2075 
Q 5750 1525 5575 1025 
Q 5325 1100 5050 1150 
Q 5175 1450 5275 1700 
L 4050 1700 
L 4050 150 
Q 4050 -375 3762 -462 
Q 3475 -550 2950 -575 
Q 2875 -300 2750 0 
Q 3350 -75 3475 25 
Q 3600 125 3575 375 
L 3575 1700 
L 2450 1700 
Q 2050 1700 1675 1675 
L 1675 2100 
Q 2100 2075 2425 2075 
L 3675 2075 
Q 3325 2400 2875 2775 
Q 2975 2875 3250 3100 
Q 3400 2975 3725 2725 
L 4575 3275 
L 3000 3275 
Q 2400 3275 1950 3250 
L 1950 3700 
Q 2400 3675 3000 3675 
L 5400 3675 
L 5400 3250 
Q 4700 2875 4025 2450 
L 4275 2250 
L 4000 2075 
z
M 3725 5275 
Q 3825 4925 3925 4525 
L 4850 4525 
Q 5425 4525 6000 4550 
L 6000 4125 
Q 5425 4150 4850 4150 
L 1400 4150 
Q 1400 2750 1362 2137 
Q 1325 1525 1200 887 
Q 1075 250 775 -350 
Q 625 -250 250 -125 
Q 475 300 600 700 
Q 725 1100 800 1637 
Q 875 2175 875 2825 
Q 875 3500 850 4525 
L 3350 4525 
Q 3275 4825 3150 5150 
Q 3425 5200 3725 5275 
z
" transform="scale(0.015625)"/>
       <path id="SimHei-53f7" d="M 5025 4925 
Q 5000 4550 5000 4075 
Q 5000 3600 5025 3175 
L 1400 3175 
Q 1425 3525 1425 4000 
Q 1425 4500 1400 4925 
L 5025 4925 
z
M 5175 2625 
Q 5650 2625 6025 2650 
L 6025 2200 
Q 5650 2225 5175 2225 
L 2450 2225 
Q 2350 1875 2225 1450 
L 5175 1450 
Q 5100 1050 5062 775 
Q 5025 500 4950 112 
Q 4875 -275 4650 -412 
Q 4425 -550 3225 -625 
Q 3125 -350 2975 -50 
Q 3875 -75 4112 -50 
Q 4350 -25 4425 212 
Q 4500 450 4575 1025 
L 1600 1025 
Q 1825 1625 1950 2225 
L 1350 2225 
Q 825 2225 375 2200 
L 375 2650 
Q 825 2625 1350 2625 
L 5175 2625 
z
M 4525 3575 
L 4525 4525 
L 1900 4525 
L 1900 3575 
L 4525 3575 
z
" transform="scale(0.015625)"/>
      </defs>
      <use xlink:href="#SimHei-6837"/>
      <use xlink:href="#SimHei-672c" x="100"/>
      <use xlink:href="#SimHei-5e8f" x="200"/>
      <use xlink:href="#SimHei-53f7" x="300"/>
     </g>
    </g>
   </g>
   <g id="matplotlib.axis_2">
    <g id="ytick_1">
     <g id="line2d_10">
      <defs>
       <path id="mb3019758cf" d="M 0 0 
L -3.5 0 
" style="stroke: #000000; stroke-width: 0.8"/>
      </defs>
      <g>
       <use xlink:href="#mb3019758cf" x="37.379688" y="281.648242" style="stroke: #000000; stroke-width: 0.8"/>
      </g>
     </g>
     <g id="text_11">
      <!-- 20 -->
      <g transform="translate(20.379688 285.085742) scale(0.1 -0.1)">
       <use xlink:href="#SimHei-32"/>
       <use xlink:href="#SimHei-30" x="50"/>
      </g>
     </g>
    </g>
    <g id="ytick_2">
     <g id="line2d_11">
      <g>
       <use xlink:href="#mb3019758cf" x="37.379688" y="220.698627" style="stroke: #000000; stroke-width: 0.8"/>
      </g>
     </g>
     <g id="text_12">
      <!-- 30 -->
      <g transform="translate(20.379688 224.136127) scale(0.1 -0.1)">
       <use xlink:href="#SimHei-33"/>
       <use xlink:href="#SimHei-30" x="50"/>
      </g>
     </g>
    </g>
    <g id="ytick_3">
     <g id="line2d_12">
      <g>
       <use xlink:href="#mb3019758cf" x="37.379688" y="159.749012" style="stroke: #000000; stroke-width: 0.8"/>
      </g>
     </g>
     <g id="text_13">
      <!-- 40 -->
      <g transform="translate(20.379688 163.186512) scale(0.1 -0.1)">
       <use xlink:href="#SimHei-34"/>
       <use xlink:href="#SimHei-30" x="50"/>
      </g>
     </g>
    </g>
    <g id="ytick_4">
     <g id="line2d_13">
      <g>
       <use xlink:href="#mb3019758cf" x="37.379688" y="98.799397" style="stroke: #000000; stroke-width: 0.8"/>
      </g>
     </g>
     <g id="text_14">
      <!-- 50 -->
      <g transform="translate(20.379688 102.236897) scale(0.1 -0.1)">
       <use xlink:href="#SimHei-35"/>
       <use xlink:href="#SimHei-30" x="50"/>
      </g>
     </g>
    </g>
    <g id="ytick_5">
     <g id="line2d_14">
      <g>
       <use xlink:href="#mb3019758cf" x="37.379688" y="37.849782" style="stroke: #000000; stroke-width: 0.8"/>
      </g>
     </g>
     <g id="text_15">
      <!-- 60 -->
      <g transform="translate(20.379688 41.287282) scale(0.1 -0.1)">
       <use xlink:href="#SimHei-36"/>
       <use xlink:href="#SimHei-30" x="50"/>
      </g>
     </g>
    </g>
    <g id="text_16">
     <!-- 标签值 -->
     <g transform="translate(15.129688 187.809375) rotate(-90) scale(0.1 -0.1)">
      <defs>
       <path id="SimHei-6807" d="M 1275 4400 
Q 1275 4800 1250 5175 
L 1750 5175 
Q 1725 4825 1725 4400 
L 1725 3800 
Q 2125 3800 2575 3825 
L 2575 3350 
Q 2125 3375 1725 3375 
L 1725 2525 
Q 1900 2650 2075 2800 
Q 2400 2275 2650 1775 
Q 2375 1650 2175 1500 
Q 2025 2000 1725 2425 
L 1725 475 
Q 1725 -50 1750 -575 
L 1250 -575 
Q 1275 -25 1275 475 
L 1275 2100 
Q 1025 1400 500 750 
Q 350 950 125 1125 
Q 550 1550 812 2187 
Q 1075 2825 1150 3375 
Q 675 3375 325 3325 
L 325 3825 
Q 800 3800 1275 3800 
L 1275 4400 
z
M 5175 3125 
Q 5675 3125 6050 3150 
L 6050 2675 
Q 5675 2700 5275 2700 
L 4500 2700 
L 4500 175 
Q 4500 -225 4275 -350 
Q 4050 -475 3475 -550 
Q 3425 -250 3275 25 
Q 3775 25 3900 62 
Q 4025 100 4025 350 
L 4025 2700 
L 3400 2700 
Q 2775 2700 2500 2650 
L 2500 3150 
Q 2825 3125 3400 3125 
L 5175 3125 
z
M 4900 4775 
Q 5425 4775 5750 4800 
L 5750 4300 
Q 5275 4350 4750 4350 
L 3525 4350 
Q 3125 4350 2750 4300 
L 2750 4800 
Q 3100 4775 3525 4775 
L 4900 4775 
z
M 5275 2025 
Q 5825 1175 6200 500 
Q 5925 375 5650 200 
Q 5375 925 4825 1725 
Q 5075 1850 5275 2025 
z
M 3600 1775 
Q 3500 1625 3225 975 
Q 2950 325 2800 50 
Q 2575 175 2300 275 
Q 2625 775 2787 1187 
Q 2950 1600 3050 2000 
Q 3325 1875 3600 1775 
z
" transform="scale(0.015625)"/>
       <path id="SimHei-7b7e" d="M 5950 1650 
Q 4975 1925 4625 2100 
L 4625 1650 
Q 4175 1675 3750 1675 
L 2775 1675 
Q 2325 1675 1850 1650 
L 1850 2075 
Q 1175 1725 600 1550 
Q 500 1850 250 2050 
Q 1400 2300 2087 2812 
Q 2775 3325 2950 3725 
Q 3200 3625 3550 3550 
L 3450 3425 
Q 4075 2850 4862 2537 
Q 5650 2225 6200 2225 
Q 5975 1975 5950 1650 
z
M 1525 -525 
Q 1100 -525 625 -550 
L 625 -75 
Q 1125 -100 1500 -100 
L 3825 -100 
Q 3975 200 4150 650 
Q 4325 1100 4425 1475 
Q 4700 1350 5025 1275 
Q 4850 1125 4700 762 
Q 4550 400 4350 -100 
Q 5025 -100 5725 -75 
L 5725 -550 
Q 5025 -525 4675 -525 
L 1525 -525 
z
M 3250 4275 
Q 2750 4300 2350 4300 
Q 2450 4025 2575 3750 
Q 2275 3675 2075 3575 
Q 2025 3875 1900 4300 
L 1625 4300 
Q 1200 3750 800 3400 
Q 600 3625 325 3750 
Q 900 4100 1187 4550 
Q 1475 5000 1575 5300 
Q 1825 5200 2150 5100 
Q 1975 4950 1875 4725 
L 2650 4725 
Q 2950 4725 3250 4750 
L 3250 4275 
z
M 5300 3675 
Q 5050 3575 4825 3475 
Q 4775 3850 4625 4250 
L 4150 4250 
Q 3875 3900 3650 3625 
Q 3425 3800 3175 3875 
Q 3525 4175 3737 4525 
Q 3950 4875 4100 5275 
Q 4325 5150 4625 5075 
Q 4475 4900 4375 4650 
L 5300 4650 
Q 5550 4650 6000 4675 
L 6000 4225 
Q 5325 4250 5050 4250 
Q 5150 4025 5300 3675 
z
M 1950 2125 
Q 2350 2100 2775 2100 
L 3750 2100 
Q 4175 2100 4575 2125 
Q 3875 2425 3150 3150 
Q 2800 2650 1950 2125 
z
M 3025 200 
Q 2950 650 2725 1325 
Q 2925 1350 3175 1425 
Q 3275 1125 3475 300 
Q 3225 275 3025 200 
z
M 1825 1275 
Q 2150 675 2275 275 
Q 2075 225 1875 100 
Q 1775 500 1425 1075 
Q 1550 1150 1825 1275 
z
" transform="scale(0.015625)"/>
       <path id="SimHei-503c" d="M 3675 4450 
L 3675 5100 
Q 3975 5075 4350 5050 
Q 4225 4875 4200 4450 
L 5125 4450 
Q 5550 4450 5875 4475 
L 5875 4025 
Q 5525 4050 5125 4050 
L 4175 4050 
L 4125 3500 
L 5400 3500 
Q 5375 3200 5375 2700 
L 5375 150 
Q 5875 150 6100 175 
L 6100 -275 
Q 5775 -250 5200 -250 
L 2850 -250 
Q 2275 -250 1900 -275 
L 1900 175 
Q 2125 150 2600 150 
L 2600 2700 
Q 2600 3175 2575 3500 
L 3600 3500 
L 3650 4050 
L 3200 4050 
Q 2575 4050 2225 4025 
L 2225 4475 
Q 2550 4450 3200 4450 
L 3675 4450 
z
M 2225 4900 
Q 2025 4675 1650 3750 
L 1650 450 
Q 1650 -75 1675 -550 
L 1150 -550 
Q 1175 -125 1175 375 
L 1175 2950 
Q 875 2450 625 2150 
Q 425 2425 250 2575 
Q 500 2825 937 3537 
Q 1375 4250 1625 5150 
Q 1975 4975 2225 4900 
z
M 4925 2650 
L 4925 3150 
L 3075 3150 
L 3075 2650 
L 4925 2650 
z
M 4925 150 
L 4925 625 
L 3075 625 
L 3075 150 
L 4925 150 
z
M 4925 1000 
L 4925 1450 
L 3075 1450 
L 3075 1000 
L 4925 1000 
z
M 4925 1825 
L 4925 2275 
L 3075 2275 
L 3075 1825 
L 4925 1825 
z
" transform="scale(0.015625)"/>
      </defs>
      <use xlink:href="#SimHei-6807"/>
      <use xlink:href="#SimHei-7b7e" x="100"/>
      <use xlink:href="#SimHei-503c" x="200"/>
     </g>
    </g>
   </g>
   <g id="line2d_15">
    <path d="M 62.743324 187.846784 
L 69.084233 182.17847 
L 75.425142 135.673914 
L 81.766051 205.826921 
L 88.10696 238.434965 
L 94.447869 231.121011 
L 100.788778 138.172848 
L 107.129687 153.593101 
L 113.470597 172.426532 
L 119.811506 244.956574 
L 126.152415 181.325176 
L 132.493324 223.746108 
L 138.834233 126.71432 
L 145.175142 204.181281 
L 151.516051 218.077793 
L 157.85696 186.201145 
L 164.197869 228.622077 
L 170.538778 196.867327 
L 176.879687 169.135253 
L 183.220597 168.342908 
L 189.561506 292.253475 
L 195.902415 204.181281 
L 202.243324 286.585161 
L 208.584233 222.100468 
L 214.925142 200.097657 
L 221.266051 46.809375 
L 227.60696 199.305312 
L 233.947869 298.775084 
L 240.288778 201.743297 
L 246.629687 225.391747 
L 252.970597 148.717131 
L 259.311506 212.34853 
L 265.652415 290.668785 
L 271.993324 240.080605 
L 278.334233 106.296199 
L 284.675142 231.913356 
L 291.016051 235.204635 
L 297.35696 180.532831 
L 303.697869 174.011222 
L 310.038778 199.305312 
L 316.379687 211.556185 
L 322.720597 196.014033 
L 329.061506 98.982246 
L 335.402415 208.264905 
L 341.743324 134.881569 
L 348.084233 203.388936 
L 354.425142 132.443584 
L 360.766051 152.800756 
L 367.10696 222.100468 
L 373.447869 175.656861 
L 379.788778 152.008411 
L 386.129687 182.970815 
L 392.470597 165.051628 
L 398.811506 249.893493 
L 405.152415 125.068681 
L 411.493324 134.881569 
L 417.834233 214.786514 
L 424.175142 231.121011 
L 430.516051 187.054439 
L 436.85696 166.697268 
L 443.197869 157.676725 
L 449.538778 82.647749 
L 455.879687 195.221688 
L 462.220597 147.071492 
L 468.561506 169.135253 
L 474.902415 170.780892 
L 481.243324 209.1182 
L 487.584233 193.576048 
L 493.925142 163.405989 
L 500.266051 242.518589 
L 506.60696 215.639809 
L 512.947869 205.034576 
L 519.288778 148.717131 
L 525.629688 147.071492 
L 531.970597 218.077793 
L 538.311506 243.371884 
L 544.652415 242.518589 
L 550.993324 214.786514 
L 557.334233 95.751916 
L 563.675142 233.558996 
L 570.016051 232.705701 
" clip-path="url(#pa35119992d)" style="fill: none; stroke: #ff6347; stroke-width: 1.5; stroke-linecap: square"/>
   </g>
   <g id="line2d_16">
    <path d="M 62.743324 187.68922 
L 69.084233 182.292167 
L 75.425142 135.597764 
L 81.766051 205.873732 
L 88.10696 237.955284 
L 94.447869 231.180352 
L 100.788778 138.316553 
L 107.129687 153.867396 
L 113.470597 172.63496 
L 119.811506 244.927252 
L 126.152415 181.283888 
L 132.493324 223.883448 
L 138.834233 126.693499 
L 145.175142 204.266988 
L 151.516051 218.020375 
L 157.85696 184.001678 
L 164.197869 228.423316 
L 170.538778 196.900111 
L 176.879687 170.108684 
L 183.220597 168.199823 
L 189.561506 291.914285 
L 195.902415 204.119278 
L 202.243324 286.45349 
L 208.584233 221.846547 
L 214.925142 200.094256 
L 221.266051 47.104198 
L 227.60696 202.786005 
L 233.947869 298.809375 
L 240.288778 201.946269 
L 246.629687 225.490437 
L 252.970597 147.831351 
L 259.311506 212.423833 
L 265.652415 290.622374 
L 271.993324 239.717016 
L 278.334233 106.303148 
L 284.675142 231.957742 
L 291.016051 235.346446 
L 297.35696 180.518182 
L 303.697869 173.949493 
L 310.038778 199.351335 
L 316.379687 211.954883 
L 322.720597 197.213458 
L 329.061506 99.060313 
L 335.402415 208.18457 
L 341.743324 135.544776 
L 348.084233 203.247224 
L 354.425142 131.800085 
L 360.766051 152.427497 
L 367.10696 221.895373 
L 373.447869 175.617897 
L 379.788778 152.152956 
L 386.129687 182.098026 
L 392.470597 165.309841 
L 398.811506 250.073712 
L 405.152415 125.184476 
L 411.493324 134.053656 
L 417.834233 214.7052 
L 424.175142 230.94693 
L 430.516051 188.128165 
L 436.85696 165.621792 
L 443.197869 157.549149 
L 449.538778 82.673268 
L 455.879687 194.789925 
L 462.220597 147.308449 
L 468.561506 177.474026 
L 474.902415 171.108592 
L 481.243324 210.323319 
L 487.584233 191.513963 
L 493.925142 157.235384 
L 500.266051 244.186679 
L 506.60696 206.956226 
L 512.947869 191.499106 
L 519.288778 155.134684 
L 525.629688 146.976944 
L 531.970597 217.553064 
L 538.311506 242.773007 
L 544.652415 243.918695 
L 550.993324 213.809245 
L 557.334233 101.37787 
L 563.675142 247.062932 
L 570.016051 210.196871 
" clip-path="url(#pa35119992d)" style="fill: none; stroke: #9ad9ca; stroke-width: 1.5; stroke-linecap: square"/>
    <defs>
     <path id="md1a41332af" d="M 0 3 
C 0.795609 3 1.55874 2.683901 2.12132 2.12132 
C 2.683901 1.55874 3 0.795609 3 0 
C 3 -0.795609 2.683901 -1.55874 2.12132 -2.12132 
C 1.55874 -2.683901 0.795609 -3 0 -3 
C -0.795609 -3 -1.55874 -2.683901 -2.12132 -2.12132 
C -2.683901 -1.55874 -3 -0.795609 -3 0 
C -3 0.795609 -2.683901 1.55874 -2.12132 2.12132 
C -1.55874 2.683901 -0.795609 3 0 3 
z
" style="stroke: #9ad9ca"/>
    </defs>
    <g clip-path="url(#pa35119992d)">
     <use xlink:href="#md1a41332af" x="62.743324" y="187.68922" style="fill: #9ad9ca; stroke: #9ad9ca"/>
     <use xlink:href="#md1a41332af" x="69.084233" y="182.292167" style="fill: #9ad9ca; stroke: #9ad9ca"/>
     <use xlink:href="#md1a41332af" x="75.425142" y="135.597764" style="fill: #9ad9ca; stroke: #9ad9ca"/>
     <use xlink:href="#md1a41332af" x="81.766051" y="205.873732" style="fill: #9ad9ca; stroke: #9ad9ca"/>
     <use xlink:href="#md1a41332af" x="88.10696" y="237.955284" style="fill: #9ad9ca; stroke: #9ad9ca"/>
     <use xlink:href="#md1a41332af" x="94.447869" y="231.180352" style="fill: #9ad9ca; stroke: #9ad9ca"/>
     <use xlink:href="#md1a41332af" x="100.788778" y="138.316553" style="fill: #9ad9ca; stroke: #9ad9ca"/>
     <use xlink:href="#md1a41332af" x="107.129687" y="153.867396" style="fill: #9ad9ca; stroke: #9ad9ca"/>
     <use xlink:href="#md1a41332af" x="113.470597" y="172.63496" style="fill: #9ad9ca; stroke: #9ad9ca"/>
     <use xlink:href="#md1a41332af" x="119.811506" y="244.927252" style="fill: #9ad9ca; stroke: #9ad9ca"/>
     <use xlink:href="#md1a41332af" x="126.152415" y="181.283888" style="fill: #9ad9ca; stroke: #9ad9ca"/>
     <use xlink:href="#md1a41332af" x="132.493324" y="223.883448" style="fill: #9ad9ca; stroke: #9ad9ca"/>
     <use xlink:href="#md1a41332af" x="138.834233" y="126.693499" style="fill: #9ad9ca; stroke: #9ad9ca"/>
     <use xlink:href="#md1a41332af" x="145.175142" y="204.266988" style="fill: #9ad9ca; stroke: #9ad9ca"/>
     <use xlink:href="#md1a41332af" x="151.516051" y="218.020375" style="fill: #9ad9ca; stroke: #9ad9ca"/>
     <use xlink:href="#md1a41332af" x="157.85696" y="184.001678" style="fill: #9ad9ca; stroke: #9ad9ca"/>
     <use xlink:href="#md1a41332af" x="164.197869" y="228.423316" style="fill: #9ad9ca; stroke: #9ad9ca"/>
     <use xlink:href="#md1a41332af" x="170.538778" y="196.900111" style="fill: #9ad9ca; stroke: #9ad9ca"/>
     <use xlink:href="#md1a41332af" x="176.879687" y="170.108684" style="fill: #9ad9ca; stroke: #9ad9ca"/>
     <use xlink:href="#md1a41332af" x="183.220597" y="168.199823" style="fill: #9ad9ca; stroke: #9ad9ca"/>
     <use xlink:href="#md1a41332af" x="189.561506" y="291.914285" style="fill: #9ad9ca; stroke: #9ad9ca"/>
     <use xlink:href="#md1a41332af" x="195.902415" y="204.119278" style="fill: #9ad9ca; stroke: #9ad9ca"/>
     <use xlink:href="#md1a41332af" x="202.243324" y="286.45349" style="fill: #9ad9ca; stroke: #9ad9ca"/>
     <use xlink:href="#md1a41332af" x="208.584233" y="221.846547" style="fill: #9ad9ca; stroke: #9ad9ca"/>
     <use xlink:href="#md1a41332af" x="214.925142" y="200.094256" style="fill: #9ad9ca; stroke: #9ad9ca"/>
     <use xlink:href="#md1a41332af" x="221.266051" y="47.104198" style="fill: #9ad9ca; stroke: #9ad9ca"/>
     <use xlink:href="#md1a41332af" x="227.60696" y="202.786005" style="fill: #9ad9ca; stroke: #9ad9ca"/>
     <use xlink:href="#md1a41332af" x="233.947869" y="298.809375" style="fill: #9ad9ca; stroke: #9ad9ca"/>
     <use xlink:href="#md1a41332af" x="240.288778" y="201.946269" style="fill: #9ad9ca; stroke: #9ad9ca"/>
     <use xlink:href="#md1a41332af" x="246.629687" y="225.490437" style="fill: #9ad9ca; stroke: #9ad9ca"/>
     <use xlink:href="#md1a41332af" x="252.970597" y="147.831351" style="fill: #9ad9ca; stroke: #9ad9ca"/>
     <use xlink:href="#md1a41332af" x="259.311506" y="212.423833" style="fill: #9ad9ca; stroke: #9ad9ca"/>
     <use xlink:href="#md1a41332af" x="265.652415" y="290.622374" style="fill: #9ad9ca; stroke: #9ad9ca"/>
     <use xlink:href="#md1a41332af" x="271.993324" y="239.717016" style="fill: #9ad9ca; stroke: #9ad9ca"/>
     <use xlink:href="#md1a41332af" x="278.334233" y="106.303148" style="fill: #9ad9ca; stroke: #9ad9ca"/>
     <use xlink:href="#md1a41332af" x="284.675142" y="231.957742" style="fill: #9ad9ca; stroke: #9ad9ca"/>
     <use xlink:href="#md1a41332af" x="291.016051" y="235.346446" style="fill: #9ad9ca; stroke: #9ad9ca"/>
     <use xlink:href="#md1a41332af" x="297.35696" y="180.518182" style="fill: #9ad9ca; stroke: #9ad9ca"/>
     <use xlink:href="#md1a41332af" x="303.697869" y="173.949493" style="fill: #9ad9ca; stroke: #9ad9ca"/>
     <use xlink:href="#md1a41332af" x="310.038778" y="199.351335" style="fill: #9ad9ca; stroke: #9ad9ca"/>
     <use xlink:href="#md1a41332af" x="316.379687" y="211.954883" style="fill: #9ad9ca; stroke: #9ad9ca"/>
     <use xlink:href="#md1a41332af" x="322.720597" y="197.213458" style="fill: #9ad9ca; stroke: #9ad9ca"/>
     <use xlink:href="#md1a41332af" x="329.061506" y="99.060313" style="fill: #9ad9ca; stroke: #9ad9ca"/>
     <use xlink:href="#md1a41332af" x="335.402415" y="208.18457" style="fill: #9ad9ca; stroke: #9ad9ca"/>
     <use xlink:href="#md1a41332af" x="341.743324" y="135.544776" style="fill: #9ad9ca; stroke: #9ad9ca"/>
     <use xlink:href="#md1a41332af" x="348.084233" y="203.247224" style="fill: #9ad9ca; stroke: #9ad9ca"/>
     <use xlink:href="#md1a41332af" x="354.425142" y="131.800085" style="fill: #9ad9ca; stroke: #9ad9ca"/>
     <use xlink:href="#md1a41332af" x="360.766051" y="152.427497" style="fill: #9ad9ca; stroke: #9ad9ca"/>
     <use xlink:href="#md1a41332af" x="367.10696" y="221.895373" style="fill: #9ad9ca; stroke: #9ad9ca"/>
     <use xlink:href="#md1a41332af" x="373.447869" y="175.617897" style="fill: #9ad9ca; stroke: #9ad9ca"/>
     <use xlink:href="#md1a41332af" x="379.788778" y="152.152956" style="fill: #9ad9ca; stroke: #9ad9ca"/>
     <use xlink:href="#md1a41332af" x="386.129687" y="182.098026" style="fill: #9ad9ca; stroke: #9ad9ca"/>
     <use xlink:href="#md1a41332af" x="392.470597" y="165.309841" style="fill: #9ad9ca; stroke: #9ad9ca"/>
     <use xlink:href="#md1a41332af" x="398.811506" y="250.073712" style="fill: #9ad9ca; stroke: #9ad9ca"/>
     <use xlink:href="#md1a41332af" x="405.152415" y="125.184476" style="fill: #9ad9ca; stroke: #9ad9ca"/>
     <use xlink:href="#md1a41332af" x="411.493324" y="134.053656" style="fill: #9ad9ca; stroke: #9ad9ca"/>
     <use xlink:href="#md1a41332af" x="417.834233" y="214.7052" style="fill: #9ad9ca; stroke: #9ad9ca"/>
     <use xlink:href="#md1a41332af" x="424.175142" y="230.94693" style="fill: #9ad9ca; stroke: #9ad9ca"/>
     <use xlink:href="#md1a41332af" x="430.516051" y="188.128165" style="fill: #9ad9ca; stroke: #9ad9ca"/>
     <use xlink:href="#md1a41332af" x="436.85696" y="165.621792" style="fill: #9ad9ca; stroke: #9ad9ca"/>
     <use xlink:href="#md1a41332af" x="443.197869" y="157.549149" style="fill: #9ad9ca; stroke: #9ad9ca"/>
     <use xlink:href="#md1a41332af" x="449.538778" y="82.673268" style="fill: #9ad9ca; stroke: #9ad9ca"/>
     <use xlink:href="#md1a41332af" x="455.879687" y="194.789925" style="fill: #9ad9ca; stroke: #9ad9ca"/>
     <use xlink:href="#md1a41332af" x="462.220597" y="147.308449" style="fill: #9ad9ca; stroke: #9ad9ca"/>
     <use xlink:href="#md1a41332af" x="468.561506" y="177.474026" style="fill: #9ad9ca; stroke: #9ad9ca"/>
     <use xlink:href="#md1a41332af" x="474.902415" y="171.108592" style="fill: #9ad9ca; stroke: #9ad9ca"/>
     <use xlink:href="#md1a41332af" x="481.243324" y="210.323319" style="fill: #9ad9ca; stroke: #9ad9ca"/>
     <use xlink:href="#md1a41332af" x="487.584233" y="191.513963" style="fill: #9ad9ca; stroke: #9ad9ca"/>
     <use xlink:href="#md1a41332af" x="493.925142" y="157.235384" style="fill: #9ad9ca; stroke: #9ad9ca"/>
     <use xlink:href="#md1a41332af" x="500.266051" y="244.186679" style="fill: #9ad9ca; stroke: #9ad9ca"/>
     <use xlink:href="#md1a41332af" x="506.60696" y="206.956226" style="fill: #9ad9ca; stroke: #9ad9ca"/>
     <use xlink:href="#md1a41332af" x="512.947869" y="191.499106" style="fill: #9ad9ca; stroke: #9ad9ca"/>
     <use xlink:href="#md1a41332af" x="519.288778" y="155.134684" style="fill: #9ad9ca; stroke: #9ad9ca"/>
     <use xlink:href="#md1a41332af" x="525.629688" y="146.976944" style="fill: #9ad9ca; stroke: #9ad9ca"/>
     <use xlink:href="#md1a41332af" x="531.970597" y="217.553064" style="fill: #9ad9ca; stroke: #9ad9ca"/>
     <use xlink:href="#md1a41332af" x="538.311506" y="242.773007" style="fill: #9ad9ca; stroke: #9ad9ca"/>
     <use xlink:href="#md1a41332af" x="544.652415" y="243.918695" style="fill: #9ad9ca; stroke: #9ad9ca"/>
     <use xlink:href="#md1a41332af" x="550.993324" y="213.809245" style="fill: #9ad9ca; stroke: #9ad9ca"/>
     <use xlink:href="#md1a41332af" x="557.334233" y="101.37787" style="fill: #9ad9ca; stroke: #9ad9ca"/>
     <use xlink:href="#md1a41332af" x="563.675142" y="247.062932" style="fill: #9ad9ca; stroke: #9ad9ca"/>
     <use xlink:href="#md1a41332af" x="570.016051" y="210.196871" style="fill: #9ad9ca; stroke: #9ad9ca"/>
    </g>
   </g>
   <g id="patch_3">
    <path d="M 37.379688 311.409375 
L 37.379688 34.209375 
" style="fill: none; stroke: #000000; stroke-width: 0.8; stroke-linejoin: miter; stroke-linecap: square"/>
   </g>
   <g id="patch_4">
    <path d="M 595.379688 311.409375 
L 595.379688 34.209375 
" style="fill: none; stroke: #000000; stroke-width: 0.8; stroke-linejoin: miter; stroke-linecap: square"/>
   </g>
   <g id="patch_5">
    <path d="M 37.379688 311.409375 
L 595.379688 311.409375 
" style="fill: none; stroke: #000000; stroke-width: 0.8; stroke-linejoin: miter; stroke-linecap: square"/>
   </g>
   <g id="patch_6">
    <path d="M 37.379688 34.209375 
L 595.379688 34.209375 
" style="fill: none; stroke: #000000; stroke-width: 0.8; stroke-linejoin: miter; stroke-linecap: square"/>
   </g>
   <g id="text_17">
    <!-- 训练集预测结果对比  -->
    <g transform="translate(259.379687 16.809375) scale(0.12 -0.12)">
     <defs>
      <path id="SimHei-8bad" d="M 1650 3300 
Q 1625 2725 1625 2225 
L 1625 675 
Q 1950 1125 2050 1275 
Q 2175 1125 2350 900 
Q 2025 500 1800 212 
Q 1575 -75 1325 -425 
Q 1150 -200 950 -50 
Q 1150 225 1150 625 
L 1150 2875 
L 975 2875 
Q 600 2875 300 2850 
L 300 3325 
Q 600 3300 975 3300 
L 1650 3300 
z
M 3425 4600 
Q 3375 4350 3387 3362 
Q 3400 2375 3337 1887 
Q 3275 1400 3087 837 
Q 2900 275 2450 -375 
Q 2225 -200 1975 -125 
Q 2550 500 2762 1362 
Q 2975 2225 2950 3337 
Q 2925 4450 2900 4675 
Q 3150 4625 3425 4600 
z
M 5875 4700 
Q 5850 4500 5850 3975 
L 5850 625 
Q 5850 125 5875 -400 
L 5400 -400 
Q 5425 125 5425 600 
L 5425 3975 
Q 5425 4500 5400 4700 
L 5875 4700 
z
M 4600 175 
L 4125 175 
Q 4150 725 4150 1150 
L 4150 3600 
Q 4150 4050 4125 4350 
L 4600 4350 
L 4600 175 
z
M 1000 5150 
Q 1650 4600 2100 4100 
Q 1875 3925 1750 3750 
Q 1050 4550 700 4800 
Q 850 4950 1000 5150 
z
" transform="scale(0.015625)"/>
      <path id="SimHei-7ec3" d="M 3300 3825 
Q 2950 3825 2400 3800 
L 2400 4250 
Q 2950 4225 3325 4225 
L 3625 4225 
Q 3875 4950 3900 5175 
Q 4200 5025 4450 4925 
Q 4350 4825 4262 4612 
Q 4175 4400 4100 4225 
L 5025 4225 
Q 5425 4225 5900 4250 
L 5900 3800 
Q 5550 3825 5025 3825 
L 3975 3825 
Q 3850 3525 3700 3150 
L 4675 3150 
Q 4650 2875 4650 2475 
L 4650 1975 
L 4975 1975 
Q 5350 1975 5800 2000 
L 5800 1550 
Q 5350 1575 4975 1575 
L 4650 1575 
L 4650 125 
Q 4650 -300 4462 -425 
Q 4275 -550 3650 -625 
Q 3625 -375 3450 -100 
Q 4075 -125 4137 -25 
Q 4200 75 4200 325 
L 4200 1575 
L 3425 1575 
Q 3250 1575 3100 1562 
Q 2950 1550 2750 1475 
Q 2650 1725 2550 1950 
Q 2800 2025 3125 2775 
Q 2950 2775 2450 2750 
L 2450 3175 
Q 3025 3150 3250 3150 
Q 3400 3525 3500 3825 
L 3300 3825 
z
M 1650 2950 
Q 1875 3300 2100 3900 
Q 2325 3725 2575 3600 
Q 2325 3275 2025 2750 
Q 1725 2225 1075 1350 
Q 1300 1400 2400 1575 
Q 2350 1300 2375 1150 
Q 1825 1100 650 825 
Q 525 1075 400 1275 
Q 625 1400 887 1737 
Q 1150 2075 1450 2575 
Q 1300 2600 1012 2562 
Q 725 2525 450 2450 
Q 350 2675 250 2925 
Q 500 3075 812 3725 
Q 1125 4375 1325 5000 
Q 1600 4825 1850 4750 
Q 1600 4375 1387 3962 
Q 1175 3550 800 2925 
Q 1375 2925 1650 2950 
z
M 2425 700 
Q 2400 425 2425 250 
Q 2000 150 1462 -25 
Q 925 -200 475 -425 
Q 400 -150 300 125 
Q 950 275 1187 337 
Q 1425 400 2425 700 
z
M 3725 875 
Q 3650 800 3287 400 
Q 2925 0 2475 -475 
Q 2300 -250 2150 -125 
Q 2425 100 2750 462 
Q 3075 825 3325 1225 
Q 3475 1050 3725 875 
z
M 5275 1225 
Q 5925 375 6200 -100 
Q 5950 -200 5750 -375 
Q 5475 175 4900 950 
Q 5075 1050 5275 1225 
z
M 4200 1975 
L 4200 2775 
L 3575 2775 
Q 3325 2250 3175 1975 
L 4200 1975 
z
" transform="scale(0.015625)"/>
      <path id="SimHei-96c6" d="M 2275 4925 
Q 2125 4800 2025 4662 
Q 1925 4525 1850 4350 
L 4925 4350 
Q 5300 4350 5750 4375 
L 5750 3975 
L 3650 3975 
L 3650 3575 
L 4625 3575 
Q 4925 3575 5325 3600 
L 5325 3175 
Q 4925 3200 4625 3200 
L 3650 3200 
L 3650 2800 
L 4675 2800 
Q 5000 2800 5425 2825 
L 5425 2400 
Q 5000 2425 4675 2425 
L 3650 2425 
L 3650 2075 
L 4875 2075 
Q 5275 2075 5675 2100 
L 5675 1675 
Q 5300 1700 4900 1700 
L 1650 1700 
L 1650 1500 
L 1150 1500 
Q 1200 1950 1200 2325 
L 1200 3475 
Q 1050 3250 937 3125 
Q 825 3000 675 2825 
Q 500 3000 300 3125 
Q 475 3325 875 3825 
Q 1275 4325 1462 4650 
Q 1650 4975 1725 5225 
Q 1950 5100 2275 4925 
z
M 2975 1200 
Q 2975 1300 2950 1625 
L 3475 1625 
Q 3450 1275 3450 1200 
L 5050 1200 
Q 5500 1200 5925 1225 
L 5925 825 
L 4150 825 
Q 4500 525 4925 362 
Q 5350 200 6100 25 
Q 5875 -225 5775 -475 
Q 5275 -300 4962 -162 
Q 4650 -25 4387 137 
Q 4125 300 3950 462 
Q 3775 625 3575 825 
L 3450 825 
L 3450 250 
Q 3450 -275 3500 -650 
L 2950 -650 
Q 2975 -300 2975 250 
L 2975 825 
L 2875 825 
Q 2700 575 2475 375 
Q 2250 175 1987 12 
Q 1725 -150 1425 -300 
Q 1125 -450 700 -575 
Q 600 -325 400 -75 
Q 925 50 1475 262 
Q 2025 475 2300 825 
L 500 825 
L 500 1225 
Q 800 1200 1400 1200 
L 2975 1200 
z
M 3150 2800 
L 3150 3200 
L 1650 3200 
L 1650 2800 
L 3150 2800 
z
M 3150 3575 
L 3150 3975 
L 1650 3975 
L 1650 3575 
L 3150 3575 
z
M 3150 2075 
L 3150 2425 
L 1650 2425 
L 1650 2075 
L 3150 2075 
z
M 3450 5250 
Q 3575 5150 3712 5000 
Q 3850 4850 4000 4650 
Q 3850 4525 3575 4375 
Q 3425 4575 3325 4700 
Q 3225 4825 3075 4950 
Q 3275 5075 3450 5250 
z
" transform="scale(0.015625)"/>
      <path id="SimHei-9884" d="M 5200 4800 
Q 5575 4800 5950 4825 
L 5950 4400 
Q 5575 4425 5200 4425 
L 4500 4425 
Q 4425 4050 4350 3600 
L 5725 3600 
Q 5700 3225 5700 2800 
L 5700 1725 
Q 5700 1300 5725 850 
L 5250 850 
L 5250 3225 
L 3550 3225 
L 3550 800 
L 3075 800 
Q 3100 1375 3100 1725 
L 3100 2775 
Q 3100 3175 3075 3600 
L 3900 3600 
Q 4000 4150 4000 4425 
L 3725 4425 
Q 3300 4425 2850 4400 
L 2850 4825 
Q 3325 4800 3725 4800 
L 5200 4800 
z
M 2600 1775 
Q 2350 1825 2150 1825 
Q 2250 2250 2300 2450 
L 1750 2450 
L 1750 125 
Q 1725 -300 1425 -400 
Q 1125 -500 750 -500 
Q 700 -225 575 25 
Q 1125 -25 1212 37 
Q 1300 100 1300 350 
L 1300 2450 
L 1025 2450 
Q 700 2450 350 2425 
L 350 2850 
Q 700 2825 1000 2825 
L 2850 2825 
Q 2725 2325 2600 1775 
z
M 4725 2875 
Q 4625 2575 4600 2100 
Q 4575 1625 4462 1037 
Q 4350 450 3962 62 
Q 3575 -325 2925 -675 
Q 2700 -500 2475 -350 
Q 3075 -125 3437 200 
Q 3800 525 3950 937 
Q 4100 1350 4137 1850 
Q 4175 2350 4175 2925 
L 4725 2875 
z
M 1625 2900 
Q 1275 3275 800 3650 
Q 925 3775 1075 3950 
Q 1250 3825 1425 3675 
Q 1750 4150 1950 4375 
L 1400 4375 
Q 900 4375 450 4350 
L 450 4775 
Q 900 4750 1375 4750 
L 2575 4750 
L 2575 4375 
Q 2200 4100 1725 3400 
L 1950 3200 
Q 1750 3025 1625 2900 
z
M 4775 725 
Q 5725 0 6075 -325 
Q 5850 -500 5725 -650 
Q 5400 -325 5137 -87 
Q 4875 150 4525 350 
Q 4650 525 4775 725 
z
" transform="scale(0.015625)"/>
      <path id="SimHei-6d4b" d="M 4025 4725 
Q 4000 4475 4000 4000 
L 4000 2225 
Q 4000 1775 4025 1350 
L 3550 1350 
L 3550 4325 
L 2350 4325 
L 2350 1325 
L 1900 1325 
Q 1925 1775 1925 2225 
L 1925 4000 
Q 1925 4200 1900 4725 
L 4025 4725 
z
M 5900 5075 
Q 5875 4800 5875 4375 
L 5875 0 
Q 5875 -325 5650 -425 
Q 5425 -525 4975 -600 
Q 4925 -325 4775 -50 
Q 5125 -50 5262 -25 
Q 5400 0 5400 250 
L 5400 4375 
Q 5400 4775 5375 5075 
L 5900 5075 
z
M 3275 3725 
Q 3225 3400 3200 2325 
Q 3175 1250 2837 550 
Q 2500 -150 2075 -600 
Q 1850 -400 1600 -325 
Q 2200 250 2475 962 
Q 2750 1675 2762 2475 
Q 2775 3275 2725 3800 
Q 3000 3750 3275 3725 
z
M 4950 4275 
Q 4925 4000 4925 3575 
L 4925 1825 
Q 4925 1300 4950 850 
L 4450 850 
Q 4475 1150 4475 1825 
L 4475 3575 
Q 4475 4000 4450 4275 
L 4950 4275 
z
M 1700 1675 
Q 1375 1075 1112 487 
Q 850 -100 725 -400 
Q 500 -200 200 -25 
Q 475 300 762 850 
Q 1050 1400 1250 2000 
Q 1475 1825 1700 1675 
z
M 3400 1050 
Q 3800 650 4300 -125 
Q 4100 -225 3875 -450 
Q 3475 275 3025 750 
Q 3225 875 3400 1050 
z
M 600 3525 
Q 1125 3125 1500 2775 
Q 1300 2575 1150 2375 
Q 825 2775 300 3150 
Q 450 3300 600 3525 
z
M 1350 4000 
Q 950 4375 475 4675 
Q 625 4850 775 5050 
Q 1300 4700 1675 4375 
Q 1500 4250 1350 4000 
z
" transform="scale(0.015625)"/>
      <path id="SimHei-7ed3" d="M 5725 1925 
Q 5700 1600 5700 1200 
L 5700 350 
Q 5700 -125 5725 -475 
L 5225 -475 
L 5225 0 
L 3525 0 
L 3525 -525 
L 3025 -525 
Q 3050 125 3050 325 
L 3050 1250 
Q 3050 1550 3025 1925 
L 5725 1925 
z
M 1900 4850 
Q 1700 4600 1475 4200 
Q 1250 3800 925 3200 
Q 1475 3225 1725 3225 
Q 1950 3625 2100 4000 
Q 2350 3825 2650 3675 
Q 2525 3575 2212 3125 
Q 1900 2675 1225 1650 
Q 2050 1775 2525 1850 
Q 2450 1575 2450 1375 
Q 2225 1350 1650 1275 
Q 1075 1200 525 1050 
Q 425 1300 350 1550 
Q 650 1625 950 2012 
Q 1250 2400 1475 2825 
Q 1300 2825 962 2787 
Q 625 2750 375 2675 
Q 300 2925 225 3150 
Q 500 3375 812 3925 
Q 1125 4475 1300 5125 
Q 1600 4975 1900 4850 
z
M 4075 4175 
Q 4075 4600 4050 5175 
L 4575 5175 
Q 4550 4725 4550 4175 
L 5275 4175 
Q 5750 4175 6150 4200 
L 6150 3750 
Q 5750 3775 5300 3775 
L 4550 3775 
L 4550 2950 
L 5125 2950 
Q 5475 2950 5825 2975 
L 5825 2525 
Q 5525 2550 5100 2550 
L 3650 2550 
Q 3225 2550 2900 2525 
L 2900 2975 
Q 3225 2950 3600 2950 
L 4075 2950 
L 4075 3775 
L 3525 3775 
Q 3075 3775 2675 3750 
L 2675 4200 
Q 3000 4175 3475 4175 
L 4075 4175 
z
M 5225 400 
L 5225 1525 
L 3525 1525 
L 3525 400 
L 5225 400 
z
M 2575 650 
Q 2500 425 2525 175 
Q 2050 100 1450 0 
Q 850 -100 425 -225 
Q 325 100 225 350 
Q 750 375 1175 437 
Q 1600 500 2575 650 
z
" transform="scale(0.015625)"/>
      <path id="SimHei-679c" d="M 2975 -525 
Q 3000 -75 3000 575 
L 3000 1600 
L 2900 1600 
Q 2725 1275 2500 1000 
Q 2275 725 1987 512 
Q 1700 300 1362 100 
Q 1025 -100 675 -250 
Q 575 25 400 275 
Q 700 350 975 487 
Q 1250 625 1525 787 
Q 1800 950 2000 1150 
Q 2200 1350 2375 1600 
L 1375 1600 
Q 1000 1600 450 1550 
L 450 2050 
Q 950 2000 1375 2000 
L 3000 2000 
L 3000 2450 
L 1150 2450 
Q 1175 3050 1175 3775 
Q 1175 4500 1150 5000 
L 5325 5000 
Q 5300 4500 5300 3775 
Q 5300 3050 5325 2450 
L 3475 2450 
L 3475 2000 
L 5050 2000 
Q 5550 2000 5925 2025 
L 5925 1550 
Q 5500 1600 5100 1600 
L 4125 1600 
Q 4450 1075 4925 800 
Q 5400 525 6050 375 
Q 5875 150 5775 -175 
Q 4925 150 4425 550 
Q 3925 950 3675 1600 
L 3475 1600 
L 3475 550 
Q 3475 0 3500 -525 
L 2975 -525 
z
M 4825 3875 
L 4825 4625 
L 3475 4625 
L 3475 3875 
L 4825 3875 
z
M 3000 3875 
L 3000 4625 
L 1675 4625 
L 1675 3875 
L 3000 3875 
z
M 4825 2825 
L 4825 3500 
L 3475 3500 
L 3475 2825 
L 4825 2825 
z
M 3000 2825 
L 3000 3500 
L 1675 3500 
L 1675 2825 
L 3000 2825 
z
" transform="scale(0.015625)"/>
      <path id="SimHei-5bf9" d="M 525 4250 
Q 900 4225 1400 4225 
L 2825 4225 
Q 2575 2625 2200 1750 
Q 2825 875 3125 400 
Q 2950 275 2725 75 
Q 2200 975 1950 1300 
Q 1650 775 1350 425 
Q 1050 75 600 -350 
Q 425 -125 200 -25 
Q 625 275 975 675 
Q 1325 1075 1650 1700 
Q 1050 2425 550 2900 
Q 700 3025 900 3225 
Q 1625 2425 1875 2150 
Q 2200 3050 2300 3825 
L 1400 3825 
Q 900 3825 525 3800 
L 525 4250 
z
M 2925 3700 
Q 3525 3675 3750 3675 
L 4825 3675 
L 4825 4425 
Q 4825 4750 4775 5125 
L 5350 5125 
Q 5325 4825 5325 4375 
L 5325 3675 
Q 5575 3675 6150 3700 
L 6150 3250 
Q 5575 3275 5325 3275 
L 5325 125 
Q 5350 -350 5012 -475 
Q 4675 -600 4250 -650 
Q 4175 -350 4025 -100 
Q 4575 -100 4712 -37 
Q 4850 25 4825 325 
L 4825 3275 
L 3775 3275 
Q 3550 3275 2925 3225 
L 2925 3700 
z
M 3450 2725 
Q 3875 1975 4175 1325 
Q 3850 1200 3700 1075 
Q 3475 1750 3050 2475 
Q 3225 2550 3450 2725 
z
" transform="scale(0.015625)"/>
      <path id="SimHei-6bd4" d="M 3775 5100 
Q 3750 4575 3750 4100 
L 3750 3050 
Q 4925 3600 5475 4175 
Q 5675 3900 5900 3675 
Q 5600 3500 5037 3187 
Q 4475 2875 3750 2550 
L 3750 450 
Q 3750 100 4050 100 
L 5000 100 
Q 5175 100 5262 250 
Q 5350 400 5450 900 
Q 5650 775 6025 675 
Q 5850 0 5650 -175 
Q 5450 -350 5225 -350 
L 3900 -350 
Q 3250 -350 3250 275 
L 3250 4000 
Q 3250 4550 3225 5100 
L 3775 5100 
z
M 1275 4975 
Q 1250 4575 1250 4000 
L 1250 3150 
L 1850 3150 
Q 2325 3150 2875 3175 
L 2875 2650 
Q 2325 2675 1850 2675 
L 1250 2675 
L 1250 475 
Q 1650 650 1962 812 
Q 2275 975 2850 1275 
Q 2900 950 2950 750 
Q 2375 475 1762 175 
Q 1150 -125 925 -325 
Q 750 -100 575 200 
Q 700 300 750 600 
L 750 3950 
Q 750 4550 725 4975 
L 1275 4975 
z
" transform="scale(0.015625)"/>
      <path id="SimHei-20" transform="scale(0.015625)"/>
     </defs>
     <use xlink:href="#SimHei-8bad"/>
     <use xlink:href="#SimHei-7ec3" x="100"/>
     <use xlink:href="#SimHei-96c6" x="200"/>
     <use xlink:href="#SimHei-9884" x="300"/>
     <use xlink:href="#SimHei-6d4b" x="400"/>
     <use xlink:href="#SimHei-7ed3" x="500"/>
     <use xlink:href="#SimHei-679c" x="600"/>
     <use xlink:href="#SimHei-5bf9" x="700"/>
     <use xlink:href="#SimHei-6bd4" x="800"/>
     <use xlink:href="#SimHei-20" x="900"/>
    </g>
    <!-- RMSE: 0.62 -->
    <g transform="translate(286.379687 28.209375) scale(0.12 -0.12)">
     <defs>
      <path id="SimHei-52" d="M 3000 125 
L 2400 125 
L 1500 1975 
L 850 1975 
L 850 125 
L 275 125 
L 275 4400 
L 1525 4400 
Q 2125 4400 2500 4112 
Q 2875 3825 2875 3175 
Q 2875 2675 2625 2400 
Q 2375 2125 2050 2050 
L 3000 125 
z
M 2300 3175 
Q 2300 3525 2087 3725 
Q 1875 3925 1400 3925 
L 850 3925 
L 850 2450 
L 1550 2450 
Q 1850 2450 2075 2612 
Q 2300 2775 2300 3175 
z
" transform="scale(0.015625)"/>
      <path id="SimHei-4d" d="M 2925 125 
L 2425 125 
L 2425 3175 
L 2375 3175 
L 1775 125 
L 1375 125 
L 775 3175 
L 725 3175 
L 725 125 
L 225 125 
L 225 4400 
L 1000 4400 
L 1550 1575 
L 1600 1575 
L 2150 4400 
L 2925 4400 
L 2925 125 
z
" transform="scale(0.015625)"/>
      <path id="SimHei-53" d="M 2900 1325 
Q 2900 750 2537 412 
Q 2175 75 1550 75 
Q 925 75 575 425 
Q 225 775 225 1300 
L 225 1475 
L 800 1475 
L 800 1325 
Q 800 950 1025 750 
Q 1250 550 1550 550 
Q 1950 550 2137 762 
Q 2325 975 2325 1275 
Q 2325 1525 2100 1737 
Q 1875 1950 1450 2125 
Q 850 2350 587 2625 
Q 325 2900 325 3275 
Q 325 3800 687 4125 
Q 1050 4450 1550 4450 
Q 2200 4450 2487 4062 
Q 2775 3675 2775 3225 
L 2200 3225 
Q 2225 3500 2050 3725 
Q 1875 3950 1550 3950 
Q 1250 3950 1075 3787 
Q 900 3625 900 3350 
Q 900 3125 1037 2962 
Q 1175 2800 1750 2575 
Q 2300 2350 2600 2037 
Q 2900 1725 2900 1325 
z
" transform="scale(0.015625)"/>
      <path id="SimHei-45" d="M 2900 125 
L 350 125 
L 350 4400 
L 2775 4400 
L 2775 3925 
L 925 3925 
L 925 2600 
L 2625 2600 
L 2625 2125 
L 925 2125 
L 925 600 
L 2900 600 
L 2900 125 
z
" transform="scale(0.015625)"/>
      <path id="SimHei-3a" d="M 1825 2425 
L 1250 2425 
L 1250 2975 
L 1825 2975 
L 1825 2425 
z
M 1825 125 
L 1250 125 
L 1250 675 
L 1825 675 
L 1825 125 
z
" transform="scale(0.015625)"/>
      <path id="SimHei-2e" d="M 1075 125 
L 500 125 
L 500 675 
L 1075 675 
L 1075 125 
z
" transform="scale(0.015625)"/>
     </defs>
     <use xlink:href="#SimHei-52"/>
     <use xlink:href="#SimHei-4d" x="50"/>
     <use xlink:href="#SimHei-53" x="100"/>
     <use xlink:href="#SimHei-45" x="150"/>
     <use xlink:href="#SimHei-3a" x="200"/>
     <use xlink:href="#SimHei-20" x="250"/>
     <use xlink:href="#SimHei-30" x="300"/>
     <use xlink:href="#SimHei-2e" x="350"/>
     <use xlink:href="#SimHei-36" x="400"/>
     <use xlink:href="#SimHei-32" x="450"/>
    </g>
   </g>
   <g id="legend_1">
    <g id="line2d_17">
     <path d="M 612.079687 47.717187 
L 622.079687 47.717187 
L 632.079687 47.717187 
" style="fill: none; stroke: #ff6347; stroke-width: 1.5; stroke-linecap: square"/>
    </g>
    <g id="text_18">
     <!-- 真实值 -->
     <g transform="translate(640.079687 51.217187) scale(0.1 -0.1)">
      <defs>
       <path id="SimHei-771f" d="M 3550 5100 
Q 3450 4925 3400 4625 
L 4850 4625 
Q 5175 4625 5725 4650 
L 5725 4250 
Q 5200 4275 4850 4275 
L 3350 4275 
L 3300 3850 
L 5050 3850 
Q 5025 3550 5025 3150 
L 5025 1075 
L 5400 1075 
Q 5800 1075 6075 1100 
L 6075 625 
Q 5575 650 4900 650 
L 1450 650 
Q 775 650 350 625 
L 350 1100 
Q 725 1075 1100 1075 
L 1425 1075 
L 1425 3075 
Q 1425 3450 1400 3850 
L 2825 3850 
L 2850 4275 
L 1400 4275 
Q 1050 4275 625 4250 
L 625 4650 
Q 1175 4625 1375 4625 
L 2925 4625 
Q 2950 4875 2950 5125 
Q 3300 5100 3550 5100 
z
M 4075 525 
Q 4500 425 4925 250 
Q 5350 75 5825 -150 
Q 5550 -425 5450 -575 
Q 5025 -300 4550 -100 
Q 4075 100 3800 175 
Q 3925 350 4075 525 
z
M 4525 3150 
L 4525 3475 
L 1925 3475 
L 1925 3150 
L 4525 3150 
z
M 4525 1075 
L 4525 1400 
L 1925 1400 
L 1925 1075 
L 4525 1075 
z
M 2775 200 
Q 2375 -25 1875 -225 
Q 1375 -425 950 -575 
Q 775 -400 600 -250 
Q 1225 -50 1625 137 
Q 2025 325 2350 525 
Q 2550 350 2775 200 
z
M 4525 1775 
L 4525 2075 
L 1925 2075 
L 1925 1775 
L 4525 1775 
z
M 4525 2475 
L 4525 2775 
L 1925 2775 
L 1925 2475 
L 4525 2475 
z
" transform="scale(0.015625)"/>
       <path id="SimHei-5b9e" d="M 4125 3500 
Q 4050 3200 4000 2675 
Q 3950 2150 3850 1550 
L 5025 1550 
Q 5475 1550 5975 1575 
L 5975 1100 
Q 5450 1125 5000 1125 
L 3725 1125 
Q 3500 625 3050 250 
Q 2600 -125 2000 -337 
Q 1400 -550 925 -675 
Q 825 -375 500 -200 
Q 1225 -125 2050 212 
Q 2875 550 3200 1125 
L 1425 1125 
Q 975 1125 425 1100 
L 425 1575 
Q 1000 1550 1425 1550 
L 3375 1550 
Q 3450 1975 3487 2462 
Q 3525 2950 3500 3650 
Q 3800 3550 4125 3500 
z
M 3250 5250 
Q 3450 4850 3600 4375 
L 5775 4375 
Q 5750 4100 5750 3825 
Q 5750 3575 5775 3275 
L 5200 3275 
L 5200 3975 
L 1225 3975 
L 1225 3225 
L 675 3225 
Q 700 3525 700 3800 
Q 700 4100 675 4375 
L 2975 4375 
Q 2900 4675 2700 5075 
Q 2900 5150 3250 5250 
z
M 4000 825 
Q 4550 525 5050 262 
Q 5550 0 5925 -225 
Q 5750 -425 5550 -650 
Q 5100 -325 4575 -37 
Q 4050 250 3675 400 
Q 3875 650 4000 825 
z
M 1175 2750 
Q 1600 2550 2350 2050 
Q 2250 1900 2050 1650 
Q 1350 2175 925 2350 
Q 1075 2500 1175 2750 
z
M 3150 2825 
Q 2975 2625 2850 2425 
Q 2050 3000 1675 3125 
Q 1800 3300 1950 3525 
L 3150 2825 
z
" transform="scale(0.015625)"/>
      </defs>
      <use xlink:href="#SimHei-771f"/>
      <use xlink:href="#SimHei-5b9e" x="100"/>
      <use xlink:href="#SimHei-503c" x="200"/>
     </g>
    </g>
    <g id="line2d_18">
     <path d="M 612.079687 61.81875 
L 622.079687 61.81875 
L 632.079687 61.81875 
" style="fill: none; stroke: #9ad9ca; stroke-width: 1.5; stroke-linecap: square"/>
     <g>
      <use xlink:href="#md1a41332af" x="622.079687" y="61.81875" style="fill: #9ad9ca; stroke: #9ad9ca"/>
     </g>
    </g>
    <g id="text_19">
     <!-- 预测值 -->
     <g transform="translate(640.079687 65.31875) scale(0.1 -0.1)">
      <use xlink:href="#SimHei-9884"/>
      <use xlink:href="#SimHei-6d4b" x="100"/>
      <use xlink:href="#SimHei-503c" x="200"/>
     </g>
    </g>
   </g>
  </g>
 </g>
 <defs>
  <clipPath id="pa35119992d">
   <rect x="37.379688" y="34.209375" width="558" height="277.2"/>
  </clipPath>
 </defs>
</svg>
