<?xml version="1.0" encoding="utf-8" standalone="no"?>
<!DOCTYPE svg PUBLIC "-//W3C//DTD SVG 1.1//EN"
  "http://www.w3.org/Graphics/SVG/1.1/DTD/svg11.dtd">
<svg xmlns:xlink="http://www.w3.org/1999/xlink" width="712.305pt" height="423.47pt" viewBox="0 0 712.305 423.47" xmlns="http://www.w3.org/2000/svg" version="1.1">
 <metadata>
  <rdf:RDF xmlns:dc="http://purl.org/dc/elements/1.1/" xmlns:cc="http://creativecommons.org/ns#" xmlns:rdf="http://www.w3.org/1999/02/22-rdf-syntax-ns#">
   <cc:Work>
    <dc:type rdf:resource="http://purl.org/dc/dcmitype/StillImage"/>
    <dc:date>2024-10-05T10:56:27.134291</dc:date>
    <dc:format>image/svg+xml</dc:format>
    <dc:creator>
     <cc:Agent>
      <dc:title>Matplotlib v3.7.1, https://matplotlib.org/</dc:title>
     </cc:Agent>
    </dc:creator>
   </cc:Work>
  </rdf:RDF>
 </metadata>
 <defs>
  <style type="text/css">*{stroke-linejoin: round; stroke-linecap: butt}</style>
 </defs>
 <g id="figure_1">
  <g id="patch_1">
   <path d="M 0 423.47 
L 712.305 423.47 
L 712.305 0 
L 0 0 
z
" style="fill: #ffffff"/>
  </g>
  <g id="axes_1">
   <g id="patch_2">
    <path d="M 46.325 389.02 
L 705.105 389.02 
L 705.105 22.575 
L 46.325 22.575 
z
" style="fill: #ffffff"/>
   </g>
   <g id="matplotlib.axis_1">
    <g id="xtick_1">
     <g id="line2d_1">
      <defs>
       <path id="mf055336c14" d="M 0 0 
L 0 3.5 
" style="stroke: #000000; stroke-width: 0.8"/>
      </defs>
      <g>
       <use xlink:href="#mf055336c14" x="74.899086" y="389.02" style="stroke: #000000; stroke-width: 0.8"/>
      </g>
     </g>
     <g id="text_1">
      <!-- 2016-01 -->
      <g transform="translate(57.399086 402.895) scale(0.1 -0.1)">
       <defs>
        <path id="SimHei-32" d="M 300 250 
Q 325 625 650 925 
Q 975 1225 1475 1862 
Q 1975 2500 2125 2850 
Q 2275 3200 2237 3450 
Q 2200 3700 2000 3862 
Q 1800 4025 1537 4000 
Q 1275 3975 1037 3800 
Q 800 3625 675 3275 
L 200 3350 
Q 400 3925 712 4187 
Q 1025 4450 1450 4475 
Q 1700 4500 1900 4462 
Q 2100 4425 2312 4287 
Q 2525 4150 2662 3875 
Q 2800 3600 2762 3212 
Q 2725 2825 2375 2287 
Q 2025 1750 1025 600 
L 2825 600 
L 2825 150 
L 300 150 
L 300 250 
z
" transform="scale(0.015625)"/>
        <path id="SimHei-30" d="M 225 2537 
Q 250 3200 412 3587 
Q 575 3975 875 4225 
Q 1175 4475 1612 4475 
Q 2050 4475 2375 4112 
Q 2700 3750 2800 3200 
Q 2900 2650 2862 1937 
Q 2825 1225 2612 775 
Q 2400 325 1975 150 
Q 1550 -25 1125 187 
Q 700 400 525 750 
Q 350 1100 275 1487 
Q 200 1875 225 2537 
z
M 750 2687 
Q 675 2000 800 1462 
Q 925 925 1212 700 
Q 1500 475 1800 612 
Q 2100 750 2237 1162 
Q 2375 1575 2375 2062 
Q 2375 2550 2337 2950 
Q 2300 3350 2112 3675 
Q 1925 4000 1612 4012 
Q 1300 4025 1062 3700 
Q 825 3375 750 2687 
z
" transform="scale(0.015625)"/>
        <path id="SimHei-31" d="M 1400 3600 
Q 1075 3275 575 2975 
L 575 3450 
Q 1200 3875 1600 4450 
L 1900 4450 
L 1900 150 
L 1400 150 
L 1400 3600 
z
" transform="scale(0.015625)"/>
        <path id="SimHei-36" d="M 250 1612 
Q 275 1975 387 2225 
Q 500 2475 725 2850 
L 1750 4450 
L 2325 4450 
L 1275 2800 
Q 1950 2975 2350 2750 
Q 2750 2525 2887 2237 
Q 3025 1950 3037 1612 
Q 3050 1275 2937 950 
Q 2825 625 2537 362 
Q 2250 100 1737 75 
Q 1225 50 862 262 
Q 500 475 362 862 
Q 225 1250 250 1612 
z
M 1025 787 
Q 1250 550 1625 525 
Q 2000 500 2250 775 
Q 2500 1050 2500 1575 
Q 2500 2100 2187 2300 
Q 1875 2500 1487 2450 
Q 1100 2400 925 2075 
Q 750 1750 775 1387 
Q 800 1025 1025 787 
z
" transform="scale(0.015625)"/>
        <path id="SimHei-2d" d="M 2975 2125 
L 125 2125 
L 125 2525 
L 2975 2525 
L 2975 2125 
z
" transform="scale(0.015625)"/>
       </defs>
       <use xlink:href="#SimHei-32"/>
       <use xlink:href="#SimHei-30" x="50"/>
       <use xlink:href="#SimHei-31" x="100"/>
       <use xlink:href="#SimHei-36" x="150"/>
       <use xlink:href="#SimHei-2d" x="200"/>
       <use xlink:href="#SimHei-30" x="250"/>
       <use xlink:href="#SimHei-31" x="300"/>
      </g>
     </g>
    </g>
    <g id="xtick_2">
     <g id="line2d_2">
      <g>
       <use xlink:href="#mf055336c14" x="158.04031" y="389.02" style="stroke: #000000; stroke-width: 0.8"/>
      </g>
     </g>
     <g id="text_2">
      <!-- 2016-07 -->
      <g transform="translate(140.54031 402.895) scale(0.1 -0.1)">
       <defs>
        <path id="SimHei-37" d="M 850 150 
Q 1300 2050 2425 3925 
L 275 3925 
L 275 4375 
L 2950 4375 
L 2950 3950 
Q 1775 2050 1400 150 
L 850 150 
z
" transform="scale(0.015625)"/>
       </defs>
       <use xlink:href="#SimHei-32"/>
       <use xlink:href="#SimHei-30" x="50"/>
       <use xlink:href="#SimHei-31" x="100"/>
       <use xlink:href="#SimHei-36" x="150"/>
       <use xlink:href="#SimHei-2d" x="200"/>
       <use xlink:href="#SimHei-30" x="250"/>
       <use xlink:href="#SimHei-37" x="300"/>
      </g>
     </g>
    </g>
    <g id="xtick_3">
     <g id="line2d_3">
      <g>
       <use xlink:href="#mf055336c14" x="242.095175" y="389.02" style="stroke: #000000; stroke-width: 0.8"/>
      </g>
     </g>
     <g id="text_3">
      <!-- 2017-01 -->
      <g transform="translate(224.595175 402.895) scale(0.1 -0.1)">
       <use xlink:href="#SimHei-32"/>
       <use xlink:href="#SimHei-30" x="50"/>
       <use xlink:href="#SimHei-31" x="100"/>
       <use xlink:href="#SimHei-37" x="150"/>
       <use xlink:href="#SimHei-2d" x="200"/>
       <use xlink:href="#SimHei-30" x="250"/>
       <use xlink:href="#SimHei-31" x="300"/>
      </g>
     </g>
    </g>
    <g id="xtick_4">
     <g id="line2d_4">
      <g>
       <use xlink:href="#mf055336c14" x="324.779579" y="389.02" style="stroke: #000000; stroke-width: 0.8"/>
      </g>
     </g>
     <g id="text_4">
      <!-- 2017-07 -->
      <g transform="translate(307.279579 402.895) scale(0.1 -0.1)">
       <use xlink:href="#SimHei-32"/>
       <use xlink:href="#SimHei-30" x="50"/>
       <use xlink:href="#SimHei-31" x="100"/>
       <use xlink:href="#SimHei-37" x="150"/>
       <use xlink:href="#SimHei-2d" x="200"/>
       <use xlink:href="#SimHei-30" x="250"/>
       <use xlink:href="#SimHei-37" x="300"/>
      </g>
     </g>
    </g>
    <g id="xtick_5">
     <g id="line2d_5">
      <g>
       <use xlink:href="#mf055336c14" x="408.834444" y="389.02" style="stroke: #000000; stroke-width: 0.8"/>
      </g>
     </g>
     <g id="text_5">
      <!-- 2018-01 -->
      <g transform="translate(391.334444 402.895) scale(0.1 -0.1)">
       <defs>
        <path id="SimHei-38" d="M 175 1375 
Q 175 1675 325 1962 
Q 475 2250 825 2425 
Q 525 2600 425 2812 
Q 325 3025 312 3300 
Q 300 3575 387 3775 
Q 475 3975 650 4150 
Q 825 4325 1037 4387 
Q 1250 4450 1500 4450 
Q 1750 4450 1950 4400 
Q 2150 4350 2375 4187 
Q 2600 4025 2700 3725 
Q 2800 3425 2687 3025 
Q 2575 2625 2100 2400 
Q 2525 2275 2700 2012 
Q 2875 1750 2875 1375 
Q 2875 1000 2762 775 
Q 2650 550 2512 400 
Q 2375 250 2137 162 
Q 1900 75 1537 75 
Q 1175 75 912 162 
Q 650 250 475 425 
Q 300 600 237 837 
Q 175 1075 175 1375 
z
M 687 1400 
Q 675 1100 787 875 
Q 900 650 1200 587 
Q 1500 525 1825 600 
Q 2150 675 2275 950 
Q 2400 1225 2362 1500 
Q 2325 1775 2050 1962 
Q 1775 2150 1450 2125 
Q 1125 2100 912 1900 
Q 700 1700 687 1400 
z
M 775 3350 
Q 775 3100 950 2875 
Q 1125 2650 1500 2650 
Q 1875 2650 2062 2875 
Q 2250 3100 2237 3412 
Q 2225 3725 2012 3875 
Q 1800 4025 1437 4000 
Q 1075 3975 925 3787 
Q 775 3600 775 3350 
z
" transform="scale(0.015625)"/>
       </defs>
       <use xlink:href="#SimHei-32"/>
       <use xlink:href="#SimHei-30" x="50"/>
       <use xlink:href="#SimHei-31" x="100"/>
       <use xlink:href="#SimHei-38" x="150"/>
       <use xlink:href="#SimHei-2d" x="200"/>
       <use xlink:href="#SimHei-30" x="250"/>
       <use xlink:href="#SimHei-31" x="300"/>
      </g>
     </g>
    </g>
    <g id="xtick_6">
     <g id="line2d_6">
      <g>
       <use xlink:href="#mf055336c14" x="491.518849" y="389.02" style="stroke: #000000; stroke-width: 0.8"/>
      </g>
     </g>
     <g id="text_6">
      <!-- 2018-07 -->
      <g transform="translate(474.018849 402.895) scale(0.1 -0.1)">
       <use xlink:href="#SimHei-32"/>
       <use xlink:href="#SimHei-30" x="50"/>
       <use xlink:href="#SimHei-31" x="100"/>
       <use xlink:href="#SimHei-38" x="150"/>
       <use xlink:href="#SimHei-2d" x="200"/>
       <use xlink:href="#SimHei-30" x="250"/>
       <use xlink:href="#SimHei-37" x="300"/>
      </g>
     </g>
    </g>
    <g id="xtick_7">
     <g id="line2d_7">
      <g>
       <use xlink:href="#mf055336c14" x="575.573713" y="389.02" style="stroke: #000000; stroke-width: 0.8"/>
      </g>
     </g>
     <g id="text_7">
      <!-- 2019-01 -->
      <g transform="translate(558.073713 402.895) scale(0.1 -0.1)">
       <defs>
        <path id="SimHei-39" d="M 800 75 
Q 1350 1000 1700 1750 
Q 1075 1650 662 1912 
Q 250 2175 162 2625 
Q 75 3075 175 3437 
Q 275 3800 487 4037 
Q 700 4275 1000 4375 
Q 1300 4475 1537 4475 
Q 1775 4475 2025 4375 
Q 2275 4275 2475 4075 
Q 2675 3875 2750 3662 
Q 2825 3450 2825 3112 
Q 2825 2775 2575 2250 
Q 2325 1725 1350 75 
L 800 75 
z
M 662 2875 
Q 700 2550 937 2337 
Q 1175 2125 1450 2150 
Q 1725 2175 1887 2300 
Q 2050 2425 2200 2725 
Q 2300 3100 2250 3362 
Q 2200 3625 1987 3800 
Q 1775 3975 1525 3975 
Q 1375 4000 1137 3900 
Q 900 3800 762 3500 
Q 625 3200 662 2875 
z
" transform="scale(0.015625)"/>
       </defs>
       <use xlink:href="#SimHei-32"/>
       <use xlink:href="#SimHei-30" x="50"/>
       <use xlink:href="#SimHei-31" x="100"/>
       <use xlink:href="#SimHei-39" x="150"/>
       <use xlink:href="#SimHei-2d" x="200"/>
       <use xlink:href="#SimHei-30" x="250"/>
       <use xlink:href="#SimHei-31" x="300"/>
      </g>
     </g>
    </g>
    <g id="xtick_8">
     <g id="line2d_8">
      <g>
       <use xlink:href="#mf055336c14" x="658.258118" y="389.02" style="stroke: #000000; stroke-width: 0.8"/>
      </g>
     </g>
     <g id="text_8">
      <!-- 2019-07 -->
      <g transform="translate(640.758118 402.895) scale(0.1 -0.1)">
       <use xlink:href="#SimHei-32"/>
       <use xlink:href="#SimHei-30" x="50"/>
       <use xlink:href="#SimHei-31" x="100"/>
       <use xlink:href="#SimHei-39" x="150"/>
       <use xlink:href="#SimHei-2d" x="200"/>
       <use xlink:href="#SimHei-30" x="250"/>
       <use xlink:href="#SimHei-37" x="300"/>
      </g>
     </g>
    </g>
    <g id="text_9">
     <!-- Date -->
     <g transform="translate(365.715 415.02) scale(0.1 -0.1)">
      <defs>
       <path id="SimHei-44" d="M 2925 2250 
Q 2925 1100 2437 612 
Q 1950 125 1125 125 
L 275 125 
L 275 4400 
L 1125 4400 
Q 2050 4400 2487 3900 
Q 2925 3400 2925 2250 
z
M 2325 2250 
Q 2325 3175 2025 3550 
Q 1725 3925 1125 3925 
L 850 3925 
L 850 600 
L 1125 600 
Q 1725 600 2025 962 
Q 2325 1325 2325 2250 
z
" transform="scale(0.015625)"/>
       <path id="SimHei-61" d="M 2875 125 
L 2275 125 
Q 2225 175 2200 262 
Q 2175 350 2175 475 
Q 2000 275 1750 175 
Q 1500 75 1225 75 
Q 825 75 550 275 
Q 275 475 275 850 
Q 275 1225 525 1450 
Q 775 1675 1300 1750 
Q 1650 1800 1912 1875 
Q 2175 1950 2175 2075 
Q 2175 2225 2062 2375 
Q 1950 2525 1575 2525 
Q 1275 2525 1137 2412 
Q 1000 2300 950 2100 
L 400 2100 
Q 450 2500 762 2737 
Q 1075 2975 1575 2975 
Q 2125 2975 2400 2725 
Q 2675 2475 2675 2025 
L 2675 650 
Q 2675 500 2725 375 
Q 2775 250 2875 125 
z
M 2175 1050 
L 2175 1550 
Q 2025 1500 1887 1462 
Q 1750 1425 1425 1375 
Q 1050 1325 937 1200 
Q 825 1075 825 900 
Q 825 750 937 637 
Q 1050 525 1275 525 
Q 1500 525 1762 650 
Q 2025 775 2175 1050 
z
" transform="scale(0.015625)"/>
       <path id="SimHei-74" d="M 2750 200 
Q 2625 150 2462 112 
Q 2300 75 2025 75 
Q 1575 75 1300 325 
Q 1025 575 1025 1025 
L 1025 2525 
L 175 2525 
L 175 2925 
L 1025 2925 
L 1025 3900 
L 1525 3900 
L 1525 2925 
L 2550 2925 
L 2550 2525 
L 1525 2525 
L 1525 1000 
Q 1525 800 1625 662 
Q 1725 525 2000 525 
Q 2275 525 2450 575 
Q 2625 625 2750 700 
L 2750 200 
z
" transform="scale(0.015625)"/>
       <path id="SimHei-65" d="M 2850 1075 
Q 2800 625 2450 350 
Q 2100 75 1625 75 
Q 1025 75 637 462 
Q 250 850 250 1525 
Q 250 2200 637 2587 
Q 1025 2975 1625 2975 
Q 2150 2975 2487 2637 
Q 2825 2300 2825 1525 
L 800 1525 
Q 800 975 1037 750 
Q 1275 525 1625 525 
Q 1900 525 2075 662 
Q 2250 800 2300 1075 
L 2850 1075 
z
M 2250 1925 
Q 2200 2275 2025 2412 
Q 1850 2550 1575 2550 
Q 1325 2550 1125 2412 
Q 925 2275 825 1925 
L 2250 1925 
z
" transform="scale(0.015625)"/>
      </defs>
      <use xlink:href="#SimHei-44"/>
      <use xlink:href="#SimHei-61" x="50"/>
      <use xlink:href="#SimHei-74" x="100"/>
      <use xlink:href="#SimHei-65" x="150"/>
     </g>
    </g>
   </g>
   <g id="matplotlib.axis_2">
    <g id="ytick_1">
     <g id="line2d_9">
      <defs>
       <path id="ma09a03b9a6" d="M 0 0 
L -3.5 0 
" style="stroke: #000000; stroke-width: 0.8"/>
      </defs>
      <g>
       <use xlink:href="#ma09a03b9a6" x="46.325" y="331.244092" style="stroke: #000000; stroke-width: 0.8"/>
      </g>
     </g>
     <g id="text_10">
      <!-- 2600 -->
      <g transform="translate(19.325 334.681592) scale(0.1 -0.1)">
       <use xlink:href="#SimHei-32"/>
       <use xlink:href="#SimHei-36" x="50"/>
       <use xlink:href="#SimHei-30" x="100"/>
       <use xlink:href="#SimHei-30" x="150"/>
      </g>
     </g>
    </g>
    <g id="ytick_2">
     <g id="line2d_10">
      <g>
       <use xlink:href="#ma09a03b9a6" x="46.325" y="270.612766" style="stroke: #000000; stroke-width: 0.8"/>
      </g>
     </g>
     <g id="text_11">
      <!-- 2800 -->
      <g transform="translate(19.325 274.050266) scale(0.1 -0.1)">
       <use xlink:href="#SimHei-32"/>
       <use xlink:href="#SimHei-38" x="50"/>
       <use xlink:href="#SimHei-30" x="100"/>
       <use xlink:href="#SimHei-30" x="150"/>
      </g>
     </g>
    </g>
    <g id="ytick_3">
     <g id="line2d_11">
      <g>
       <use xlink:href="#ma09a03b9a6" x="46.325" y="209.981439" style="stroke: #000000; stroke-width: 0.8"/>
      </g>
     </g>
     <g id="text_12">
      <!-- 3000 -->
      <g transform="translate(19.325 213.418939) scale(0.1 -0.1)">
       <defs>
        <path id="SimHei-33" d="M 250 1225 
L 700 1300 
Q 800 975 1025 762 
Q 1250 550 1587 562 
Q 1925 575 2125 837 
Q 2325 1100 2300 1437 
Q 2275 1775 2037 1962 
Q 1800 2150 1275 2225 
L 1275 2550 
Q 1800 2600 2037 2825 
Q 2275 3050 2250 3412 
Q 2225 3775 1925 3937 
Q 1625 4100 1287 3975 
Q 950 3850 750 3275 
L 300 3350 
Q 450 3800 712 4100 
Q 975 4400 1425 4450 
Q 1875 4500 2212 4337 
Q 2550 4175 2687 3837 
Q 2825 3500 2725 3100 
Q 2625 2700 2150 2400 
Q 2500 2250 2687 1950 
Q 2875 1650 2812 1162 
Q 2750 675 2375 375 
Q 2000 75 1525 87 
Q 1050 100 700 387 
Q 350 675 250 1225 
z
" transform="scale(0.015625)"/>
       </defs>
       <use xlink:href="#SimHei-33"/>
       <use xlink:href="#SimHei-30" x="50"/>
       <use xlink:href="#SimHei-30" x="100"/>
       <use xlink:href="#SimHei-30" x="150"/>
      </g>
     </g>
    </g>
    <g id="ytick_4">
     <g id="line2d_12">
      <g>
       <use xlink:href="#ma09a03b9a6" x="46.325" y="149.350112" style="stroke: #000000; stroke-width: 0.8"/>
      </g>
     </g>
     <g id="text_13">
      <!-- 3200 -->
      <g transform="translate(19.325 152.787612) scale(0.1 -0.1)">
       <use xlink:href="#SimHei-33"/>
       <use xlink:href="#SimHei-32" x="50"/>
       <use xlink:href="#SimHei-30" x="100"/>
       <use xlink:href="#SimHei-30" x="150"/>
      </g>
     </g>
    </g>
    <g id="ytick_5">
     <g id="line2d_13">
      <g>
       <use xlink:href="#ma09a03b9a6" x="46.325" y="88.718786" style="stroke: #000000; stroke-width: 0.8"/>
      </g>
     </g>
     <g id="text_14">
      <!-- 3400 -->
      <g transform="translate(19.325 92.156286) scale(0.1 -0.1)">
       <defs>
        <path id="SimHei-34" d="M 2000 1100 
L 75 1100 
L 75 1525 
L 2100 4450 
L 2475 4450 
L 2475 1525 
L 3075 1525 
L 3075 1100 
L 2475 1100 
L 2475 150 
L 2000 150 
L 2000 1100 
z
M 2000 1525 
L 2000 3500 
L 600 1525 
L 2000 1525 
z
" transform="scale(0.015625)"/>
       </defs>
       <use xlink:href="#SimHei-33"/>
       <use xlink:href="#SimHei-34" x="50"/>
       <use xlink:href="#SimHei-30" x="100"/>
       <use xlink:href="#SimHei-30" x="150"/>
      </g>
     </g>
    </g>
    <g id="ytick_6">
     <g id="line2d_14">
      <g>
       <use xlink:href="#ma09a03b9a6" x="46.325" y="28.087459" style="stroke: #000000; stroke-width: 0.8"/>
      </g>
     </g>
     <g id="text_15">
      <!-- 3600 -->
      <g transform="translate(19.325 31.524959) scale(0.1 -0.1)">
       <use xlink:href="#SimHei-33"/>
       <use xlink:href="#SimHei-36" x="50"/>
       <use xlink:href="#SimHei-30" x="100"/>
       <use xlink:href="#SimHei-30" x="150"/>
      </g>
     </g>
    </g>
    <g id="text_16">
     <!-- Value -->
     <g transform="translate(14.075 218.2975) rotate(-90) scale(0.1 -0.1)">
      <defs>
       <path id="SimHei-56" d="M 3050 4400 
L 1800 75 
L 1300 75 
L 50 4400 
L 650 4400 
L 1525 1125 
L 1575 1125 
L 2450 4400 
L 3050 4400 
z
" transform="scale(0.015625)"/>
       <path id="SimHei-6c" d="M 1825 125 
L 1325 125 
L 1325 4400 
L 1825 4400 
L 1825 125 
z
" transform="scale(0.015625)"/>
       <path id="SimHei-75" d="M 2800 125 
L 2300 125 
L 2300 650 
Q 2100 375 1862 225 
Q 1625 75 1250 75 
Q 800 75 575 325 
Q 350 575 350 950 
L 350 2925 
L 850 2925 
L 850 1125 
Q 850 825 1000 650 
Q 1150 475 1400 475 
Q 1725 475 2012 812 
Q 2300 1150 2300 1650 
L 2300 2925 
L 2800 2925 
L 2800 125 
z
" transform="scale(0.015625)"/>
      </defs>
      <use xlink:href="#SimHei-56"/>
      <use xlink:href="#SimHei-61" x="50"/>
      <use xlink:href="#SimHei-6c" x="100"/>
      <use xlink:href="#SimHei-75" x="150"/>
      <use xlink:href="#SimHei-65" x="200"/>
     </g>
    </g>
   </g>
   <g id="line2d_15">
    <path d="M 76.269545 120.168861 
L 76.726365 122.759941 
L 77.183185 100.287243 
L 77.640005 172.086253 
L 78.096825 153.469405 
L 79.467285 204.91751 
L 79.924105 203.050975 
L 80.380925 225.261443 
L 80.837745 207.662594 
L 81.294565 240.00304 
L 82.665024 236.102415 
L 83.121844 207.635219 
L 83.578664 217.046868 
L 84.035484 246.214235 
L 84.492304 235.276101 
L 85.862764 228.621055 
L 86.319584 285.835655 
L 86.776404 290.148846 
L 87.233223 314.370121 
L 87.690043 289.529861 
L 89.060503 304.307534 
L 89.517323 285.900864 
L 89.974143 289.030471 
L 90.430963 276.36586 
L 90.887783 281.680408 
L 95.455982 286.923866 
L 95.912802 259.526176 
L 96.369622 250.198834 
L 96.826442 251.546426 
L 97.283262 252.417062 
L 98.653721 232.058821 
L 99.110541 239.287196 
L 99.567361 231.537088 
L 100.024181 288.424612 
L 100.481001 280.553362 
L 101.851461 304.572735 
L 102.308281 290.872723 
L 102.765101 255.551611 
L 103.22192 252.496671 
L 103.67874 248.134671 
L 105.0492 241.10365 
L 105.50602 239.876624 
L 105.96284 251.648499 
L 106.41966 269.180199 
L 106.87648 267.488009 
L 108.24694 252.575249 
L 109.160579 249.261444 
L 109.617399 238.83228 
L 110.074219 223.578074 
L 111.444679 204.281579 
L 111.901499 210.17461 
L 112.358319 206.961878 
L 112.815139 221.813521 
L 113.271959 216.216067 
L 114.642418 222.768586 
L 115.099238 234.28496 
L 115.556058 209.785933 
L 116.012878 208.79452 
L 116.469698 207.092417 
L 118.296978 193.894311 
L 118.753798 194.644138 
L 119.210618 207.42886 
L 119.667437 214.54146 
L 121.037897 199.687149 
L 121.494717 202.812876 
L 121.951537 189.779657 
L 122.408357 185.013004 
L 122.865177 186.299873 
L 124.235637 199.777065 
L 124.692456 196.999302 
L 125.149276 218.292872 
L 125.606096 224.262814 
L 126.062916 222.338103 
L 127.433376 226.148661 
L 127.890196 220.682959 
L 128.347016 224.026413 
L 129.260656 228.679079 
L 131.087935 212.211702 
L 131.544755 212.62736 
L 132.001575 210.635772 
L 132.458395 236.281004 
L 133.828855 260.877648 
L 134.285675 260.732527 
L 134.742495 259.384693 
L 135.199315 259.741023 
L 135.656134 262.394583 
L 137.026594 255.193704 
L 137.483414 257.369641 
L 137.940234 268.334816 
L 138.397054 268.519135 
L 138.853874 262.887395 
L 140.224334 257.381494 
L 140.681154 264.044483 
L 141.137973 266.039254 
L 141.594793 263.809052 
L 142.051613 264.232531 
L 143.422073 263.806626 
L 143.878893 235.259852 
L 144.335713 236.202153 
L 145.249353 228.570397 
L 146.619812 229.960098 
L 147.076632 229.369852 
L 147.533452 232.063671 
L 149.817552 260.587163 
L 150.274372 257.823012 
L 150.731192 244.174445 
L 151.188012 248.53793 
L 151.644831 244.81262 
L 153.015291 243.689698 
L 153.472111 246.797538 
L 153.928931 238.614734 
L 154.385751 242.734421 
L 154.842571 254.155483 
L 156.669851 236.490243 
L 157.12667 230.719687 
L 157.58349 231.321938 
L 158.04031 230.451848 
L 159.86759 208.043692 
L 160.32441 204.739133 
L 160.78123 204.87425 
L 161.23805 213.590852 
L 162.608509 211.522475 
L 163.065329 195.011261 
L 163.522149 191.583075 
L 163.978969 193.605463 
L 164.435789 193.521246 
L 165.806249 196.774632 
L 166.719889 201.52352 
L 167.176709 198.155571 
L 167.633529 206.096274 
L 169.003988 205.183136 
L 169.460808 194.773253 
L 169.917628 212.406965 
L 170.374448 211.702338 
L 170.831268 216.245019 
L 172.201728 224.112964 
L 172.658548 218.688491 
L 173.115368 216.51119 
L 173.572187 215.309083 
L 174.029007 217.04614 
L 175.399467 208.684929 
L 175.856287 202.196225 
L 176.313107 204.298495 
L 176.769927 209.181833 
L 177.226747 194.62128 
L 178.597207 172.027684 
L 179.054026 176.623023 
L 179.510846 176.769144 
L 179.967666 178.41865 
L 180.424486 177.2096 
L 181.794946 184.27221 
L 182.251766 182.786621 
L 182.708586 183.946226 
L 183.165406 189.266928 
L 183.622226 188.66686 
L 184.992685 188.752198 
L 185.449505 187.342672 
L 185.906325 184.064275 
L 186.363145 190.789987 
L 186.819965 189.563233 
L 188.190425 188.12527 
L 188.647245 182.481282 
L 189.104065 182.112826 
L 189.560884 180.892256 
L 190.017704 186.076083 
L 191.388164 203.318935 
L 191.844984 202.854378 
L 192.301804 209.117867 
L 194.585904 202.083814 
L 195.042723 203.008988 
L 195.499543 202.137685 
L 195.956363 197.153912 
L 196.413183 199.705763 
L 197.783643 215.914366 
L 198.240463 210.535518 
L 198.697283 213.662488 
L 199.154103 210.441418 
L 199.610923 208.555693 
L 204.179122 195.38663 
L 204.635942 190.200559 
L 205.092762 192.247352 
L 206.006401 190.637439 
L 207.376861 197.501602 
L 207.833681 184.554146 
L 208.290501 184.298342 
L 208.747321 184.377527 
L 209.204141 182.412011 
L 210.574601 171.102601 
L 211.03142 169.983407 
L 211.48824 174.720715 
L 211.94506 175.921852 
L 212.40188 178.371206 
L 213.77234 179.516622 
L 214.22916 172.864275 
L 214.68598 178.83737 
L 215.1428 170.893756 
L 215.59962 171.99085 
L 216.970079 169.560777 
L 217.426899 165.148362 
L 217.883719 171.065161 
L 218.340539 158.056164 
L 218.797359 150.549521 
L 220.167819 146.206075 
L 220.624639 147.232321 
L 221.081459 147.816988 
L 221.538279 146.787681 
L 221.995098 151.515893 
L 223.365558 143.848517 
L 223.822378 134.691974 
L 224.279198 136.879279 
L 224.736018 136.697597 
L 225.192838 130.573257 
L 227.020118 124.211212 
L 227.476937 134.181852 
L 227.933757 127.125912 
L 228.390577 136.058755 
L 229.761037 147.922487 
L 230.217857 149.457036 
L 230.674677 142.607454 
L 231.131497 144.691868 
L 231.588317 139.381291 
L 232.958776 163.607447 
L 233.415596 162.980823 
L 233.872416 167.378595 
L 234.329236 174.306876 
L 234.786056 172.698781 
L 236.156516 174.183309 
L 236.613336 178.793927 
L 237.070156 168.318714 
L 237.526976 167.673505 
L 237.983796 176.587402 
L 239.354255 172.823833 
L 239.811075 175.220287 
L 240.267895 178.988008 
L 240.724715 180.849056 
L 241.181535 178.563104 
L 243.008815 168.776147 
L 243.465634 161.841984 
L 243.922454 159.836027 
L 244.379274 163.198004 
L 245.749734 158.070049 
L 246.206554 160.969712 
L 246.663374 168.523708 
L 247.120194 173.818308 
L 247.577014 175.796163 
L 248.947473 178.626555 
L 249.861113 175.72101 
L 250.317933 179.271914 
L 250.774753 172.651065 
L 252.145213 168.517251 
L 253.058853 164.64294 
L 253.515673 161.72921 
L 257.170232 167.487974 
L 258.540692 162.390759 
L 258.997512 163.571857 
L 260.367971 150.350832 
L 261.738431 144.245136 
L 262.195251 143.91512 
L 262.652071 145.413411 
L 263.108891 140.371098 
L 263.565711 148.72088 
L 265.39299 133.184073 
L 265.84981 130.791348 
L 266.30663 133.77544 
L 266.76345 133.151635 
L 268.13391 140.661582 
L 268.59073 136.698446 
L 269.04755 135.12191 
L 269.50437 140.246894 
L 269.96119 143.798769 
L 271.331649 139.083501 
L 271.788469 136.494361 
L 272.245289 137.022369 
L 272.702109 144.273542 
L 273.158929 145.481803 
L 274.529389 138.12592 
L 275.443029 136.690382 
L 275.899848 128.451888 
L 276.356668 137.997775 
L 277.727128 133.947269 
L 278.183948 130.672389 
L 278.640768 135.64143 
L 279.097588 134.632009 
L 279.554408 128.297369 
L 280.924868 129.052199 
L 281.838507 136.825378 
L 282.295327 146.246728 
L 282.752147 142.524783 
L 285.493067 124.793 
L 285.949887 123.091897 
L 287.320346 128.313285 
L 287.777166 122.37957 
L 288.233986 126.968028 
L 288.690806 126.322243 
L 289.147626 135.384656 
L 290.518086 142.629948 
L 291.431726 158.236634 
L 292.345365 157.489504 
L 293.715825 170.713196 
L 294.629465 167.282706 
L 295.086285 163.844971 
L 295.543105 163.095719 
L 297.370385 166.414162 
L 298.284024 171.368773 
L 298.740844 178.744846 
L 300.111304 186.149417 
L 300.568124 185.569175 
L 301.024944 193.979316 
L 301.481764 191.337215 
L 301.938584 184.663858 
L 303.309043 182.627949 
L 303.765863 175.735592 
L 304.222683 178.319305 
L 304.679503 182.655203 
L 305.136323 182.50608 
L 306.506783 187.039879 
L 306.963603 191.201795 
L 307.420423 190.556405 
L 307.877243 177.291726 
L 308.334062 176.616414 
L 310.618162 174.458212 
L 311.074982 178.870535 
L 311.531802 177.986288 
L 312.902262 182.195284 
L 313.359082 179.021265 
L 313.815901 167.441015 
L 314.729541 161.961307 
L 316.100001 167.57692 
L 316.556821 163.373259 
L 317.013641 170.366749 
L 317.470461 169.817338 
L 317.927281 172.642788 
L 319.29774 166.213533 
L 319.75456 167.535387 
L 320.21138 162.624795 
L 320.6682 165.280023 
L 321.12502 162.121192 
L 322.49548 153.76289 
L 322.9523 152.01883 
L 323.40912 157.474286 
L 323.86594 152.969045 
L 324.32276 151.645948 
L 325.693219 150.589538 
L 326.150039 154.563224 
L 326.606859 147.187332 
L 327.520499 143.906419 
L 328.890959 145.520668 
L 329.347779 148.429274 
L 329.804599 150.094695 
L 330.261418 143.843818 
L 330.718238 142.554311 
L 332.088698 156.484964 
L 332.545518 153.119198 
L 333.002338 139.959472 
L 333.459158 135.749081 
L 333.915978 137.835708 
L 335.286437 134.01072 
L 335.743257 136.105381 
L 336.200077 134.89718 
L 336.656897 134.258551 
L 337.113717 133.209932 
L 338.484177 127.211099 
L 338.940997 121.266197 
L 339.397817 123.564579 
L 340.311457 130.529876 
L 341.681916 125.262317 
L 342.138736 124.52983 
L 342.595556 126.439656 
L 343.052376 130.630372 
L 343.509196 146.76076 
L 344.879656 138.02412 
L 345.336476 133.809788 
L 345.793296 135.268123 
L 346.250115 128.605164 
L 346.706935 128.515885 
L 348.077395 123.004133 
L 348.534215 121.997593 
L 348.991035 122.76179 
L 349.447855 127.670866 
L 349.904675 109.478315 
L 351.275135 100.041261 
L 351.731954 99.260724 
L 352.188774 99.745623 
L 352.645594 100.599403 
L 353.102414 98.686758 
L 354.929694 93.473191 
L 355.386514 93.148268 
L 355.843334 99.178478 
L 356.300154 99.255722 
L 358.584253 93.524728 
L 359.041073 97.381304 
L 359.497893 102.779433 
L 360.868353 99.978417 
L 361.325173 101.801631 
L 361.781993 99.027354 
L 362.238812 101.508267 
L 362.695632 103.109813 
L 364.066092 106.438685 
L 364.979732 105.310033 
L 365.436552 107.016683 
L 365.893372 104.197023 
L 370.461571 96.486234 
L 370.918391 93.876116 
L 371.375211 92.270629 
L 371.832031 92.932663 
L 372.288851 91.59171 
L 373.65931 95.245627 
L 374.11613 97.194833 
L 374.57295 94.238146 
L 375.02977 97.761311 
L 375.48659 95.191756 
L 376.85705 94.570012 
L 377.77069 89.659329 
L 378.684329 83.621995 
L 380.054789 91.648158 
L 380.968429 89.957938 
L 381.882069 97.284749 
L 383.252529 92.303855 
L 383.709349 84.603495 
L 384.166168 84.031923 
L 384.622988 80.292668 
L 386.450268 74.217045 
L 386.907088 79.761053 
L 387.363908 87.953467 
L 387.820728 88.946062 
L 388.277548 93.90049 
L 389.648007 91.02314 
L 390.561647 79.483331 
L 391.018467 103.295102 
L 391.475287 102.718347 
L 392.845747 112.295338 
L 393.302567 108.831106 
L 393.759387 107.556332 
L 394.216207 113.823671 
L 394.673026 113.693617 
L 396.043486 116.118597 
L 396.500306 117.920318 
L 396.957126 120.86406 
L 397.413946 127.506404 
L 397.870766 122.068319 
L 399.241226 112.305705 
L 399.698046 124.850933 
L 400.154865 118.113671 
L 400.611685 121.326768 
L 401.068505 129.300212 
L 402.438965 128.758986 
L 402.895785 120.083856 
L 403.352605 122.791863 
L 403.809425 119.016472 
L 404.266245 119.92482 
L 405.636704 124.957826 
L 406.093524 117.177736 
L 406.550344 126.376054 
L 407.007164 120.130451 
L 409.291264 104.384132 
L 410.204904 93.050833 
L 412.032183 85.845012 
L 412.489003 84.50503 
L 412.945823 82.099573 
L 413.859463 79.94522 
L 415.229923 85.539218 
L 415.686743 77.625072 
L 416.143563 75.176385 
L 416.600382 66.056615 
L 417.057202 62.082231 
L 418.427662 57.990162 
L 418.884482 44.304884 
L 419.341302 40.375822 
L 419.798122 43.758535 
L 420.254942 40.780991 
L 421.625401 51.430307 
L 422.082221 62.038273 
L 422.539041 64.213604 
L 422.995861 74.476517 
L 423.452681 69.898579 
L 424.823141 62.19349 
L 425.279961 97.615826 
L 426.193601 130.539122 
L 426.650421 170.616307 
L 428.02088 163.257301 
L 428.4777 153.909982 
L 428.93452 149.605097 
L 432.589079 128.566027 
L 433.045899 122.361866 
L 434.416359 110.068986 
L 435.329999 131.340183 
L 435.786819 126.990825 
L 436.243639 132.819496 
L 437.614099 132.092527 
L 438.070918 122.174576 
L 438.527738 127.623392 
L 439.441378 116.86215 
L 440.811838 110.940409 
L 441.725478 121.647083 
L 442.182298 121.728905 
L 442.639118 128.16489 
L 444.009577 125.324434 
L 444.466397 121.872025 
L 444.923217 124.808946 
L 445.380037 130.105638 
L 445.836857 163.670989 
L 447.207317 169.442788 
L 447.664137 159.46075 
L 448.120957 172.908566 
L 448.577777 161.315523 
L 449.034596 158.779314 
L 450.405056 160.512643 
L 450.861876 168.560178 
L 451.318696 170.234148 
L 453.602796 168.056817 
L 454.059615 152.284183 
L 454.516435 146.900061 
L 454.973255 155.365255 
L 455.430075 161.76374 
L 456.800535 176.437491 
L 457.257355 189.731576 
L 458.170995 174.398126 
L 458.627815 188.292855 
L 459.998274 189.36315 
L 460.455094 170.896333 
L 460.911914 174.216869 
L 461.368734 187.235566 
L 461.825554 185.052384 
L 464.109654 185.372002 
L 464.566474 179.405485 
L 465.023293 182.38406 
L 466.393753 168.556661 
L 466.850573 161.02237 
L 467.307393 161.734 
L 467.764213 157.107072 
L 468.221033 160.487117 
L 469.591493 157.222484 
L 470.048313 151.739502 
L 470.505132 158.576624 
L 470.961952 163.209676 
L 471.418772 151.380231 
L 472.789232 145.154303 
L 473.246052 144.999905 
L 473.702872 158.758821 
L 474.616512 167.144436 
L 475.986971 169.030404 
L 476.443791 173.463039 
L 476.900611 197.417597 
L 477.357431 181.037953 
L 477.814251 187.203098 
L 479.184711 182.336313 
L 479.641531 175.359284 
L 480.098351 175.063767 
L 480.555171 176.786151 
L 481.01199 189.625138 
L 482.38245 193.979892 
L 482.83927 185.788994 
L 483.29609 194.8853 
L 483.75291 196.594133 
L 484.20973 203.342066 
L 486.03701 237.925781 
L 486.493829 235.528024 
L 486.950649 247.630491 
L 487.407469 243.401335 
L 488.777929 252.624542 
L 489.234749 257.11984 
L 490.148389 274.585148 
L 490.605209 256.237654 
L 491.975668 278.022823 
L 492.432488 274.587816 
L 493.346128 290.656906 
L 493.802948 286.610796 
L 495.173408 266.03222 
L 495.630228 262.238003 
L 496.087048 277.351604 
L 496.543868 259.196311 
L 497.000688 261.15922 
L 498.371147 266.355901 
L 498.827967 271.180911 
L 499.284787 274.475891 
L 499.741607 278.93581 
L 500.198427 261.739007 
L 501.568887 252.562092 
L 502.025707 238.611006 
L 502.482527 239.191581 
L 502.939346 245.68559 
L 503.396166 248.302317 
L 504.766626 249.679952 
L 505.223446 247.451326 
L 506.137086 280.306532 
L 506.593906 288.667895 
L 507.964366 299.365202 
L 508.421185 276.865674 
L 508.878005 287.568437 
L 509.334825 272.31596 
L 509.791645 272.0346 
L 511.162105 274.895762 
L 511.618925 276.383473 
L 512.075745 293.877733 
L 512.532565 299.354531 
L 512.989385 310.336592 
L 514.359844 301.393532 
L 514.816664 290.673731 
L 515.273484 296.499856 
L 515.730304 293.463379 
L 516.187124 292.006287 
L 517.557584 276.40336 
L 518.014404 277.288032 
L 518.471224 279.921281 
L 518.928043 289.488298 
L 519.384863 293.273754 
L 520.755323 294.642658 
L 521.212143 285.594645 
L 521.668963 299.613699 
L 522.125783 303.477097 
L 522.582603 300.230956 
L 523.953063 310.179405 
L 524.409882 311.599633 
L 524.866702 314.233943 
L 525.323522 304.997276 
L 525.780342 306.493445 
L 527.150802 315.544035 
L 527.607622 300.943556 
L 528.064442 291.575956 
L 528.521262 292.062977 
L 528.978082 271.375265 
L 530.805361 276.330754 
L 531.262181 268.547268 
L 531.719001 273.106289 
L 532.175821 264.140341 
L 536.74402 295.923192 
L 537.65766 293.095862 
L 538.11448 336.259061 
L 538.5713 329.148522 
L 539.94176 340.915274 
L 540.39858 347.51463 
L 540.855399 342.881063 
L 541.312219 365.677047 
L 541.769039 346.260895 
L 543.139499 314.608008 
L 543.596319 332.812776 
L 544.053139 330.245161 
L 544.509959 330.092249 
L 544.966779 331.593692 
L 546.337238 348.795861 
L 546.794058 340.930523 
L 547.250878 330.400347 
L 547.707698 329.353244 
L 548.164518 308.059825 
L 549.534978 311.408372 
L 549.991798 313.249806 
L 550.448618 318.710991 
L 550.905438 320.441954 
L 551.362257 331.586204 
L 552.732717 321.991903 
L 553.189537 314.607008 
L 553.646357 321.469564 
L 554.103177 310.577783 
L 554.559997 307.261462 
L 555.930457 299.863864 
L 556.387277 317.342996 
L 556.844096 315.629919 
L 557.300916 317.470504 
L 557.757736 337.463927 
L 559.585016 338.920261 
L 560.041836 330.717661 
L 560.498656 341.113841 
L 562.325935 314.631715 
L 562.782755 311.248578 
L 563.239575 316.145346 
L 563.696395 329.673347 
L 564.153215 329.459227 
L 565.523675 335.918101 
L 566.437315 330.591517 
L 566.894135 320.921882 
L 567.350955 333.141641 
L 568.721414 331.858378 
L 569.178234 338.322951 
L 569.635054 346.534282 
L 570.091874 350.565022 
L 570.548694 356.633278 
L 571.919154 353.372374 
L 572.375974 360.098844 
L 572.832793 362.076971 
L 573.289613 366.687226 
L 573.746433 363.410163 
L 576.030533 372.082019 
L 576.487353 372.363409 
L 576.944173 357.052362 
L 578.314632 351.528697 
L 578.771452 353.537564 
L 579.228272 348.116305 
L 579.685092 350.919412 
L 580.141912 345.24044 
L 581.512372 350.717268 
L 581.969192 340.234232 
L 582.426012 340.210829 
L 582.882832 343.480403 
L 583.339652 332.455021 
L 584.710111 328.058098 
L 585.166931 337.396929 
L 585.623751 337.002825 
L 586.537391 330.721632 
L 587.907851 332.160626 
L 588.364671 332.986151 
L 588.821491 338.648511 
L 589.27831 335.921071 
L 589.73513 325.71685 
L 594.30333 314.905162 
L 594.760149 309.44904 
L 595.216969 294.541434 
L 595.673789 294.956273 
L 596.130609 306.268533 
L 597.501069 284.449865 
L 597.957889 284.059005 
L 598.414709 282.369513 
L 598.871529 285.224551 
L 600.698808 221.718633 
L 601.155628 227.71116 
L 601.612448 223.979939 
L 602.069268 227.881686 
L 602.526088 211.798863 
L 603.896548 201.621743 
L 604.353368 193.536222 
L 604.810188 179.029419 
L 605.267007 177.720147 
L 605.723827 219.118155 
L 607.094287 201.798483 
L 607.551107 191.698881 
L 608.464747 212.805343 
L 608.921567 203.387418 
L 610.292027 180.751804 
L 610.748846 182.401764 
L 611.205666 182.503231 
L 611.662486 179.224683 
L 612.119306 178.40807 
L 613.489766 196.936215 
L 613.946586 210.861988 
L 614.403406 203.093841 
L 614.860226 211.514381 
L 615.317046 182.467549 
L 616.687505 158.335372 
L 617.144325 156.376464 
L 618.057965 135.231683 
L 619.885245 135.765573 
L 620.342065 137.325738 
L 620.798885 136.638785 
L 621.255705 152.393229 
L 621.712524 152.798337 
L 623.082984 156.084252 
L 623.539804 133.101584 
L 623.996624 130.215502 
L 624.453444 134.131285 
L 624.910264 127.887441 
L 626.737544 149.776411 
L 627.194363 148.860908 
L 627.651183 172.442735 
L 628.108003 183.789039 
L 629.478463 191.034604 
L 629.935283 186.232482 
L 632.676202 238.337498 
L 633.133022 232.296556 
L 633.589842 242.1898 
L 634.046662 255.165813 
L 634.503482 228.410149 
L 635.873942 239.171451 
L 636.330762 245.265627 
L 636.787582 228.57158 
L 637.244402 223.407943 
L 637.701221 245.664127 
L 639.071681 249.208513 
L 639.528501 238.487621 
L 639.985321 242.811908 
L 640.442141 254.692404 
L 640.898961 254.54704 
L 642.269421 242.607701 
L 642.726241 237.292638 
L 643.18306 235.841791 
L 644.0967 240.692388 
L 645.46716 243.304143 
L 645.92398 251.732079 
L 646.3808 251.993461 
L 646.83762 262.185678 
L 648.664899 254.80915 
L 649.121719 232.501066 
L 649.578539 237.453614 
L 650.035359 237.041018 
L 650.492179 245.761713 
L 651.862639 244.049545 
L 652.319459 243.28077 
L 652.776279 234.900035 
L 653.233099 213.886521 
L 653.689919 209.381128 
L 655.060378 207.511349 
L 655.517198 215.415885 
L 655.974018 217.171193 
L 656.430838 210.953783 
L 656.887658 216.384592 
L 658.258118 196.368857 
L 658.714938 196.659888 
L 659.171758 205.354268 
L 659.628577 208.39023 
L 660.085397 206.62889 
L 661.455857 230.182766 
L 661.912677 231.739142 
L 662.369497 235.658139 
L 662.826317 234.912768 
L 663.283137 231.036819 
L 664.653596 227.508349 
L 665.110416 228.89332 
L 665.567236 230.68928 
L 666.024056 239.940408 
L 666.480876 232.96053 
L 667.851336 244.24602 
L 668.308156 240.313897 
L 668.764976 233.240374 
L 669.221796 228.97114 
L 669.678616 226.794203 
L 671.049075 227.865558 
L 671.505895 224.430399 
L 672.419535 237.639631 
L 672.876355 250.047347 
L 674.246815 264.096201 
L 674.703635 277.416843 
L 675.160455 280.107783 
L 675.160455 280.107783 
" clip-path="url(#pd4fa8518ad)" style="fill: none; stroke: #7fffd4; stroke-width: 1.5; stroke-linecap: square"/>
   </g>
   <g id="line2d_16">
    <path d="M 76.269545 120.168861 
L 76.726365 121.614307 
L 77.183185 99.141368 
L 77.640005 170.943028 
L 78.096825 152.322935 
L 79.467285 203.773237 
L 79.924105 201.90287 
L 80.380925 224.115951 
L 80.837745 206.515239 
L 81.294565 238.858816 
L 82.665024 234.954402 
L 83.121844 206.489677 
L 83.578664 215.903983 
L 84.035484 245.068644 
L 84.492304 234.128194 
L 85.862764 227.476965 
L 86.319584 284.690552 
L 86.776404 289.000684 
L 87.233223 313.222993 
L 87.690043 288.382513 
L 89.060503 303.164252 
L 89.517323 284.754373 
L 89.974143 287.885843 
L 90.430963 275.219922 
L 90.887783 280.535823 
L 95.455982 285.777892 
L 95.912802 258.380493 
L 96.369622 249.056551 
L 96.826442 250.402294 
L 97.283262 251.271251 
L 98.653721 230.913173 
L 99.110541 238.143015 
L 99.567361 230.391164 
L 100.024181 287.279453 
L 100.481001 279.405505 
L 101.851461 303.427286 
L 102.308281 289.72527 
L 102.765101 254.407309 
L 103.22192 251.354841 
L 103.67874 246.989279 
L 105.0492 239.957833 
L 105.50602 238.731812 
L 105.96284 250.503142 
L 106.41966 268.03431 
L 106.87648 266.340902 
L 108.24694 251.430225 
L 109.160579 248.116242 
L 109.617399 237.685931 
L 110.074219 222.433156 
L 111.444679 203.137411 
L 111.901499 209.031371 
L 112.358319 205.816032 
L 112.815139 220.668143 
L 113.271959 215.069053 
L 114.642418 221.623653 
L 115.099238 233.138831 
L 115.556058 208.639301 
L 116.012878 207.651075 
L 116.469698 205.946946 
L 118.296978 192.748628 
L 118.753798 193.49973 
L 119.210618 206.28295 
L 119.667437 213.394927 
L 121.037897 198.540857 
L 121.494717 201.66914 
L 121.951537 188.633988 
L 122.408357 183.868688 
L 122.865177 185.15436 
L 124.235637 198.631163 
L 124.692456 195.852457 
L 125.149276 217.147359 
L 125.606096 223.115609 
L 126.062916 221.192045 
L 127.433376 225.00302 
L 127.890196 219.537049 
L 128.347016 222.881027 
L 129.260656 227.532907 
L 131.087935 211.066196 
L 131.544755 211.483539 
L 132.001575 209.490592 
L 132.458395 235.135569 
L 133.828855 259.729975 
L 134.285675 259.584762 
L 134.742495 258.239187 
L 135.199315 258.595786 
L 135.656134 261.248992 
L 137.026594 254.047589 
L 137.483414 256.224199 
L 137.940234 267.188956 
L 138.397054 267.372496 
L 138.853874 261.741846 
L 140.224334 256.236739 
L 140.681154 262.899933 
L 141.137973 264.893082 
L 141.594793 262.663007 
L 142.051613 263.086933 
L 143.422073 262.660887 
L 143.878893 234.114409 
L 144.335713 235.059742 
L 145.249353 227.424934 
L 146.619812 228.814592 
L 147.076632 228.224147 
L 147.533452 230.918222 
L 149.817552 259.441431 
L 150.274372 256.675183 
L 150.731192 243.028975 
L 151.188012 247.393557 
L 151.644831 243.666661 
L 153.015291 242.5441 
L 153.472111 245.651799 
L 153.928931 237.468662 
L 154.385751 241.590098 
L 154.842571 253.009581 
L 156.669851 235.345892 
L 157.12667 229.574769 
L 157.58349 230.176935 
L 158.04031 229.306158 
L 159.86759 206.899907 
L 160.32441 203.594392 
L 160.78123 203.728957 
L 161.23805 212.445091 
L 162.608509 210.375949 
L 163.065329 193.865755 
L 163.522149 190.439361 
L 163.978969 192.460333 
L 164.435789 192.375202 
L 165.806249 195.628744 
L 166.719889 200.377759 
L 167.176709 197.009796 
L 167.633529 204.950903 
L 169.003988 204.03688 
L 169.460808 193.627598 
L 169.917628 211.262295 
L 170.374448 210.555217 
L 170.831268 215.099272 
L 172.201728 222.966899 
L 172.658548 217.542334 
L 173.115368 215.366251 
L 173.572187 214.163613 
L 174.029007 215.900571 
L 175.399467 207.539076 
L 175.856287 201.051342 
L 176.313107 203.153726 
L 176.769927 208.03615 
L 177.226747 193.475194 
L 178.597207 170.883474 
L 179.054026 175.480194 
L 179.510846 175.62315 
L 179.967666 177.272719 
L 180.424486 176.063627 
L 181.794946 183.126726 
L 182.251766 181.64057 
L 182.708586 182.800663 
L 183.165406 188.121082 
L 183.622226 187.520603 
L 184.992685 187.606381 
L 185.449505 186.196982 
L 185.906325 182.918741 
L 186.363145 189.64475 
L 186.819965 188.416962 
L 188.190425 186.979963 
L 188.647245 181.335804 
L 189.104065 180.967865 
L 189.560884 179.746708 
L 190.017704 184.930591 
L 191.388164 202.172763 
L 191.844984 201.707257 
L 192.301804 207.972177 
L 194.585904 200.937685 
L 195.042723 201.86407 
L 195.499543 200.991981 
L 195.956363 196.008101 
L 196.413183 198.560569 
L 197.783643 214.768449 
L 198.240463 209.388532 
L 198.697283 212.517471 
L 199.154103 209.295714 
L 199.610923 207.410612 
L 204.179122 194.241095 
L 204.635942 189.056187 
L 205.092762 191.102094 
L 206.006401 189.491756 
L 207.376861 196.356266 
L 207.833681 183.407988 
L 208.290501 183.154132 
L 208.747321 183.231893 
L 209.204141 181.266363 
L 210.574601 169.956791 
L 211.03142 168.83895 
L 211.48824 173.575251 
L 211.94506 174.775878 
L 212.40188 177.225261 
L 213.77234 178.370883 
L 214.22916 171.718556 
L 214.68598 177.69248 
L 215.1428 169.747436 
L 215.59962 170.846024 
L 216.970079 168.414881 
L 217.426899 164.003076 
L 217.883719 169.919953 
L 218.340539 156.910056 
L 218.797359 149.405155 
L 220.167819 145.061475 
L 220.624639 146.087133 
L 221.081459 146.671242 
L 221.538279 145.641785 
L 221.995098 150.370465 
L 223.365558 142.702479 
L 223.822378 133.547218 
L 224.279198 135.734517 
L 224.736018 135.551744 
L 225.192838 129.427433 
L 227.020118 123.066188 
L 227.476937 133.036481 
L 227.933757 125.979386 
L 228.390577 134.913802 
L 229.761037 146.776096 
L 230.217857 148.310304 
L 230.674677 141.461481 
L 231.131497 143.546971 
L 231.588317 138.235516 
L 232.958776 162.462296 
L 233.415596 161.833157 
L 233.872416 166.232855 
L 234.329236 173.160909 
L 234.786056 171.552773 
L 236.156516 173.037874 
L 236.613336 177.64823 
L 237.070156 167.172422 
L 237.526976 166.529048 
L 237.983796 175.441782 
L 239.354255 171.677506 
L 239.811075 174.074908 
L 240.267895 177.842424 
L 240.724715 179.70309 
L 241.181535 177.417449 
L 243.008815 167.630435 
L 243.465634 160.69742 
L 243.922454 158.691137 
L 244.379274 162.052512 
L 245.749734 156.923991 
L 246.206554 159.82461 
L 246.663374 167.377855 
L 247.120194 172.672123 
L 247.577014 174.649991 
L 248.947473 177.480638 
L 249.861113 174.575497 
L 250.317933 178.126231 
L 250.774753 171.505063 
L 252.145213 167.37217 
L 253.058853 163.497604 
L 253.515673 160.583888 
L 257.170232 166.342595 
L 258.540692 161.244707 
L 258.997512 162.426769 
L 260.367971 149.205659 
L 261.738431 143.099836 
L 262.195251 142.770025 
L 262.652071 144.267806 
L 263.108891 139.225209 
L 263.565711 147.575821 
L 265.39299 132.039657 
L 265.84981 129.646147 
L 266.30663 132.630055 
L 266.76345 132.005541 
L 268.13391 139.515928 
L 268.59073 135.552112 
L 269.04755 133.976787 
L 269.50437 139.101459 
L 269.96119 142.65271 
L 271.331649 137.93735 
L 271.788469 135.349153 
L 272.245289 135.876913 
L 272.702109 143.128065 
L 273.158929 144.335327 
L 274.529389 136.98023 
L 275.443029 135.545039 
L 275.899848 127.306234 
L 276.356668 136.852949 
L 277.727128 132.800701 
L 278.183948 129.527195 
L 278.640768 134.496179 
L 279.097588 133.486015 
L 279.554408 127.151757 
L 280.924868 127.907196 
L 281.838507 135.679369 
L 282.295327 145.100535 
L 282.752147 141.378286 
L 285.493067 123.649095 
L 285.949887 121.946604 
L 287.320346 127.167793 
L 287.777166 121.233172 
L 288.233986 125.822982 
L 288.690806 125.176454 
L 289.147626 134.239221 
L 290.518086 141.483493 
L 291.431726 157.09015 
L 292.345365 156.343764 
L 293.715825 169.567605 
L 294.629465 166.137243 
L 295.086285 162.699479 
L 295.543105 161.950666 
L 297.370385 165.268607 
L 298.284024 170.222905 
L 298.740844 177.59917 
L 300.111304 185.003118 
L 300.568124 184.422883 
L 301.024944 192.833647 
L 301.481764 190.190824 
L 301.938584 183.518331 
L 303.309043 181.48301 
L 303.765863 174.590023 
L 304.222683 177.174387 
L 304.679503 181.509315 
L 305.136323 181.360093 
L 306.506783 185.894387 
L 306.963603 190.05585 
L 307.420423 189.410453 
L 307.877243 176.146149 
L 308.334062 175.472084 
L 310.618162 173.312635 
L 311.074982 177.724979 
L 311.531802 176.840074 
L 312.902262 181.049707 
L 313.359082 177.875447 
L 313.815901 166.295792 
L 314.729541 160.816042 
L 316.100001 166.431322 
L 316.556821 162.227009 
L 317.013641 169.221413 
L 317.470461 168.671251 
L 317.927281 171.497226 
L 319.29774 165.067744 
L 319.75456 166.390313 
L 320.21138 161.478985 
L 320.6682 164.134701 
L 321.12502 160.975211 
L 322.49548 152.617611 
L 322.9523 150.874103 
L 323.40912 156.329098 
L 323.86594 151.822859 
L 324.32276 150.500739 
L 325.693219 149.443947 
L 326.150039 153.417881 
L 326.606859 146.041245 
L 327.520499 142.760913 
L 328.890959 144.375261 
L 329.347779 147.283329 
L 329.804599 148.948771 
L 330.261418 142.697965 
L 330.718238 141.409428 
L 332.088698 155.339515 
L 332.545518 151.972382 
L 333.002338 138.813852 
L 333.459158 134.604928 
L 333.915978 136.690655 
L 335.286437 132.864966 
L 335.743257 134.959854 
L 336.200077 133.751419 
L 336.656897 133.113158 
L 337.113717 132.064468 
L 338.484177 126.065571 
L 338.940997 120.121173 
L 339.397817 122.419498 
L 340.311457 129.383817 
L 341.681916 124.116223 
L 342.138736 123.38477 
L 342.595556 125.294313 
L 343.052376 129.48459 
L 343.509196 145.61456 
L 344.879656 136.876985 
L 345.336476 132.664919 
L 345.793296 134.123127 
L 346.250115 127.45951 
L 346.706935 127.370832 
L 348.077395 121.858408 
L 348.534215 120.852561 
L 348.991035 121.616355 
L 349.447855 126.52519 
L 349.904675 108.332299 
L 351.275135 98.897632 
L 351.731954 98.116302 
L 352.188774 98.600032 
L 352.645594 99.453493 
L 353.102414 97.540791 
L 354.929694 92.328223 
L 355.386514 92.002726 
L 355.843334 98.032865 
L 356.300154 98.109302 
L 358.584253 92.379307 
L 359.041073 96.235749 
L 359.497893 101.633473 
L 360.868353 98.832252 
L 361.325173 100.65626 
L 361.781993 97.881586 
L 362.238812 100.362966 
L 362.695632 101.963953 
L 364.066092 105.29291 
L 364.979732 104.164484 
L 365.436552 105.871078 
L 365.893372 103.051277 
L 370.461571 95.340863 
L 370.918391 92.731326 
L 371.375211 91.125272 
L 371.832031 91.787199 
L 372.288851 90.4459 
L 373.65931 94.10022 
L 374.11613 96.048916 
L 374.57295 93.092399 
L 375.02977 96.615926 
L 375.48659 94.045789 
L 376.85705 93.424492 
L 377.77069 88.513858 
L 378.684329 82.476673 
L 380.054789 90.5029 
L 380.968429 88.812354 
L 381.882069 96.138839 
L 383.252529 91.157868 
L 383.709349 83.45823 
L 384.166168 82.887111 
L 384.622988 79.147113 
L 386.450268 73.071532 
L 386.907088 78.615936 
L 387.363908 86.807465 
L 387.820728 87.799642 
L 388.277548 92.754772 
L 389.648007 89.877039 
L 390.561647 78.338222 
L 391.018467 102.149964 
L 391.475287 101.570744 
L 392.845747 111.149485 
L 393.302567 107.684729 
L 393.759387 106.411287 
L 394.216207 112.678328 
L 394.673026 112.547325 
L 396.043486 114.97278 
L 396.500306 116.774465 
L 396.957126 119.71815 
L 397.413946 126.360728 
L 397.870766 120.922034 
L 399.241226 111.160794 
L 399.698046 123.706334 
L 400.154865 116.96706 
L 400.611685 120.181403 
L 401.068505 128.154295 
L 402.438965 127.612666 
L 402.895785 118.938385 
L 403.352605 121.647193 
L 403.809425 117.870626 
L 404.266245 118.779463 
L 405.636704 123.811931 
L 406.093524 116.031599 
L 406.550344 125.23127 
L 407.007164 118.984081 
L 409.291264 103.239015 
L 410.204904 91.905901 
L 412.032183 84.699478 
L 412.489003 83.360026 
L 412.945823 80.954244 
L 413.859463 78.799622 
L 415.229923 84.393684 
L 415.686743 76.478702 
L 416.143563 74.031551 
L 416.600382 64.911116 
L 417.057202 60.937582 
L 418.427662 56.844869 
L 418.884482 43.159647 
L 419.341302 39.231591 
L 419.798122 42.613482 
L 420.254942 39.63501 
L 421.625401 50.285035 
L 422.082221 60.891663 
L 422.539041 63.067071 
L 422.995861 73.330537 
L 423.452681 68.752018 
L 424.823141 61.048076 
L 425.279961 96.470937 
L 426.193601 129.391675 
L 426.650421 169.469328 
L 428.02088 162.109203 
L 428.4777 152.765234 
L 428.93452 148.46064 
L 432.589079 127.420811 
L 433.045899 121.218371 
L 434.416359 108.923735 
L 435.329999 130.193955 
L 435.786819 125.844547 
L 436.243639 131.674727 
L 437.614099 130.946815 
L 438.070918 121.028822 
L 438.527738 126.478282 
L 439.441378 115.716559 
L 440.811838 109.795201 
L 441.725478 120.500996 
L 442.182298 120.582797 
L 442.639118 127.019136 
L 444.009577 124.178389 
L 444.466397 120.726696 
L 444.923217 123.663638 
L 445.380037 128.959736 
L 445.836857 162.524817 
L 447.207317 168.294725 
L 447.664137 158.314458 
L 448.120957 171.764094 
L 448.577777 160.168968 
L 449.034596 157.634722 
L 450.405056 159.367087 
L 450.861876 167.41424 
L 451.318696 169.087792 
L 453.602796 166.911042 
L 454.059615 151.139117 
L 454.516435 145.756524 
L 454.973255 154.220387 
L 455.430075 160.617186 
L 456.800535 175.290986 
L 457.257355 188.584484 
L 458.170995 173.253633 
L 458.627815 187.148036 
L 459.998274 188.216277 
L 460.455094 169.750098 
L 460.911914 173.072878 
L 461.368734 186.089834 
L 461.825554 183.905723 
L 464.109654 184.226524 
L 464.566474 178.260142 
L 465.023293 181.239411 
L 466.393753 167.410702 
L 466.850573 159.877898 
L 467.307393 160.589146 
L 467.764213 155.961325 
L 468.221033 159.341944 
L 469.591493 156.076645 
L 470.048313 150.594194 
L 470.505132 157.431585 
L 470.961952 162.063426 
L 471.418772 150.234087 
L 472.789232 144.009605 
L 473.246052 143.855001 
L 473.702872 157.613194 
L 474.616512 165.998159 
L 475.986971 167.884502 
L 476.443791 172.317455 
L 476.900611 196.271532 
L 477.357431 179.890337 
L 477.814251 186.058867 
L 479.184711 181.190247 
L 479.641531 174.214196 
L 480.098351 173.91882 
L 480.555171 175.640475 
L 481.01199 188.479483 
L 482.38245 192.833224 
L 482.83927 184.642935 
L 483.29609 193.740736 
L 483.75291 195.447727 
L 484.20973 202.196248 
L 486.03701 236.779241 
L 486.493829 234.379982 
L 486.950649 246.484646 
L 487.407469 242.254845 
L 488.777929 251.479433 
L 489.234749 255.973399 
L 490.148389 273.438516 
L 490.605209 255.091348 
L 491.975668 276.879279 
L 492.432488 273.440681 
L 493.346128 289.510572 
L 493.802948 285.464369 
L 495.173408 264.887224 
L 495.630228 261.094367 
L 496.087048 276.206587 
L 496.543868 258.049304 
L 497.000688 260.015123 
L 498.371147 265.210345 
L 498.827967 270.034874 
L 499.284787 273.329868 
L 499.741607 277.789602 
L 500.198427 260.593232 
L 501.568887 251.418088 
L 502.025707 237.46625 
L 502.482527 238.047343 
L 502.939346 244.539673 
L 503.396166 247.156025 
L 504.766626 248.534148 
L 505.223446 246.305947 
L 506.137086 279.159645 
L 506.593906 287.520548 
L 507.964366 298.218548 
L 508.421185 275.71895 
L 508.878005 286.425247 
L 509.334825 271.169399 
L 509.791645 270.890447 
L 511.162105 273.750094 
L 511.618925 275.237663 
L 512.075745 292.7321 
L 512.532565 298.207573 
L 512.989385 309.190533 
L 514.359844 300.247197 
L 514.816664 289.528905 
L 515.273484 295.35542 
L 515.730304 292.316803 
L 516.187124 290.860724 
L 517.557584 275.257571 
L 518.014404 276.14453 
L 518.471224 278.775817 
L 518.928043 288.342495 
L 519.384863 292.1272 
L 520.755323 293.496585 
L 521.212143 284.448997 
L 521.668963 298.469022 
L 522.125783 302.330167 
L 522.582603 299.084742 
L 523.953063 309.033821 
L 524.409882 310.453292 
L 524.866702 313.087991 
L 525.323522 303.851458 
L 525.780342 305.348668 
L 527.150802 314.398614 
L 527.607622 299.796988 
L 528.064442 290.431774 
L 528.521262 290.918441 
L 528.978082 270.22983 
L 530.805361 275.187281 
L 531.262181 267.401323 
L 531.719001 271.961385 
L 532.175821 262.994261 
L 536.74402 294.778472 
L 537.65766 291.950101 
L 538.11448 335.11347 
L 538.5713 328.00036 
L 539.94176 339.76986 
L 540.39858 346.3678 
L 540.855399 341.734721 
L 541.312219 364.532101 
L 541.769039 345.113215 
L 543.139499 313.464641 
L 543.596319 331.670946 
L 544.053139 329.098352 
L 544.509959 328.946735 
L 544.966779 330.448144 
L 546.337238 347.650362 
L 546.794058 339.783657 
L 547.250878 329.255563 
L 547.707698 328.208432 
L 548.164518 306.914376 
L 549.534978 310.264615 
L 549.991798 312.103563 
L 550.448618 317.565123 
L 550.905438 319.295726 
L 551.362257 330.440458 
L 552.732717 320.845781 
L 553.189537 313.462203 
L 553.646357 320.324646 
L 554.103177 309.431399 
L 554.559997 306.116657 
L 555.930457 298.718471 
L 556.387277 316.198206 
L 556.844096 314.483004 
L 557.300916 316.324821 
L 557.757736 336.318392 
L 559.585016 337.77433 
L 560.041836 329.571886 
L 560.498656 339.969022 
L 562.325935 313.486365 
L 562.782755 310.105253 
L 563.239575 315.000236 
L 563.696395 328.527387 
L 564.153215 328.312312 
L 565.523675 334.77258 
L 566.437315 329.446202 
L 566.894135 319.776539 
L 567.350955 331.996666 
L 568.721414 330.711513 
L 569.178234 337.177155 
L 569.635054 345.388054 
L 570.091874 349.41878 
L 570.548694 355.487277 
L 571.919154 352.226372 
L 572.375974 358.953451 
L 572.832793 360.93075 
L 573.289613 365.541082 
L 573.746433 362.26414 
L 576.030533 370.936719 
L 576.487353 371.217202 
L 576.944173 355.906679 
L 578.314632 350.384813 
L 578.771452 352.392582 
L 579.228272 346.970473 
L 579.685092 349.774197 
L 580.141912 344.09453 
L 581.512372 349.572434 
L 581.969192 339.088167 
L 582.426012 339.066286 
L 582.882832 342.334763 
L 583.339652 331.308956 
L 584.710111 326.91335 
L 585.166931 336.251805 
L 585.623751 335.856314 
L 586.537391 329.57631 
L 587.907851 331.015559 
L 588.364671 331.840306 
L 588.821491 337.502722 
L 589.27831 334.774737 
L 589.73513 324.571599 
L 594.30333 313.760577 
L 594.760149 308.304738 
L 595.216969 293.396374 
L 595.673789 293.812071 
L 596.130609 305.122871 
L 597.501069 283.303304 
L 597.957889 282.915596 
L 598.414709 281.224276 
L 598.871529 284.079159 
L 600.698808 220.574303 
L 601.155628 226.571002 
L 601.612448 222.83393 
L 602.069268 226.736031 
L 602.526088 210.65267 
L 603.896548 200.477994 
L 604.353368 192.392232 
L 604.810188 177.884721 
L 605.267007 176.575795 
L 605.723827 217.972373 
L 607.094287 200.650322 
L 607.551107 190.554728 
L 608.464747 211.659214 
L 608.921567 202.24039 
L 610.292027 179.606942 
L 610.748846 181.258404 
L 611.205666 181.357796 
L 611.662486 178.078688 
L 612.119306 177.262897 
L 613.489766 195.790943 
L 613.946586 209.715094 
L 614.403406 201.946813 
L 614.860226 210.369654 
L 615.317046 181.320974 
L 616.687505 157.192897 
L 617.144325 155.233451 
L 618.057965 134.086914 
L 619.885245 134.620867 
L 620.342065 136.180543 
L 620.798885 135.493477 
L 621.255705 151.247624 
L 621.712524 151.651393 
L 623.082984 154.938328 
L 623.539804 131.95544 
L 623.996624 129.071894 
L 624.453444 132.98607 
L 624.910264 126.741085 
L 626.737544 148.629489 
L 627.194363 147.714829 
L 627.651183 171.297463 
L 628.108003 182.641593 
L 629.478463 189.887922 
L 629.935283 185.085956 
L 632.676202 237.192346 
L 633.133022 231.148578 
L 633.589842 241.044287 
L 634.046662 254.019302 
L 634.503482 227.263701 
L 635.873942 238.028792 
L 636.330762 244.119031 
L 636.787582 227.425252 
L 637.244402 222.264215 
L 637.701221 244.519123 
L 639.071681 248.061597 
L 639.528501 237.341392 
L 639.985321 241.667563 
L 640.442141 253.54653 
L 640.898961 253.400458 
L 642.269421 241.461353 
L 642.726241 236.148095 
L 643.18306 234.696965 
L 644.0967 239.546507 
L 645.46716 242.158233 
L 645.92398 250.586184 
L 646.3808 250.847261 
L 646.83762 261.040087 
L 648.664899 253.662595 
L 649.121719 231.355992 
L 649.578539 236.310488 
L 650.035359 235.894974 
L 650.492179 244.615881 
L 651.862639 242.902913 
L 652.319459 242.135441 
L 652.776279 233.754933 
L 653.233099 212.7419 
L 653.689919 208.23774 
L 655.060378 206.366133 
L 655.517198 214.270174 
L 655.974018 216.02466 
L 656.430838 209.807959 
L 656.887658 215.239908 
L 658.258118 195.222855 
L 658.714938 195.516506 
L 659.171758 204.208444 
L 659.628577 207.24352 
L 660.085397 205.482626 
L 661.455857 229.037289 
L 661.912677 230.591816 
L 662.369497 234.512371 
L 662.369497 234.512371 
" clip-path="url(#pd4fa8518ad)" style="fill: none; stroke-dasharray: 5.55,2.4; stroke-dashoffset: 0; stroke: #ffcad4; stroke-width: 1.5"/>
   </g>
   <g id="line2d_17">
    <path d="M 662.826317 233.76678 
L 663.283137 229.91205 
L 664.653596 226.38353 
L 665.110416 227.768502 
L 665.567236 229.564462 
L 666.024056 238.81559 
L 666.480876 231.835712 
L 667.851336 243.121202 
L 668.308156 239.189079 
L 668.764976 232.115555 
L 669.221796 227.846322 
L 669.678616 225.669384 
L 671.049075 226.74074 
L 671.505895 223.305581 
L 671.962715 229.317935 
L 672.419535 236.514813 
L 672.876355 248.922529 
L 674.246815 262.971383 
L 674.703635 276.292025 
L 675.160455 278.982965 
" clip-path="url(#pd4fa8518ad)" style="fill: none; stroke-dasharray: 5.55,2.4; stroke-dashoffset: 0; stroke: #f64e60; stroke-width: 1.5"/>
   </g>
   <g id="patch_3">
    <path d="M 46.325 389.02 
L 46.325 22.575 
" style="fill: none; stroke: #000000; stroke-width: 0.8; stroke-linejoin: miter; stroke-linecap: square"/>
   </g>
   <g id="patch_4">
    <path d="M 705.105 389.02 
L 705.105 22.575 
" style="fill: none; stroke: #000000; stroke-width: 0.8; stroke-linejoin: miter; stroke-linecap: square"/>
   </g>
   <g id="patch_5">
    <path d="M 46.325 389.02 
L 705.105 389.02 
" style="fill: none; stroke: #000000; stroke-width: 0.8; stroke-linejoin: miter; stroke-linecap: square"/>
   </g>
   <g id="patch_6">
    <path d="M 46.325 22.575 
L 705.105 22.575 
" style="fill: none; stroke: #000000; stroke-width: 0.8; stroke-linejoin: miter; stroke-linecap: square"/>
   </g>
   <g id="text_17">
    <!-- ARIMA(0,1,14) Model Adjusted with LSTM -->
    <g transform="translate(261.715 16.575) scale(0.12 -0.12)">
     <defs>
      <path id="SimHei-41" d="M 3075 125 
L 2475 125 
L 2125 1450 
L 1025 1450 
L 675 125 
L 75 125 
L 1325 4450 
L 1825 4450 
L 3075 125 
z
M 2000 1925 
L 1600 3450 
L 1550 3450 
L 1150 1925 
L 2000 1925 
z
" transform="scale(0.015625)"/>
      <path id="SimHei-52" d="M 3000 125 
L 2400 125 
L 1500 1975 
L 850 1975 
L 850 125 
L 275 125 
L 275 4400 
L 1525 4400 
Q 2125 4400 2500 4112 
Q 2875 3825 2875 3175 
Q 2875 2675 2625 2400 
Q 2375 2125 2050 2050 
L 3000 125 
z
M 2300 3175 
Q 2300 3525 2087 3725 
Q 1875 3925 1400 3925 
L 850 3925 
L 850 2450 
L 1550 2450 
Q 1850 2450 2075 2612 
Q 2300 2775 2300 3175 
z
" transform="scale(0.015625)"/>
      <path id="SimHei-49" d="M 1850 125 
L 1275 125 
L 1275 4400 
L 1850 4400 
L 1850 125 
z
" transform="scale(0.015625)"/>
      <path id="SimHei-4d" d="M 2925 125 
L 2425 125 
L 2425 3175 
L 2375 3175 
L 1775 125 
L 1375 125 
L 775 3175 
L 725 3175 
L 725 125 
L 225 125 
L 225 4400 
L 1000 4400 
L 1550 1575 
L 1600 1575 
L 2150 4400 
L 2925 4400 
L 2925 125 
z
" transform="scale(0.015625)"/>
      <path id="SimHei-28" d="M 2975 -200 
L 2700 -475 
Q 2075 125 1762 775 
Q 1450 1425 1450 2250 
Q 1450 3075 1762 3725 
Q 2075 4375 2700 5000 
L 2975 4725 
Q 2400 4175 2112 3587 
Q 1825 3000 1825 2250 
Q 1825 1500 2112 912 
Q 2400 325 2975 -200 
z
" transform="scale(0.015625)"/>
      <path id="SimHei-2c" d="M 1100 125 
L 775 -550 
L 525 -550 
L 775 125 
L 525 125 
L 525 675 
L 1100 675 
L 1100 125 
z
" transform="scale(0.015625)"/>
      <path id="SimHei-29" d="M 1675 2250 
Q 1675 1425 1362 775 
Q 1050 125 425 -475 
L 150 -200 
Q 725 325 1012 912 
Q 1300 1500 1300 2250 
Q 1300 3000 1012 3587 
Q 725 4175 150 4725 
L 425 5000 
Q 1050 4375 1362 3725 
Q 1675 3075 1675 2250 
z
" transform="scale(0.015625)"/>
      <path id="SimHei-20" transform="scale(0.015625)"/>
      <path id="SimHei-6f" d="M 2925 1525 
Q 2925 875 2525 475 
Q 2125 75 1575 75 
Q 1025 75 625 475 
Q 225 875 225 1525 
Q 225 2175 625 2575 
Q 1025 2975 1575 2975 
Q 2125 2975 2525 2575 
Q 2925 2175 2925 1525 
z
M 2375 1525 
Q 2375 2025 2125 2275 
Q 1875 2525 1575 2525 
Q 1275 2525 1025 2275 
Q 775 2025 775 1525 
Q 775 1025 1025 775 
Q 1275 525 1575 525 
Q 1875 525 2125 775 
Q 2375 1025 2375 1525 
z
" transform="scale(0.015625)"/>
      <path id="SimHei-64" d="M 2750 125 
L 2250 125 
L 2250 500 
Q 2100 275 1900 175 
Q 1700 75 1425 75 
Q 925 75 575 437 
Q 225 800 225 1525 
Q 225 2250 575 2625 
Q 925 3000 1425 3000 
Q 1700 3000 1900 2887 
Q 2100 2775 2250 2550 
L 2250 4400 
L 2750 4400 
L 2750 125 
z
M 2250 1525 
Q 2250 2000 2037 2275 
Q 1825 2550 1525 2550 
Q 1150 2550 962 2275 
Q 775 2000 775 1525 
Q 775 1050 962 787 
Q 1150 525 1525 525 
Q 1825 525 2037 787 
Q 2250 1050 2250 1525 
z
" transform="scale(0.015625)"/>
      <path id="SimHei-6a" d="M 2300 3725 
L 1800 3725 
L 1800 4375 
L 2300 4375 
L 2300 3725 
z
M 2300 150 
Q 2300 -300 2025 -550 
Q 1750 -800 1300 -800 
Q 1025 -800 862 -762 
Q 700 -725 575 -675 
L 575 -175 
Q 700 -250 875 -300 
Q 1050 -350 1325 -350 
Q 1600 -350 1700 -212 
Q 1800 -75 1800 125 
L 1800 2925 
L 2300 2925 
L 2300 150 
z
" transform="scale(0.015625)"/>
      <path id="SimHei-73" d="M 2750 900 
Q 2750 500 2437 287 
Q 2125 75 1650 75 
Q 1050 75 725 312 
Q 400 550 400 1000 
L 900 1000 
Q 900 700 1112 600 
Q 1325 500 1625 500 
Q 1925 500 2075 612 
Q 2225 725 2225 900 
Q 2225 1025 2100 1150 
Q 1975 1275 1475 1350 
Q 900 1425 687 1637 
Q 475 1850 475 2200 
Q 475 2500 762 2737 
Q 1050 2975 1600 2975 
Q 2100 2975 2387 2750 
Q 2675 2525 2675 2150 
L 2175 2150 
Q 2175 2375 2012 2462 
Q 1850 2550 1600 2550 
Q 1275 2550 1137 2437 
Q 1000 2325 1000 2175 
Q 1000 2000 1125 1900 
Q 1250 1800 1650 1750 
Q 2300 1650 2525 1437 
Q 2750 1225 2750 900 
z
" transform="scale(0.015625)"/>
      <path id="SimHei-77" d="M 3075 2925 
L 2450 75 
L 1975 75 
L 1575 2250 
L 1525 2250 
L 1125 75 
L 650 75 
L 25 2925 
L 550 2925 
L 875 1050 
L 925 1050 
L 1275 2925 
L 1825 2925 
L 2175 1050 
L 2225 1050 
L 2550 2925 
L 3075 2925 
z
" transform="scale(0.015625)"/>
      <path id="SimHei-69" d="M 1800 3725 
L 1300 3725 
L 1300 4375 
L 1800 4375 
L 1800 3725 
z
M 1800 125 
L 1300 125 
L 1300 2925 
L 1800 2925 
L 1800 125 
z
" transform="scale(0.015625)"/>
      <path id="SimHei-68" d="M 2800 125 
L 2300 125 
L 2300 1925 
Q 2300 2225 2150 2400 
Q 2000 2575 1750 2575 
Q 1425 2575 1137 2237 
Q 850 1900 850 1400 
L 850 125 
L 350 125 
L 350 4400 
L 850 4400 
L 850 2400 
Q 1050 2675 1287 2825 
Q 1525 2975 1900 2975 
Q 2350 2975 2575 2725 
Q 2800 2475 2800 2100 
L 2800 125 
z
" transform="scale(0.015625)"/>
      <path id="SimHei-4c" d="M 2900 125 
L 300 125 
L 300 4400 
L 875 4400 
L 875 600 
L 2900 600 
L 2900 125 
z
" transform="scale(0.015625)"/>
      <path id="SimHei-53" d="M 2900 1325 
Q 2900 750 2537 412 
Q 2175 75 1550 75 
Q 925 75 575 425 
Q 225 775 225 1300 
L 225 1475 
L 800 1475 
L 800 1325 
Q 800 950 1025 750 
Q 1250 550 1550 550 
Q 1950 550 2137 762 
Q 2325 975 2325 1275 
Q 2325 1525 2100 1737 
Q 1875 1950 1450 2125 
Q 850 2350 587 2625 
Q 325 2900 325 3275 
Q 325 3800 687 4125 
Q 1050 4450 1550 4450 
Q 2200 4450 2487 4062 
Q 2775 3675 2775 3225 
L 2200 3225 
Q 2225 3500 2050 3725 
Q 1875 3950 1550 3950 
Q 1250 3950 1075 3787 
Q 900 3625 900 3350 
Q 900 3125 1037 2962 
Q 1175 2800 1750 2575 
Q 2300 2350 2600 2037 
Q 2900 1725 2900 1325 
z
" transform="scale(0.015625)"/>
      <path id="SimHei-54" d="M 2850 3925 
L 1850 3925 
L 1850 125 
L 1275 125 
L 1275 3925 
L 275 3925 
L 275 4400 
L 2850 4400 
L 2850 3925 
z
" transform="scale(0.015625)"/>
     </defs>
     <use xlink:href="#SimHei-41"/>
     <use xlink:href="#SimHei-52" x="50"/>
     <use xlink:href="#SimHei-49" x="100"/>
     <use xlink:href="#SimHei-4d" x="150"/>
     <use xlink:href="#SimHei-41" x="200"/>
     <use xlink:href="#SimHei-28" x="250"/>
     <use xlink:href="#SimHei-30" x="300"/>
     <use xlink:href="#SimHei-2c" x="350"/>
     <use xlink:href="#SimHei-31" x="400"/>
     <use xlink:href="#SimHei-2c" x="450"/>
     <use xlink:href="#SimHei-31" x="500"/>
     <use xlink:href="#SimHei-34" x="550"/>
     <use xlink:href="#SimHei-29" x="600"/>
     <use xlink:href="#SimHei-20" x="650"/>
     <use xlink:href="#SimHei-4d" x="700"/>
     <use xlink:href="#SimHei-6f" x="750"/>
     <use xlink:href="#SimHei-64" x="800"/>
     <use xlink:href="#SimHei-65" x="850"/>
     <use xlink:href="#SimHei-6c" x="900"/>
     <use xlink:href="#SimHei-20" x="950"/>
     <use xlink:href="#SimHei-41" x="1000"/>
     <use xlink:href="#SimHei-64" x="1050"/>
     <use xlink:href="#SimHei-6a" x="1100"/>
     <use xlink:href="#SimHei-75" x="1150"/>
     <use xlink:href="#SimHei-73" x="1200"/>
     <use xlink:href="#SimHei-74" x="1250"/>
     <use xlink:href="#SimHei-65" x="1300"/>
     <use xlink:href="#SimHei-64" x="1350"/>
     <use xlink:href="#SimHei-20" x="1400"/>
     <use xlink:href="#SimHei-77" x="1450"/>
     <use xlink:href="#SimHei-69" x="1500"/>
     <use xlink:href="#SimHei-74" x="1550"/>
     <use xlink:href="#SimHei-68" x="1600"/>
     <use xlink:href="#SimHei-20" x="1650"/>
     <use xlink:href="#SimHei-4c" x="1700"/>
     <use xlink:href="#SimHei-53" x="1750"/>
     <use xlink:href="#SimHei-54" x="1800"/>
     <use xlink:href="#SimHei-4d" x="1850"/>
    </g>
   </g>
   <g id="legend_1">
    <g id="line2d_18">
     <path d="M 523.105 35.075 
L 533.105 35.075 
L 543.105 35.075 
" style="fill: none; stroke: #7fffd4; stroke-width: 1.5; stroke-linecap: square"/>
    </g>
    <g id="text_18">
     <!-- Original Data -->
     <g transform="translate(551.105 38.575) scale(0.1 -0.1)">
      <defs>
       <path id="SimHei-4f" d="M 2950 2275 
Q 2950 1100 2587 587 
Q 2225 75 1575 75 
Q 925 75 550 587 
Q 175 1100 175 2275 
Q 175 3450 550 3950 
Q 925 4450 1575 4450 
Q 2225 4450 2587 3950 
Q 2950 3450 2950 2275 
z
M 2350 2275 
Q 2350 3325 2125 3650 
Q 1900 3975 1575 3975 
Q 1250 3975 1012 3650 
Q 775 3325 775 2275 
Q 775 1225 1012 887 
Q 1250 550 1575 550 
Q 1900 550 2125 887 
Q 2350 1225 2350 2275 
z
" transform="scale(0.015625)"/>
       <path id="SimHei-72" d="M 2500 2425 
Q 2025 2500 1700 2287 
Q 1375 2075 1150 1550 
L 1150 125 
L 650 125 
L 650 2925 
L 1150 2925 
L 1150 2200 
Q 1375 2600 1712 2787 
Q 2050 2975 2500 2975 
L 2500 2425 
z
" transform="scale(0.015625)"/>
       <path id="SimHei-67" d="M 2975 2500 
Q 2800 2550 2637 2562 
Q 2475 2575 2300 2525 
Q 2375 2450 2425 2337 
Q 2475 2225 2475 2000 
Q 2475 1575 2187 1300 
Q 1900 1025 1475 1025 
Q 1375 1025 1212 1062 
Q 1050 1100 950 1150 
Q 875 1100 850 1050 
Q 825 1000 825 925 
Q 825 800 1000 737 
Q 1175 675 1625 675 
Q 2350 675 2612 475 
Q 2875 275 2875 -25 
Q 2875 -425 2487 -612 
Q 2100 -800 1575 -800 
Q 900 -800 575 -625 
Q 250 -450 250 -150 
Q 250 0 375 150 
Q 500 300 700 400 
Q 550 475 462 587 
Q 375 700 375 875 
Q 375 1025 487 1137 
Q 600 1250 750 1325 
Q 625 1450 550 1625 
Q 475 1800 475 2000 
Q 475 2425 762 2700 
Q 1050 2975 1475 2975 
Q 1700 2975 1862 2912 
Q 2025 2850 2150 2725 
Q 2350 2875 2550 2937 
Q 2750 3000 2975 2975 
L 2975 2500 
z
M 1975 2000 
Q 1975 2250 1850 2400 
Q 1725 2550 1475 2550 
Q 1225 2550 1100 2400 
Q 975 2250 975 2000 
Q 975 1750 1100 1600 
Q 1225 1450 1475 1450 
Q 1725 1450 1850 1600 
Q 1975 1750 1975 2000 
z
M 2400 -75 
Q 2400 25 2287 125 
Q 2175 225 1725 225 
Q 1625 225 1450 237 
Q 1275 250 1050 275 
Q 850 200 775 100 
Q 700 0 700 -100 
Q 700 -250 900 -350 
Q 1100 -450 1600 -450 
Q 2025 -450 2212 -337 
Q 2400 -225 2400 -75 
z
" transform="scale(0.015625)"/>
       <path id="SimHei-6e" d="M 2800 125 
L 2300 125 
L 2300 1925 
Q 2300 2225 2150 2400 
Q 2000 2575 1750 2575 
Q 1425 2575 1137 2237 
Q 850 1900 850 1400 
L 850 125 
L 350 125 
L 350 2925 
L 850 2925 
L 850 2400 
Q 1050 2675 1287 2825 
Q 1525 2975 1900 2975 
Q 2350 2975 2575 2725 
Q 2800 2475 2800 2100 
L 2800 125 
z
" transform="scale(0.015625)"/>
      </defs>
      <use xlink:href="#SimHei-4f"/>
      <use xlink:href="#SimHei-72" x="50"/>
      <use xlink:href="#SimHei-69" x="100"/>
      <use xlink:href="#SimHei-67" x="150"/>
      <use xlink:href="#SimHei-69" x="200"/>
      <use xlink:href="#SimHei-6e" x="250"/>
      <use xlink:href="#SimHei-61" x="300"/>
      <use xlink:href="#SimHei-6c" x="350"/>
      <use xlink:href="#SimHei-20" x="400"/>
      <use xlink:href="#SimHei-44" x="450"/>
      <use xlink:href="#SimHei-61" x="500"/>
      <use xlink:href="#SimHei-74" x="550"/>
      <use xlink:href="#SimHei-61" x="600"/>
     </g>
    </g>
    <g id="line2d_19">
     <path d="M 523.105 49.1375 
L 533.105 49.1375 
L 543.105 49.1375 
" style="fill: none; stroke-dasharray: 5.55,2.4; stroke-dashoffset: 0; stroke: #ffcad4; stroke-width: 1.5"/>
    </g>
    <g id="text_19">
     <!-- Fitted Data (LSTM Adjusted) -->
     <g transform="translate(551.105 52.6375) scale(0.1 -0.1)">
      <defs>
       <path id="SimHei-46" d="M 2925 3925 
L 875 3925 
L 875 2525 
L 2425 2525 
L 2425 2050 
L 875 2050 
L 875 125 
L 300 125 
L 300 4400 
L 2925 4400 
L 2925 3925 
z
" transform="scale(0.015625)"/>
      </defs>
      <use xlink:href="#SimHei-46"/>
      <use xlink:href="#SimHei-69" x="50"/>
      <use xlink:href="#SimHei-74" x="100"/>
      <use xlink:href="#SimHei-74" x="150"/>
      <use xlink:href="#SimHei-65" x="200"/>
      <use xlink:href="#SimHei-64" x="250"/>
      <use xlink:href="#SimHei-20" x="300"/>
      <use xlink:href="#SimHei-44" x="350"/>
      <use xlink:href="#SimHei-61" x="400"/>
      <use xlink:href="#SimHei-74" x="450"/>
      <use xlink:href="#SimHei-61" x="500"/>
      <use xlink:href="#SimHei-20" x="550"/>
      <use xlink:href="#SimHei-28" x="600"/>
      <use xlink:href="#SimHei-4c" x="650"/>
      <use xlink:href="#SimHei-53" x="700"/>
      <use xlink:href="#SimHei-54" x="750"/>
      <use xlink:href="#SimHei-4d" x="800"/>
      <use xlink:href="#SimHei-20" x="850"/>
      <use xlink:href="#SimHei-41" x="900"/>
      <use xlink:href="#SimHei-64" x="950"/>
      <use xlink:href="#SimHei-6a" x="1000"/>
      <use xlink:href="#SimHei-75" x="1050"/>
      <use xlink:href="#SimHei-73" x="1100"/>
      <use xlink:href="#SimHei-74" x="1150"/>
      <use xlink:href="#SimHei-65" x="1200"/>
      <use xlink:href="#SimHei-64" x="1250"/>
      <use xlink:href="#SimHei-29" x="1300"/>
     </g>
    </g>
    <g id="line2d_20">
     <path d="M 523.105 63.2 
L 533.105 63.2 
L 543.105 63.2 
" style="fill: none; stroke-dasharray: 5.55,2.4; stroke-dashoffset: 0; stroke: #f64e60; stroke-width: 1.5"/>
    </g>
    <g id="text_20">
     <!-- Forecast Data (LSTM Adjusted) -->
     <g transform="translate(551.105 66.7) scale(0.1 -0.1)">
      <defs>
       <path id="SimHei-63" d="M 2850 1250 
Q 2850 725 2487 400 
Q 2125 75 1575 75 
Q 1025 75 625 462 
Q 225 850 225 1525 
Q 225 2200 625 2587 
Q 1025 2975 1575 2975 
Q 2125 2975 2450 2687 
Q 2775 2400 2775 2000 
L 2225 2000 
Q 2200 2300 2012 2412 
Q 1825 2525 1575 2525 
Q 1275 2525 1025 2287 
Q 775 2050 775 1525 
Q 775 1000 1025 762 
Q 1275 525 1575 525 
Q 1900 525 2100 700 
Q 2300 875 2300 1250 
L 2850 1250 
z
" transform="scale(0.015625)"/>
      </defs>
      <use xlink:href="#SimHei-46"/>
      <use xlink:href="#SimHei-6f" x="50"/>
      <use xlink:href="#SimHei-72" x="100"/>
      <use xlink:href="#SimHei-65" x="150"/>
      <use xlink:href="#SimHei-63" x="200"/>
      <use xlink:href="#SimHei-61" x="250"/>
      <use xlink:href="#SimHei-73" x="300"/>
      <use xlink:href="#SimHei-74" x="350"/>
      <use xlink:href="#SimHei-20" x="400"/>
      <use xlink:href="#SimHei-44" x="450"/>
      <use xlink:href="#SimHei-61" x="500"/>
      <use xlink:href="#SimHei-74" x="550"/>
      <use xlink:href="#SimHei-61" x="600"/>
      <use xlink:href="#SimHei-20" x="650"/>
      <use xlink:href="#SimHei-28" x="700"/>
      <use xlink:href="#SimHei-4c" x="750"/>
      <use xlink:href="#SimHei-53" x="800"/>
      <use xlink:href="#SimHei-54" x="850"/>
      <use xlink:href="#SimHei-4d" x="900"/>
      <use xlink:href="#SimHei-20" x="950"/>
      <use xlink:href="#SimHei-41" x="1000"/>
      <use xlink:href="#SimHei-64" x="1050"/>
      <use xlink:href="#SimHei-6a" x="1100"/>
      <use xlink:href="#SimHei-75" x="1150"/>
      <use xlink:href="#SimHei-73" x="1200"/>
      <use xlink:href="#SimHei-74" x="1250"/>
      <use xlink:href="#SimHei-65" x="1300"/>
      <use xlink:href="#SimHei-64" x="1350"/>
      <use xlink:href="#SimHei-29" x="1400"/>
     </g>
    </g>
   </g>
  </g>
 </g>
 <defs>
  <clipPath id="pd4fa8518ad">
   <rect x="46.325" y="22.575" width="658.78" height="366.445"/>
  </clipPath>
 </defs>
</svg>
