<?xml version="1.0" encoding="utf-8" standalone="no"?>
<!DOCTYPE svg PUBLIC "-//W3C//DTD SVG 1.1//EN"
  "http://www.w3.org/Graphics/SVG/1.1/DTD/svg11.dtd">
<svg xmlns:xlink="http://www.w3.org/1999/xlink" width="712.305pt" height="423.00125pt" viewBox="0 0 712.305 423.00125" xmlns="http://www.w3.org/2000/svg" version="1.1">
 <metadata>
  <rdf:RDF xmlns:dc="http://purl.org/dc/elements/1.1/" xmlns:cc="http://creativecommons.org/ns#" xmlns:rdf="http://www.w3.org/1999/02/22-rdf-syntax-ns#">
   <cc:Work>
    <dc:type rdf:resource="http://purl.org/dc/dcmitype/StillImage"/>
    <dc:date>2024-10-05T10:55:09.543617</dc:date>
    <dc:format>image/svg+xml</dc:format>
    <dc:creator>
     <cc:Agent>
      <dc:title>Matplotlib v3.7.1, https://matplotlib.org/</dc:title>
     </cc:Agent>
    </dc:creator>
   </cc:Work>
  </rdf:RDF>
 </metadata>
 <defs>
  <style type="text/css">*{stroke-linejoin: round; stroke-linecap: butt}</style>
 </defs>
 <g id="figure_1">
  <g id="patch_1">
   <path d="M 0 423.00125 
L 712.305 423.00125 
L 712.305 0 
L 0 0 
z
" style="fill: #ffffff"/>
  </g>
  <g id="axes_1">
   <g id="patch_2">
    <path d="M 46.325 388.55125 
L 705.105 388.55125 
L 705.105 22.10625 
L 46.325 22.10625 
z
" style="fill: #ffffff"/>
   </g>
   <g id="matplotlib.axis_1">
    <g id="xtick_1">
     <g id="line2d_1">
      <defs>
       <path id="m1e1b86f272" d="M 0 0 
L 0 3.5 
" style="stroke: #000000; stroke-width: 0.8"/>
      </defs>
      <g>
       <use xlink:href="#m1e1b86f272" x="74.899086" y="388.55125" style="stroke: #000000; stroke-width: 0.8"/>
      </g>
     </g>
     <g id="text_1">
      <!-- 2016-01 -->
      <g transform="translate(57.399086 402.42625) scale(0.1 -0.1)">
       <defs>
        <path id="SimHei-32" d="M 300 250 
Q 325 625 650 925 
Q 975 1225 1475 1862 
Q 1975 2500 2125 2850 
Q 2275 3200 2237 3450 
Q 2200 3700 2000 3862 
Q 1800 4025 1537 4000 
Q 1275 3975 1037 3800 
Q 800 3625 675 3275 
L 200 3350 
Q 400 3925 712 4187 
Q 1025 4450 1450 4475 
Q 1700 4500 1900 4462 
Q 2100 4425 2312 4287 
Q 2525 4150 2662 3875 
Q 2800 3600 2762 3212 
Q 2725 2825 2375 2287 
Q 2025 1750 1025 600 
L 2825 600 
L 2825 150 
L 300 150 
L 300 250 
z
" transform="scale(0.015625)"/>
        <path id="SimHei-30" d="M 225 2537 
Q 250 3200 412 3587 
Q 575 3975 875 4225 
Q 1175 4475 1612 4475 
Q 2050 4475 2375 4112 
Q 2700 3750 2800 3200 
Q 2900 2650 2862 1937 
Q 2825 1225 2612 775 
Q 2400 325 1975 150 
Q 1550 -25 1125 187 
Q 700 400 525 750 
Q 350 1100 275 1487 
Q 200 1875 225 2537 
z
M 750 2687 
Q 675 2000 800 1462 
Q 925 925 1212 700 
Q 1500 475 1800 612 
Q 2100 750 2237 1162 
Q 2375 1575 2375 2062 
Q 2375 2550 2337 2950 
Q 2300 3350 2112 3675 
Q 1925 4000 1612 4012 
Q 1300 4025 1062 3700 
Q 825 3375 750 2687 
z
" transform="scale(0.015625)"/>
        <path id="SimHei-31" d="M 1400 3600 
Q 1075 3275 575 2975 
L 575 3450 
Q 1200 3875 1600 4450 
L 1900 4450 
L 1900 150 
L 1400 150 
L 1400 3600 
z
" transform="scale(0.015625)"/>
        <path id="SimHei-36" d="M 250 1612 
Q 275 1975 387 2225 
Q 500 2475 725 2850 
L 1750 4450 
L 2325 4450 
L 1275 2800 
Q 1950 2975 2350 2750 
Q 2750 2525 2887 2237 
Q 3025 1950 3037 1612 
Q 3050 1275 2937 950 
Q 2825 625 2537 362 
Q 2250 100 1737 75 
Q 1225 50 862 262 
Q 500 475 362 862 
Q 225 1250 250 1612 
z
M 1025 787 
Q 1250 550 1625 525 
Q 2000 500 2250 775 
Q 2500 1050 2500 1575 
Q 2500 2100 2187 2300 
Q 1875 2500 1487 2450 
Q 1100 2400 925 2075 
Q 750 1750 775 1387 
Q 800 1025 1025 787 
z
" transform="scale(0.015625)"/>
        <path id="SimHei-2d" d="M 2975 2125 
L 125 2125 
L 125 2525 
L 2975 2525 
L 2975 2125 
z
" transform="scale(0.015625)"/>
       </defs>
       <use xlink:href="#SimHei-32"/>
       <use xlink:href="#SimHei-30" x="50"/>
       <use xlink:href="#SimHei-31" x="100"/>
       <use xlink:href="#SimHei-36" x="150"/>
       <use xlink:href="#SimHei-2d" x="200"/>
       <use xlink:href="#SimHei-30" x="250"/>
       <use xlink:href="#SimHei-31" x="300"/>
      </g>
     </g>
    </g>
    <g id="xtick_2">
     <g id="line2d_2">
      <g>
       <use xlink:href="#m1e1b86f272" x="158.04031" y="388.55125" style="stroke: #000000; stroke-width: 0.8"/>
      </g>
     </g>
     <g id="text_2">
      <!-- 2016-07 -->
      <g transform="translate(140.54031 402.42625) scale(0.1 -0.1)">
       <defs>
        <path id="SimHei-37" d="M 850 150 
Q 1300 2050 2425 3925 
L 275 3925 
L 275 4375 
L 2950 4375 
L 2950 3950 
Q 1775 2050 1400 150 
L 850 150 
z
" transform="scale(0.015625)"/>
       </defs>
       <use xlink:href="#SimHei-32"/>
       <use xlink:href="#SimHei-30" x="50"/>
       <use xlink:href="#SimHei-31" x="100"/>
       <use xlink:href="#SimHei-36" x="150"/>
       <use xlink:href="#SimHei-2d" x="200"/>
       <use xlink:href="#SimHei-30" x="250"/>
       <use xlink:href="#SimHei-37" x="300"/>
      </g>
     </g>
    </g>
    <g id="xtick_3">
     <g id="line2d_3">
      <g>
       <use xlink:href="#m1e1b86f272" x="242.095175" y="388.55125" style="stroke: #000000; stroke-width: 0.8"/>
      </g>
     </g>
     <g id="text_3">
      <!-- 2017-01 -->
      <g transform="translate(224.595175 402.42625) scale(0.1 -0.1)">
       <use xlink:href="#SimHei-32"/>
       <use xlink:href="#SimHei-30" x="50"/>
       <use xlink:href="#SimHei-31" x="100"/>
       <use xlink:href="#SimHei-37" x="150"/>
       <use xlink:href="#SimHei-2d" x="200"/>
       <use xlink:href="#SimHei-30" x="250"/>
       <use xlink:href="#SimHei-31" x="300"/>
      </g>
     </g>
    </g>
    <g id="xtick_4">
     <g id="line2d_4">
      <g>
       <use xlink:href="#m1e1b86f272" x="324.779579" y="388.55125" style="stroke: #000000; stroke-width: 0.8"/>
      </g>
     </g>
     <g id="text_4">
      <!-- 2017-07 -->
      <g transform="translate(307.279579 402.42625) scale(0.1 -0.1)">
       <use xlink:href="#SimHei-32"/>
       <use xlink:href="#SimHei-30" x="50"/>
       <use xlink:href="#SimHei-31" x="100"/>
       <use xlink:href="#SimHei-37" x="150"/>
       <use xlink:href="#SimHei-2d" x="200"/>
       <use xlink:href="#SimHei-30" x="250"/>
       <use xlink:href="#SimHei-37" x="300"/>
      </g>
     </g>
    </g>
    <g id="xtick_5">
     <g id="line2d_5">
      <g>
       <use xlink:href="#m1e1b86f272" x="408.834444" y="388.55125" style="stroke: #000000; stroke-width: 0.8"/>
      </g>
     </g>
     <g id="text_5">
      <!-- 2018-01 -->
      <g transform="translate(391.334444 402.42625) scale(0.1 -0.1)">
       <defs>
        <path id="SimHei-38" d="M 175 1375 
Q 175 1675 325 1962 
Q 475 2250 825 2425 
Q 525 2600 425 2812 
Q 325 3025 312 3300 
Q 300 3575 387 3775 
Q 475 3975 650 4150 
Q 825 4325 1037 4387 
Q 1250 4450 1500 4450 
Q 1750 4450 1950 4400 
Q 2150 4350 2375 4187 
Q 2600 4025 2700 3725 
Q 2800 3425 2687 3025 
Q 2575 2625 2100 2400 
Q 2525 2275 2700 2012 
Q 2875 1750 2875 1375 
Q 2875 1000 2762 775 
Q 2650 550 2512 400 
Q 2375 250 2137 162 
Q 1900 75 1537 75 
Q 1175 75 912 162 
Q 650 250 475 425 
Q 300 600 237 837 
Q 175 1075 175 1375 
z
M 687 1400 
Q 675 1100 787 875 
Q 900 650 1200 587 
Q 1500 525 1825 600 
Q 2150 675 2275 950 
Q 2400 1225 2362 1500 
Q 2325 1775 2050 1962 
Q 1775 2150 1450 2125 
Q 1125 2100 912 1900 
Q 700 1700 687 1400 
z
M 775 3350 
Q 775 3100 950 2875 
Q 1125 2650 1500 2650 
Q 1875 2650 2062 2875 
Q 2250 3100 2237 3412 
Q 2225 3725 2012 3875 
Q 1800 4025 1437 4000 
Q 1075 3975 925 3787 
Q 775 3600 775 3350 
z
" transform="scale(0.015625)"/>
       </defs>
       <use xlink:href="#SimHei-32"/>
       <use xlink:href="#SimHei-30" x="50"/>
       <use xlink:href="#SimHei-31" x="100"/>
       <use xlink:href="#SimHei-38" x="150"/>
       <use xlink:href="#SimHei-2d" x="200"/>
       <use xlink:href="#SimHei-30" x="250"/>
       <use xlink:href="#SimHei-31" x="300"/>
      </g>
     </g>
    </g>
    <g id="xtick_6">
     <g id="line2d_6">
      <g>
       <use xlink:href="#m1e1b86f272" x="491.518849" y="388.55125" style="stroke: #000000; stroke-width: 0.8"/>
      </g>
     </g>
     <g id="text_6">
      <!-- 2018-07 -->
      <g transform="translate(474.018849 402.42625) scale(0.1 -0.1)">
       <use xlink:href="#SimHei-32"/>
       <use xlink:href="#SimHei-30" x="50"/>
       <use xlink:href="#SimHei-31" x="100"/>
       <use xlink:href="#SimHei-38" x="150"/>
       <use xlink:href="#SimHei-2d" x="200"/>
       <use xlink:href="#SimHei-30" x="250"/>
       <use xlink:href="#SimHei-37" x="300"/>
      </g>
     </g>
    </g>
    <g id="xtick_7">
     <g id="line2d_7">
      <g>
       <use xlink:href="#m1e1b86f272" x="575.573713" y="388.55125" style="stroke: #000000; stroke-width: 0.8"/>
      </g>
     </g>
     <g id="text_7">
      <!-- 2019-01 -->
      <g transform="translate(558.073713 402.42625) scale(0.1 -0.1)">
       <defs>
        <path id="SimHei-39" d="M 800 75 
Q 1350 1000 1700 1750 
Q 1075 1650 662 1912 
Q 250 2175 162 2625 
Q 75 3075 175 3437 
Q 275 3800 487 4037 
Q 700 4275 1000 4375 
Q 1300 4475 1537 4475 
Q 1775 4475 2025 4375 
Q 2275 4275 2475 4075 
Q 2675 3875 2750 3662 
Q 2825 3450 2825 3112 
Q 2825 2775 2575 2250 
Q 2325 1725 1350 75 
L 800 75 
z
M 662 2875 
Q 700 2550 937 2337 
Q 1175 2125 1450 2150 
Q 1725 2175 1887 2300 
Q 2050 2425 2200 2725 
Q 2300 3100 2250 3362 
Q 2200 3625 1987 3800 
Q 1775 3975 1525 3975 
Q 1375 4000 1137 3900 
Q 900 3800 762 3500 
Q 625 3200 662 2875 
z
" transform="scale(0.015625)"/>
       </defs>
       <use xlink:href="#SimHei-32"/>
       <use xlink:href="#SimHei-30" x="50"/>
       <use xlink:href="#SimHei-31" x="100"/>
       <use xlink:href="#SimHei-39" x="150"/>
       <use xlink:href="#SimHei-2d" x="200"/>
       <use xlink:href="#SimHei-30" x="250"/>
       <use xlink:href="#SimHei-31" x="300"/>
      </g>
     </g>
    </g>
    <g id="xtick_8">
     <g id="line2d_8">
      <g>
       <use xlink:href="#m1e1b86f272" x="658.258118" y="388.55125" style="stroke: #000000; stroke-width: 0.8"/>
      </g>
     </g>
     <g id="text_8">
      <!-- 2019-07 -->
      <g transform="translate(640.758118 402.42625) scale(0.1 -0.1)">
       <use xlink:href="#SimHei-32"/>
       <use xlink:href="#SimHei-30" x="50"/>
       <use xlink:href="#SimHei-31" x="100"/>
       <use xlink:href="#SimHei-39" x="150"/>
       <use xlink:href="#SimHei-2d" x="200"/>
       <use xlink:href="#SimHei-30" x="250"/>
       <use xlink:href="#SimHei-37" x="300"/>
      </g>
     </g>
    </g>
    <g id="text_9">
     <!-- Date -->
     <g transform="translate(365.715 414.55125) scale(0.1 -0.1)">
      <defs>
       <path id="SimHei-44" d="M 2925 2250 
Q 2925 1100 2437 612 
Q 1950 125 1125 125 
L 275 125 
L 275 4400 
L 1125 4400 
Q 2050 4400 2487 3900 
Q 2925 3400 2925 2250 
z
M 2325 2250 
Q 2325 3175 2025 3550 
Q 1725 3925 1125 3925 
L 850 3925 
L 850 600 
L 1125 600 
Q 1725 600 2025 962 
Q 2325 1325 2325 2250 
z
" transform="scale(0.015625)"/>
       <path id="SimHei-61" d="M 2875 125 
L 2275 125 
Q 2225 175 2200 262 
Q 2175 350 2175 475 
Q 2000 275 1750 175 
Q 1500 75 1225 75 
Q 825 75 550 275 
Q 275 475 275 850 
Q 275 1225 525 1450 
Q 775 1675 1300 1750 
Q 1650 1800 1912 1875 
Q 2175 1950 2175 2075 
Q 2175 2225 2062 2375 
Q 1950 2525 1575 2525 
Q 1275 2525 1137 2412 
Q 1000 2300 950 2100 
L 400 2100 
Q 450 2500 762 2737 
Q 1075 2975 1575 2975 
Q 2125 2975 2400 2725 
Q 2675 2475 2675 2025 
L 2675 650 
Q 2675 500 2725 375 
Q 2775 250 2875 125 
z
M 2175 1050 
L 2175 1550 
Q 2025 1500 1887 1462 
Q 1750 1425 1425 1375 
Q 1050 1325 937 1200 
Q 825 1075 825 900 
Q 825 750 937 637 
Q 1050 525 1275 525 
Q 1500 525 1762 650 
Q 2025 775 2175 1050 
z
" transform="scale(0.015625)"/>
       <path id="SimHei-74" d="M 2750 200 
Q 2625 150 2462 112 
Q 2300 75 2025 75 
Q 1575 75 1300 325 
Q 1025 575 1025 1025 
L 1025 2525 
L 175 2525 
L 175 2925 
L 1025 2925 
L 1025 3900 
L 1525 3900 
L 1525 2925 
L 2550 2925 
L 2550 2525 
L 1525 2525 
L 1525 1000 
Q 1525 800 1625 662 
Q 1725 525 2000 525 
Q 2275 525 2450 575 
Q 2625 625 2750 700 
L 2750 200 
z
" transform="scale(0.015625)"/>
       <path id="SimHei-65" d="M 2850 1075 
Q 2800 625 2450 350 
Q 2100 75 1625 75 
Q 1025 75 637 462 
Q 250 850 250 1525 
Q 250 2200 637 2587 
Q 1025 2975 1625 2975 
Q 2150 2975 2487 2637 
Q 2825 2300 2825 1525 
L 800 1525 
Q 800 975 1037 750 
Q 1275 525 1625 525 
Q 1900 525 2075 662 
Q 2250 800 2300 1075 
L 2850 1075 
z
M 2250 1925 
Q 2200 2275 2025 2412 
Q 1850 2550 1575 2550 
Q 1325 2550 1125 2412 
Q 925 2275 825 1925 
L 2250 1925 
z
" transform="scale(0.015625)"/>
      </defs>
      <use xlink:href="#SimHei-44"/>
      <use xlink:href="#SimHei-61" x="50"/>
      <use xlink:href="#SimHei-74" x="100"/>
      <use xlink:href="#SimHei-65" x="150"/>
     </g>
    </g>
   </g>
   <g id="matplotlib.axis_2">
    <g id="ytick_1">
     <g id="line2d_9">
      <defs>
       <path id="mc65a3fa451" d="M 0 0 
L -3.5 0 
" style="stroke: #000000; stroke-width: 0.8"/>
      </defs>
      <g>
       <use xlink:href="#mc65a3fa451" x="46.325" y="329.633051" style="stroke: #000000; stroke-width: 0.8"/>
      </g>
     </g>
     <g id="text_10">
      <!-- 2600 -->
      <g transform="translate(19.325 333.070551) scale(0.1 -0.1)">
       <use xlink:href="#SimHei-32"/>
       <use xlink:href="#SimHei-36" x="50"/>
       <use xlink:href="#SimHei-30" x="100"/>
       <use xlink:href="#SimHei-30" x="150"/>
      </g>
     </g>
    </g>
    <g id="ytick_2">
     <g id="line2d_10">
      <g>
       <use xlink:href="#mc65a3fa451" x="46.325" y="269.044465" style="stroke: #000000; stroke-width: 0.8"/>
      </g>
     </g>
     <g id="text_11">
      <!-- 2800 -->
      <g transform="translate(19.325 272.481965) scale(0.1 -0.1)">
       <use xlink:href="#SimHei-32"/>
       <use xlink:href="#SimHei-38" x="50"/>
       <use xlink:href="#SimHei-30" x="100"/>
       <use xlink:href="#SimHei-30" x="150"/>
      </g>
     </g>
    </g>
    <g id="ytick_3">
     <g id="line2d_11">
      <g>
       <use xlink:href="#mc65a3fa451" x="46.325" y="208.455878" style="stroke: #000000; stroke-width: 0.8"/>
      </g>
     </g>
     <g id="text_12">
      <!-- 3000 -->
      <g transform="translate(19.325 211.893378) scale(0.1 -0.1)">
       <defs>
        <path id="SimHei-33" d="M 250 1225 
L 700 1300 
Q 800 975 1025 762 
Q 1250 550 1587 562 
Q 1925 575 2125 837 
Q 2325 1100 2300 1437 
Q 2275 1775 2037 1962 
Q 1800 2150 1275 2225 
L 1275 2550 
Q 1800 2600 2037 2825 
Q 2275 3050 2250 3412 
Q 2225 3775 1925 3937 
Q 1625 4100 1287 3975 
Q 950 3850 750 3275 
L 300 3350 
Q 450 3800 712 4100 
Q 975 4400 1425 4450 
Q 1875 4500 2212 4337 
Q 2550 4175 2687 3837 
Q 2825 3500 2725 3100 
Q 2625 2700 2150 2400 
Q 2500 2250 2687 1950 
Q 2875 1650 2812 1162 
Q 2750 675 2375 375 
Q 2000 75 1525 87 
Q 1050 100 700 387 
Q 350 675 250 1225 
z
" transform="scale(0.015625)"/>
       </defs>
       <use xlink:href="#SimHei-33"/>
       <use xlink:href="#SimHei-30" x="50"/>
       <use xlink:href="#SimHei-30" x="100"/>
       <use xlink:href="#SimHei-30" x="150"/>
      </g>
     </g>
    </g>
    <g id="ytick_4">
     <g id="line2d_12">
      <g>
       <use xlink:href="#mc65a3fa451" x="46.325" y="147.867292" style="stroke: #000000; stroke-width: 0.8"/>
      </g>
     </g>
     <g id="text_13">
      <!-- 3200 -->
      <g transform="translate(19.325 151.304792) scale(0.1 -0.1)">
       <use xlink:href="#SimHei-33"/>
       <use xlink:href="#SimHei-32" x="50"/>
       <use xlink:href="#SimHei-30" x="100"/>
       <use xlink:href="#SimHei-30" x="150"/>
      </g>
     </g>
    </g>
    <g id="ytick_5">
     <g id="line2d_13">
      <g>
       <use xlink:href="#mc65a3fa451" x="46.325" y="87.278706" style="stroke: #000000; stroke-width: 0.8"/>
      </g>
     </g>
     <g id="text_14">
      <!-- 3400 -->
      <g transform="translate(19.325 90.716206) scale(0.1 -0.1)">
       <defs>
        <path id="SimHei-34" d="M 2000 1100 
L 75 1100 
L 75 1525 
L 2100 4450 
L 2475 4450 
L 2475 1525 
L 3075 1525 
L 3075 1100 
L 2475 1100 
L 2475 150 
L 2000 150 
L 2000 1100 
z
M 2000 1525 
L 2000 3500 
L 600 1525 
L 2000 1525 
z
" transform="scale(0.015625)"/>
       </defs>
       <use xlink:href="#SimHei-33"/>
       <use xlink:href="#SimHei-34" x="50"/>
       <use xlink:href="#SimHei-30" x="100"/>
       <use xlink:href="#SimHei-30" x="150"/>
      </g>
     </g>
    </g>
    <g id="ytick_6">
     <g id="line2d_14">
      <g>
       <use xlink:href="#mc65a3fa451" x="46.325" y="26.690119" style="stroke: #000000; stroke-width: 0.8"/>
      </g>
     </g>
     <g id="text_15">
      <!-- 3600 -->
      <g transform="translate(19.325 30.127619) scale(0.1 -0.1)">
       <use xlink:href="#SimHei-33"/>
       <use xlink:href="#SimHei-36" x="50"/>
       <use xlink:href="#SimHei-30" x="100"/>
       <use xlink:href="#SimHei-30" x="150"/>
      </g>
     </g>
    </g>
    <g id="text_16">
     <!-- Value -->
     <g transform="translate(14.075 217.82875) rotate(-90) scale(0.1 -0.1)">
      <defs>
       <path id="SimHei-56" d="M 3050 4400 
L 1800 75 
L 1300 75 
L 50 4400 
L 650 4400 
L 1525 1125 
L 1575 1125 
L 2450 4400 
L 3050 4400 
z
" transform="scale(0.015625)"/>
       <path id="SimHei-6c" d="M 1825 125 
L 1325 125 
L 1325 4400 
L 1825 4400 
L 1825 125 
z
" transform="scale(0.015625)"/>
       <path id="SimHei-75" d="M 2800 125 
L 2300 125 
L 2300 650 
Q 2100 375 1862 225 
Q 1625 75 1250 75 
Q 800 75 575 325 
Q 350 575 350 950 
L 350 2925 
L 850 2925 
L 850 1125 
Q 850 825 1000 650 
Q 1150 475 1400 475 
Q 1725 475 2012 812 
Q 2300 1150 2300 1650 
L 2300 2925 
L 2800 2925 
L 2800 125 
z
" transform="scale(0.015625)"/>
      </defs>
      <use xlink:href="#SimHei-56"/>
      <use xlink:href="#SimHei-61" x="50"/>
      <use xlink:href="#SimHei-6c" x="100"/>
      <use xlink:href="#SimHei-75" x="150"/>
      <use xlink:href="#SimHei-65" x="200"/>
     </g>
    </g>
   </g>
   <g id="line2d_15">
    <path d="M 76.269545 118.706611 
L 76.726365 121.295865 
L 77.183185 98.839008 
L 77.640005 170.587406 
L 78.096825 151.983681 
L 79.467285 203.39552 
L 79.924105 201.5303 
L 80.380925 223.725111 
L 80.837745 206.138668 
L 81.294565 238.456317 
L 82.665024 234.558441 
L 83.121844 206.111312 
L 83.578664 215.516327 
L 84.035484 244.663133 
L 84.492304 233.73271 
L 85.862764 227.082355 
L 86.319584 284.256623 
L 86.776404 288.566774 
L 87.233223 312.770975 
L 87.690043 287.948225 
L 89.060503 302.715481 
L 89.517323 284.321786 
L 89.974143 287.449187 
L 90.430963 274.793504 
L 90.887783 280.104305 
L 95.455982 285.344067 
L 95.912802 257.96569 
L 96.369622 248.644924 
L 96.826442 249.991566 
L 97.283262 250.861588 
L 98.653721 230.517697 
L 99.110541 237.740978 
L 99.567361 229.996333 
L 100.024181 286.843756 
L 100.481001 278.978054 
L 101.851461 302.980496 
L 102.308281 289.290141 
L 102.765101 253.993927 
L 103.22192 250.94114 
L 103.67874 246.582216 
L 105.0492 239.556151 
L 105.50602 238.32999 
L 105.96284 250.093567 
L 106.41966 267.612908 
L 106.87648 265.921911 
L 108.24694 251.019663 
L 109.160579 247.708194 
L 109.617399 237.286382 
L 110.074219 222.042929 
L 111.444679 202.760036 
L 111.901499 208.648914 
L 112.358319 205.438446 
L 112.815139 220.27962 
L 113.271959 214.686112 
L 114.642418 221.234011 
L 115.099238 232.742268 
L 115.556058 208.26051 
L 116.012878 207.269796 
L 116.469698 205.568893 
L 118.296978 192.380091 
L 118.753798 193.12939 
L 119.210618 205.905099 
L 119.667437 213.012685 
L 121.037897 198.168845 
L 121.494717 201.292369 
L 121.951537 188.268337 
L 122.408357 183.505044 
L 122.865177 184.791007 
L 124.235637 198.258698 
L 124.692456 195.482893 
L 125.149276 216.761453 
L 125.606096 222.727187 
L 126.062916 220.803832 
L 127.433376 224.611704 
L 127.890196 219.149855 
L 128.347016 222.490952 
L 129.260656 227.140338 
L 131.087935 210.684569 
L 131.544755 211.099934 
L 132.001575 209.10975 
L 132.458395 234.736905 
L 133.828855 259.31621 
L 134.285675 259.171191 
L 134.742495 257.824307 
L 135.199315 258.180386 
L 135.656134 260.832076 
L 137.026594 253.636272 
L 137.483414 255.810675 
L 137.940234 266.768121 
L 138.397054 266.952311 
L 138.853874 261.32454 
L 140.224334 255.82252 
L 140.681154 262.480812 
L 141.137973 264.474177 
L 141.594793 262.245547 
L 142.051613 262.668728 
L 143.422073 262.243123 
L 143.878893 233.716472 
L 144.335713 234.658109 
L 145.249353 227.031733 
L 146.619812 228.420454 
L 147.076632 227.830624 
L 147.533452 230.522544 
L 149.817552 259.02593 
L 150.274372 256.263727 
L 150.731192 242.624781 
L 151.188012 246.98519 
L 151.644831 243.262507 
L 153.015291 242.140376 
L 153.472111 245.246025 
L 153.928931 237.06899 
L 154.385751 241.185772 
L 154.842571 252.598784 
L 156.669851 234.945996 
L 157.12667 229.179508 
L 157.58349 229.781334 
L 158.04031 228.911858 
L 159.86759 206.519497 
L 160.32441 203.217268 
L 160.78123 203.35229 
L 161.23805 212.062747 
L 162.608509 209.995828 
L 163.065329 193.496253 
L 163.522149 190.070484 
L 163.978969 192.091447 
L 164.435789 192.007289 
L 165.806249 195.258382 
L 166.719889 200.003922 
L 167.176709 196.638347 
L 167.633529 204.573453 
L 169.003988 203.660958 
L 169.460808 193.258413 
L 169.917628 210.879694 
L 170.374448 210.175564 
L 170.831268 214.715043 
L 172.201728 222.577442 
L 172.658548 217.156793 
L 173.115368 214.981027 
L 173.572187 213.779767 
L 174.029007 215.5156 
L 175.399467 207.160282 
L 175.856287 200.676152 
L 176.313107 202.77694 
L 176.769927 207.656836 
L 177.226747 193.106548 
L 178.597207 170.528877 
L 179.054026 175.120977 
L 179.510846 175.266996 
L 179.967666 176.915339 
L 180.424486 175.707142 
L 181.794946 182.764773 
L 182.251766 181.280231 
L 182.708586 182.439018 
L 183.165406 187.75597 
L 183.622226 187.156324 
L 184.992685 187.241603 
L 185.449505 185.83307 
L 185.906325 182.556984 
L 186.363145 189.277955 
L 186.819965 188.052066 
L 188.190425 186.615117 
L 188.647245 180.975107 
L 189.104065 180.60691 
L 189.560884 179.387201 
L 190.017704 184.567374 
L 191.388164 201.798071 
L 191.844984 201.333842 
L 192.301804 207.592915 
L 194.585904 200.563821 
L 195.042723 201.488342 
L 195.499543 200.617654 
L 195.956363 195.637394 
L 196.413183 198.187446 
L 197.783643 214.384623 
L 198.240463 209.009567 
L 198.697283 212.134333 
L 199.154103 208.915534 
L 199.610923 207.031138 
L 204.179122 193.871357 
L 204.635942 188.688943 
L 205.092762 190.734292 
L 206.006401 189.125514 
L 207.376861 195.984839 
L 207.833681 183.04651 
L 208.290501 182.790886 
L 208.747321 182.870015 
L 209.204141 180.905885 
L 210.574601 169.604447 
L 211.03142 168.486042 
L 211.48824 173.22001 
L 211.94506 174.420301 
L 212.40188 176.867928 
L 213.77234 178.012537 
L 214.22916 171.364879 
L 214.68598 177.333763 
L 215.1428 169.39575 
L 215.59962 170.49207 
L 216.970079 168.06371 
L 217.426899 163.654406 
L 217.883719 169.567034 
L 218.340539 156.567207 
L 218.797359 149.065855 
L 220.167819 144.725471 
L 220.624639 145.750993 
L 221.081459 146.335249 
L 221.538279 145.306667 
L 221.995098 150.031547 
L 223.365558 142.369575 
L 223.822378 133.219486 
L 224.279198 135.40525 
L 224.736018 135.223696 
L 225.192838 129.103673 
L 227.020118 122.746113 
L 227.476937 132.709724 
L 227.933757 125.658758 
L 228.390577 134.585304 
L 229.761037 146.440673 
L 230.217857 147.97414 
L 230.674677 141.129387 
L 231.131497 143.212332 
L 231.588317 137.905498 
L 232.958776 162.114577 
L 233.415596 161.488394 
L 233.872416 165.883066 
L 234.329236 172.806463 
L 234.786056 171.199502 
L 236.156516 172.682983 
L 236.613336 177.290352 
L 237.070156 166.822522 
L 237.526976 166.177769 
L 237.983796 175.085382 
L 239.354255 171.324466 
L 239.811075 173.71923 
L 240.267895 177.484296 
L 240.724715 179.344032 
L 241.181535 177.059691 
L 243.008815 167.279633 
L 243.465634 160.350358 
L 243.922454 158.345815 
L 244.379274 161.705422 
L 245.749734 156.581082 
L 246.206554 159.478701 
L 246.663374 167.027372 
L 247.120194 172.31824 
L 247.577014 174.2947 
L 248.947473 177.123097 
L 249.861113 174.219601 
L 250.317933 177.768002 
L 250.774753 171.151819 
L 252.145213 167.020919 
L 253.058853 163.149339 
L 253.515673 160.237664 
L 257.170232 165.992368 
L 258.540692 160.898746 
L 258.997512 162.079011 
L 260.367971 148.867307 
L 261.738431 142.765915 
L 262.195251 142.436131 
L 262.652071 143.933366 
L 263.108891 138.894607 
L 263.565711 147.238504 
L 265.39299 131.712648 
L 265.84981 129.32161 
L 266.30663 132.303599 
L 266.76345 131.680233 
L 268.13391 139.184887 
L 268.59073 135.224544 
L 269.04755 133.64912 
L 269.50437 138.770491 
L 269.96119 142.319862 
L 271.331649 137.607918 
L 271.788469 135.020603 
L 272.245289 135.548239 
L 272.702109 142.794301 
L 273.158929 144.00171 
L 274.529389 136.651012 
L 275.443029 135.216486 
L 275.899848 126.9838 
L 276.356668 136.522958 
L 277.727128 132.475307 
L 278.183948 129.202736 
L 278.640768 134.168273 
L 279.097588 133.159564 
L 279.554408 126.82939 
L 280.924868 127.583687 
L 281.838507 135.351387 
L 282.295327 144.766096 
L 282.752147 141.046774 
L 285.493067 123.327491 
L 285.949887 121.627587 
L 287.320346 126.845294 
L 287.777166 120.915762 
L 288.233986 125.500985 
L 288.690806 124.855656 
L 289.147626 133.911681 
L 290.518086 141.151865 
L 291.431726 156.747549 
L 292.345365 156.000946 
L 293.715825 169.215317 
L 294.629465 165.787245 
L 295.086285 162.351933 
L 295.543105 161.603209 
L 297.370385 164.919313 
L 298.284024 169.870431 
L 298.740844 177.241305 
L 300.111304 184.640656 
L 300.568124 184.060823 
L 301.024944 192.465036 
L 301.481764 189.824797 
L 301.938584 183.156145 
L 303.309043 181.121671 
L 303.765863 174.234172 
L 304.222683 176.816064 
L 304.679503 181.148905 
L 305.136323 180.999888 
L 306.506783 185.53049 
L 306.963603 189.689473 
L 307.420423 189.044537 
L 307.877243 175.789209 
L 308.334062 175.114373 
L 310.618162 172.957692 
L 311.074982 177.366905 
L 311.531802 176.483281 
L 312.902262 180.689311 
L 313.359082 177.517529 
L 313.815901 165.945442 
L 314.729541 160.469597 
L 316.100001 166.081251 
L 316.556821 161.880554 
L 317.013641 168.869114 
L 317.470461 168.32009 
L 317.927281 171.143549 
L 319.29774 164.718826 
L 319.75456 166.039748 
L 320.21138 161.132618 
L 320.6682 163.785974 
L 321.12502 160.629369 
L 322.49548 152.27696 
L 322.9523 150.534129 
L 323.40912 155.985738 
L 323.86594 151.483673 
L 324.32276 150.161509 
L 325.693219 149.105844 
L 326.150039 153.076729 
L 326.606859 145.706037 
L 327.520499 142.427437 
L 328.890959 144.040547 
L 329.347779 146.947103 
L 329.804599 148.61135 
L 330.261418 142.364879 
L 330.718238 141.076281 
L 332.088698 154.997115 
L 332.545518 151.633721 
L 333.002338 138.483271 
L 333.459158 134.275848 
L 333.915978 136.361004 
L 335.286437 132.538713 
L 335.743257 134.631897 
L 336.200077 133.424548 
L 336.656897 132.786369 
L 337.113717 131.738489 
L 338.484177 125.743885 
L 338.940997 119.803174 
L 339.397817 122.099936 
L 340.311457 129.060322 
L 341.681916 123.796477 
L 342.138736 123.064506 
L 342.595556 124.972986 
L 343.052376 129.160748 
L 343.509196 145.279766 
L 344.879656 136.549284 
L 345.336476 132.337922 
L 345.793296 133.795229 
L 346.250115 127.136968 
L 346.706935 127.047751 
L 348.077395 121.539885 
L 348.534215 120.534054 
L 348.991035 121.297712 
L 349.447855 126.203328 
L 349.904675 108.023601 
L 351.275135 98.5932 
L 351.731954 97.813213 
L 352.188774 98.29777 
L 352.645594 99.150948 
L 353.102414 97.239651 
L 354.929694 92.02976 
L 355.386514 91.705065 
L 355.843334 97.731024 
L 356.300154 97.808214 
L 358.584253 92.08126 
L 359.041073 95.935118 
L 359.497893 101.329441 
L 360.868353 98.5304 
L 361.325173 100.352329 
L 361.781993 97.580007 
L 362.238812 100.059171 
L 362.695632 101.659588 
L 364.066092 104.986114 
L 364.979732 103.858257 
L 365.436552 105.563705 
L 365.893372 102.746033 
L 370.461571 95.040679 
L 370.918391 92.432401 
L 371.375211 90.828046 
L 371.832031 91.489612 
L 372.288851 90.149605 
L 373.65931 93.800946 
L 374.11613 95.748778 
L 374.57295 92.794176 
L 375.02977 96.314857 
L 375.48659 93.747113 
L 376.85705 93.125807 
L 377.77069 88.218586 
L 378.684329 82.185508 
L 380.054789 90.206013 
L 380.968429 88.516985 
L 381.882069 95.838631 
L 383.252529 90.861248 
L 383.709349 83.166316 
L 384.166168 82.595147 
L 384.622988 78.858528 
L 386.450268 72.787188 
L 386.907088 78.327287 
L 387.363908 86.513926 
L 387.820728 87.505822 
L 388.277548 92.456758 
L 389.648007 89.581435 
L 390.561647 78.049761 
L 391.018467 101.844747 
L 391.475287 101.268398 
L 392.845747 110.838638 
L 393.302567 107.376849 
L 393.759387 106.102974 
L 394.216207 112.365895 
L 394.673026 112.235932 
L 396.043486 114.659203 
L 396.500306 116.459653 
L 396.957126 119.40132 
L 397.413946 126.038981 
L 397.870766 120.604731 
L 399.241226 110.848999 
L 399.698046 123.385383 
L 400.154865 116.65287 
L 400.611685 119.863702 
L 401.068505 127.831525 
L 402.438965 127.290681 
L 402.895785 118.621666 
L 403.352605 121.327764 
L 403.809425 117.555034 
L 404.266245 118.462742 
L 405.636704 123.492201 
L 406.093524 115.717595 
L 406.550344 124.909428 
L 407.007164 118.668228 
L 409.291264 102.933009 
L 410.204904 91.6077 
L 412.032183 84.406958 
L 412.489003 83.06792 
L 412.945823 80.664159 
L 413.859463 78.511325 
L 415.229923 84.10138 
L 415.686743 76.192812 
L 416.143563 73.745851 
L 416.600382 64.63251 
L 417.057202 60.660928 
L 418.427662 56.571744 
L 418.884482 42.896112 
L 419.341302 38.96982 
L 419.798122 42.350148 
L 420.254942 39.374703 
L 421.625401 50.016513 
L 422.082221 60.617001 
L 422.539041 62.790798 
L 422.995861 73.046477 
L 423.452681 68.471766 
L 424.823141 60.772108 
L 425.279961 96.169475 
L 426.193601 129.069562 
L 426.650421 169.118496 
L 428.02088 161.764678 
L 428.4777 152.423948 
L 428.93452 148.122097 
L 432.589079 127.097858 
L 433.045899 120.89807 
L 434.416359 108.613855 
L 435.329999 129.870058 
L 435.786819 125.523766 
L 436.243639 131.348329 
L 437.614099 130.621872 
L 438.070918 120.710912 
L 438.527738 126.155887 
L 439.441378 115.402231 
L 440.811838 109.484665 
L 441.725478 120.183791 
L 442.182298 120.265556 
L 442.639118 126.697004 
L 444.009577 123.85855 
L 444.466397 120.408575 
L 444.923217 123.343426 
L 445.380037 128.636384 
L 445.836857 162.178074 
L 447.207317 167.945804 
L 447.664137 157.970802 
L 448.120957 171.409139 
L 448.577777 159.824268 
L 449.034596 157.289847 
L 450.405056 159.021954 
L 450.861876 167.063816 
L 451.318696 168.736606 
L 453.602796 166.56081 
L 454.059615 150.799295 
L 454.516435 145.418968 
L 454.973255 153.878195 
L 455.430075 160.272169 
L 456.800535 174.935576 
L 457.257355 188.22029 
L 458.170995 172.897649 
L 458.627815 186.782584 
L 459.998274 187.852124 
L 460.455094 169.398325 
L 460.911914 172.716519 
L 461.368734 185.72604 
L 461.825554 183.544396 
L 464.109654 183.863789 
L 464.566474 177.901478 
L 465.023293 180.877953 
L 466.393753 167.060302 
L 466.850573 159.531322 
L 467.307393 160.24245 
L 467.764213 155.618784 
L 468.221033 158.996446 
L 469.591493 155.734114 
L 470.048313 150.254997 
L 470.505132 157.0873 
L 470.961952 161.717086 
L 471.418772 149.89598 
L 472.789232 143.674441 
L 473.246052 143.520152 
L 473.702872 157.269368 
L 474.616512 165.649073 
L 475.986971 167.533711 
L 476.443791 171.963221 
L 476.900611 195.900893 
L 477.357431 179.532796 
L 477.814251 185.693595 
L 479.184711 180.83024 
L 479.641531 173.858129 
L 480.098351 173.562821 
L 480.555171 175.283991 
L 481.01199 188.113927 
L 482.38245 192.465611 
L 482.83927 184.280487 
L 483.29609 193.370381 
L 483.75291 195.078009 
L 484.20973 201.821186 
L 486.03701 236.380522 
L 486.493829 233.984455 
L 486.950649 246.078391 
L 487.407469 241.852216 
L 488.777929 251.068922 
L 489.234749 255.56105 
L 490.148389 273.014047 
L 490.605209 254.679487 
L 491.975668 276.449299 
L 492.432488 273.016713 
L 493.346128 289.074476 
L 493.802948 285.031218 
L 495.173408 264.467149 
L 495.630228 260.675606 
L 496.087048 275.778553 
L 496.543868 257.636058 
L 497.000688 259.597583 
L 498.371147 264.790601 
L 498.827967 269.61221 
L 499.284787 272.904867 
L 499.741607 277.361642 
L 500.198427 260.176962 
L 501.568887 251.006516 
L 502.025707 237.065264 
L 502.482527 237.64543 
L 502.939346 244.134861 
L 503.396166 246.749743 
L 504.766626 248.126407 
L 505.223446 245.899352 
L 506.137086 278.731398 
L 506.593906 287.086867 
L 507.964366 297.776633 
L 508.421185 275.292966 
L 508.878005 285.988184 
L 509.334825 270.746459 
L 509.791645 270.465297 
L 511.162105 273.324442 
L 511.618925 274.811105 
L 512.075745 292.293032 
L 512.532565 297.765969 
L 512.989385 308.740289 
L 514.359844 299.803533 
L 514.816664 289.091289 
L 515.273484 294.913307 
L 515.730304 291.87897 
L 516.187124 290.422905 
L 517.557584 274.830978 
L 518.014404 275.715026 
L 518.471224 278.346418 
L 518.928043 287.906691 
L 519.384863 291.689479 
L 520.755323 293.057418 
L 521.212143 284.015783 
L 521.668963 298.024955 
L 522.125783 301.885629 
L 522.582603 298.641777 
L 523.953063 308.583213 
L 524.409882 310.00244 
L 524.866702 312.634893 
L 525.323522 303.404737 
L 525.780342 304.899851 
L 527.150802 313.944061 
L 527.607622 299.353875 
L 528.064442 289.992878 
L 528.521262 290.479555 
L 528.978082 269.806427 
L 530.805361 274.758423 
L 531.262181 266.980424 
L 531.719001 271.536231 
L 532.175821 262.576603 
L 536.74402 294.337049 
L 537.65766 291.511712 
L 538.11448 334.644485 
L 538.5713 327.538958 
L 539.94176 339.297415 
L 540.39858 345.892119 
L 540.855399 341.261818 
L 541.312219 364.041733 
L 541.769039 344.639269 
L 543.139499 313.008694 
L 543.596319 331.200629 
L 544.053139 328.634824 
L 544.509959 328.482019 
L 544.966779 329.982405 
L 546.337238 347.172447 
L 546.794058 339.312653 
L 547.250878 328.7899 
L 547.707698 327.743535 
L 548.164518 306.465127 
L 549.534978 309.811313 
L 549.991798 311.651449 
L 550.448618 317.108784 
L 550.905438 318.838528 
L 551.362257 329.974922 
L 552.732717 320.387384 
L 553.189537 313.007694 
L 553.646357 319.865414 
L 554.103177 308.98131 
L 554.559997 305.667327 
L 555.930457 298.274944 
L 556.387277 315.741754 
L 556.844096 314.029885 
L 557.300916 315.869172 
L 557.757736 335.848501 
L 559.585016 337.303809 
L 560.041836 329.106991 
L 560.498656 339.495843 
L 562.325935 313.032384 
L 562.782755 309.651632 
L 563.239575 314.544948 
L 563.696395 328.063413 
L 564.153215 327.849444 
L 565.523675 334.303765 
L 566.437315 328.980936 
L 566.894135 319.318117 
L 567.350955 331.529262 
L 568.721414 330.246904 
L 569.178234 336.70692 
L 569.635054 344.912463 
L 570.091874 348.940362 
L 570.548694 355.00434 
L 571.919154 351.745734 
L 572.375974 358.467462 
L 572.832793 360.444195 
L 573.289613 365.0512 
L 573.746433 361.776447 
L 576.030533 370.442191 
L 576.487353 370.723382 
L 576.944173 355.423128 
L 578.314632 349.903357 
L 578.771452 351.910808 
L 579.228272 346.49337 
L 579.685092 349.294502 
L 580.141912 343.619532 
L 581.512372 349.092499 
L 581.969192 338.616854 
L 582.426012 338.593467 
L 582.882832 341.860737 
L 583.339652 330.843126 
L 584.710111 326.449303 
L 585.166931 335.781551 
L 585.623751 335.387725 
L 586.537391 329.110959 
L 587.907851 330.548938 
L 588.364671 331.373882 
L 588.821491 337.03225 
L 589.27831 334.306733 
L 589.73513 324.109705 
L 594.30333 313.305639 
L 594.760149 307.853363 
L 595.216969 292.956265 
L 595.673789 293.370812 
L 596.130609 304.675098 
L 597.501069 282.87181 
L 597.957889 282.481226 
L 598.414709 280.792925 
L 598.871529 283.645951 
L 600.698808 220.184799 
L 601.155628 226.173102 
L 601.612448 222.444511 
L 602.069268 226.343507 
L 602.526088 210.272021 
L 603.896548 200.102076 
L 604.353368 192.022254 
L 604.810188 177.525678 
L 605.267007 176.217328 
L 605.723827 217.586154 
L 607.094287 200.278691 
L 607.551107 190.186208 
L 608.464747 211.277792 
L 608.921567 201.866506 
L 610.292027 179.246848 
L 610.748846 180.895645 
L 611.205666 180.99704 
L 611.662486 177.720803 
L 612.119306 176.904766 
L 613.489766 195.41985 
L 613.946586 209.335806 
L 614.403406 201.573136 
L 614.860226 209.98774 
L 615.317046 180.961384 
L 616.687505 156.846218 
L 617.144325 154.888691 
L 618.057965 133.758816 
L 619.885245 134.292328 
L 620.342065 135.851394 
L 620.798885 135.164925 
L 621.255705 150.908263 
L 621.712524 151.313086 
L 623.082984 154.596685 
L 623.539804 131.630217 
L 623.996624 128.74617 
L 624.453444 132.659193 
L 624.910264 126.41975 
L 626.737544 148.29329 
L 627.194363 147.378433 
L 627.651183 170.943637 
L 628.108003 182.281942 
L 629.478463 189.5224 
L 629.935283 184.723662 
L 632.676202 236.791948 
L 633.133022 230.755265 
L 633.589842 240.641535 
L 634.046662 253.608401 
L 634.503482 226.871597 
L 635.873942 237.625314 
L 636.330762 243.715194 
L 636.787582 227.032915 
L 637.244402 221.872918 
L 637.701221 244.113413 
L 639.071681 247.6553 
L 639.528501 236.941966 
L 639.985321 241.263204 
L 640.442141 253.135326 
L 640.898961 252.990065 
L 642.269421 241.059142 
L 642.726241 235.747825 
L 643.18306 234.298001 
L 644.0967 239.145179 
L 645.46716 241.755093 
L 645.92398 250.177088 
L 646.3808 250.438285 
L 646.83762 260.623318 
L 648.664899 253.251989 
L 649.121719 230.959631 
L 649.578539 235.908688 
L 650.035359 235.496383 
L 650.492179 244.21093 
L 651.862639 242.499969 
L 652.319459 241.731736 
L 652.776279 233.356909 
L 653.233099 212.358207 
L 653.689919 207.855991 
L 655.060378 205.98753 
L 655.517198 213.886494 
L 655.974018 215.640564 
L 656.430838 209.427538 
L 656.887658 214.854518 
L 658.258118 194.852893 
L 658.714938 195.143718 
L 659.171758 203.83197 
L 659.628577 206.865792 
L 660.085397 205.105693 
L 661.455857 228.642965 
L 661.912677 230.198244 
L 662.369497 234.114478 
L 662.826317 233.369632 
L 663.283137 229.496416 
L 664.653596 225.970433 
L 665.110416 227.354428 
L 665.567236 229.149122 
L 666.024056 238.393729 
L 666.480876 231.418771 
L 667.851336 242.696306 
L 668.308156 238.766955 
L 668.764976 231.698417 
L 669.221796 227.432193 
L 669.678616 225.25679 
L 671.049075 226.327391 
L 671.505895 222.894654 
L 672.419535 236.094574 
L 672.876355 248.493543 
L 674.246815 262.532494 
L 674.703635 275.843746 
L 675.160455 278.532789 
L 675.160455 278.532789 
" clip-path="url(#pc8377be5ce)" style="fill: none; stroke: #7fffd4; stroke-width: 1.5; stroke-linecap: square"/>
   </g>
   <g id="line2d_16">
    <path d="M 76.269545 118.706611 
L 76.726365 118.790532 
L 77.183185 121.072408 
L 77.640005 100.392493 
L 78.096825 164.892444 
L 79.467285 155.070452 
L 79.924105 202.942973 
L 80.380925 203.28459 
L 80.837745 219.519687 
L 81.294565 204.653946 
L 82.665024 235.48642 
L 83.121844 231.321236 
L 83.578664 215.950773 
L 84.035484 213.786376 
L 84.492304 248.3018 
L 85.862764 232.313813 
L 86.319584 241.343518 
L 86.776404 271.328344 
L 87.690043 309.691279 
L 89.060503 293.526791 
L 89.517323 294.029776 
L 89.974143 284.28742 
L 90.430963 284.86081 
L 90.887783 276.586776 
L 95.455982 284.818356 
L 95.912802 288.373669 
L 96.369622 262.857408 
L 96.826442 248.148074 
L 97.283262 250.68222 
L 98.653721 244.289708 
L 99.110541 234.759411 
L 99.567361 234.692731 
L 100.024181 231.628341 
L 100.481001 280.784066 
L 101.851461 280.990237 
L 102.308281 302.001983 
L 102.765101 288.224829 
L 103.22192 253.36018 
L 103.67874 244.658371 
L 105.0492 247.536675 
L 105.50602 241.09913 
L 105.96284 247.472242 
L 106.41966 250.694133 
L 106.87648 271.909317 
L 108.24694 264.90521 
L 109.160579 240.126272 
L 109.617399 244.264946 
L 110.074219 235.925456 
L 111.444679 224.878813 
L 111.901499 206.436343 
L 112.358319 207.940793 
L 112.815139 204.606964 
L 113.271959 221.518021 
L 114.642418 216.068735 
L 115.556058 228.596895 
L 116.012878 208.893207 
L 116.469698 205.027323 
L 118.296978 204.118923 
L 118.753798 190.298134 
L 119.210618 196.176978 
L 119.667437 206.033111 
L 121.037897 215.942982 
L 121.494717 200.914805 
L 121.951537 200.858214 
L 122.408357 184.69907 
L 122.865177 182.034862 
L 124.235637 184.744068 
L 124.692456 196.716374 
L 125.149276 198.500948 
L 125.606096 218.338554 
L 126.062916 220.721728 
L 127.433376 221.752658 
L 127.890196 221.632498 
L 128.347016 218.060888 
L 128.803836 219.295081 
L 129.260656 228.390586 
L 131.087935 227.714649 
L 131.544755 215.605393 
L 132.001575 211.05087 
L 132.458395 208.979187 
L 133.828855 231.662276 
L 134.285675 260.412683 
L 134.742495 261.721111 
L 135.656134 255.834987 
L 137.026594 255.536404 
L 137.483414 253.463896 
L 137.940234 255.792253 
L 138.397054 267.823248 
L 138.853874 269.837235 
L 140.224334 266.240902 
L 140.681154 256.860465 
L 141.137973 260.211969 
L 141.594793 262.612467 
L 142.051613 261.584822 
L 143.422073 264.149989 
L 143.878893 263.000904 
L 144.335713 235.562707 
L 144.792533 232.839012 
L 145.249353 228.321716 
L 146.619812 227.656523 
L 147.076632 229.635525 
L 147.533452 229.525502 
L 149.817552 229.964287 
L 150.274372 257.914835 
L 150.731192 254.635755 
L 151.188012 243.612827 
L 151.644831 243.643074 
L 153.015291 241.060685 
L 153.472111 240.712169 
L 153.928931 249.574051 
L 154.385751 238.416935 
L 154.842571 242.699529 
L 156.213031 252.25932 
L 156.669851 241.90554 
L 157.58349 229.191447 
L 158.04031 225.919355 
L 159.41077 229.225463 
L 159.86759 215.174679 
L 160.32441 206.568431 
L 160.78123 202.048471 
L 161.23805 202.417965 
L 162.608509 211.300283 
L 163.065329 211.449077 
L 163.522149 195.02522 
L 163.978969 187.836901 
L 164.435789 189.379712 
L 165.806249 191.250603 
L 166.263069 196.09757 
L 166.719889 198.516923 
L 167.176709 199.265796 
L 167.633529 198.006314 
L 169.003988 203.471663 
L 169.460808 202.577897 
L 169.917628 193.781562 
L 170.374448 209.011088 
L 170.831268 210.20397 
L 172.201728 217.049028 
L 172.658548 223.934651 
L 173.115368 216.618223 
L 173.572187 214.411937 
L 174.029007 213.266875 
L 175.399467 214.461081 
L 175.856287 209.05376 
L 176.313107 202.242792 
L 176.769927 202.922708 
L 177.226747 206.598971 
L 178.597207 196.251315 
L 179.054026 171.361956 
L 179.510846 172.231237 
L 179.967666 173.40098 
L 180.424486 177.158691 
L 181.794946 178.393093 
L 182.251766 181.981747 
L 182.708586 180.217724 
L 183.165406 181.154265 
L 183.622226 185.307097 
L 184.992685 186.673281 
L 185.449505 186.791017 
L 185.906325 186.445467 
L 186.363145 182.53211 
L 186.819965 191.300751 
L 188.190425 188.143005 
L 188.647245 187.536132 
L 189.104065 181.455712 
L 189.560884 180.81273 
L 190.017704 178.957898 
L 191.388164 184.714451 
L 191.844984 200.767555 
L 192.301804 202.41907 
L 194.585904 207.522188 
L 195.042723 200.72477 
L 195.499543 198.823201 
L 195.956363 199.936222 
L 196.413183 195.272989 
L 197.783643 199.079319 
L 198.240463 215.026276 
L 198.697283 211.402749 
L 199.154103 214.332837 
L 199.610923 207.990782 
L 204.179122 205.920196 
L 204.635942 192.40304 
L 205.092762 189.434302 
L 205.549582 189.382874 
L 206.006401 192.054888 
L 207.376861 190.464996 
L 207.833681 196.546133 
L 208.290501 182.769556 
L 208.747321 182.715395 
L 209.204141 179.099438 
L 210.574601 180.838215 
L 211.03142 170.190285 
L 211.48824 169.690856 
L 211.94506 171.215416 
L 212.40188 175.76099 
L 213.77234 177.114457 
L 214.22916 178.620709 
L 214.68598 170.07842 
L 215.1428 177.219795 
L 215.59962 167.814466 
L 216.970079 171.489574 
L 217.883719 164.61818 
L 218.340539 168.680162 
L 218.797359 159.050139 
L 220.167819 149.149914 
L 220.624639 144.607426 
L 221.081459 143.630415 
L 221.538279 147.335832 
L 221.995098 145.820413 
L 223.365558 150.840288 
L 224.279198 133.140915 
L 225.192838 133.319807 
L 226.563298 130.5286 
L 227.020118 125.379365 
L 227.476937 123.053334 
L 227.933757 132.308146 
L 228.390577 126.487071 
L 229.761037 134.356678 
L 230.217857 144.459858 
L 230.674677 148.309365 
L 231.131497 141.737975 
L 231.588317 142.653146 
L 232.958776 136.464906 
L 233.415596 160.406659 
L 233.872416 162.417191 
L 234.329236 168.920283 
L 234.786056 173.149842 
L 236.156516 172.007804 
L 236.613336 170.317613 
L 237.070156 178.05986 
L 237.526976 166.342905 
L 237.983796 167.71975 
L 239.354255 173.837222 
L 239.811075 174.233724 
L 240.267895 174.068964 
L 240.724715 179.119481 
L 241.181535 176.238848 
L 243.008815 177.572771 
L 243.922454 159.767117 
L 244.379274 157.316938 
L 245.749734 161.789958 
L 246.206554 157.225921 
L 246.663374 161.266659 
L 247.577014 171.36381 
L 248.947473 174.010793 
L 249.404293 176.683152 
L 249.861113 173.697997 
L 250.317933 173.970231 
L 250.774753 176.55631 
L 252.145213 172.695384 
L 252.602033 168.243721 
L 253.058853 166.255339 
L 253.515673 162.805075 
L 257.170232 161.645432 
L 258.540692 166.230081 
L 258.997512 161.34459 
L 259.454332 161.992047 
L 260.367971 152.160184 
L 261.738431 148.043227 
L 262.195251 142.72299 
L 262.652071 141.337975 
L 263.108891 144.535764 
L 263.565711 139.768183 
L 264.936171 147.378418 
L 265.39299 135.962719 
L 266.30663 127.489649 
L 266.76345 131.461638 
L 268.13391 131.706499 
L 268.59073 140.262702 
L 269.04755 135.656197 
L 269.50437 134.364305 
L 269.96119 136.871659 
L 271.331649 141.798125 
L 271.788469 136.776966 
L 272.245289 137.100069 
L 272.702109 133.75297 
L 273.158929 143.4207 
L 274.529389 144.521566 
L 274.986209 138.840189 
L 275.443029 134.985495 
L 275.899848 134.842065 
L 276.356668 126.398831 
L 277.727128 136.82049 
L 278.183948 132.954421 
L 278.640768 130.396266 
L 279.097588 133.338384 
L 279.554408 133.012861 
L 280.924868 126.565842 
L 281.838507 129.4566 
L 282.295327 135.435879 
L 282.752147 145.220879 
L 285.036247 142.795672 
L 285.493067 126.690997 
L 285.949887 123.055109 
L 287.320346 118.711726 
L 287.777166 126.655448 
L 288.233986 123.866777 
L 288.690806 126.834386 
L 289.147626 125.077515 
L 290.518086 133.535418 
L 290.974906 139.767188 
L 291.888546 155.248849 
L 292.345365 156.394741 
L 293.715825 154.948194 
L 294.172645 169.373875 
L 294.629465 167.182538 
L 295.086285 168.080496 
L 295.543105 162.395304 
L 297.370385 162.616864 
L 297.827204 165.024784 
L 298.284024 169.409952 
L 298.740844 170.163457 
L 300.111304 177.693679 
L 300.568124 183.708566 
L 301.024944 184.370741 
L 301.481764 190.880929 
L 301.938584 189.927465 
L 303.309043 181.783999 
L 303.765863 181.194797 
L 304.222683 174.205531 
L 304.679503 177.489216 
L 305.136323 182.412999 
L 306.506783 182.333695 
L 307.420423 189.611469 
L 307.877243 188.240345 
L 308.334062 175.644288 
L 310.618162 173.757681 
L 311.074982 171.26158 
L 311.531802 177.06511 
L 312.902262 178.793676 
L 313.359082 181.537318 
L 313.815901 178.188779 
L 314.272721 166.548347 
L 314.729541 160.796183 
L 316.100001 159.556615 
L 316.556821 164.86564 
L 317.013641 164.105167 
L 317.470461 169.016811 
L 317.927281 169.574221 
L 319.29774 170.237144 
L 319.75456 164.244854 
L 320.21138 164.234038 
L 320.6682 160.17565 
L 321.12502 164.164868 
L 322.49548 161.072482 
L 323.40912 150.15302 
L 323.86594 155.674848 
L 324.32276 150.614733 
L 325.693219 151.972598 
L 326.150039 148.309499 
L 326.606859 152.694123 
L 327.063679 145.371412 
L 327.520499 144.717432 
L 328.890959 140.791434 
L 330.261418 149.700318 
L 330.718238 142.937419 
L 332.088698 141.846226 
L 332.545518 151.731218 
L 333.002338 152.537714 
L 333.459158 139.989088 
L 333.915978 135.103389 
L 335.286437 133.567203 
L 335.743257 133.317674 
L 336.200077 135.844301 
L 337.113717 132.811458 
L 338.484177 131.706369 
L 339.397817 119.277578 
L 339.854637 121.361601 
L 340.311457 124.248881 
L 341.681916 129.434501 
L 342.138736 125.977658 
L 342.595556 123.435044 
L 343.052376 123.166471 
L 343.509196 127.937833 
L 344.879656 143.978466 
L 345.793296 133.547113 
L 346.250115 132.855697 
L 346.706935 126.129752 
L 348.077395 127.4464 
L 348.534215 122.547849 
L 348.991035 120.839197 
L 349.447855 122.220123 
L 349.904675 126.725008 
L 351.275135 110.193984 
L 351.731954 98.195099 
L 352.188774 95.426735 
L 352.645594 95.69412 
L 353.102414 100.149108 
L 354.472874 99.932427 
L 354.929694 92.940142 
L 355.386514 91.933328 
L 355.843334 89.288602 
L 356.300154 96.558193 
L 357.670613 97.321676 
L 358.127433 95.58254 
L 358.584253 92.856719 
L 359.041073 92.568212 
L 359.497893 95.746951 
L 360.868353 101.168158 
L 361.325173 98.958467 
L 361.781993 100.8571 
L 362.238812 97.69043 
L 362.695632 100.225302 
L 364.066092 101.175466 
L 364.522912 105.188719 
L 364.979732 104.174456 
L 365.436552 104.426684 
L 365.893372 105.36409 
L 370.461571 103.197625 
L 370.918391 95.183694 
L 371.832031 89.643009 
L 372.288851 92.398252 
L 373.65931 90.899608 
L 374.11613 94.562648 
L 374.57295 95.235827 
L 375.02977 92.878752 
L 375.48659 94.90301 
L 377.31387 92.4718 
L 377.77069 91.074644 
L 378.22751 88.048431 
L 378.684329 85.874432 
L 380.054789 82.57766 
L 380.511609 89.768676 
L 380.968429 89.714994 
L 381.425249 89.50586 
L 381.882069 92.168565 
L 383.252529 94.543126 
L 383.709349 91.174216 
L 384.166168 83.349796 
L 384.622988 81.396691 
L 385.079808 78.614472 
L 386.450268 77.886623 
L 386.907088 74.472184 
L 387.363908 78.100027 
L 387.820728 86.660801 
L 388.277548 87.558688 
L 389.648007 92.170828 
L 390.104827 89.219098 
L 391.018467 77.285133 
L 391.475287 99.037302 
L 392.845747 102.879589 
L 393.302567 113.132927 
L 394.216207 105.409563 
L 394.673026 110.316773 
L 396.043486 112.413782 
L 396.500306 113.58754 
L 396.957126 118.920255 
L 397.413946 119.146067 
L 397.870766 127.673167 
L 399.241226 120.777921 
L 399.698046 112.804281 
L 400.154865 119.302915 
L 400.611685 116.919996 
L 401.068505 120.515976 
L 402.438965 128.933441 
L 402.895785 127.92804 
L 403.352605 119.141542 
L 403.809425 120.291885 
L 404.266245 115.782333 
L 405.636704 118.222125 
L 406.093524 123.971997 
L 406.550344 117.074977 
L 407.007164 124.515412 
L 407.463984 120.465973 
L 409.291264 113.979792 
L 409.748084 103.467289 
L 410.204904 95.760848 
L 410.661724 90.759805 
L 412.032183 90.587462 
L 412.489003 86.112139 
L 412.945823 84.149257 
L 413.402643 79.947451 
L 413.859463 79.486388 
L 415.229923 76.226644 
L 415.686743 83.97854 
L 416.143563 75.084582 
L 416.600382 74.129688 
L 417.057202 64.018171 
L 418.427662 60.475805 
L 418.884482 56.192617 
L 419.341302 44.66295 
L 419.798122 38.762841 
L 420.254942 42.949517 
L 421.625401 39.432703 
L 422.082221 50.93798 
L 422.539041 59.16681 
L 422.995861 62.97495 
L 423.452681 70.684303 
L 424.823141 68.005673 
L 425.279961 59.192635 
L 425.736781 92.912441 
L 426.650421 132.216412 
L 428.02088 170.35636 
L 428.4777 163.663711 
L 428.93452 152.222443 
L 432.589079 146.993831 
L 433.045899 124.667725 
L 434.416359 122.138759 
L 434.873179 113.730758 
L 435.786819 133.883436 
L 436.243639 130.549842 
L 437.614099 129.403972 
L 438.070918 125.894969 
L 438.527738 117.748826 
L 438.984558 121.467876 
L 439.441378 119.616581 
L 440.811838 117.277708 
L 441.268658 109.762161 
L 441.725478 115.217659 
L 442.639118 122.414161 
L 444.009577 126.881559 
L 444.923217 120.557068 
L 445.380037 122.959969 
L 445.836857 126.649494 
L 447.207317 160.939058 
L 447.664137 169.076625 
L 448.120957 161.427483 
L 448.577777 169.828737 
L 449.034596 158.096024 
L 450.405056 155.849397 
L 450.861876 159.397987 
L 451.318696 167.249715 
L 453.602796 172.109652 
L 454.059615 170.348965 
L 454.516435 152.890285 
L 454.973255 143.891504 
L 455.430075 150.910553 
L 456.800535 158.248859 
L 457.714175 191.692996 
L 458.170995 180.822001 
L 458.627815 172.917473 
L 460.455094 184.894493 
L 460.911914 171.739081 
L 461.368734 174.525433 
L 461.825554 185.085138 
L 464.109654 186.745764 
L 464.566474 187.396094 
L 465.023293 177.498857 
L 466.393753 178.215341 
L 466.850573 167.07441 
L 467.307393 159.069153 
L 467.764213 160.136349 
L 468.221033 156.894066 
L 469.591493 158.9329 
L 470.048313 156.060065 
L 470.505132 150.585457 
L 470.961952 156.357482 
L 471.418772 158.918803 
L 472.789232 150.799907 
L 473.246052 143.613609 
L 473.702872 142.725478 
L 474.159692 154.796298 
L 474.616512 162.851231 
L 475.986971 168.046981 
L 476.443791 167.453021 
L 476.900611 171.175165 
L 477.357431 192.84326 
L 477.814251 181.212302 
L 479.184711 186.200823 
L 479.641531 180.537375 
L 480.098351 173.112703 
L 481.01199 176.845767 
L 482.38245 188.021449 
L 482.83927 194.571791 
L 483.29609 185.151814 
L 483.75291 193.151029 
L 484.20973 192.001114 
L 486.03701 201.656629 
L 486.493829 231.824649 
L 486.950649 236.864525 
L 487.407469 247.037329 
L 488.777929 242.432866 
L 489.691569 254.178352 
L 490.148389 265.899387 
L 490.605209 274.108901 
L 491.975668 259.146922 
L 492.432488 276.571417 
L 492.889308 273.978922 
L 493.346128 280.604922 
L 493.802948 291.247598 
L 495.173408 283.114244 
L 495.630228 266.70951 
L 496.087048 260.192037 
L 496.543868 272.168802 
L 497.000688 260.35336 
L 498.371147 260.580564 
L 498.827967 265.568109 
L 499.284787 266.880352 
L 499.741607 275.947157 
L 500.198427 275.569245 
L 501.568887 259.525664 
L 502.025707 250.343847 
L 502.482527 234.740213 
L 502.939346 237.171484 
L 503.396166 244.982289 
L 504.766626 250.665223 
L 505.223446 248.288101 
L 505.680266 247.579653 
L 506.137086 258.316726 
L 506.593906 275.94969 
L 507.964366 285.809214 
L 508.421185 297.859064 
L 508.878005 275.932678 
L 509.334825 284.794707 
L 509.791645 270.070877 
L 511.162105 271.502451 
L 512.075745 277.344228 
L 512.532565 293.318066 
L 512.989385 301.270851 
L 514.359844 307.638862 
L 514.816664 300.562347 
L 515.273484 284.682182 
L 515.730304 292.599451 
L 516.187124 288.79273 
L 517.557584 294.651086 
L 518.014404 277.414646 
L 518.471224 276.581413 
L 518.928043 277.929844 
L 519.384863 287.146778 
L 520.755323 292.890048 
L 521.212143 293.25273 
L 521.668963 283.457314 
L 522.125783 295.811906 
L 522.582603 299.111625 
L 523.953063 301.05917 
L 524.409882 306.721409 
L 524.866702 310.739842 
L 525.323522 311.701039 
L 525.780342 307.034812 
L 527.150802 303.816439 
L 527.607622 313.137411 
L 528.064442 300.512319 
L 528.521262 292.434631 
L 528.978082 289.872031 
L 530.805361 271.555872 
L 531.262181 274.064537 
L 531.719001 266.890476 
L 532.175821 271.406257 
L 536.74402 263.713461 
L 537.20084 291.632095 
L 537.65766 291.913421 
L 538.11448 292.686626 
L 538.5713 329.700965 
L 539.94176 325.9978 
L 540.855399 347.987717 
L 541.312219 338.038308 
L 541.769039 365.629661 
L 543.139499 347.239769 
L 543.596319 318.130208 
L 544.053139 329.851162 
L 544.509959 329.333449 
L 544.966779 331.310975 
L 546.337238 333.463418 
L 546.794058 347.559879 
L 547.250878 336.732119 
L 548.164518 324.021791 
L 549.534978 303.403537 
L 549.991798 309.261486 
L 550.448618 310.811713 
L 551.362257 324.876256 
L 552.732717 328.4145 
L 553.646357 311.87921 
L 554.103177 317.017357 
L 554.559997 308.095171 
L 555.930457 306.460009 
L 556.387277 301.388289 
L 556.844096 313.498176 
L 557.300916 316.857707 
L 557.757736 316.608132 
L 559.128196 333.889251 
L 559.585016 335.860312 
L 560.041836 337.02048 
L 560.498656 329.608073 
L 560.955476 336.032144 
L 562.325935 334.439221 
L 562.782755 314.818853 
L 563.239575 311.144774 
L 563.696395 313.673033 
L 564.153215 328.976758 
L 565.523675 331.055348 
L 565.980495 334.609281 
L 566.437315 331.837288 
L 566.894135 325.735663 
L 567.350955 317.794493 
L 568.721414 328.570787 
L 569.178234 330.438443 
L 570.091874 345.085135 
L 570.548694 351.182631 
L 571.919154 354.124192 
L 572.375974 352.307843 
L 572.832793 355.065452 
L 573.289613 360.988173 
L 573.746433 365.065058 
L 576.030533 364.38242 
L 576.487353 370.207632 
L 576.944173 371.894659 
L 578.771452 349.912587 
L 579.228272 350.608121 
L 579.685092 346.42319 
L 580.141912 351.413661 
L 581.512372 344.588355 
L 581.969192 349.07134 
L 582.426012 338.535774 
L 582.882832 337.345217 
L 583.339652 339.400409 
L 584.710111 331.442587 
L 585.166931 326.305266 
L 585.623751 334.66329 
L 586.080571 335.232771 
L 586.537391 334.705529 
L 587.907851 328.366478 
L 588.364671 329.795435 
L 588.821491 329.560451 
L 589.27831 338.053311 
L 589.73513 334.219517 
L 594.30333 325.975303 
L 594.760149 313.473141 
L 595.216969 306.504451 
L 595.673789 293.052521 
L 596.130609 294.606775 
L 597.501069 303.538334 
L 597.957889 286.384189 
L 598.871529 279.622354 
L 599.328349 280.175107 
L 600.698808 268.729496 
L 601.155628 222.250975 
L 601.612448 222.234357 
L 602.069268 220.437082 
L 602.526088 227.92664 
L 603.896548 215.566133 
L 605.267007 174.667201 
L 605.723827 174.035367 
L 607.094287 214.306366 
L 607.551107 201.785489 
L 608.007927 195.074226 
L 608.464747 195.426845 
L 608.921567 209.388114 
L 610.292027 200.296566 
L 610.748846 182.899172 
L 611.205666 177.246123 
L 611.662486 182.278001 
L 612.119306 180.504575 
L 613.489766 181.319896 
L 613.946586 193.489247 
L 614.403406 210.349522 
L 614.860226 199.814225 
L 615.317046 209.69322 
L 616.687505 180.909595 
L 617.144325 155.728864 
L 617.601145 151.274816 
L 618.057965 142.748341 
L 619.885245 138.596836 
L 620.342065 139.089857 
L 620.798885 135.454771 
L 621.255705 136.15355 
L 621.712524 148.302043 
L 623.082984 149.234583 
L 623.539804 150.509591 
L 623.996624 132.877608 
L 624.453444 124.988256 
L 624.910264 130.624167 
L 626.280724 128.877553 
L 626.737544 143.634626 
L 627.194363 150.974526 
L 627.651183 149.017098 
L 628.108003 170.818332 
L 629.478463 179.919176 
L 629.935283 189.482551 
L 632.676202 184.240785 
L 633.133022 231.929572 
L 633.589842 231.189156 
L 634.046662 244.843056 
L 634.503482 254.008286 
L 635.873942 227.167471 
L 636.787582 244.851911 
L 637.244402 228.037522 
L 637.701221 229.734683 
L 639.071681 241.407917 
L 639.528501 249.262056 
L 639.985321 238.796921 
L 640.442141 242.891676 
L 640.898961 245.399835 
L 642.269421 251.557807 
L 643.18306 233.785474 
L 643.63988 234.449496 
L 644.0967 236.304709 
L 645.46716 239.034075 
L 645.92398 244.262932 
L 646.3808 250.873272 
L 646.83762 250.694424 
L 648.664899 258.722419 
L 649.121719 254.050905 
L 649.578539 231.628472 
L 650.035359 233.478901 
L 650.492179 233.347273 
L 651.862639 245.497696 
L 652.319459 246.930009 
L 652.776279 243.083426 
L 653.233099 233.157877 
L 653.689919 212.009152 
L 655.060378 205.197422 
L 655.517198 204.18247 
L 655.974018 213.706754 
L 656.430838 218.605489 
L 656.887658 211.054242 
L 658.258118 215.707652 
L 658.714938 193.157421 
L 659.171758 192.034516 
L 660.085397 206.645276 
L 661.455857 208.563387 
L 661.912677 228.793728 
L 662.369497 230.440557 
L 662.369497 230.440557 
" clip-path="url(#pc8377be5ce)" style="fill: none; stroke-dasharray: 5.55,2.4; stroke-dashoffset: 0; stroke: #ffcad4; stroke-width: 1.5"/>
   </g>
   <g id="line2d_17">
    <path d="M 662.826317 234.600186 
L 663.283137 232.653282 
L 664.653596 230.902201 
L 665.110416 229.086803 
L 665.567236 232.351628 
L 666.024056 231.844659 
L 666.480876 235.768489 
L 667.851336 236.43234 
L 668.308156 237.231863 
L 668.764976 236.096855 
L 669.221796 237.168842 
L 669.678616 235.221954 
L 671.049075 235.227077 
L 671.505895 234.883194 
L 671.962715 234.883194 
L 672.419535 234.883194 
L 672.876355 234.883194 
L 674.246815 234.883194 
L 674.703635 234.883194 
L 675.160455 234.883194 
" clip-path="url(#pc8377be5ce)" style="fill: none; stroke-dasharray: 5.55,2.4; stroke-dashoffset: 0; stroke: #f64e60; stroke-width: 1.5"/>
   </g>
   <g id="patch_3">
    <path d="M 46.325 388.55125 
L 46.325 22.10625 
" style="fill: none; stroke: #000000; stroke-width: 0.8; stroke-linejoin: miter; stroke-linecap: square"/>
   </g>
   <g id="patch_4">
    <path d="M 705.105 388.55125 
L 705.105 22.10625 
" style="fill: none; stroke: #000000; stroke-width: 0.8; stroke-linejoin: miter; stroke-linecap: square"/>
   </g>
   <g id="patch_5">
    <path d="M 46.325 388.55125 
L 705.105 388.55125 
" style="fill: none; stroke: #000000; stroke-width: 0.8; stroke-linejoin: miter; stroke-linecap: square"/>
   </g>
   <g id="patch_6">
    <path d="M 46.325 22.10625 
L 705.105 22.10625 
" style="fill: none; stroke: #000000; stroke-width: 0.8; stroke-linejoin: miter; stroke-linecap: square"/>
   </g>
   <g id="text_17">
    <!-- ARIMA(0,1,14) Model Forecast -->
    <g transform="translate(291.715 16.10625) scale(0.12 -0.12)">
     <defs>
      <path id="SimHei-41" d="M 3075 125 
L 2475 125 
L 2125 1450 
L 1025 1450 
L 675 125 
L 75 125 
L 1325 4450 
L 1825 4450 
L 3075 125 
z
M 2000 1925 
L 1600 3450 
L 1550 3450 
L 1150 1925 
L 2000 1925 
z
" transform="scale(0.015625)"/>
      <path id="SimHei-52" d="M 3000 125 
L 2400 125 
L 1500 1975 
L 850 1975 
L 850 125 
L 275 125 
L 275 4400 
L 1525 4400 
Q 2125 4400 2500 4112 
Q 2875 3825 2875 3175 
Q 2875 2675 2625 2400 
Q 2375 2125 2050 2050 
L 3000 125 
z
M 2300 3175 
Q 2300 3525 2087 3725 
Q 1875 3925 1400 3925 
L 850 3925 
L 850 2450 
L 1550 2450 
Q 1850 2450 2075 2612 
Q 2300 2775 2300 3175 
z
" transform="scale(0.015625)"/>
      <path id="SimHei-49" d="M 1850 125 
L 1275 125 
L 1275 4400 
L 1850 4400 
L 1850 125 
z
" transform="scale(0.015625)"/>
      <path id="SimHei-4d" d="M 2925 125 
L 2425 125 
L 2425 3175 
L 2375 3175 
L 1775 125 
L 1375 125 
L 775 3175 
L 725 3175 
L 725 125 
L 225 125 
L 225 4400 
L 1000 4400 
L 1550 1575 
L 1600 1575 
L 2150 4400 
L 2925 4400 
L 2925 125 
z
" transform="scale(0.015625)"/>
      <path id="SimHei-28" d="M 2975 -200 
L 2700 -475 
Q 2075 125 1762 775 
Q 1450 1425 1450 2250 
Q 1450 3075 1762 3725 
Q 2075 4375 2700 5000 
L 2975 4725 
Q 2400 4175 2112 3587 
Q 1825 3000 1825 2250 
Q 1825 1500 2112 912 
Q 2400 325 2975 -200 
z
" transform="scale(0.015625)"/>
      <path id="SimHei-2c" d="M 1100 125 
L 775 -550 
L 525 -550 
L 775 125 
L 525 125 
L 525 675 
L 1100 675 
L 1100 125 
z
" transform="scale(0.015625)"/>
      <path id="SimHei-29" d="M 1675 2250 
Q 1675 1425 1362 775 
Q 1050 125 425 -475 
L 150 -200 
Q 725 325 1012 912 
Q 1300 1500 1300 2250 
Q 1300 3000 1012 3587 
Q 725 4175 150 4725 
L 425 5000 
Q 1050 4375 1362 3725 
Q 1675 3075 1675 2250 
z
" transform="scale(0.015625)"/>
      <path id="SimHei-20" transform="scale(0.015625)"/>
      <path id="SimHei-6f" d="M 2925 1525 
Q 2925 875 2525 475 
Q 2125 75 1575 75 
Q 1025 75 625 475 
Q 225 875 225 1525 
Q 225 2175 625 2575 
Q 1025 2975 1575 2975 
Q 2125 2975 2525 2575 
Q 2925 2175 2925 1525 
z
M 2375 1525 
Q 2375 2025 2125 2275 
Q 1875 2525 1575 2525 
Q 1275 2525 1025 2275 
Q 775 2025 775 1525 
Q 775 1025 1025 775 
Q 1275 525 1575 525 
Q 1875 525 2125 775 
Q 2375 1025 2375 1525 
z
" transform="scale(0.015625)"/>
      <path id="SimHei-64" d="M 2750 125 
L 2250 125 
L 2250 500 
Q 2100 275 1900 175 
Q 1700 75 1425 75 
Q 925 75 575 437 
Q 225 800 225 1525 
Q 225 2250 575 2625 
Q 925 3000 1425 3000 
Q 1700 3000 1900 2887 
Q 2100 2775 2250 2550 
L 2250 4400 
L 2750 4400 
L 2750 125 
z
M 2250 1525 
Q 2250 2000 2037 2275 
Q 1825 2550 1525 2550 
Q 1150 2550 962 2275 
Q 775 2000 775 1525 
Q 775 1050 962 787 
Q 1150 525 1525 525 
Q 1825 525 2037 787 
Q 2250 1050 2250 1525 
z
" transform="scale(0.015625)"/>
      <path id="SimHei-46" d="M 2925 3925 
L 875 3925 
L 875 2525 
L 2425 2525 
L 2425 2050 
L 875 2050 
L 875 125 
L 300 125 
L 300 4400 
L 2925 4400 
L 2925 3925 
z
" transform="scale(0.015625)"/>
      <path id="SimHei-72" d="M 2500 2425 
Q 2025 2500 1700 2287 
Q 1375 2075 1150 1550 
L 1150 125 
L 650 125 
L 650 2925 
L 1150 2925 
L 1150 2200 
Q 1375 2600 1712 2787 
Q 2050 2975 2500 2975 
L 2500 2425 
z
" transform="scale(0.015625)"/>
      <path id="SimHei-63" d="M 2850 1250 
Q 2850 725 2487 400 
Q 2125 75 1575 75 
Q 1025 75 625 462 
Q 225 850 225 1525 
Q 225 2200 625 2587 
Q 1025 2975 1575 2975 
Q 2125 2975 2450 2687 
Q 2775 2400 2775 2000 
L 2225 2000 
Q 2200 2300 2012 2412 
Q 1825 2525 1575 2525 
Q 1275 2525 1025 2287 
Q 775 2050 775 1525 
Q 775 1000 1025 762 
Q 1275 525 1575 525 
Q 1900 525 2100 700 
Q 2300 875 2300 1250 
L 2850 1250 
z
" transform="scale(0.015625)"/>
      <path id="SimHei-73" d="M 2750 900 
Q 2750 500 2437 287 
Q 2125 75 1650 75 
Q 1050 75 725 312 
Q 400 550 400 1000 
L 900 1000 
Q 900 700 1112 600 
Q 1325 500 1625 500 
Q 1925 500 2075 612 
Q 2225 725 2225 900 
Q 2225 1025 2100 1150 
Q 1975 1275 1475 1350 
Q 900 1425 687 1637 
Q 475 1850 475 2200 
Q 475 2500 762 2737 
Q 1050 2975 1600 2975 
Q 2100 2975 2387 2750 
Q 2675 2525 2675 2150 
L 2175 2150 
Q 2175 2375 2012 2462 
Q 1850 2550 1600 2550 
Q 1275 2550 1137 2437 
Q 1000 2325 1000 2175 
Q 1000 2000 1125 1900 
Q 1250 1800 1650 1750 
Q 2300 1650 2525 1437 
Q 2750 1225 2750 900 
z
" transform="scale(0.015625)"/>
     </defs>
     <use xlink:href="#SimHei-41"/>
     <use xlink:href="#SimHei-52" x="50"/>
     <use xlink:href="#SimHei-49" x="100"/>
     <use xlink:href="#SimHei-4d" x="150"/>
     <use xlink:href="#SimHei-41" x="200"/>
     <use xlink:href="#SimHei-28" x="250"/>
     <use xlink:href="#SimHei-30" x="300"/>
     <use xlink:href="#SimHei-2c" x="350"/>
     <use xlink:href="#SimHei-31" x="400"/>
     <use xlink:href="#SimHei-2c" x="450"/>
     <use xlink:href="#SimHei-31" x="500"/>
     <use xlink:href="#SimHei-34" x="550"/>
     <use xlink:href="#SimHei-29" x="600"/>
     <use xlink:href="#SimHei-20" x="650"/>
     <use xlink:href="#SimHei-4d" x="700"/>
     <use xlink:href="#SimHei-6f" x="750"/>
     <use xlink:href="#SimHei-64" x="800"/>
     <use xlink:href="#SimHei-65" x="850"/>
     <use xlink:href="#SimHei-6c" x="900"/>
     <use xlink:href="#SimHei-20" x="950"/>
     <use xlink:href="#SimHei-46" x="1000"/>
     <use xlink:href="#SimHei-6f" x="1050"/>
     <use xlink:href="#SimHei-72" x="1100"/>
     <use xlink:href="#SimHei-65" x="1150"/>
     <use xlink:href="#SimHei-63" x="1200"/>
     <use xlink:href="#SimHei-61" x="1250"/>
     <use xlink:href="#SimHei-73" x="1300"/>
     <use xlink:href="#SimHei-74" x="1350"/>
    </g>
   </g>
   <g id="legend_1">
    <g id="line2d_18">
     <path d="M 603.105 34.60625 
L 613.105 34.60625 
L 623.105 34.60625 
" style="fill: none; stroke: #7fffd4; stroke-width: 1.5; stroke-linecap: square"/>
    </g>
    <g id="text_18">
     <!-- Original Data -->
     <g transform="translate(631.105 38.10625) scale(0.1 -0.1)">
      <defs>
       <path id="SimHei-4f" d="M 2950 2275 
Q 2950 1100 2587 587 
Q 2225 75 1575 75 
Q 925 75 550 587 
Q 175 1100 175 2275 
Q 175 3450 550 3950 
Q 925 4450 1575 4450 
Q 2225 4450 2587 3950 
Q 2950 3450 2950 2275 
z
M 2350 2275 
Q 2350 3325 2125 3650 
Q 1900 3975 1575 3975 
Q 1250 3975 1012 3650 
Q 775 3325 775 2275 
Q 775 1225 1012 887 
Q 1250 550 1575 550 
Q 1900 550 2125 887 
Q 2350 1225 2350 2275 
z
" transform="scale(0.015625)"/>
       <path id="SimHei-69" d="M 1800 3725 
L 1300 3725 
L 1300 4375 
L 1800 4375 
L 1800 3725 
z
M 1800 125 
L 1300 125 
L 1300 2925 
L 1800 2925 
L 1800 125 
z
" transform="scale(0.015625)"/>
       <path id="SimHei-67" d="M 2975 2500 
Q 2800 2550 2637 2562 
Q 2475 2575 2300 2525 
Q 2375 2450 2425 2337 
Q 2475 2225 2475 2000 
Q 2475 1575 2187 1300 
Q 1900 1025 1475 1025 
Q 1375 1025 1212 1062 
Q 1050 1100 950 1150 
Q 875 1100 850 1050 
Q 825 1000 825 925 
Q 825 800 1000 737 
Q 1175 675 1625 675 
Q 2350 675 2612 475 
Q 2875 275 2875 -25 
Q 2875 -425 2487 -612 
Q 2100 -800 1575 -800 
Q 900 -800 575 -625 
Q 250 -450 250 -150 
Q 250 0 375 150 
Q 500 300 700 400 
Q 550 475 462 587 
Q 375 700 375 875 
Q 375 1025 487 1137 
Q 600 1250 750 1325 
Q 625 1450 550 1625 
Q 475 1800 475 2000 
Q 475 2425 762 2700 
Q 1050 2975 1475 2975 
Q 1700 2975 1862 2912 
Q 2025 2850 2150 2725 
Q 2350 2875 2550 2937 
Q 2750 3000 2975 2975 
L 2975 2500 
z
M 1975 2000 
Q 1975 2250 1850 2400 
Q 1725 2550 1475 2550 
Q 1225 2550 1100 2400 
Q 975 2250 975 2000 
Q 975 1750 1100 1600 
Q 1225 1450 1475 1450 
Q 1725 1450 1850 1600 
Q 1975 1750 1975 2000 
z
M 2400 -75 
Q 2400 25 2287 125 
Q 2175 225 1725 225 
Q 1625 225 1450 237 
Q 1275 250 1050 275 
Q 850 200 775 100 
Q 700 0 700 -100 
Q 700 -250 900 -350 
Q 1100 -450 1600 -450 
Q 2025 -450 2212 -337 
Q 2400 -225 2400 -75 
z
" transform="scale(0.015625)"/>
       <path id="SimHei-6e" d="M 2800 125 
L 2300 125 
L 2300 1925 
Q 2300 2225 2150 2400 
Q 2000 2575 1750 2575 
Q 1425 2575 1137 2237 
Q 850 1900 850 1400 
L 850 125 
L 350 125 
L 350 2925 
L 850 2925 
L 850 2400 
Q 1050 2675 1287 2825 
Q 1525 2975 1900 2975 
Q 2350 2975 2575 2725 
Q 2800 2475 2800 2100 
L 2800 125 
z
" transform="scale(0.015625)"/>
      </defs>
      <use xlink:href="#SimHei-4f"/>
      <use xlink:href="#SimHei-72" x="50"/>
      <use xlink:href="#SimHei-69" x="100"/>
      <use xlink:href="#SimHei-67" x="150"/>
      <use xlink:href="#SimHei-69" x="200"/>
      <use xlink:href="#SimHei-6e" x="250"/>
      <use xlink:href="#SimHei-61" x="300"/>
      <use xlink:href="#SimHei-6c" x="350"/>
      <use xlink:href="#SimHei-20" x="400"/>
      <use xlink:href="#SimHei-44" x="450"/>
      <use xlink:href="#SimHei-61" x="500"/>
      <use xlink:href="#SimHei-74" x="550"/>
      <use xlink:href="#SimHei-61" x="600"/>
     </g>
    </g>
    <g id="line2d_19">
     <path d="M 603.105 47.85625 
L 613.105 47.85625 
L 623.105 47.85625 
" style="fill: none; stroke-dasharray: 5.55,2.4; stroke-dashoffset: 0; stroke: #ffcad4; stroke-width: 1.5"/>
    </g>
    <g id="text_19">
     <!-- Fitted Data -->
     <g transform="translate(631.105 51.35625) scale(0.1 -0.1)">
      <use xlink:href="#SimHei-46"/>
      <use xlink:href="#SimHei-69" x="50"/>
      <use xlink:href="#SimHei-74" x="100"/>
      <use xlink:href="#SimHei-74" x="150"/>
      <use xlink:href="#SimHei-65" x="200"/>
      <use xlink:href="#SimHei-64" x="250"/>
      <use xlink:href="#SimHei-20" x="300"/>
      <use xlink:href="#SimHei-44" x="350"/>
      <use xlink:href="#SimHei-61" x="400"/>
      <use xlink:href="#SimHei-74" x="450"/>
      <use xlink:href="#SimHei-61" x="500"/>
     </g>
    </g>
    <g id="line2d_20">
     <path d="M 603.105 61.10625 
L 613.105 61.10625 
L 623.105 61.10625 
" style="fill: none; stroke-dasharray: 5.55,2.4; stroke-dashoffset: 0; stroke: #f64e60; stroke-width: 1.5"/>
    </g>
    <g id="text_20">
     <!-- Forecast Data -->
     <g transform="translate(631.105 64.60625) scale(0.1 -0.1)">
      <use xlink:href="#SimHei-46"/>
      <use xlink:href="#SimHei-6f" x="50"/>
      <use xlink:href="#SimHei-72" x="100"/>
      <use xlink:href="#SimHei-65" x="150"/>
      <use xlink:href="#SimHei-63" x="200"/>
      <use xlink:href="#SimHei-61" x="250"/>
      <use xlink:href="#SimHei-73" x="300"/>
      <use xlink:href="#SimHei-74" x="350"/>
      <use xlink:href="#SimHei-20" x="400"/>
      <use xlink:href="#SimHei-44" x="450"/>
      <use xlink:href="#SimHei-61" x="500"/>
      <use xlink:href="#SimHei-74" x="550"/>
      <use xlink:href="#SimHei-61" x="600"/>
     </g>
    </g>
   </g>
  </g>
 </g>
 <defs>
  <clipPath id="pc8377be5ce">
   <rect x="46.325" y="22.10625" width="658.78" height="366.445"/>
  </clipPath>
 </defs>
</svg>
