<?xml version="1.0" encoding="utf-8" standalone="no"?>
<!DOCTYPE svg PUBLIC "-//W3C//DTD SVG 1.1//EN"
  "http://www.w3.org/Graphics/SVG/1.1/DTD/svg11.dtd">
<svg xmlns:xlink="http://www.w3.org/1999/xlink" width="712.481562pt" height="423.757812pt" viewBox="0 0 712.481562 423.757812" xmlns="http://www.w3.org/2000/svg" version="1.1">
 <metadata>
  <rdf:RDF xmlns:dc="http://purl.org/dc/elements/1.1/" xmlns:cc="http://creativecommons.org/ns#" xmlns:rdf="http://www.w3.org/1999/02/22-rdf-syntax-ns#">
   <cc:Work>
    <dc:type rdf:resource="http://purl.org/dc/dcmitype/StillImage"/>
    <dc:date>2024-10-05T10:55:03.051697</dc:date>
    <dc:format>image/svg+xml</dc:format>
    <dc:creator>
     <cc:Agent>
      <dc:title>Matplotlib v3.7.1, https://matplotlib.org/</dc:title>
     </cc:Agent>
    </dc:creator>
   </cc:Work>
  </rdf:RDF>
 </metadata>
 <defs>
  <style type="text/css">*{stroke-linejoin: round; stroke-linecap: butt}</style>
 </defs>
 <g id="figure_1">
  <g id="patch_1">
   <path d="M 0 423.757812 
L 712.481562 423.757812 
L 712.481562 0 
L 0 0 
z
" style="fill: #ffffff"/>
  </g>
  <g id="axes_1">
   <g id="patch_2">
    <path d="M 47.457813 388.4875 
L 705.281563 388.4875 
L 705.281563 23.04375 
L 47.457813 23.04375 
z
" style="fill: #ffffff"/>
   </g>
   <g id="matplotlib.axis_1">
    <g id="xtick_1">
     <g id="line2d_1">
      <defs>
       <path id="mfd2d26121d" d="M 0 0 
L 0 3.5 
" style="stroke: #000000; stroke-width: 0.8"/>
      </defs>
      <g>
       <use xlink:href="#mfd2d26121d" x="75.532872" y="388.4875" style="stroke: #000000; stroke-width: 0.8"/>
      </g>
     </g>
     <g id="text_1">
      <!-- 2016-01 -->
      <g transform="translate(58.032872 402.3625) scale(0.1 -0.1)">
       <defs>
        <path id="SimHei-32" d="M 300 250 
Q 325 625 650 925 
Q 975 1225 1475 1862 
Q 1975 2500 2125 2850 
Q 2275 3200 2237 3450 
Q 2200 3700 2000 3862 
Q 1800 4025 1537 4000 
Q 1275 3975 1037 3800 
Q 800 3625 675 3275 
L 200 3350 
Q 400 3925 712 4187 
Q 1025 4450 1450 4475 
Q 1700 4500 1900 4462 
Q 2100 4425 2312 4287 
Q 2525 4150 2662 3875 
Q 2800 3600 2762 3212 
Q 2725 2825 2375 2287 
Q 2025 1750 1025 600 
L 2825 600 
L 2825 150 
L 300 150 
L 300 250 
z
" transform="scale(0.015625)"/>
        <path id="SimHei-30" d="M 225 2537 
Q 250 3200 412 3587 
Q 575 3975 875 4225 
Q 1175 4475 1612 4475 
Q 2050 4475 2375 4112 
Q 2700 3750 2800 3200 
Q 2900 2650 2862 1937 
Q 2825 1225 2612 775 
Q 2400 325 1975 150 
Q 1550 -25 1125 187 
Q 700 400 525 750 
Q 350 1100 275 1487 
Q 200 1875 225 2537 
z
M 750 2687 
Q 675 2000 800 1462 
Q 925 925 1212 700 
Q 1500 475 1800 612 
Q 2100 750 2237 1162 
Q 2375 1575 2375 2062 
Q 2375 2550 2337 2950 
Q 2300 3350 2112 3675 
Q 1925 4000 1612 4012 
Q 1300 4025 1062 3700 
Q 825 3375 750 2687 
z
" transform="scale(0.015625)"/>
        <path id="SimHei-31" d="M 1400 3600 
Q 1075 3275 575 2975 
L 575 3450 
Q 1200 3875 1600 4450 
L 1900 4450 
L 1900 150 
L 1400 150 
L 1400 3600 
z
" transform="scale(0.015625)"/>
        <path id="SimHei-36" d="M 250 1612 
Q 275 1975 387 2225 
Q 500 2475 725 2850 
L 1750 4450 
L 2325 4450 
L 1275 2800 
Q 1950 2975 2350 2750 
Q 2750 2525 2887 2237 
Q 3025 1950 3037 1612 
Q 3050 1275 2937 950 
Q 2825 625 2537 362 
Q 2250 100 1737 75 
Q 1225 50 862 262 
Q 500 475 362 862 
Q 225 1250 250 1612 
z
M 1025 787 
Q 1250 550 1625 525 
Q 2000 500 2250 775 
Q 2500 1050 2500 1575 
Q 2500 2100 2187 2300 
Q 1875 2500 1487 2450 
Q 1100 2400 925 2075 
Q 750 1750 775 1387 
Q 800 1025 1025 787 
z
" transform="scale(0.015625)"/>
        <path id="SimHei-2d" d="M 2975 2125 
L 125 2125 
L 125 2525 
L 2975 2525 
L 2975 2125 
z
" transform="scale(0.015625)"/>
       </defs>
       <use xlink:href="#SimHei-32"/>
       <use xlink:href="#SimHei-30" x="50"/>
       <use xlink:href="#SimHei-31" x="100"/>
       <use xlink:href="#SimHei-36" x="150"/>
       <use xlink:href="#SimHei-2d" x="200"/>
       <use xlink:href="#SimHei-30" x="250"/>
       <use xlink:href="#SimHei-31" x="300"/>
      </g>
     </g>
    </g>
    <g id="xtick_2">
     <g id="line2d_2">
      <g>
       <use xlink:href="#mfd2d26121d" x="158.616788" y="388.4875" style="stroke: #000000; stroke-width: 0.8"/>
      </g>
     </g>
     <g id="text_2">
      <!-- 2016-07 -->
      <g transform="translate(141.116788 402.3625) scale(0.1 -0.1)">
       <defs>
        <path id="SimHei-37" d="M 850 150 
Q 1300 2050 2425 3925 
L 275 3925 
L 275 4375 
L 2950 4375 
L 2950 3950 
Q 1775 2050 1400 150 
L 850 150 
z
" transform="scale(0.015625)"/>
       </defs>
       <use xlink:href="#SimHei-32"/>
       <use xlink:href="#SimHei-30" x="50"/>
       <use xlink:href="#SimHei-31" x="100"/>
       <use xlink:href="#SimHei-36" x="150"/>
       <use xlink:href="#SimHei-2d" x="200"/>
       <use xlink:href="#SimHei-30" x="250"/>
       <use xlink:href="#SimHei-37" x="300"/>
      </g>
     </g>
    </g>
    <g id="xtick_3">
     <g id="line2d_3">
      <g>
       <use xlink:href="#mfd2d26121d" x="242.613713" y="388.4875" style="stroke: #000000; stroke-width: 0.8"/>
      </g>
     </g>
     <g id="text_3">
      <!-- 2017-01 -->
      <g transform="translate(225.113713 402.3625) scale(0.1 -0.1)">
       <use xlink:href="#SimHei-32"/>
       <use xlink:href="#SimHei-30" x="50"/>
       <use xlink:href="#SimHei-31" x="100"/>
       <use xlink:href="#SimHei-37" x="150"/>
       <use xlink:href="#SimHei-2d" x="200"/>
       <use xlink:href="#SimHei-30" x="250"/>
       <use xlink:href="#SimHei-31" x="300"/>
      </g>
     </g>
    </g>
    <g id="xtick_4">
     <g id="line2d_4">
      <g>
       <use xlink:href="#mfd2d26121d" x="325.241124" y="388.4875" style="stroke: #000000; stroke-width: 0.8"/>
      </g>
     </g>
     <g id="text_4">
      <!-- 2017-07 -->
      <g transform="translate(307.741124 402.3625) scale(0.1 -0.1)">
       <use xlink:href="#SimHei-32"/>
       <use xlink:href="#SimHei-30" x="50"/>
       <use xlink:href="#SimHei-31" x="100"/>
       <use xlink:href="#SimHei-37" x="150"/>
       <use xlink:href="#SimHei-2d" x="200"/>
       <use xlink:href="#SimHei-30" x="250"/>
       <use xlink:href="#SimHei-37" x="300"/>
      </g>
     </g>
    </g>
    <g id="xtick_5">
     <g id="line2d_5">
      <g>
       <use xlink:href="#mfd2d26121d" x="409.23805" y="388.4875" style="stroke: #000000; stroke-width: 0.8"/>
      </g>
     </g>
     <g id="text_5">
      <!-- 2018-01 -->
      <g transform="translate(391.73805 402.3625) scale(0.1 -0.1)">
       <defs>
        <path id="SimHei-38" d="M 175 1375 
Q 175 1675 325 1962 
Q 475 2250 825 2425 
Q 525 2600 425 2812 
Q 325 3025 312 3300 
Q 300 3575 387 3775 
Q 475 3975 650 4150 
Q 825 4325 1037 4387 
Q 1250 4450 1500 4450 
Q 1750 4450 1950 4400 
Q 2150 4350 2375 4187 
Q 2600 4025 2700 3725 
Q 2800 3425 2687 3025 
Q 2575 2625 2100 2400 
Q 2525 2275 2700 2012 
Q 2875 1750 2875 1375 
Q 2875 1000 2762 775 
Q 2650 550 2512 400 
Q 2375 250 2137 162 
Q 1900 75 1537 75 
Q 1175 75 912 162 
Q 650 250 475 425 
Q 300 600 237 837 
Q 175 1075 175 1375 
z
M 687 1400 
Q 675 1100 787 875 
Q 900 650 1200 587 
Q 1500 525 1825 600 
Q 2150 675 2275 950 
Q 2400 1225 2362 1500 
Q 2325 1775 2050 1962 
Q 1775 2150 1450 2125 
Q 1125 2100 912 1900 
Q 700 1700 687 1400 
z
M 775 3350 
Q 775 3100 950 2875 
Q 1125 2650 1500 2650 
Q 1875 2650 2062 2875 
Q 2250 3100 2237 3412 
Q 2225 3725 2012 3875 
Q 1800 4025 1437 4000 
Q 1075 3975 925 3787 
Q 775 3600 775 3350 
z
" transform="scale(0.015625)"/>
       </defs>
       <use xlink:href="#SimHei-32"/>
       <use xlink:href="#SimHei-30" x="50"/>
       <use xlink:href="#SimHei-31" x="100"/>
       <use xlink:href="#SimHei-38" x="150"/>
       <use xlink:href="#SimHei-2d" x="200"/>
       <use xlink:href="#SimHei-30" x="250"/>
       <use xlink:href="#SimHei-31" x="300"/>
      </g>
     </g>
    </g>
    <g id="xtick_6">
     <g id="line2d_6">
      <g>
       <use xlink:href="#mfd2d26121d" x="491.86546" y="388.4875" style="stroke: #000000; stroke-width: 0.8"/>
      </g>
     </g>
     <g id="text_6">
      <!-- 2018-07 -->
      <g transform="translate(474.36546 402.3625) scale(0.1 -0.1)">
       <use xlink:href="#SimHei-32"/>
       <use xlink:href="#SimHei-30" x="50"/>
       <use xlink:href="#SimHei-31" x="100"/>
       <use xlink:href="#SimHei-38" x="150"/>
       <use xlink:href="#SimHei-2d" x="200"/>
       <use xlink:href="#SimHei-30" x="250"/>
       <use xlink:href="#SimHei-37" x="300"/>
      </g>
     </g>
    </g>
    <g id="xtick_7">
     <g id="line2d_7">
      <g>
       <use xlink:href="#mfd2d26121d" x="575.862386" y="388.4875" style="stroke: #000000; stroke-width: 0.8"/>
      </g>
     </g>
     <g id="text_7">
      <!-- 2019-01 -->
      <g transform="translate(558.362386 402.3625) scale(0.1 -0.1)">
       <defs>
        <path id="SimHei-39" d="M 800 75 
Q 1350 1000 1700 1750 
Q 1075 1650 662 1912 
Q 250 2175 162 2625 
Q 75 3075 175 3437 
Q 275 3800 487 4037 
Q 700 4275 1000 4375 
Q 1300 4475 1537 4475 
Q 1775 4475 2025 4375 
Q 2275 4275 2475 4075 
Q 2675 3875 2750 3662 
Q 2825 3450 2825 3112 
Q 2825 2775 2575 2250 
Q 2325 1725 1350 75 
L 800 75 
z
M 662 2875 
Q 700 2550 937 2337 
Q 1175 2125 1450 2150 
Q 1725 2175 1887 2300 
Q 2050 2425 2200 2725 
Q 2300 3100 2250 3362 
Q 2200 3625 1987 3800 
Q 1775 3975 1525 3975 
Q 1375 4000 1137 3900 
Q 900 3800 762 3500 
Q 625 3200 662 2875 
z
" transform="scale(0.015625)"/>
       </defs>
       <use xlink:href="#SimHei-32"/>
       <use xlink:href="#SimHei-30" x="50"/>
       <use xlink:href="#SimHei-31" x="100"/>
       <use xlink:href="#SimHei-39" x="150"/>
       <use xlink:href="#SimHei-2d" x="200"/>
       <use xlink:href="#SimHei-30" x="250"/>
       <use xlink:href="#SimHei-31" x="300"/>
      </g>
     </g>
    </g>
    <g id="xtick_8">
     <g id="line2d_8">
      <g>
       <use xlink:href="#mfd2d26121d" x="658.489797" y="388.4875" style="stroke: #000000; stroke-width: 0.8"/>
      </g>
     </g>
     <g id="text_8">
      <!-- 2019-07 -->
      <g transform="translate(640.989797 402.3625) scale(0.1 -0.1)">
       <use xlink:href="#SimHei-32"/>
       <use xlink:href="#SimHei-30" x="50"/>
       <use xlink:href="#SimHei-31" x="100"/>
       <use xlink:href="#SimHei-39" x="150"/>
       <use xlink:href="#SimHei-2d" x="200"/>
       <use xlink:href="#SimHei-30" x="250"/>
       <use xlink:href="#SimHei-37" x="300"/>
      </g>
     </g>
    </g>
    <g id="text_9">
     <!-- 日期 -->
     <g transform="translate(366.369687 415.307813) scale(0.1 -0.1)">
      <defs>
       <path id="SimHei-65e5" d="M 5375 5000 
Q 5350 3775 5350 2275 
Q 5350 775 5375 -450 
L 4800 -450 
L 4800 175 
L 1800 175 
L 1800 -575 
L 1250 -575 
Q 1275 575 1275 2125 
Q 1275 3675 1250 5000 
L 5375 5000 
z
M 4800 600 
L 4800 2375 
L 1800 2375 
L 1800 600 
L 4800 600 
z
M 4800 2800 
L 4800 4550 
L 1800 4550 
L 1800 2800 
L 4800 2800 
z
" transform="scale(0.015625)"/>
       <path id="SimHei-671f" d="M 4900 -25 
Q 5475 -100 5425 175 
L 5425 1575 
L 4325 1575 
Q 4275 975 4050 425 
Q 3825 -125 3400 -600 
Q 3225 -375 2925 -275 
Q 3350 150 3562 625 
Q 3775 1100 3812 1575 
Q 3850 2050 3850 3125 
Q 3850 4225 3825 4875 
L 5950 4875 
Q 5925 4400 5925 3725 
L 5925 50 
Q 5925 -300 5700 -425 
Q 5475 -550 5100 -600 
Q 5100 -325 4900 -25 
z
M 950 4300 
Q 950 4675 925 5125 
L 1450 5125 
Q 1425 4625 1425 4300 
L 2550 4300 
Q 2550 4775 2525 5125 
L 3075 5125 
Q 3050 4700 3050 4300 
Q 3225 4300 3500 4325 
L 3500 3900 
Q 3250 3925 3050 3925 
L 3050 1550 
Q 3250 1550 3500 1575 
L 3500 1150 
Q 3025 1175 2575 1175 
L 1225 1175 
Q 675 1175 275 1150 
L 275 1575 
Q 650 1550 950 1550 
L 950 3925 
Q 725 3925 425 3900 
L 425 4325 
Q 700 4300 950 4300 
z
M 5425 3375 
L 5425 4500 
L 4350 4500 
L 4350 3375 
L 5425 3375 
z
M 5425 1950 
L 5425 3000 
L 4350 3000 
L 4350 1950 
L 5425 1950 
z
M 1600 725 
Q 1425 650 1162 287 
Q 900 -75 650 -350 
Q 400 -175 225 -75 
Q 450 100 700 412 
Q 950 725 1100 1025 
L 1600 725 
z
M 2550 3375 
L 2550 3925 
L 1425 3925 
L 1425 3375 
L 2550 3375 
z
M 2550 1550 
L 2550 2100 
L 1425 2100 
L 1425 1550 
L 2550 1550 
z
M 2550 2475 
L 2550 3000 
L 1425 3000 
L 1425 2475 
L 2550 2475 
z
M 2850 -75 
Q 2450 525 2225 725 
Q 2375 825 2550 1025 
Q 2850 725 3250 275 
Q 3050 125 2850 -75 
z
" transform="scale(0.015625)"/>
      </defs>
      <use xlink:href="#SimHei-65e5"/>
      <use xlink:href="#SimHei-671f" x="100"/>
     </g>
    </g>
   </g>
   <g id="matplotlib.axis_2">
    <g id="ytick_1">
     <g id="line2d_9">
      <defs>
       <path id="m55a4310c9e" d="M 0 0 
L -3.5 0 
" style="stroke: #000000; stroke-width: 0.8"/>
      </defs>
      <g>
       <use xlink:href="#m55a4310c9e" x="47.457813" y="382.977598" style="stroke: #000000; stroke-width: 0.8"/>
      </g>
     </g>
     <g id="text_10">
      <!-- -250 -->
      <g transform="translate(20.457813 386.415098) scale(0.1 -0.1)">
       <defs>
        <path id="SimHei-35" d="M 550 1325 
Q 725 650 1150 575 
Q 1575 500 1837 662 
Q 2100 825 2212 1087 
Q 2325 1350 2312 1675 
Q 2300 2000 2137 2225 
Q 1975 2450 1725 2525 
Q 1475 2600 1162 2525 
Q 850 2450 650 2175 
L 225 2225 
Q 275 2375 700 4375 
L 2675 4375 
L 2675 3925 
L 1075 3925 
Q 950 3250 825 2850 
Q 1200 3025 1525 3012 
Q 1850 3000 2150 2862 
Q 2450 2725 2587 2487 
Q 2725 2250 2787 2012 
Q 2850 1775 2837 1500 
Q 2825 1225 2725 937 
Q 2625 650 2425 462 
Q 2225 275 1937 162 
Q 1650 50 1275 75 
Q 900 100 562 350 
Q 225 600 100 1200 
L 550 1325 
z
" transform="scale(0.015625)"/>
       </defs>
       <use xlink:href="#SimHei-2d"/>
       <use xlink:href="#SimHei-32" x="50"/>
       <use xlink:href="#SimHei-35" x="100"/>
       <use xlink:href="#SimHei-30" x="150"/>
      </g>
     </g>
    </g>
    <g id="ytick_2">
     <g id="line2d_10">
      <g>
       <use xlink:href="#m55a4310c9e" x="47.457813" y="340.806281" style="stroke: #000000; stroke-width: 0.8"/>
      </g>
     </g>
     <g id="text_11">
      <!-- -200 -->
      <g transform="translate(20.457813 344.243781) scale(0.1 -0.1)">
       <use xlink:href="#SimHei-2d"/>
       <use xlink:href="#SimHei-32" x="50"/>
       <use xlink:href="#SimHei-30" x="100"/>
       <use xlink:href="#SimHei-30" x="150"/>
      </g>
     </g>
    </g>
    <g id="ytick_3">
     <g id="line2d_11">
      <g>
       <use xlink:href="#m55a4310c9e" x="47.457813" y="298.634963" style="stroke: #000000; stroke-width: 0.8"/>
      </g>
     </g>
     <g id="text_12">
      <!-- -150 -->
      <g transform="translate(20.457813 302.072463) scale(0.1 -0.1)">
       <use xlink:href="#SimHei-2d"/>
       <use xlink:href="#SimHei-31" x="50"/>
       <use xlink:href="#SimHei-35" x="100"/>
       <use xlink:href="#SimHei-30" x="150"/>
      </g>
     </g>
    </g>
    <g id="ytick_4">
     <g id="line2d_12">
      <g>
       <use xlink:href="#m55a4310c9e" x="47.457813" y="256.463646" style="stroke: #000000; stroke-width: 0.8"/>
      </g>
     </g>
     <g id="text_13">
      <!-- -100 -->
      <g transform="translate(20.457813 259.901146) scale(0.1 -0.1)">
       <use xlink:href="#SimHei-2d"/>
       <use xlink:href="#SimHei-31" x="50"/>
       <use xlink:href="#SimHei-30" x="100"/>
       <use xlink:href="#SimHei-30" x="150"/>
      </g>
     </g>
    </g>
    <g id="ytick_5">
     <g id="line2d_13">
      <g>
       <use xlink:href="#m55a4310c9e" x="47.457813" y="214.292328" style="stroke: #000000; stroke-width: 0.8"/>
      </g>
     </g>
     <g id="text_14">
      <!-- -50 -->
      <g transform="translate(25.457813 217.729828) scale(0.1 -0.1)">
       <use xlink:href="#SimHei-2d"/>
       <use xlink:href="#SimHei-35" x="50"/>
       <use xlink:href="#SimHei-30" x="100"/>
      </g>
     </g>
    </g>
    <g id="ytick_6">
     <g id="line2d_14">
      <g>
       <use xlink:href="#m55a4310c9e" x="47.457813" y="172.121011" style="stroke: #000000; stroke-width: 0.8"/>
      </g>
     </g>
     <g id="text_15">
      <!-- 0 -->
      <g transform="translate(35.457813 175.558511) scale(0.1 -0.1)">
       <use xlink:href="#SimHei-30"/>
      </g>
     </g>
    </g>
    <g id="ytick_7">
     <g id="line2d_15">
      <g>
       <use xlink:href="#m55a4310c9e" x="47.457813" y="129.949693" style="stroke: #000000; stroke-width: 0.8"/>
      </g>
     </g>
     <g id="text_16">
      <!-- 50 -->
      <g transform="translate(30.457813 133.387193) scale(0.1 -0.1)">
       <use xlink:href="#SimHei-35"/>
       <use xlink:href="#SimHei-30" x="50"/>
      </g>
     </g>
    </g>
    <g id="ytick_8">
     <g id="line2d_16">
      <g>
       <use xlink:href="#m55a4310c9e" x="47.457813" y="87.778375" style="stroke: #000000; stroke-width: 0.8"/>
      </g>
     </g>
     <g id="text_17">
      <!-- 100 -->
      <g transform="translate(25.457813 91.215875) scale(0.1 -0.1)">
       <use xlink:href="#SimHei-31"/>
       <use xlink:href="#SimHei-30" x="50"/>
       <use xlink:href="#SimHei-30" x="100"/>
      </g>
     </g>
    </g>
    <g id="ytick_9">
     <g id="line2d_17">
      <g>
       <use xlink:href="#m55a4310c9e" x="47.457813" y="45.607058" style="stroke: #000000; stroke-width: 0.8"/>
      </g>
     </g>
     <g id="text_18">
      <!-- 150 -->
      <g transform="translate(25.457813 49.044558) scale(0.1 -0.1)">
       <use xlink:href="#SimHei-31"/>
       <use xlink:href="#SimHei-35" x="50"/>
       <use xlink:href="#SimHei-30" x="100"/>
      </g>
     </g>
    </g>
    <g id="text_19">
     <!-- 一阶差分 -->
     <g transform="translate(15.207813 225.765625) rotate(-90) scale(0.1 -0.1)">
      <defs>
       <path id="SimHei-4e00" d="M 4875 2675 
Q 5525 2675 6050 2700 
L 6050 2050 
Q 5525 2075 4900 2075 
L 1600 2075 
Q 950 2075 350 2050 
L 350 2700 
Q 950 2675 1600 2675 
L 4875 2675 
z
" transform="scale(0.015625)"/>
       <path id="SimHei-9636" d="M 2450 4850 
Q 2350 4575 2175 3962 
Q 2000 3350 1825 2800 
Q 2225 2225 2312 1912 
Q 2400 1600 2375 1250 
Q 2350 900 2137 725 
Q 1925 550 1400 475 
Q 1300 925 1200 1075 
Q 1725 1025 1837 1225 
Q 1950 1425 1875 1775 
Q 1800 2125 1350 2725 
Q 1700 3825 1825 4400 
L 975 4400 
L 975 -500 
L 500 -500 
Q 525 175 525 675 
L 525 3650 
Q 525 4225 500 4850 
L 2450 4850 
z
M 4250 4825 
Q 4600 4100 5187 3637 
Q 5775 3175 6200 3025 
Q 5950 2775 5800 2500 
Q 4975 3075 4600 3512 
Q 4225 3950 4025 4400 
Q 3850 4025 3512 3487 
Q 3175 2950 2625 2350 
Q 2425 2575 2175 2700 
Q 2700 3075 3150 3787 
Q 3600 4500 3850 5275 
Q 4050 5150 4375 5075 
Q 4275 4900 4250 4825 
z
M 3750 2700 
Q 3650 2325 3575 1512 
Q 3500 700 3250 225 
Q 3000 -250 2650 -575 
Q 2425 -400 2175 -300 
Q 2550 -25 2762 337 
Q 2975 700 3087 1200 
Q 3200 1700 3200 2800 
Q 3350 2725 3750 2700 
z
M 5025 2775 
Q 4975 2425 4975 2025 
L 4975 350 
Q 4975 100 5000 -525 
L 4475 -525 
Q 4500 150 4500 375 
L 4500 2025 
Q 4500 2375 4475 2775 
L 5025 2775 
z
" transform="scale(0.015625)"/>
       <path id="SimHei-5dee" d="M 4725 4975 
Q 4500 4725 4250 4275 
L 4850 4275 
Q 5450 4275 5825 4300 
L 5825 3850 
Q 5425 3875 4850 3875 
L 3275 3875 
Q 3225 3600 3150 3275 
L 4525 3275 
Q 5075 3275 5525 3300 
L 5525 2850 
Q 5075 2875 4500 2875 
L 3050 2875 
Q 2975 2650 2850 2325 
L 5125 2325 
Q 5675 2325 6025 2350 
L 6025 1900 
Q 5700 1925 5150 1925 
L 2650 1925 
Q 2425 1550 2250 1300 
Q 2650 1275 3100 1275 
L 4525 1275 
Q 4975 1275 5350 1300 
L 5350 850 
Q 4975 875 4575 875 
L 3925 875 
L 3925 -50 
L 5000 -50 
Q 5200 -50 5900 -25 
L 5900 -500 
Q 5275 -475 5025 -475 
L 2100 -475 
Q 1700 -475 1400 -500 
L 1400 -25 
Q 1775 -50 2125 -50 
L 3425 -50 
L 3425 875 
L 3100 875 
Q 2625 875 2175 850 
L 2175 1200 
Q 1925 875 1487 475 
Q 1050 75 625 -250 
Q 425 -25 200 150 
Q 750 475 1262 925 
Q 1775 1375 2100 1925 
L 1325 1925 
Q 750 1925 375 1900 
L 375 2350 
Q 750 2325 1350 2325 
L 2325 2325 
Q 2450 2575 2550 2875 
L 1725 2875 
Q 1375 2875 1000 2850 
L 1000 3300 
Q 1500 3275 1700 3275 
L 2650 3275 
Q 2725 3575 2775 3875 
L 1500 3875 
Q 1100 3875 650 3850 
L 650 4300 
Q 1025 4275 1425 4275 
L 2275 4275 
Q 2075 4675 1850 4950 
Q 2025 5050 2250 5225 
Q 2450 4975 2725 4550 
Q 2525 4450 2325 4275 
L 3750 4275 
Q 4000 4700 4150 5250 
Q 4400 5100 4725 4975 
z
" transform="scale(0.015625)"/>
       <path id="SimHei-5206" d="M 1000 -650 
Q 825 -375 575 -225 
Q 975 -75 1300 137 
Q 1625 350 1875 662 
Q 2125 975 2250 1350 
Q 2375 1725 2425 2275 
Q 1850 2275 1500 2250 
L 1500 2775 
Q 1900 2750 2525 2750 
L 5025 2750 
Q 4975 2375 4950 2100 
L 4750 250 
Q 4700 -200 4350 -350 
Q 4000 -500 3575 -525 
Q 3550 -275 3325 50 
Q 3850 25 4037 87 
Q 4225 150 4275 525 
L 4450 2275 
L 2950 2275 
Q 2875 1625 2737 1187 
Q 2600 750 2350 425 
Q 2100 100 1750 -175 
Q 1400 -450 1000 -650 
z
M 3950 5175 
Q 4125 4650 4662 3975 
Q 5200 3300 6175 2800 
Q 5975 2625 5775 2275 
Q 5325 2600 4987 2887 
Q 4650 3175 4425 3425 
Q 4200 3675 3925 4137 
Q 3650 4600 3475 5000 
Q 3750 5075 3950 5175 
z
M 2700 4825 
Q 2475 4425 2325 4125 
Q 2175 3825 2025 3587 
Q 1875 3350 1575 2950 
Q 1275 2550 850 2125 
Q 625 2350 400 2475 
Q 900 2925 1187 3300 
Q 1475 3675 1737 4112 
Q 2000 4550 2200 5075 
Q 2400 4925 2700 4825 
z
" transform="scale(0.015625)"/>
      </defs>
      <use xlink:href="#SimHei-4e00"/>
      <use xlink:href="#SimHei-9636" x="100"/>
      <use xlink:href="#SimHei-5dee" x="200"/>
      <use xlink:href="#SimHei-5206" x="300"/>
     </g>
    </g>
   </g>
   <g id="line2d_18">
    <path d="M 77.358892 179.329776 
L 77.815397 109.598659 
L 78.271902 371.87642 
L 78.728407 120.326198 
L 80.097922 315.25721 
L 80.554427 166.928034 
L 81.010932 233.913799 
L 81.467437 123.158424 
L 81.923942 262.09689 
L 83.293457 161.268897 
L 83.749962 92.921083 
L 84.206468 198.305603 
L 84.662973 253.268915 
L 85.119478 141.689513 
L 86.488993 153.605694 
L 86.945498 331.300444 
L 87.402003 184.120943 
L 87.858508 239.508161 
L 88.315013 103.011752 
L 89.684528 213.234671 
L 90.141033 120.910946 
L 90.597538 180.828038 
L 91.054043 136.8862 
L 91.510548 186.906865 
L 96.075598 186.709081 
L 96.532103 95.896607 
L 96.988608 146.170975 
L 97.445113 175.870209 
L 97.901618 174.543247 
L 99.271134 115.481389 
L 99.727639 192.231415 
L 100.184144 150.559069 
L 100.640649 330.390471 
L 101.097154 150.222036 
L 102.466669 238.946439 
L 102.923174 134.005562 
L 103.379679 73.852479 
L 103.836184 163.621719 
L 104.292689 159.985286 
L 105.662204 152.559676 
L 106.118709 168.707242 
L 106.575214 204.872099 
L 107.031719 220.896778 
L 107.488224 167.413089 
L 108.857739 130.631519 
L 109.314244 168.01403 
L 109.770749 167.008497 
L 110.227254 143.105542 
L 110.683759 129.681568 
L 112.053274 118.435321 
L 112.509779 188.516291 
L 112.966284 163.182715 
L 113.42279 213.440467 
L 113.879295 156.548071 
L 115.705315 204.161259 
L 116.16182 103.961113 
L 116.618325 169.362753 
L 117.07483 167.385509 
L 118.90085 135.401938 
L 119.81386 207.689987 
L 120.270365 191.909311 
L 121.63988 130.794131 
L 122.096385 180.817242 
L 122.55289 135.860678 
L 123.009395 158.859481 
L 123.4659 175.701271 
L 124.835415 209.616541 
L 125.29192 164.392864 
L 125.748425 231.362856 
L 126.20493 188.730268 
L 126.661435 166.766181 
L 128.030951 182.722542 
L 128.487456 156.914624 
L 128.943961 181.422991 
L 129.400466 178.937835 
L 129.856971 178.248587 
L 131.682991 126.306344 
L 132.139496 173.277432 
L 132.596001 166.580121 
L 133.052506 243.469819 
L 134.422021 240.552492 
L 134.878526 171.717262 
L 135.335031 168.371137 
L 135.791536 173.112374 
L 136.248041 179.503606 
L 137.617556 152.087104 
L 138.530566 202.627742 
L 138.987071 172.633814 
L 139.443576 156.452679 
L 140.813091 156.802785 
L 141.269596 190.658425 
L 142.182606 165.91626 
L 142.639112 173.299193 
L 144.008627 170.936081 
L 144.465132 92.699684 
L 144.921637 174.742633 
L 145.378142 162.234704 
L 145.834647 160.774649 
L 147.204162 175.987361 
L 147.660667 170.478859 
L 148.117172 179.615613 
L 150.399697 251.477562 
L 150.856202 164.430733 
L 151.312707 134.148691 
L 151.769212 184.260868 
L 152.225717 161.75665 
L 153.595232 168.996875 
L 154.051737 180.76748 
L 154.508242 149.355246 
L 154.964747 183.582584 
L 155.421252 203.896086 
L 156.790767 137.188906 
L 157.247273 157.905818 
L 157.703778 156.066474 
L 158.160283 173.796561 
L 158.616788 169.700293 
L 159.986303 124.781008 
L 160.442808 157.118227 
L 160.899313 162.927242 
L 161.355818 172.496926 
L 161.812323 196.37188 
L 163.181838 166.366481 
L 163.638343 126.184385 
L 164.094848 162.583292 
L 164.551353 177.747592 
L 165.007858 171.886707 
L 166.377373 181.172409 
L 166.833878 177.996656 
L 167.290383 179.45747 
L 167.746888 162.750881 
L 168.203393 194.213214 
L 169.572908 169.580526 
L 170.029413 143.159183 
L 170.485918 221.180591 
L 170.942423 170.160635 
L 171.398928 184.759417 
L 172.768444 194.010792 
L 173.224949 157.02933 
L 173.681454 166.063438 
L 174.137959 168.776572 
L 174.594464 176.953759 
L 175.963979 148.85889 
L 176.420484 154.068482 
L 176.876989 177.969835 
L 177.333494 185.707175 
L 177.789999 131.611412 
L 179.159514 109.2623 
L 179.616019 184.90592 
L 180.072524 172.527542 
L 180.529029 176.710178 
L 180.985534 168.757258 
L 182.355049 191.77023 
L 182.811554 167.987884 
L 183.268059 175.347201 
L 183.724564 186.923986 
L 184.181069 170.451532 
L 185.550584 172.358435 
L 186.007089 168.1995 
L 186.463595 163.000029 
L 186.9201 190.83293 
L 187.376605 168.708001 
L 188.74612 168.120386 
L 189.202625 156.418605 
L 189.65913 171.09591 
L 190.115635 168.725207 
L 190.57214 186.543179 
L 191.941655 220.093161 
L 192.39816 170.828544 
L 192.854665 189.546958 
L 195.13719 152.551242 
L 195.593695 174.694979 
L 196.0502 169.696919 
L 196.506705 158.255419 
L 196.96321 179.220636 
L 198.332725 217.215728 
L 198.78923 157.156265 
L 199.245735 180.8207 
L 199.70224 163.159521 
L 200.158745 166.874646 
L 204.723796 135.482739 
L 205.636806 177.815488 
L 206.093311 169.719185 
L 206.549816 170.04382 
L 207.919331 191.218123 
L 208.375836 136.099283 
L 208.832341 171.409327 
L 209.288846 172.341313 
L 209.745351 166.652656 
L 211.114866 140.656569 
L 211.571371 169.007249 
L 212.027876 185.300897 
L 212.484381 175.46275 
L 212.940886 178.935474 
L 214.310401 175.307728 
L 214.766906 153.6132 
L 215.223411 188.73904 
L 215.679917 150.02071 
L 216.136422 175.173286 
L 217.505937 165.360189 
L 217.962442 159.845024 
L 218.418947 188.582416 
L 218.875452 135.928068 
L 219.331957 151.236425 
L 220.701472 160.036904 
L 221.157977 174.976177 
L 221.614482 173.747643 
L 222.070987 169.257325 
L 222.527492 185.275594 
L 223.897007 150.78924 
L 224.353512 146.646161 
L 224.810017 178.206416 
L 225.266522 171.615545 
L 225.723027 155.082196 
L 227.092542 159.417492 
L 227.549047 167.124384 
L 228.005552 199.860797 
L 228.462057 152.490347 
L 228.918562 196.973496 
L 230.288078 205.127657 
L 231.201088 153.064467 
L 231.657593 177.920157 
L 232.114098 157.346205 
L 233.483613 239.52174 
L 233.940118 170.377648 
L 234.396623 184.356259 
L 234.853128 191.396508 
L 235.309633 167.647055 
L 236.679148 176.251185 
L 237.135653 184.948429 
L 237.592158 142.977425 
L 238.505168 196.920782 
L 239.874683 161.65021 
L 240.331188 178.788296 
L 240.787693 182.603366 
L 241.244198 177.298721 
L 241.700703 165.761154 
L 243.526723 144.892256 
L 243.983228 152.829151 
L 244.896239 181.474524 
L 246.265754 157.854285 
L 246.722259 180.188299 
L 247.178764 193.13734 
L 247.635269 186.851367 
L 248.091774 177.623693 
L 249.461289 179.995576 
L 249.917794 167.611547 
L 250.374299 168.546823 
L 250.830804 182.000148 
L 251.287309 153.700832 
L 252.656824 160.620133 
L 253.113329 167.247271 
L 253.569834 166.215845 
L 254.026339 164.014587 
L 257.678379 188.142737 
L 259.047894 157.939809 
L 259.5044 175.407 
L 259.960905 160.402445 
L 260.41741 158.459528 
L 260.873915 160.718224 
L 262.24343 155.134066 
L 262.699935 171.202857 
L 263.15644 176.289477 
L 263.612945 158.092553 
L 264.06945 195.351334 
L 265.438965 140.167213 
L 265.89547 160.849123 
L 266.351975 165.464099 
L 266.80848 180.423193 
L 267.264985 170.385492 
L 268.6345 193.01479 
L 269.091005 161.094982 
L 269.54751 167.734856 
L 270.004015 186.37947 
L 270.46052 182.002847 
L 271.830035 159.002441 
L 272.28654 164.917643 
L 272.743045 173.590006 
L 273.19955 192.294841 
L 273.656055 175.482571 
L 275.025571 151.655861 
L 275.482076 170.178262 
L 275.938581 170.069882 
L 276.395086 149.200309 
L 276.851591 198.679072 
L 278.221106 160.851907 
L 278.677611 163.009813 
L 279.134116 185.945612 
L 280.047126 154.497111 
L 281.416641 174.221058 
L 281.873146 183.935136 
L 282.329651 181.933011 
L 282.786156 198.332593 
L 283.242661 161.766012 
L 285.525186 131.812653 
L 285.981691 163.096939 
L 286.438196 167.388292 
L 287.807711 186.64768 
L 288.264216 155.612542 
L 288.720722 184.886774 
L 289.177227 170.324344 
L 289.633732 197.333976 
L 291.003247 192.278479 
L 291.459752 193.589585 
L 291.916257 194.072531 
L 292.372762 170.928743 
L 292.829267 171.234654 
L 294.198782 208.911268 
L 294.655287 167.873347 
L 295.111792 166.824546 
L 295.568297 162.556724 
L 296.024802 170.036482 
L 297.850822 181.353408 
L 298.307327 179.1772 
L 298.763832 178.849276 
L 299.220337 192.642333 
L 300.589852 192.721615 
L 301.046357 170.506692 
L 301.502862 195.51926 
L 301.959367 164.770297 
L 302.415872 153.554751 
L 303.785388 166.456812 
L 304.241893 152.945459 
L 304.698398 179.30928 
L 305.154903 184.184116 
L 305.611408 171.706129 
L 306.980923 184.734705 
L 307.437428 183.700074 
L 307.893933 170.32544 
L 308.350438 135.216722 
L 308.806943 170.242194 
L 311.089468 166.116574 
L 311.545973 184.396744 
L 312.002478 169.660905 
L 313.371993 183.831058 
L 314.285003 139.903052 
L 314.741508 163.679409 
L 315.198013 165.317259 
L 316.567528 187.744472 
L 317.024033 160.425808 
L 317.480538 191.577929 
L 317.937044 170.592469 
L 318.393549 179.981828 
L 319.763064 154.233878 
L 320.219569 175.798602 
L 320.676074 158.459022 
L 321.132579 179.508245 
L 321.589084 163.332677 
L 322.958599 148.866987 
L 323.871609 187.298889 
L 324.328114 159.586767 
L 324.784619 168.439961 
L 326.154134 169.181923 
L 326.610639 183.17639 
L 327.067144 151.600194 
L 327.523649 167.642585 
L 327.980154 167.471454 
L 329.806174 180.21318 
L 330.262679 176.754458 
L 330.719184 154.73015 
L 332.545205 210.878138 
L 333.00171 162.756954 
L 333.458215 135.508716 
L 333.91472 160.407084 
L 334.371225 177.926314 
L 335.74074 161.479332 
L 336.197245 177.948665 
L 336.65375 168.759619 
L 337.110255 170.344249 
L 337.56676 169.203599 
L 338.936275 155.431374 
L 339.39278 155.58142 
L 339.849285 178.515447 
L 340.30579 182.350254 
L 340.762295 181.270247 
L 342.13181 157.465887 
L 342.588315 170.083124 
L 343.501325 183.780199 
L 343.95783 216.998124 
L 345.327345 147.814391 
L 345.78385 160.396119 
L 346.240355 176.178313 
L 346.69686 153.58368 
L 347.153366 171.872621 
L 348.522881 156.786507 
L 348.979386 169.320666 
L 349.435891 174.24712 
L 349.892396 185.778782 
L 350.348901 121.506658 
L 351.718416 145.865739 
L 352.174921 169.949441 
L 352.631426 173.470071 
L 353.087931 174.496352 
L 353.544436 166.799749 
L 354.913951 161.608882 
L 355.370456 168.12823 
L 355.826961 171.217026 
L 356.283466 188.897941 
L 356.739971 172.335916 
L 358.109486 162.694709 
L 358.565991 169.532366 
L 359.022496 168.191487 
L 359.479001 182.850574 
L 359.935506 187.139397 
L 361.305021 164.328173 
L 361.761527 177.193461 
L 362.218032 164.402563 
L 362.674537 179.023274 
L 363.131042 176.576748 
L 364.500557 181.382422 
L 364.957062 170.405566 
L 365.413567 170.696379 
L 365.870072 176.869164 
L 366.326577 164.276302 
L 370.891627 150.668461 
L 371.348132 164.859278 
L 371.804637 167.654309 
L 372.261142 173.962885 
L 372.717647 168.390283 
L 374.087162 182.286744 
L 374.543667 177.543989 
L 375.000172 163.895073 
L 375.456677 181.922974 
L 375.913182 164.972129 
L 377.282698 170.391227 
L 377.739203 165.754238 
L 378.195708 164.825541 
L 378.652213 163.121989 
L 379.108718 164.323281 
L 380.478233 194.450976 
L 380.934738 169.586852 
L 381.391243 169.95273 
L 381.847748 182.750713 
L 382.304253 181.875574 
L 384.130273 150.697475 
L 384.586778 170.530814 
L 385.043283 161.717853 
L 385.499788 168.006355 
L 386.869303 159.33239 
L 387.325808 187.545254 
L 387.782313 194.913511 
L 388.238818 174.882557 
L 388.695323 185.904959 
L 390.521343 156.855921 
L 390.977848 155.280654 
L 391.434354 238.368861 
L 391.890859 170.516392 
L 393.260374 198.765608 
L 393.716879 162.483009 
L 394.173384 168.574403 
L 394.629889 189.55767 
L 395.086394 171.759181 
L 396.455909 178.867662 
L 396.912414 177.133662 
L 397.368919 180.310933 
L 397.825424 190.600988 
L 398.281929 156.99146 
L 399.651444 144.959983 
L 400.107949 207.02368 
L 400.564454 153.376956 
L 401.020959 181.060318 
L 401.477464 194.304304 
L 402.846979 170.615241 
L 403.303484 147.985522 
L 403.759989 179.655085 
L 404.216494 161.617316 
L 404.672999 174.648169 
L 406.042515 186.123575 
L 406.49902 150.475654 
L 406.955525 197.712084 
L 407.41203 154.744825 
L 407.868535 163.022633 
L 409.694555 137.410811 
L 410.15106 154.592502 
L 410.607565 158.118615 
L 411.06407 167.0268 
L 412.433585 157.167567 
L 412.89009 168.392982 
L 413.346595 165.428675 
L 413.8031 169.160078 
L 414.259605 169.088218 
L 415.62912 187.684335 
L 416.085625 150.102691 
L 416.54213 165.308403 
L 416.998635 146.748469 
L 417.45514 161.063691 
L 418.824655 160.736273 
L 419.28116 134.046552 
L 419.737665 161.189783 
L 420.19417 181.532215 
L 420.650676 163.837046 
L 422.020191 201.748976 
L 422.476696 201.633932 
L 422.933201 178.173101 
L 423.389706 200.673944 
L 423.846211 159.384514 
L 425.215726 150.684318 
L 425.672231 270.671162 
L 426.128736 223.90081 
L 426.585241 211.938662 
L 427.041746 283.621637 
L 428.411261 151.647173 
L 428.867766 146.115393 
L 429.324271 160.144188 
L 432.976311 113.587222 
L 433.432816 154.860122 
L 434.802331 137.920409 
L 435.258837 203.754391 
L 435.715342 199.667231 
L 436.171847 160.020457 
L 436.628352 188.337232 
L 437.997867 170.098474 
L 438.454372 144.527811 
L 438.910877 187.280418 
L 439.367382 158.004415 
L 439.823887 156.298248 
L 441.193402 155.645858 
L 441.649907 186.004061 
L 442.106412 188.025501 
L 442.562917 172.348651 
L 443.019422 190.026868 
L 444.388937 164.218443 
L 444.845442 162.515903 
L 445.301947 180.291956 
L 445.758452 186.857187 
L 446.214957 265.504754 
L 447.584472 188.179005 
L 448.040977 144.349511 
L 448.497482 209.534813 
L 448.953987 139.867459 
L 449.410492 165.064906 
L 450.780008 176.943385 
L 451.236513 194.510438 
L 451.693018 176.778242 
L 453.975543 166.063354 
L 454.432048 128.239224 
L 454.888553 157.14159 
L 455.345058 195.672426 
L 455.801563 189.922536 
L 457.171078 212.945545 
L 457.627583 209.107112 
L 458.084088 151.371035 
L 458.540593 150.211071 
L 458.997098 210.778192 
L 460.366613 175.098727 
L 460.823118 120.74361 
L 461.279623 181.359228 
L 461.736128 208.340943 
L 462.192633 166.047076 
L 464.475159 173.010235 
L 464.931664 155.521283 
L 465.388169 180.407843 
L 466.757684 133.651154 
L 467.214189 151.159504 
L 467.670694 174.10087 
L 468.127199 159.248216 
L 468.583704 181.524793 
L 470.409724 156.866549 
L 470.866229 191.142889 
L 471.322734 185.010842 
L 471.779239 139.209755 
L 473.148754 154.799564 
L 473.605259 171.691453 
L 474.061764 210.400337 
L 474.518269 184.193478 
L 474.974774 183.378559 
L 476.344289 177.36805 
L 476.800794 184.453253 
L 477.257299 238.766115 
L 477.713804 126.550432 
L 478.170309 189.27335 
L 479.539825 158.580897 
L 479.99633 152.70989 
L 480.452835 171.298839 
L 480.90934 176.912937 
L 481.365845 207.84096 
L 482.73536 184.236577 
L 483.191865 149.332727 
L 483.64837 197.428271 
L 484.104875 176.875236 
L 484.56138 190.894753 
L 486.3874 268.337992 
L 486.843905 165.450098 
L 487.30041 205.791856 
L 487.756915 160.354876 
L 489.12643 197.781329 
L 489.582935 184.627589 
L 490.03944 198.546064 
L 490.495945 194.287014 
L 490.95245 121.075583 
L 492.321965 232.730556 
L 492.77847 162.564315 
L 493.234975 195.536044 
L 493.691481 193.41255 
L 494.147986 160.864136 
L 495.517501 114.868386 
L 496.430511 214.169272 
L 496.887016 121.610315 
L 497.343521 177.582112 
L 498.713036 186.578941 
L 499.169541 185.5449 
L 499.626046 181.288127 
L 500.082551 184.529162 
L 500.539056 124.276976 
L 501.908571 146.589483 
L 502.365076 133.307036 
L 502.821581 173.736256 
L 503.278086 190.188299 
L 503.734591 179.401129 
L 505.104106 175.953793 
L 505.560611 165.920646 
L 506.017116 215.867174 
L 506.473621 219.782865 
L 506.930126 195.383553 
L 508.299642 201.88249 
L 508.756147 109.524015 
L 509.212652 201.897672 
L 509.669157 129.686375 
L 510.125662 171.338227 
L 511.495177 180.081184 
L 511.951682 176.260041 
L 512.408187 220.792615 
L 512.864692 187.358267 
L 513.321197 202.67472 
L 514.690712 147.240102 
L 515.147217 142.296949 
L 515.603722 188.330147 
L 516.060227 163.673084 
L 516.516732 168.067166 
L 517.886247 128.711374 
L 518.342752 174.582297 
L 518.799257 179.447096 
L 519.255762 198.737859 
L 519.712267 182.652707 
L 521.081782 175.929502 
L 521.538287 146.948108 
L 521.994792 211.124081 
L 522.451297 182.869552 
L 522.907803 163.08977 
L 524.277318 199.799058 
L 524.733823 176.072294 
L 525.190328 179.450048 
L 525.646833 146.423243 
L 526.103338 176.283573 
L 527.472853 197.301082 
L 527.929358 131.500332 
L 528.385863 146.058968 
L 528.842368 173.475975 
L 529.298873 114.564753 
L 531.124893 185.907911 
L 531.581398 150.466208 
L 532.037903 184.804878 
L 532.494408 147.176423 
L 537.059458 260.545576 
L 537.515964 168.323399 
L 537.972469 168.052575 
L 538.428974 292.20738 
L 538.885479 152.338445 
L 540.254994 204.857845 
L 540.711499 190.48139 
L 541.168004 159.229745 
L 541.624509 235.542792 
L 542.081014 118.10242 
L 543.450529 84.058022 
L 543.907034 222.769353 
L 544.363539 164.977527 
L 544.820044 171.695586 
L 545.276549 176.298248 
L 546.646064 219.979974 
L 547.102569 150.238483 
L 547.559074 142.824512 
L 548.015579 169.207816 
L 548.472084 112.879587 
L 549.841599 181.437161 
L 550.298104 177.244151 
L 550.754609 187.31483 
L 551.211114 176.936806 
L 551.667619 203.125954 
L 553.037135 145.428253 
L 553.49364 151.575145 
L 553.950145 191.213653 
L 554.40665 141.818473 
L 554.863155 162.894517 
L 556.23267 151.539805 
L 556.689175 220.750528 
L 557.14568 167.354977 
L 557.602185 177.241789 
L 558.05869 227.745653 
L 559.428205 175.218916 
L 559.88471 173.074841 
L 560.341215 149.300171 
L 560.79772 201.044715 
L 561.254225 154.62489 
L 562.62374 115.93996 
L 563.080245 162.708625 
L 563.993255 209.757899 
L 564.44976 171.525298 
L 565.819275 190.090546 
L 566.27578 164.103484 
L 566.732286 165.319199 
L 567.188791 145.218662 
L 567.645296 206.118177 
L 569.014811 168.550787 
L 569.471316 190.106403 
L 569.927821 194.966141 
L 570.384326 183.335123 
L 570.840831 189.003791 
L 572.210346 163.048695 
L 572.666851 190.835039 
L 573.123356 177.624452 
L 573.579861 184.947417 
L 574.036366 163.00374 
L 576.318891 196.24739 
L 576.775396 172.903879 
L 577.231901 129.523425 
L 578.601416 156.753361 
L 579.057921 177.709975 
L 579.514426 157.03827 
L 579.970931 179.919668 
L 580.427436 156.321273 
L 581.796952 187.358351 
L 582.253457 142.955665 
L 582.709962 172.055898 
L 583.166467 181.217448 
L 583.622972 141.446775 
L 584.992487 159.888123 
L 585.448992 198.103012 
L 585.905497 171.024556 
L 586.362002 163.105289 
L 586.818507 163.661529 
L 588.188022 176.124502 
L 588.644527 174.417745 
L 589.101032 187.874528 
L 590.014042 143.731364 
L 594.579092 142.041306 
L 595.035597 156.941276 
L 595.492102 130.645857 
L 595.948608 173.275155 
L 596.405113 203.59338 
L 597.774628 111.418267 
L 598.231133 171.033581 
L 598.687638 167.420595 
L 599.144143 180.064147 
L 599.600648 127.904384 
L 600.970163 39.65483 
L 601.426668 188.793104 
L 601.883173 161.740203 
L 602.339678 182.976245 
L 602.796183 127.376231 
L 604.622203 149.625902 
L 605.078708 131.760951 
L 605.535213 168.478421 
L 605.991718 287.296361 
L 607.361233 123.935135 
L 607.817738 144.02243 
L 608.274243 200.25434 
L 608.730748 202.708964 
L 609.187253 145.918959 
L 610.556769 109.145401 
L 611.013274 176.711443 
L 611.469779 172.403305 
L 611.926284 162.999608 
L 612.382789 169.849073 
L 613.752304 223.669036 
L 614.208809 210.864559 
L 614.665314 150.508885 
L 615.121819 195.54819 
L 615.578324 91.308452 
L 616.947839 104.981743 
L 617.404344 166.671042 
L 617.860849 138.828864 
L 618.317354 146.585266 
L 620.143374 173.606369 
L 620.599879 176.46162 
L 621.056384 170.209806 
L 621.512889 215.952191 
L 621.969394 173.248081 
L 623.338909 181.262909 
L 623.795414 108.179847 
L 624.251919 164.091507 
L 624.708424 183.015296 
L 625.16493 154.749717 
L 626.534445 219.145994 
L 626.99095 185.994362 
L 627.447455 169.573947 
L 627.90396 237.729122 
L 628.360465 203.688097 
L 629.72998 192.279238 
L 630.186485 158.7608 
L 632.925515 317.08483 
L 633.38202 155.314222 
L 633.838525 199.64547 
L 634.29503 208.222189 
L 634.751535 97.682815 
L 636.12105 202.060537 
L 636.577555 189.075904 
L 637.03406 125.675714 
L 637.490565 157.755014 
L 637.94707 234.040987 
L 639.316585 181.982014 
L 639.773091 142.293912 
L 640.229596 184.151813 
L 640.686101 205.174299 
L 641.142606 171.716588 
L 642.512121 138.904013 
L 642.968626 157.333722 
L 643.881636 179.619914 
L 644.338141 178.117181 
L 645.707656 179.387297 
L 646.164161 195.568769 
L 646.620666 172.848213 
L 647.077171 200.477257 
L 648.903191 151.598423 
L 649.359696 110.056639 
L 649.816201 185.899729 
L 650.272706 170.973107 
L 650.729211 196.383266 
L 652.098726 167.357507 
L 652.555231 169.982166 
L 653.011736 148.804573 
L 653.468241 113.658323 
L 653.924746 159.586345 
L 655.294262 166.91901 
L 655.750767 194.112594 
L 656.207272 177.004533 
L 656.663777 154.823264 
L 657.120282 187.230319 
L 658.489797 116.434292 
L 658.946302 172.9307 
L 659.402807 196.310057 
L 660.315817 167.220703 
L 661.685332 237.651358 
L 662.141837 176.451077 
L 662.598342 183.024236 
L 663.054847 170.047278 
L 663.511352 161.337552 
L 664.880867 162.304287 
L 665.337372 175.974204 
L 665.793877 177.117637 
L 666.250382 197.859009 
L 666.706887 152.701962 
L 668.076402 203.518906 
L 668.532907 161.181265 
L 668.989413 152.441428 
L 669.445918 160.243375 
L 669.902423 166.06445 
L 671.271938 175.101679 
L 671.728443 162.563894 
L 672.184948 188.848264 
L 672.641453 192.143783 
L 673.097958 206.641102 
L 674.467473 211.20699 
L 674.923978 209.180996 
L 675.380483 179.6076 
L 675.380483 179.6076 
" clip-path="url(#p6eeb69a650)" style="fill: none; stroke: #7fffd4; stroke-width: 1.5; stroke-linecap: square"/>
   </g>
   <g id="patch_3">
    <path d="M 47.457813 388.4875 
L 47.457813 23.04375 
" style="fill: none; stroke: #000000; stroke-width: 0.8; stroke-linejoin: miter; stroke-linecap: square"/>
   </g>
   <g id="patch_4">
    <path d="M 705.281563 388.4875 
L 705.281563 23.04375 
" style="fill: none; stroke: #000000; stroke-width: 0.8; stroke-linejoin: miter; stroke-linecap: square"/>
   </g>
   <g id="patch_5">
    <path d="M 47.457812 388.4875 
L 705.281562 388.4875 
" style="fill: none; stroke: #000000; stroke-width: 0.8; stroke-linejoin: miter; stroke-linecap: square"/>
   </g>
   <g id="patch_6">
    <path d="M 47.457812 23.04375 
L 705.281562 23.04375 
" style="fill: none; stroke: #000000; stroke-width: 0.8; stroke-linejoin: miter; stroke-linecap: square"/>
   </g>
   <g id="text_20">
    <!-- 2016年至今上证指数一阶差分图 -->
    <g transform="translate(292.369687 17.04375) scale(0.12 -0.12)">
     <defs>
      <path id="SimHei-5e74" d="M 350 2925 
Q 900 3450 1375 4200 
Q 1850 4950 1900 5275 
Q 2275 5125 2600 5050 
Q 2375 4825 2100 4325 
L 4625 4325 
Q 5175 4325 5750 4350 
L 5750 3925 
Q 5225 3950 4625 3950 
L 3800 3950 
L 3800 2925 
Q 4750 2925 5475 2950 
L 5475 2525 
Q 4725 2550 3800 2550 
L 3800 1375 
L 5075 1375 
Q 5625 1375 6100 1400 
L 6100 975 
Q 5650 1000 5075 1000 
L 3800 1000 
L 3800 425 
Q 3800 -150 3825 -625 
L 3275 -625 
Q 3300 -150 3300 375 
L 3300 1000 
L 1600 1000 
Q 900 1000 275 975 
L 275 1400 
Q 875 1375 1450 1375 
Q 1450 2350 1425 2925 
L 3300 2925 
L 3300 3950 
L 1875 3950 
Q 1350 3150 925 2650 
Q 650 2875 350 2925 
z
M 3300 1375 
L 3300 2550 
L 1925 2550 
L 1925 1375 
L 3300 1375 
z
" transform="scale(0.015625)"/>
      <path id="SimHei-81f3" d="M 4250 3725 
Q 5275 2700 5575 2350 
Q 5350 2225 5175 2025 
Q 4950 2275 4750 2475 
Q 3925 2425 3475 2400 
L 3475 1450 
L 4275 1450 
Q 4800 1450 5250 1475 
L 5250 1000 
Q 4775 1025 4300 1025 
L 3475 1025 
L 3475 100 
L 4975 100 
Q 5550 100 5975 125 
L 5975 -350 
Q 5575 -325 4975 -325 
L 1325 -325 
Q 825 -325 450 -350 
L 450 125 
Q 850 100 1350 100 
L 2975 100 
L 2975 1025 
L 2025 1025 
Q 1550 1025 1150 1000 
L 1150 1475 
Q 1575 1450 2050 1450 
L 2975 1450 
L 2975 2375 
Q 2500 2350 1975 2300 
Q 1450 2250 1250 2175 
Q 1150 2425 1050 2650 
Q 1575 2800 2050 3350 
Q 2525 3900 2600 4275 
L 1700 4275 
Q 1150 4275 775 4250 
L 775 4725 
Q 1150 4700 1700 4700 
L 4700 4700 
Q 5225 4700 5650 4725 
L 5650 4250 
Q 5250 4275 4675 4275 
L 2800 4275 
Q 3000 4125 3225 3950 
Q 2900 3675 2537 3287 
Q 2175 2900 1950 2725 
Q 2700 2725 3300 2750 
Q 3900 2775 4475 2800 
Q 4250 3050 3900 3400 
Q 4075 3550 4250 3725 
z
" transform="scale(0.015625)"/>
      <path id="SimHei-4eca" d="M 3450 4850 
Q 4675 3100 6125 2525 
Q 5875 2300 5725 2025 
Q 4200 2925 3200 4525 
Q 2325 3150 700 2000 
Q 550 2250 300 2400 
Q 1150 2825 1912 3600 
Q 2675 4375 3025 5275 
Q 3250 5175 3575 5050 
L 3450 4850 
z
M 5250 1900 
L 5250 1475 
Q 5075 1400 4425 537 
Q 3775 -325 3550 -775 
Q 3450 -675 3100 -425 
Q 3500 75 4450 1450 
L 2050 1450 
Q 1575 1450 1375 1425 
L 1375 1925 
Q 1575 1900 2075 1900 
L 5250 1900 
z
M 2925 3400 
Q 3425 2825 3750 2450 
Q 3525 2300 3300 2100 
Q 2925 2700 2550 3050 
Q 2825 3275 2925 3400 
z
" transform="scale(0.015625)"/>
      <path id="SimHei-4e0a" d="M 3250 5075 
Q 3225 4650 3225 4275 
L 3225 3225 
L 4650 3225 
Q 5150 3225 5600 3250 
L 5600 2700 
Q 5100 2725 4600 2725 
L 3225 2725 
L 3225 200 
L 5200 200 
Q 5575 200 6075 225 
L 6075 -300 
Q 5600 -275 5200 -275 
L 1250 -275 
Q 850 -275 350 -300 
L 350 225 
Q 825 200 1250 200 
L 2700 200 
L 2700 4250 
Q 2700 4625 2675 5075 
L 3250 5075 
z
" transform="scale(0.015625)"/>
      <path id="SimHei-8bc1" d="M 5125 4675 
Q 5625 4675 6050 4700 
L 6050 4225 
Q 5625 4250 5125 4250 
L 4500 4250 
L 4500 2625 
L 5075 2625 
Q 5500 2625 5900 2650 
L 5900 2175 
Q 5525 2200 5075 2200 
L 4500 2200 
L 4500 125 
L 5200 125 
Q 5625 125 6175 150 
L 6175 -325 
Q 5625 -300 5200 -300 
L 3000 -300 
Q 2400 -300 2000 -325 
L 2000 150 
Q 2400 125 2775 125 
L 2775 2075 
Q 2775 2600 2750 2950 
L 3275 2950 
Q 3250 2625 3250 2075 
L 3250 125 
L 4000 125 
L 4000 4250 
L 3550 4250 
Q 2975 4250 2450 4225 
L 2450 4700 
Q 2975 4675 3550 4675 
L 5125 4675 
z
M 850 -125 
Q 1150 175 1150 500 
L 1150 2750 
L 925 2750 
Q 575 2750 225 2725 
L 225 3200 
Q 550 3175 925 3175 
L 1650 3175 
Q 1625 2700 1625 2175 
L 1625 800 
Q 1850 1075 2025 1325 
Q 2150 1050 2325 825 
Q 2050 500 1812 212 
Q 1575 -75 1225 -525 
Q 1050 -300 850 -125 
z
M 1525 3900 
Q 1100 4500 800 4825 
Q 1000 4975 1175 5175 
L 1925 4275 
Q 1675 4100 1525 3900 
z
" transform="scale(0.015625)"/>
      <path id="SimHei-6307" d="M 5625 2225 
Q 5600 1925 5600 1350 
L 5600 300 
Q 5600 -225 5625 -525 
L 5125 -525 
L 5125 -125 
L 3300 -125 
L 3300 -625 
L 2800 -625 
Q 2825 -300 2825 300 
L 2825 1350 
Q 2825 1925 2800 2225 
L 5625 2225 
z
M 500 25 
Q 1075 -25 1175 37 
Q 1275 100 1275 275 
L 1275 1675 
Q 1050 1600 925 1537 
Q 800 1475 475 1275 
Q 400 1525 225 1800 
Q 625 1900 825 1975 
Q 1025 2050 1275 2125 
L 1275 3300 
L 1100 3300 
Q 775 3300 450 3275 
L 450 3725 
Q 750 3700 1100 3700 
L 1275 3700 
L 1275 4450 
Q 1275 4800 1250 5125 
L 1775 5125 
Q 1750 4850 1750 4450 
L 1750 3700 
Q 2075 3700 2425 3725 
L 2425 3275 
Q 2050 3300 1750 3300 
L 1750 2325 
Q 1850 2350 2025 2425 
L 2375 2575 
Q 2350 2300 2375 2100 
Q 2225 2050 2062 1987 
Q 1900 1925 1750 1850 
L 1750 100 
Q 1725 -200 1575 -337 
Q 1425 -475 675 -525 
Q 625 -250 500 25 
z
M 3325 5025 
Q 3300 4675 3300 4125 
Q 4125 4275 4512 4412 
Q 4900 4550 5225 4725 
Q 5325 4475 5575 4250 
Q 5450 4225 5237 4175 
Q 5025 4125 4725 4050 
Q 4425 3975 4037 3887 
Q 3650 3800 3300 3725 
L 3300 3175 
Q 3275 2925 3700 2925 
L 4925 2925 
Q 5300 2925 5387 3087 
Q 5475 3250 5550 3600 
Q 5750 3400 6050 3300 
Q 5825 2725 5700 2637 
Q 5575 2550 5275 2525 
L 3350 2525 
Q 3050 2525 2937 2687 
Q 2825 2850 2825 2975 
L 2825 4125 
Q 2825 4775 2800 5025 
L 3325 5025 
z
M 5125 275 
L 5125 875 
L 3300 875 
L 3300 275 
L 5125 275 
z
M 5125 1250 
L 5125 1825 
L 3300 1825 
L 3300 1250 
L 5125 1250 
z
" transform="scale(0.015625)"/>
      <path id="SimHei-6570" d="M 4525 4925 
Q 4475 4800 4400 4587 
Q 4325 4375 4175 3825 
L 5325 3825 
Q 5575 3825 5925 3850 
L 5925 3400 
Q 5650 3425 5500 3425 
Q 5500 3025 5362 2162 
Q 5225 1300 4875 675 
Q 5125 375 5437 137 
Q 5750 -100 6025 -200 
Q 5725 -425 5625 -625 
Q 5325 -450 5075 -225 
Q 4825 0 4575 325 
Q 4300 25 3987 -187 
Q 3675 -400 3200 -650 
Q 3075 -425 2850 -300 
Q 3225 -150 3650 125 
Q 4075 400 4300 675 
Q 4125 1025 3962 1425 
Q 3800 1825 3675 2475 
Q 3600 2275 3425 1950 
Q 3250 2050 3000 2150 
Q 3400 2850 3650 3675 
Q 3900 4500 3975 5100 
Q 4275 4975 4525 4925 
z
M 2100 2250 
Q 2000 2150 1875 1925 
L 3250 1925 
Q 3100 1300 2725 675 
Q 3125 525 3350 400 
Q 3225 225 3125 25 
Q 2900 175 2450 325 
Q 1950 -225 725 -650 
Q 600 -375 400 -275 
Q 1575 0 2000 475 
Q 1300 650 850 775 
Q 1000 1000 1250 1525 
Q 1000 1525 425 1500 
L 425 1950 
Q 900 1925 1400 1925 
Q 1500 2150 1550 2425 
Q 1825 2325 2100 2250 
z
M 1775 3950 
Q 1775 4550 1750 5100 
L 2250 5100 
Q 2225 4575 2225 3950 
Q 3075 3950 3425 3975 
L 3425 3525 
Q 3075 3550 2225 3550 
Q 2225 2825 2250 2425 
L 1750 2425 
Q 1775 2775 1775 3300 
Q 1650 3100 1300 2787 
Q 950 2475 650 2300 
Q 525 2525 275 2625 
Q 500 2700 875 2975 
Q 1250 3250 1450 3550 
Q 950 3550 500 3525 
L 500 3975 
Q 925 3950 1775 3950 
z
M 3975 3175 
Q 4200 1700 4600 1125 
Q 4850 1700 4937 2287 
Q 5025 2875 5050 3425 
L 4075 3425 
L 3975 3175 
z
M 1450 1000 
Q 1750 925 2275 800 
Q 2475 1050 2650 1525 
L 1725 1525 
Q 1600 1275 1450 1000 
z
M 3325 4825 
Q 3200 4625 3125 4450 
Q 3050 4275 2925 4025 
Q 2725 4125 2525 4175 
Q 2725 4500 2900 5000 
Q 3150 4875 3325 4825 
z
M 2575 3375 
Q 2900 3050 3200 2725 
Q 3050 2600 2875 2425 
Q 2525 2850 2300 3100 
Q 2450 3225 2575 3375 
z
M 925 5000 
Q 1275 4650 1500 4300 
L 1125 4075 
Q 950 4425 600 4725 
Q 825 4875 925 5000 
z
" transform="scale(0.015625)"/>
      <path id="SimHei-56fe" d="M 5800 4975 
Q 5775 4350 5775 3600 
L 5775 925 
Q 5775 150 5800 -600 
L 5300 -600 
L 5300 -275 
L 1125 -275 
L 1125 -650 
L 625 -650 
Q 650 125 650 950 
L 650 3600 
Q 650 4325 625 4975 
L 5800 4975 
z
M 5300 150 
L 5300 4575 
L 1125 4575 
L 1125 150 
L 5300 150 
z
M 3225 4250 
Q 3075 4100 2950 3925 
L 4625 3925 
Q 4525 3700 4300 3375 
Q 4075 3050 3600 2600 
Q 4350 2225 5075 2150 
Q 4900 1925 4775 1675 
Q 3850 1950 3225 2350 
Q 2500 1875 1675 1650 
Q 1600 1875 1400 2075 
Q 2200 2200 2875 2600 
Q 2525 2925 2375 3150 
Q 2150 2900 1900 2650 
Q 1725 2850 1525 2950 
Q 1950 3300 2250 3737 
Q 2550 4175 2675 4475 
Q 2925 4350 3225 4250 
z
M 2450 1275 
Q 3550 950 4100 725 
Q 3975 525 3850 300 
Q 2825 725 2275 850 
Q 2375 1050 2450 1275 
z
M 2925 2050 
Q 3775 1700 4075 1600 
Q 3950 1400 3850 1150 
Q 3000 1550 2700 1650 
Q 2825 1825 2925 2050 
z
M 2625 3450 
Q 3000 3025 3275 2850 
Q 3600 3100 3875 3525 
L 2675 3525 
L 2625 3450 
z
" transform="scale(0.015625)"/>
     </defs>
     <use xlink:href="#SimHei-32"/>
     <use xlink:href="#SimHei-30" x="50"/>
     <use xlink:href="#SimHei-31" x="100"/>
     <use xlink:href="#SimHei-36" x="150"/>
     <use xlink:href="#SimHei-5e74" x="200"/>
     <use xlink:href="#SimHei-81f3" x="300"/>
     <use xlink:href="#SimHei-4eca" x="400"/>
     <use xlink:href="#SimHei-4e0a" x="500"/>
     <use xlink:href="#SimHei-8bc1" x="600"/>
     <use xlink:href="#SimHei-6307" x="700"/>
     <use xlink:href="#SimHei-6570" x="800"/>
     <use xlink:href="#SimHei-4e00" x="900"/>
     <use xlink:href="#SimHei-9636" x="1000"/>
     <use xlink:href="#SimHei-5dee" x="1100"/>
     <use xlink:href="#SimHei-5206" x="1200"/>
     <use xlink:href="#SimHei-56fe" x="1300"/>
    </g>
   </g>
   <g id="legend_1">
    <g id="line2d_19">
     <path d="M 628.281563 36.551562 
L 638.281563 36.551562 
L 648.281563 36.551562 
" style="fill: none; stroke: #7fffd4; stroke-width: 1.5; stroke-linecap: square"/>
    </g>
    <g id="text_21">
     <!-- 一阶差分 -->
     <g transform="translate(656.281563 40.051562) scale(0.1 -0.1)">
      <use xlink:href="#SimHei-4e00"/>
      <use xlink:href="#SimHei-9636" x="100"/>
      <use xlink:href="#SimHei-5dee" x="200"/>
      <use xlink:href="#SimHei-5206" x="300"/>
     </g>
    </g>
   </g>
  </g>
 </g>
 <defs>
  <clipPath id="p6eeb69a650">
   <rect x="47.457813" y="23.04375" width="657.82375" height="365.44375"/>
  </clipPath>
 </defs>
</svg>
