<?xml version="1.0" encoding="utf-8" standalone="no"?>
<!DOCTYPE svg PUBLIC "-//W3C//DTD SVG 1.1//EN"
  "http://www.w3.org/Graphics/SVG/1.1/DTD/svg11.dtd">
<svg xmlns:xlink="http://www.w3.org/1999/xlink" width="712.571563pt" height="423.757812pt" viewBox="0 0 712.571563 423.757812" xmlns="http://www.w3.org/2000/svg" version="1.1">
 <metadata>
  <rdf:RDF xmlns:dc="http://purl.org/dc/elements/1.1/" xmlns:cc="http://creativecommons.org/ns#" xmlns:rdf="http://www.w3.org/1999/02/22-rdf-syntax-ns#">
   <cc:Work>
    <dc:type rdf:resource="http://purl.org/dc/dcmitype/StillImage"/>
    <dc:date>2024-10-05T10:55:04.725976</dc:date>
    <dc:format>image/svg+xml</dc:format>
    <dc:creator>
     <cc:Agent>
      <dc:title>Matplotlib v3.7.1, https://matplotlib.org/</dc:title>
     </cc:Agent>
    </dc:creator>
   </cc:Work>
  </rdf:RDF>
 </metadata>
 <defs>
  <style type="text/css">*{stroke-linejoin: round; stroke-linecap: butt}</style>
 </defs>
 <g id="figure_1">
  <g id="patch_1">
   <path d="M 0 423.757812 
L 712.571563 423.757812 
L 712.571563 0 
L 0 0 
z
" style="fill: #ffffff"/>
  </g>
  <g id="axes_1">
   <g id="patch_2">
    <path d="M 47.457813 388.4875 
L 705.371563 388.4875 
L 705.371563 23.04375 
L 47.457813 23.04375 
z
" style="fill: #ffffff"/>
   </g>
   <g id="matplotlib.axis_1">
    <g id="xtick_1">
     <g id="line2d_1">
      <defs>
       <path id="md90ceb623a" d="M 0 0 
L 0 3.5 
" style="stroke: #000000; stroke-width: 0.8"/>
      </defs>
      <g>
       <use xlink:href="#md90ceb623a" x="75.078402" y="388.4875" style="stroke: #000000; stroke-width: 0.8"/>
      </g>
     </g>
     <g id="text_1">
      <!-- 2016-01 -->
      <g transform="translate(57.578402 402.3625) scale(0.1 -0.1)">
       <defs>
        <path id="SimHei-32" d="M 300 250 
Q 325 625 650 925 
Q 975 1225 1475 1862 
Q 1975 2500 2125 2850 
Q 2275 3200 2237 3450 
Q 2200 3700 2000 3862 
Q 1800 4025 1537 4000 
Q 1275 3975 1037 3800 
Q 800 3625 675 3275 
L 200 3350 
Q 400 3925 712 4187 
Q 1025 4450 1450 4475 
Q 1700 4500 1900 4462 
Q 2100 4425 2312 4287 
Q 2525 4150 2662 3875 
Q 2800 3600 2762 3212 
Q 2725 2825 2375 2287 
Q 2025 1750 1025 600 
L 2825 600 
L 2825 150 
L 300 150 
L 300 250 
z
" transform="scale(0.015625)"/>
        <path id="SimHei-30" d="M 225 2537 
Q 250 3200 412 3587 
Q 575 3975 875 4225 
Q 1175 4475 1612 4475 
Q 2050 4475 2375 4112 
Q 2700 3750 2800 3200 
Q 2900 2650 2862 1937 
Q 2825 1225 2612 775 
Q 2400 325 1975 150 
Q 1550 -25 1125 187 
Q 700 400 525 750 
Q 350 1100 275 1487 
Q 200 1875 225 2537 
z
M 750 2687 
Q 675 2000 800 1462 
Q 925 925 1212 700 
Q 1500 475 1800 612 
Q 2100 750 2237 1162 
Q 2375 1575 2375 2062 
Q 2375 2550 2337 2950 
Q 2300 3350 2112 3675 
Q 1925 4000 1612 4012 
Q 1300 4025 1062 3700 
Q 825 3375 750 2687 
z
" transform="scale(0.015625)"/>
        <path id="SimHei-31" d="M 1400 3600 
Q 1075 3275 575 2975 
L 575 3450 
Q 1200 3875 1600 4450 
L 1900 4450 
L 1900 150 
L 1400 150 
L 1400 3600 
z
" transform="scale(0.015625)"/>
        <path id="SimHei-36" d="M 250 1612 
Q 275 1975 387 2225 
Q 500 2475 725 2850 
L 1750 4450 
L 2325 4450 
L 1275 2800 
Q 1950 2975 2350 2750 
Q 2750 2525 2887 2237 
Q 3025 1950 3037 1612 
Q 3050 1275 2937 950 
Q 2825 625 2537 362 
Q 2250 100 1737 75 
Q 1225 50 862 262 
Q 500 475 362 862 
Q 225 1250 250 1612 
z
M 1025 787 
Q 1250 550 1625 525 
Q 2000 500 2250 775 
Q 2500 1050 2500 1575 
Q 2500 2100 2187 2300 
Q 1875 2500 1487 2450 
Q 1100 2400 925 2075 
Q 750 1750 775 1387 
Q 800 1025 1025 787 
z
" transform="scale(0.015625)"/>
        <path id="SimHei-2d" d="M 2975 2125 
L 125 2125 
L 125 2525 
L 2975 2525 
L 2975 2125 
z
" transform="scale(0.015625)"/>
       </defs>
       <use xlink:href="#SimHei-32"/>
       <use xlink:href="#SimHei-30" x="50"/>
       <use xlink:href="#SimHei-31" x="100"/>
       <use xlink:href="#SimHei-36" x="150"/>
       <use xlink:href="#SimHei-2d" x="200"/>
       <use xlink:href="#SimHei-30" x="250"/>
       <use xlink:href="#SimHei-31" x="300"/>
      </g>
     </g>
    </g>
    <g id="xtick_2">
     <g id="line2d_2">
      <g>
       <use xlink:href="#md90ceb623a" x="158.237164" y="388.4875" style="stroke: #000000; stroke-width: 0.8"/>
      </g>
     </g>
     <g id="text_2">
      <!-- 2016-07 -->
      <g transform="translate(140.737164 402.3625) scale(0.1 -0.1)">
       <defs>
        <path id="SimHei-37" d="M 850 150 
Q 1300 2050 2425 3925 
L 275 3925 
L 275 4375 
L 2950 4375 
L 2950 3950 
Q 1775 2050 1400 150 
L 850 150 
z
" transform="scale(0.015625)"/>
       </defs>
       <use xlink:href="#SimHei-32"/>
       <use xlink:href="#SimHei-30" x="50"/>
       <use xlink:href="#SimHei-31" x="100"/>
       <use xlink:href="#SimHei-36" x="150"/>
       <use xlink:href="#SimHei-2d" x="200"/>
       <use xlink:href="#SimHei-30" x="250"/>
       <use xlink:href="#SimHei-37" x="300"/>
      </g>
     </g>
    </g>
    <g id="xtick_3">
     <g id="line2d_3">
      <g>
       <use xlink:href="#md90ceb623a" x="242.30976" y="388.4875" style="stroke: #000000; stroke-width: 0.8"/>
      </g>
     </g>
     <g id="text_3">
      <!-- 2017-01 -->
      <g transform="translate(224.80976 402.3625) scale(0.1 -0.1)">
       <use xlink:href="#SimHei-32"/>
       <use xlink:href="#SimHei-30" x="50"/>
       <use xlink:href="#SimHei-31" x="100"/>
       <use xlink:href="#SimHei-37" x="150"/>
       <use xlink:href="#SimHei-2d" x="200"/>
       <use xlink:href="#SimHei-30" x="250"/>
       <use xlink:href="#SimHei-31" x="300"/>
      </g>
     </g>
    </g>
    <g id="xtick_4">
     <g id="line2d_4">
      <g>
       <use xlink:href="#md90ceb623a" x="325.011606" y="388.4875" style="stroke: #000000; stroke-width: 0.8"/>
      </g>
     </g>
     <g id="text_4">
      <!-- 2017-07 -->
      <g transform="translate(307.511606 402.3625) scale(0.1 -0.1)">
       <use xlink:href="#SimHei-32"/>
       <use xlink:href="#SimHei-30" x="50"/>
       <use xlink:href="#SimHei-31" x="100"/>
       <use xlink:href="#SimHei-37" x="150"/>
       <use xlink:href="#SimHei-2d" x="200"/>
       <use xlink:href="#SimHei-30" x="250"/>
       <use xlink:href="#SimHei-37" x="300"/>
      </g>
     </g>
    </g>
    <g id="xtick_5">
     <g id="line2d_5">
      <g>
       <use xlink:href="#md90ceb623a" x="409.084201" y="388.4875" style="stroke: #000000; stroke-width: 0.8"/>
      </g>
     </g>
     <g id="text_5">
      <!-- 2018-01 -->
      <g transform="translate(391.584201 402.3625) scale(0.1 -0.1)">
       <defs>
        <path id="SimHei-38" d="M 175 1375 
Q 175 1675 325 1962 
Q 475 2250 825 2425 
Q 525 2600 425 2812 
Q 325 3025 312 3300 
Q 300 3575 387 3775 
Q 475 3975 650 4150 
Q 825 4325 1037 4387 
Q 1250 4450 1500 4450 
Q 1750 4450 1950 4400 
Q 2150 4350 2375 4187 
Q 2600 4025 2700 3725 
Q 2800 3425 2687 3025 
Q 2575 2625 2100 2400 
Q 2525 2275 2700 2012 
Q 2875 1750 2875 1375 
Q 2875 1000 2762 775 
Q 2650 550 2512 400 
Q 2375 250 2137 162 
Q 1900 75 1537 75 
Q 1175 75 912 162 
Q 650 250 475 425 
Q 300 600 237 837 
Q 175 1075 175 1375 
z
M 687 1400 
Q 675 1100 787 875 
Q 900 650 1200 587 
Q 1500 525 1825 600 
Q 2150 675 2275 950 
Q 2400 1225 2362 1500 
Q 2325 1775 2050 1962 
Q 1775 2150 1450 2125 
Q 1125 2100 912 1900 
Q 700 1700 687 1400 
z
M 775 3350 
Q 775 3100 950 2875 
Q 1125 2650 1500 2650 
Q 1875 2650 2062 2875 
Q 2250 3100 2237 3412 
Q 2225 3725 2012 3875 
Q 1800 4025 1437 4000 
Q 1075 3975 925 3787 
Q 775 3600 775 3350 
z
" transform="scale(0.015625)"/>
       </defs>
       <use xlink:href="#SimHei-32"/>
       <use xlink:href="#SimHei-30" x="50"/>
       <use xlink:href="#SimHei-31" x="100"/>
       <use xlink:href="#SimHei-38" x="150"/>
       <use xlink:href="#SimHei-2d" x="200"/>
       <use xlink:href="#SimHei-30" x="250"/>
       <use xlink:href="#SimHei-31" x="300"/>
      </g>
     </g>
    </g>
    <g id="xtick_6">
     <g id="line2d_6">
      <g>
       <use xlink:href="#md90ceb623a" x="491.786048" y="388.4875" style="stroke: #000000; stroke-width: 0.8"/>
      </g>
     </g>
     <g id="text_6">
      <!-- 2018-07 -->
      <g transform="translate(474.286048 402.3625) scale(0.1 -0.1)">
       <use xlink:href="#SimHei-32"/>
       <use xlink:href="#SimHei-30" x="50"/>
       <use xlink:href="#SimHei-31" x="100"/>
       <use xlink:href="#SimHei-38" x="150"/>
       <use xlink:href="#SimHei-2d" x="200"/>
       <use xlink:href="#SimHei-30" x="250"/>
       <use xlink:href="#SimHei-37" x="300"/>
      </g>
     </g>
    </g>
    <g id="xtick_7">
     <g id="line2d_7">
      <g>
       <use xlink:href="#md90ceb623a" x="575.858643" y="388.4875" style="stroke: #000000; stroke-width: 0.8"/>
      </g>
     </g>
     <g id="text_7">
      <!-- 2019-01 -->
      <g transform="translate(558.358643 402.3625) scale(0.1 -0.1)">
       <defs>
        <path id="SimHei-39" d="M 800 75 
Q 1350 1000 1700 1750 
Q 1075 1650 662 1912 
Q 250 2175 162 2625 
Q 75 3075 175 3437 
Q 275 3800 487 4037 
Q 700 4275 1000 4375 
Q 1300 4475 1537 4475 
Q 1775 4475 2025 4375 
Q 2275 4275 2475 4075 
Q 2675 3875 2750 3662 
Q 2825 3450 2825 3112 
Q 2825 2775 2575 2250 
Q 2325 1725 1350 75 
L 800 75 
z
M 662 2875 
Q 700 2550 937 2337 
Q 1175 2125 1450 2150 
Q 1725 2175 1887 2300 
Q 2050 2425 2200 2725 
Q 2300 3100 2250 3362 
Q 2200 3625 1987 3800 
Q 1775 3975 1525 3975 
Q 1375 4000 1137 3900 
Q 900 3800 762 3500 
Q 625 3200 662 2875 
z
" transform="scale(0.015625)"/>
       </defs>
       <use xlink:href="#SimHei-32"/>
       <use xlink:href="#SimHei-30" x="50"/>
       <use xlink:href="#SimHei-31" x="100"/>
       <use xlink:href="#SimHei-39" x="150"/>
       <use xlink:href="#SimHei-2d" x="200"/>
       <use xlink:href="#SimHei-30" x="250"/>
       <use xlink:href="#SimHei-31" x="300"/>
      </g>
     </g>
    </g>
    <g id="xtick_8">
     <g id="line2d_8">
      <g>
       <use xlink:href="#md90ceb623a" x="658.56049" y="388.4875" style="stroke: #000000; stroke-width: 0.8"/>
      </g>
     </g>
     <g id="text_8">
      <!-- 2019-07 -->
      <g transform="translate(641.06049 402.3625) scale(0.1 -0.1)">
       <use xlink:href="#SimHei-32"/>
       <use xlink:href="#SimHei-30" x="50"/>
       <use xlink:href="#SimHei-31" x="100"/>
       <use xlink:href="#SimHei-39" x="150"/>
       <use xlink:href="#SimHei-2d" x="200"/>
       <use xlink:href="#SimHei-30" x="250"/>
       <use xlink:href="#SimHei-37" x="300"/>
      </g>
     </g>
    </g>
    <g id="text_9">
     <!-- 日期 -->
     <g transform="translate(366.414688 415.307813) scale(0.1 -0.1)">
      <defs>
       <path id="SimHei-65e5" d="M 5375 5000 
Q 5350 3775 5350 2275 
Q 5350 775 5375 -450 
L 4800 -450 
L 4800 175 
L 1800 175 
L 1800 -575 
L 1250 -575 
Q 1275 575 1275 2125 
Q 1275 3675 1250 5000 
L 5375 5000 
z
M 4800 600 
L 4800 2375 
L 1800 2375 
L 1800 600 
L 4800 600 
z
M 4800 2800 
L 4800 4550 
L 1800 4550 
L 1800 2800 
L 4800 2800 
z
" transform="scale(0.015625)"/>
       <path id="SimHei-671f" d="M 4900 -25 
Q 5475 -100 5425 175 
L 5425 1575 
L 4325 1575 
Q 4275 975 4050 425 
Q 3825 -125 3400 -600 
Q 3225 -375 2925 -275 
Q 3350 150 3562 625 
Q 3775 1100 3812 1575 
Q 3850 2050 3850 3125 
Q 3850 4225 3825 4875 
L 5950 4875 
Q 5925 4400 5925 3725 
L 5925 50 
Q 5925 -300 5700 -425 
Q 5475 -550 5100 -600 
Q 5100 -325 4900 -25 
z
M 950 4300 
Q 950 4675 925 5125 
L 1450 5125 
Q 1425 4625 1425 4300 
L 2550 4300 
Q 2550 4775 2525 5125 
L 3075 5125 
Q 3050 4700 3050 4300 
Q 3225 4300 3500 4325 
L 3500 3900 
Q 3250 3925 3050 3925 
L 3050 1550 
Q 3250 1550 3500 1575 
L 3500 1150 
Q 3025 1175 2575 1175 
L 1225 1175 
Q 675 1175 275 1150 
L 275 1575 
Q 650 1550 950 1550 
L 950 3925 
Q 725 3925 425 3900 
L 425 4325 
Q 700 4300 950 4300 
z
M 5425 3375 
L 5425 4500 
L 4350 4500 
L 4350 3375 
L 5425 3375 
z
M 5425 1950 
L 5425 3000 
L 4350 3000 
L 4350 1950 
L 5425 1950 
z
M 1600 725 
Q 1425 650 1162 287 
Q 900 -75 650 -350 
Q 400 -175 225 -75 
Q 450 100 700 412 
Q 950 725 1100 1025 
L 1600 725 
z
M 2550 3375 
L 2550 3925 
L 1425 3925 
L 1425 3375 
L 2550 3375 
z
M 2550 1550 
L 2550 2100 
L 1425 2100 
L 1425 1550 
L 2550 1550 
z
M 2550 2475 
L 2550 3000 
L 1425 3000 
L 1425 2475 
L 2550 2475 
z
M 2850 -75 
Q 2450 525 2225 725 
Q 2375 825 2550 1025 
Q 2850 725 3250 275 
Q 3050 125 2850 -75 
z
" transform="scale(0.015625)"/>
      </defs>
      <use xlink:href="#SimHei-65e5"/>
      <use xlink:href="#SimHei-671f" x="100"/>
     </g>
    </g>
   </g>
   <g id="matplotlib.axis_2">
    <g id="ytick_1">
     <g id="line2d_9">
      <defs>
       <path id="me8da0afa9b" d="M 0 0 
L -3.5 0 
" style="stroke: #000000; stroke-width: 0.8"/>
      </defs>
      <g>
       <use xlink:href="#me8da0afa9b" x="47.457813" y="365.895816" style="stroke: #000000; stroke-width: 0.8"/>
      </g>
     </g>
     <g id="text_10">
      <!-- -300 -->
      <g transform="translate(20.457813 369.333316) scale(0.1 -0.1)">
       <defs>
        <path id="SimHei-33" d="M 250 1225 
L 700 1300 
Q 800 975 1025 762 
Q 1250 550 1587 562 
Q 1925 575 2125 837 
Q 2325 1100 2300 1437 
Q 2275 1775 2037 1962 
Q 1800 2150 1275 2225 
L 1275 2550 
Q 1800 2600 2037 2825 
Q 2275 3050 2250 3412 
Q 2225 3775 1925 3937 
Q 1625 4100 1287 3975 
Q 950 3850 750 3275 
L 300 3350 
Q 450 3800 712 4100 
Q 975 4400 1425 4450 
Q 1875 4500 2212 4337 
Q 2550 4175 2687 3837 
Q 2825 3500 2725 3100 
Q 2625 2700 2150 2400 
Q 2500 2250 2687 1950 
Q 2875 1650 2812 1162 
Q 2750 675 2375 375 
Q 2000 75 1525 87 
Q 1050 100 700 387 
Q 350 675 250 1225 
z
" transform="scale(0.015625)"/>
       </defs>
       <use xlink:href="#SimHei-2d"/>
       <use xlink:href="#SimHei-33" x="50"/>
       <use xlink:href="#SimHei-30" x="100"/>
       <use xlink:href="#SimHei-30" x="150"/>
      </g>
     </g>
    </g>
    <g id="ytick_2">
     <g id="line2d_10">
      <g>
       <use xlink:href="#me8da0afa9b" x="47.457813" y="311.363082" style="stroke: #000000; stroke-width: 0.8"/>
      </g>
     </g>
     <g id="text_11">
      <!-- -200 -->
      <g transform="translate(20.457813 314.800582) scale(0.1 -0.1)">
       <use xlink:href="#SimHei-2d"/>
       <use xlink:href="#SimHei-32" x="50"/>
       <use xlink:href="#SimHei-30" x="100"/>
       <use xlink:href="#SimHei-30" x="150"/>
      </g>
     </g>
    </g>
    <g id="ytick_3">
     <g id="line2d_11">
      <g>
       <use xlink:href="#me8da0afa9b" x="47.457813" y="256.830349" style="stroke: #000000; stroke-width: 0.8"/>
      </g>
     </g>
     <g id="text_12">
      <!-- -100 -->
      <g transform="translate(20.457813 260.267849) scale(0.1 -0.1)">
       <use xlink:href="#SimHei-2d"/>
       <use xlink:href="#SimHei-31" x="50"/>
       <use xlink:href="#SimHei-30" x="100"/>
       <use xlink:href="#SimHei-30" x="150"/>
      </g>
     </g>
    </g>
    <g id="ytick_4">
     <g id="line2d_12">
      <g>
       <use xlink:href="#me8da0afa9b" x="47.457813" y="202.297616" style="stroke: #000000; stroke-width: 0.8"/>
      </g>
     </g>
     <g id="text_13">
      <!-- 0 -->
      <g transform="translate(35.457813 205.735116) scale(0.1 -0.1)">
       <use xlink:href="#SimHei-30"/>
      </g>
     </g>
    </g>
    <g id="ytick_5">
     <g id="line2d_13">
      <g>
       <use xlink:href="#me8da0afa9b" x="47.457813" y="147.764883" style="stroke: #000000; stroke-width: 0.8"/>
      </g>
     </g>
     <g id="text_14">
      <!-- 100 -->
      <g transform="translate(25.457813 151.202383) scale(0.1 -0.1)">
       <use xlink:href="#SimHei-31"/>
       <use xlink:href="#SimHei-30" x="50"/>
       <use xlink:href="#SimHei-30" x="100"/>
      </g>
     </g>
    </g>
    <g id="ytick_6">
     <g id="line2d_14">
      <g>
       <use xlink:href="#me8da0afa9b" x="47.457813" y="93.232149" style="stroke: #000000; stroke-width: 0.8"/>
      </g>
     </g>
     <g id="text_15">
      <!-- 200 -->
      <g transform="translate(25.457813 96.669649) scale(0.1 -0.1)">
       <use xlink:href="#SimHei-32"/>
       <use xlink:href="#SimHei-30" x="50"/>
       <use xlink:href="#SimHei-30" x="100"/>
      </g>
     </g>
    </g>
    <g id="ytick_7">
     <g id="line2d_15">
      <g>
       <use xlink:href="#me8da0afa9b" x="47.457813" y="38.699416" style="stroke: #000000; stroke-width: 0.8"/>
      </g>
     </g>
     <g id="text_16">
      <!-- 300 -->
      <g transform="translate(25.457813 42.136916) scale(0.1 -0.1)">
       <use xlink:href="#SimHei-33"/>
       <use xlink:href="#SimHei-30" x="50"/>
       <use xlink:href="#SimHei-30" x="100"/>
      </g>
     </g>
    </g>
    <g id="text_17">
     <!-- 二阶差分 -->
     <g transform="translate(15.207813 225.765625) rotate(-90) scale(0.1 -0.1)">
      <defs>
       <path id="SimHei-4e8c" d="M 5050 625 
Q 5650 625 6025 675 
L 6025 50 
Q 5625 75 5050 75 
L 1425 75 
Q 775 75 350 50 
L 350 650 
Q 800 625 1400 625 
L 5050 625 
z
M 4350 4150 
Q 4900 4175 5350 4200 
L 5350 3575 
Q 4900 3600 4375 3600 
L 2050 3600 
Q 1450 3600 1000 3575 
L 1000 4175 
Q 1450 4150 2025 4150 
L 4350 4150 
z
" transform="scale(0.015625)"/>
       <path id="SimHei-9636" d="M 2450 4850 
Q 2350 4575 2175 3962 
Q 2000 3350 1825 2800 
Q 2225 2225 2312 1912 
Q 2400 1600 2375 1250 
Q 2350 900 2137 725 
Q 1925 550 1400 475 
Q 1300 925 1200 1075 
Q 1725 1025 1837 1225 
Q 1950 1425 1875 1775 
Q 1800 2125 1350 2725 
Q 1700 3825 1825 4400 
L 975 4400 
L 975 -500 
L 500 -500 
Q 525 175 525 675 
L 525 3650 
Q 525 4225 500 4850 
L 2450 4850 
z
M 4250 4825 
Q 4600 4100 5187 3637 
Q 5775 3175 6200 3025 
Q 5950 2775 5800 2500 
Q 4975 3075 4600 3512 
Q 4225 3950 4025 4400 
Q 3850 4025 3512 3487 
Q 3175 2950 2625 2350 
Q 2425 2575 2175 2700 
Q 2700 3075 3150 3787 
Q 3600 4500 3850 5275 
Q 4050 5150 4375 5075 
Q 4275 4900 4250 4825 
z
M 3750 2700 
Q 3650 2325 3575 1512 
Q 3500 700 3250 225 
Q 3000 -250 2650 -575 
Q 2425 -400 2175 -300 
Q 2550 -25 2762 337 
Q 2975 700 3087 1200 
Q 3200 1700 3200 2800 
Q 3350 2725 3750 2700 
z
M 5025 2775 
Q 4975 2425 4975 2025 
L 4975 350 
Q 4975 100 5000 -525 
L 4475 -525 
Q 4500 150 4500 375 
L 4500 2025 
Q 4500 2375 4475 2775 
L 5025 2775 
z
" transform="scale(0.015625)"/>
       <path id="SimHei-5dee" d="M 4725 4975 
Q 4500 4725 4250 4275 
L 4850 4275 
Q 5450 4275 5825 4300 
L 5825 3850 
Q 5425 3875 4850 3875 
L 3275 3875 
Q 3225 3600 3150 3275 
L 4525 3275 
Q 5075 3275 5525 3300 
L 5525 2850 
Q 5075 2875 4500 2875 
L 3050 2875 
Q 2975 2650 2850 2325 
L 5125 2325 
Q 5675 2325 6025 2350 
L 6025 1900 
Q 5700 1925 5150 1925 
L 2650 1925 
Q 2425 1550 2250 1300 
Q 2650 1275 3100 1275 
L 4525 1275 
Q 4975 1275 5350 1300 
L 5350 850 
Q 4975 875 4575 875 
L 3925 875 
L 3925 -50 
L 5000 -50 
Q 5200 -50 5900 -25 
L 5900 -500 
Q 5275 -475 5025 -475 
L 2100 -475 
Q 1700 -475 1400 -500 
L 1400 -25 
Q 1775 -50 2125 -50 
L 3425 -50 
L 3425 875 
L 3100 875 
Q 2625 875 2175 850 
L 2175 1200 
Q 1925 875 1487 475 
Q 1050 75 625 -250 
Q 425 -25 200 150 
Q 750 475 1262 925 
Q 1775 1375 2100 1925 
L 1325 1925 
Q 750 1925 375 1900 
L 375 2350 
Q 750 2325 1350 2325 
L 2325 2325 
Q 2450 2575 2550 2875 
L 1725 2875 
Q 1375 2875 1000 2850 
L 1000 3300 
Q 1500 3275 1700 3275 
L 2650 3275 
Q 2725 3575 2775 3875 
L 1500 3875 
Q 1100 3875 650 3850 
L 650 4300 
Q 1025 4275 1425 4275 
L 2275 4275 
Q 2075 4675 1850 4950 
Q 2025 5050 2250 5225 
Q 2450 4975 2725 4550 
Q 2525 4450 2325 4275 
L 3750 4275 
Q 4000 4700 4150 5250 
Q 4400 5100 4725 4975 
z
" transform="scale(0.015625)"/>
       <path id="SimHei-5206" d="M 1000 -650 
Q 825 -375 575 -225 
Q 975 -75 1300 137 
Q 1625 350 1875 662 
Q 2125 975 2250 1350 
Q 2375 1725 2425 2275 
Q 1850 2275 1500 2250 
L 1500 2775 
Q 1900 2750 2525 2750 
L 5025 2750 
Q 4975 2375 4950 2100 
L 4750 250 
Q 4700 -200 4350 -350 
Q 4000 -500 3575 -525 
Q 3550 -275 3325 50 
Q 3850 25 4037 87 
Q 4225 150 4275 525 
L 4450 2275 
L 2950 2275 
Q 2875 1625 2737 1187 
Q 2600 750 2350 425 
Q 2100 100 1750 -175 
Q 1400 -450 1000 -650 
z
M 3950 5175 
Q 4125 4650 4662 3975 
Q 5200 3300 6175 2800 
Q 5975 2625 5775 2275 
Q 5325 2600 4987 2887 
Q 4650 3175 4425 3425 
Q 4200 3675 3925 4137 
Q 3650 4600 3475 5000 
Q 3750 5075 3950 5175 
z
M 2700 4825 
Q 2475 4425 2325 4125 
Q 2175 3825 2025 3587 
Q 1875 3350 1575 2950 
Q 1275 2550 850 2125 
Q 625 2350 400 2475 
Q 900 2925 1187 3300 
Q 1475 3675 1737 4112 
Q 2000 4550 2200 5075 
Q 2400 4925 2700 4825 
z
" transform="scale(0.015625)"/>
      </defs>
      <use xlink:href="#SimHei-4e8c"/>
      <use xlink:href="#SimHei-9636" x="100"/>
      <use xlink:href="#SimHei-5dee" x="200"/>
      <use xlink:href="#SimHei-5206" x="300"/>
     </g>
    </g>
   </g>
   <g id="line2d_16">
    <path d="M 77.362983 157.212133 
L 77.819899 371.87642 
L 78.276816 39.65483 
L 79.647564 328.332578 
L 80.104481 106.393624 
L 80.561397 245.608058 
L 81.018313 130.687412 
L 81.475229 292.129933 
L 82.845978 137.106078 
L 83.302895 158.106525 
L 83.759811 270.43523 
L 84.216727 237.834799 
L 84.673643 130.154627 
L 86.044392 210.002164 
L 86.501309 317.188269 
L 86.958225 107.13696 
L 87.415141 238.10888 
L 87.872057 114.04424 
L 89.242806 273.563555 
L 89.699722 142.604614 
L 90.156639 241.037724 
L 90.613555 173.886498 
L 91.070471 234.639071 
L 95.639634 202.169737 
L 96.09655 143.581731 
L 96.553467 234.803106 
L 97.010383 221.500009 
L 97.467299 201.439652 
L 98.838048 164.11047 
L 99.294964 251.921258 
L 99.751881 175.353865 
L 100.208797 318.569747 
L 100.665713 85.807572 
L 102.036462 259.663434 
L 102.493378 134.446844 
L 102.950295 163.404925 
L 103.407211 260.338985 
L 103.864127 199.946437 
L 105.234876 197.496499 
L 106.148709 225.680434 
L 106.605625 212.658562 
L 107.062541 167.717101 
L 108.43329 178.516054 
L 108.890206 226.467723 
L 109.347122 201.647477 
L 109.804039 186.842876 
L 110.260955 193.618186 
L 111.631704 195.026221 
L 112.08862 247.6093 
L 112.545536 185.917891 
L 113.002453 234.792363 
L 113.459369 165.51316 
L 114.830118 224.153354 
L 115.287034 211.226751 
L 115.74395 137.51202 
L 116.200867 244.583824 
L 116.657783 201.019205 
L 118.485448 181.618258 
L 118.942364 227.387581 
L 119.399281 223.946347 
L 119.856197 192.094432 
L 121.226946 162.78287 
L 121.683862 234.640653 
L 122.140778 173.230415 
L 122.597695 217.167765 
L 123.054611 213.186876 
L 124.42536 224.225937 
L 124.882276 173.05771 
L 125.339192 245.59786 
L 125.796109 174.73301 
L 126.253025 188.096474 
L 127.623774 212.614391 
L 128.08069 185.611199 
L 128.537606 218.143792 
L 128.994522 200.690809 
L 129.451439 201.851974 
L 131.279104 168.713741 
L 131.73602 232.667331 
L 132.192936 197.96739 
L 132.649853 252.011564 
L 134.020602 200.411383 
L 134.477518 157.79138 
L 134.934434 200.134139 
L 135.39135 205.363119 
L 135.848267 206.429943 
L 137.219015 184.571151 
L 137.675932 219.164917 
L 138.132848 218.107964 
L 138.589764 182.904685 
L 139.046681 191.835511 
L 140.417429 202.523981 
L 140.874346 224.187382 
L 141.331262 193.900284 
L 141.788178 194.697607 
L 142.245095 207.071139 
L 143.615843 200.769718 
L 144.07276 151.712943 
L 144.529676 255.34346 
L 144.986592 194.210466 
L 145.443509 201.3536 
L 146.814257 212.133576 
L 147.271174 198.736028 
L 147.72809 208.205092 
L 150.012671 248.760813 
L 150.469588 146.016454 
L 150.926504 182.718401 
L 151.38342 234.698239 
L 151.840336 187.747246 
L 153.211085 206.978869 
L 153.668002 209.90804 
L 154.124918 181.987663 
L 154.581834 224.427708 
L 155.03875 215.431552 
L 156.409499 159.167295 
L 156.866415 215.692382 
L 157.323332 201.108366 
L 157.780248 213.761214 
L 158.237164 199.649125 
L 159.607913 173.254518 
L 160.064829 223.205629 
L 160.521746 206.053503 
L 160.978662 208.485009 
L 161.435578 217.734251 
L 162.806327 182.897269 
L 163.263243 176.317404 
L 163.72016 225.831762 
L 164.633992 198.508191 
L 166.004741 208.301397 
L 166.461657 200.244295 
L 166.918574 203.242123 
L 167.37549 191.495772 
L 167.832406 222.639961 
L 169.203155 186.371058 
L 169.660071 185.214583 
L 170.116988 252.743284 
L 170.573904 169.310057 
L 171.03082 211.736632 
L 172.401569 208.279202 
L 172.858485 178.386812 
L 173.315402 208.138726 
L 173.772318 204.051825 
L 174.229234 207.584673 
L 175.599983 184.132544 
L 176.056899 205.665939 
L 176.513815 217.75132 
L 176.970732 207.300285 
L 177.427648 167.321357 
L 178.798397 187.847532 
L 179.255313 251.205898 
L 179.712229 194.294228 
L 180.169146 205.001949 
L 180.626062 197.155561 
L 181.996811 217.176927 
L 182.453727 186.920857 
L 182.910643 207.055869 
L 183.36756 209.782724 
L 183.824476 191.647155 
L 185.195225 203.530546 
L 185.652141 199.608607 
L 186.109057 198.935836 
L 186.565974 220.293309 
L 187.02289 187.99248 
L 188.393639 201.917686 
L 188.850555 194.73169 
L 189.307471 211.787402 
L 189.764388 200.76481 
L 190.221304 213.818037 
L 191.592053 223.989756 
L 192.048969 170.444992 
L 192.505885 214.400229 
L 194.790467 178.377596 
L 195.247383 216.614912 
L 195.704299 199.066061 
L 196.161215 194.899978 
L 196.618132 215.852926 
L 197.988881 226.863794 
L 198.445797 163.465456 
L 198.902713 217.598137 
L 199.359629 190.878571 
L 199.816546 204.699674 
L 204.385708 182.000805 
L 204.842625 216.657666 
L 205.299541 215.308308 
L 205.756457 197.062855 
L 206.213374 202.507512 
L 207.584122 215.988113 
L 208.041039 166.659875 
L 208.497955 225.127745 
L 208.954871 202.900203 
L 210.782536 185.489537 
L 211.239453 220.628085 
L 211.696369 212.832467 
L 212.153285 195.936645 
L 212.610202 204.542947 
L 213.98095 199.952054 
L 214.437867 188.270761 
L 214.894783 225.008645 
L 215.351699 177.263819 
L 215.808615 218.560313 
L 217.179364 195.952841 
L 217.636281 198.73172 
L 218.093197 220.878118 
L 218.550113 168.253321 
L 219.007029 212.195416 
L 220.377778 207.98767 
L 220.834695 211.956781 
L 221.291611 201.503292 
L 221.748527 199.394348 
L 222.205443 212.654418 
L 223.576192 180.000054 
L 224.490025 222.703274 
L 224.946941 198.03621 
L 225.403857 191.607782 
L 226.774606 205.100653 
L 227.231522 207.280599 
L 227.688439 223.463733 
L 228.145355 171.669688 
L 228.602271 231.058725 
L 229.97302 207.569786 
L 230.429936 183.717168 
L 230.886853 187.215989 
L 231.343769 218.368358 
L 231.800685 188.995283 
L 233.171434 255.429185 
L 233.62835 157.591681 
L 234.085267 211.335653 
L 234.542183 206.849572 
L 234.999099 186.942125 
L 236.369848 207.860718 
L 236.826764 207.920922 
L 237.283681 175.160764 
L 237.740597 219.980127 
L 238.197513 219.492823 
L 239.568262 179.493008 
L 240.025178 213.378449 
L 240.482095 204.764295 
L 240.939011 198.867834 
L 241.395927 194.837865 
L 243.223592 188.804582 
L 243.680508 207.42931 
L 244.137425 211.162621 
L 244.594341 211.953618 
L 245.96509 187.025669 
L 246.422006 216.737938 
L 246.878922 210.669972 
L 247.335839 198.233346 
L 247.792755 196.331353 
L 249.163504 203.831185 
L 249.62042 194.290575 
L 250.534253 210.996023 
L 250.991169 184.000357 
L 252.361918 206.771372 
L 252.818834 206.582471 
L 253.27575 201.630735 
L 253.732667 200.874366 
L 257.387997 217.897958 
L 258.758746 182.769553 
L 259.215662 213.591236 
L 259.672578 192.596243 
L 260.129495 201.0414 
L 260.586411 203.758002 
L 261.95716 198.687113 
L 262.414076 212.687083 
L 262.870992 205.58643 
L 263.327908 190.532179 
L 263.784825 226.387723 
L 265.155574 166.617666 
L 265.61249 215.669751 
L 266.069406 205.281483 
L 266.526322 211.969596 
L 266.983239 195.807621 
L 268.353988 216.928857 
L 268.810904 181.659485 
L 269.26782 206.590705 
L 269.724736 214.352513 
L 270.181653 199.467858 
L 271.552401 187.42643 
L 272.009318 206.12216 
L 272.466234 207.904835 
L 272.92315 214.391449 
L 273.380067 191.427443 
L 274.750815 186.892173 
L 275.207732 214.273495 
L 276.121564 188.804145 
L 276.578481 234.288698 
L 277.949229 177.840012 
L 278.406146 203.692836 
L 278.863062 217.127029 
L 279.319978 191.543379 
L 279.776895 192.71845 
L 281.147643 215.050368 
L 282.061476 201.003118 
L 282.518392 212.90096 
L 282.975308 178.655058 
L 285.25989 182.930915 
L 285.716806 222.524843 
L 286.173722 205.072241 
L 287.544471 214.750002 
L 288.001388 182.231479 
L 288.458304 221.225219 
L 288.91522 192.882103 
L 289.372136 219.761015 
L 290.742885 199.028924 
L 291.199801 203.145327 
L 291.656718 202.60987 
L 292.113634 187.333725 
L 292.57055 202.495406 
L 293.941299 226.657879 
L 294.398215 175.76406 
L 294.855132 201.619501 
L 295.312048 199.538205 
L 295.768964 207.133742 
L 297.596629 209.614709 
L 298.053546 200.890562 
L 298.510462 202.085593 
L 298.967378 211.215681 
L 300.338127 202.348877 
L 300.795043 187.934294 
L 301.25196 218.469789 
L 301.708876 182.416508 
L 302.165792 195.046071 
L 303.536541 210.639597 
L 303.993457 193.56169 
L 304.450374 219.343458 
L 305.364206 194.229825 
L 306.734955 210.721396 
L 307.648788 193.650088 
L 308.105704 179.597657 
L 308.56262 224.943751 
L 310.847201 199.630147 
L 311.304118 214.116877 
L 311.761034 192.769984 
L 313.131783 211.459497 
L 313.588699 189.016823 
L 314.045615 187.176234 
L 314.502532 217.670502 
L 314.959448 203.356587 
L 316.330197 216.798197 
L 316.787113 184.634409 
L 317.244029 222.43939 
L 317.700946 188.729217 
L 318.157862 208.368418 
L 319.528611 185.649972 
L 319.985527 216.240545 
L 320.442443 191.086504 
L 320.89936 215.907241 
L 321.356276 191.83911 
L 322.727025 192.944652 
L 323.183941 214.195513 
L 323.640857 215.248322 
L 324.097774 184.380014 
L 324.55469 208.021753 
L 325.925439 202.77734 
L 326.382355 211.345905 
L 326.839271 181.881651 
L 327.296188 212.670014 
L 327.753104 202.186969 
L 329.123853 208.207601 
L 329.580769 204.625945 
L 330.037685 200.061338 
L 330.494601 188.057538 
L 330.951518 211.222279 
L 332.322267 229.676102 
L 332.779183 171.184292 
L 333.236099 184.679944 
L 333.693015 218.395951 
L 334.149932 213.624883 
L 335.520681 191.663624 
L 335.977597 212.946059 
L 336.434513 196.356329 
L 336.891429 203.322177 
L 337.348346 201.560115 
L 338.719094 193.39302 
L 339.176011 202.39463 
L 339.632927 217.125884 
L 340.089843 204.777056 
L 340.54676 201.599324 
L 341.917508 186.906624 
L 342.374425 210.45544 
L 342.831341 207.050689 
L 343.288257 206.40055 
L 343.745174 223.77506 
L 345.115922 157.566051 
L 345.572839 210.432482 
L 346.029755 212.501781 
L 346.486671 187.688787 
L 346.943588 214.122548 
L 348.314336 192.543509 
L 348.771253 210.401725 
L 349.228169 205.482873 
L 349.685085 209.753549 
L 350.142001 160.74171 
L 351.51275 218.047269 
L 351.969667 217.86922 
L 352.426583 204.573921 
L 352.883499 202.96117 
L 353.340415 197.321286 
L 354.711164 198.941399 
L 355.168081 206.512778 
L 355.624997 204.294714 
L 356.081913 213.729422 
L 356.538829 191.589241 
L 357.909578 196.063979 
L 358.366494 206.718585 
L 358.823411 201.430654 
L 359.280327 211.775623 
L 359.737243 205.070605 
L 361.107992 187.548747 
L 361.564908 210.615821 
L 362.021825 194.027509 
L 362.478741 211.750811 
L 362.935657 200.715785 
L 364.306406 205.404782 
L 364.763322 195.200399 
L 365.220239 202.485645 
L 365.677155 206.288703 
L 366.134071 194.155552 
L 370.703234 193.499305 
L 371.16015 211.472857 
L 371.617067 204.104776 
L 372.073983 206.376501 
L 372.530899 198.694584 
L 373.901648 211.282538 
L 374.358564 199.231131 
L 374.815481 193.472747 
L 375.272397 213.953769 
L 375.729313 191.337845 
L 377.100062 205.801398 
L 377.556978 199.299515 
L 378.013894 201.697156 
L 378.470811 201.196164 
L 378.927727 203.074326 
L 380.298476 221.777035 
L 380.755392 186.221421 
L 381.212308 202.534179 
L 381.669225 210.572304 
L 382.126141 201.731784 
L 383.49689 187.030904 
L 383.953806 197.405757 
L 384.410722 215.121097 
L 384.867639 196.599491 
L 385.324555 206.363522 
L 386.695304 196.68936 
L 387.15222 220.538979 
L 387.609136 207.06165 
L 388.066053 189.346364 
L 388.522969 209.424281 
L 389.893718 188.209575 
L 390.350634 197.603656 
L 390.80755 201.279108 
L 391.264467 256.019284 
L 391.721383 158.426795 
L 393.092132 220.562482 
L 393.549048 178.83867 
L 394.005964 206.236079 
L 394.462881 215.864596 
L 394.919797 190.789791 
L 396.290546 206.893689 
L 396.747462 201.176477 
L 397.204378 204.351918 
L 397.661294 208.950773 
L 398.118211 180.566976 
L 399.48896 194.518521 
L 399.945876 242.425637 
L 400.402792 167.611689 
L 400.859708 220.196622 
L 401.316625 210.860673 
L 402.687374 186.981171 
L 403.14429 187.666102 
L 403.601206 222.773948 
L 404.058122 190.635082 
L 404.515039 210.722869 
L 405.885787 209.717176 
L 406.342704 179.249029 
L 406.79962 232.838891 
L 407.256536 174.516624 
L 407.713453 207.649731 
L 409.541118 185.737988 
L 409.998034 213.406643 
L 410.45495 204.577466 
L 410.911867 208.057309 
L 412.282615 195.923012 
L 412.739532 209.555541 
L 413.196448 200.381008 
L 413.653364 204.710198 
L 414.110281 202.251154 
L 415.481029 214.321156 
L 415.937946 177.998757 
L 416.394862 212.12905 
L 416.851778 190.29747 
L 417.308694 211.553293 
L 418.679443 202.08592 
L 419.13636 185.04106 
L 419.593276 219.847395 
L 420.050192 215.450257 
L 420.507108 190.856594 
L 421.877857 226.810025 
L 422.334774 202.223233 
L 422.79169 187.128736 
L 423.248606 216.845804 
L 423.705522 175.601443 
L 425.076271 196.672401 
L 425.533187 279.876537 
L 425.990104 172.057688 
L 426.44702 194.563347 
L 426.903936 248.645095 
L 428.274685 116.967958 
L 428.731601 198.720977 
L 429.188518 211.3681 
L 432.843848 172.195656 
L 433.300764 228.9831 
L 434.671513 191.345044 
L 435.128429 244.863359 
L 435.585346 199.655014 
L 436.042262 176.663523 
L 436.499178 220.606163 
L 437.869927 190.50513 
L 438.326843 185.7646 
L 438.78376 229.939822 
L 439.240676 183.368868 
L 439.697592 201.194473 
L 441.068341 201.875805 
L 441.525257 221.926073 
L 441.982174 203.604602 
L 442.43909 192.161562 
L 442.896006 213.727677 
L 444.266755 185.610872 
L 445.180587 213.790935 
L 445.637504 206.542444 
L 446.09442 253.148135 
L 447.465169 152.301733 
L 447.922085 173.959136 
L 448.379001 244.443948 
L 448.835918 157.25336 
L 449.292834 218.589324 
L 450.663583 209.977788 
L 451.120499 213.655803 
L 451.577415 190.832654 
L 453.861997 195.369777 
L 454.318913 177.841975 
L 454.775829 220.984784 
L 455.232746 227.210186 
L 455.689662 198.579956 
L 457.060411 217.183416 
L 457.517327 199.815831 
L 457.974243 164.96767 
L 458.888076 241.458008 
L 460.258825 179.228634 
L 460.715741 167.153669 
L 461.172657 241.489364 
L 461.629574 219.742964 
L 462.08649 174.952013 
L 464.371071 206.799729 
L 464.827987 190.989926 
L 465.284904 218.388317 
L 466.655653 172.066523 
L 467.112569 213.617848 
L 467.569485 217.130628 
L 468.026401 192.694456 
L 468.483318 216.700801 
L 469.854067 190.344968 
L 470.310983 198.307183 
L 470.767899 224.459391 
L 471.681732 172.684378 
L 473.05248 212.377392 
L 473.509397 213.219268 
L 473.966313 227.325305 
L 474.423229 185.353259 
L 474.880146 201.770721 
L 476.250894 198.41145 
L 476.707811 206.878638 
L 477.164727 237.414242 
L 477.621643 129.743232 
L 478.07856 242.851865 
L 479.449308 182.453045 
L 480.363141 214.316521 
L 480.820057 205.927478 
L 481.276974 222.294496 
L 482.647722 187.035922 
L 483.104639 179.730117 
L 483.561555 233.394362 
L 484.018471 189.008807 
L 484.475387 211.362101 
L 486.303053 252.369462 
L 486.759969 135.774225 
L 487.216885 228.381058 
L 487.673801 172.919796 
L 489.04455 226.496134 
L 489.501467 193.792909 
L 489.958383 211.296771 
L 490.415299 199.543876 
L 490.872215 154.961895 
L 492.242964 274.489466 
L 492.69988 156.930799 
L 493.156797 223.615879 
L 494.070629 181.253052 
L 495.441378 172.558517 
L 495.898294 232.489827 
L 496.355211 236.309572 
L 496.812127 142.452522 
L 497.269043 238.486846 
L 498.639792 208.114622 
L 499.096708 201.629045 
L 499.553625 199.545349 
L 500.010541 204.393145 
L 500.467457 163.340849 
L 501.838206 216.724032 
L 502.295122 193.709692 
L 502.752039 228.437609 
L 503.665871 195.323043 
L 505.03662 200.068699 
L 505.493536 195.810565 
L 505.950453 234.591137 
L 506.407369 204.829353 
L 506.864285 186.52195 
L 508.235034 206.499581 
L 508.69195 142.582146 
L 509.148867 262.022901 
L 509.605783 155.608544 
L 510.062699 229.228115 
L 511.890364 199.82701 
L 512.34728 231.090681 
L 512.804197 180.680241 
L 513.261113 212.200651 
L 514.631862 166.455704 
L 515.545694 232.060927 
L 516.002611 186.355298 
L 516.459527 205.138662 
L 517.830276 176.851661 
L 518.287192 231.956006 
L 518.744108 205.443009 
L 519.201025 214.770288 
L 519.657941 191.897569 
L 521.02869 197.950648 
L 521.485606 183.559351 
L 521.942522 243.791354 
L 522.399439 184.029314 
L 522.856355 189.508763 
L 524.227104 226.032443 
L 524.68402 186.956795 
L 525.140936 204.481543 
L 525.597853 180.943743 
L 526.054769 221.604167 
L 527.425518 215.886737 
L 527.882434 159.753359 
L 528.33935 211.710675 
L 528.796267 220.024408 
L 529.253183 164.207865 
L 531.080848 248.425383 
L 531.537764 179.382361 
L 531.99468 224.499691 
L 532.451597 177.968491 
L 537.02076 275.597789 
L 537.477676 142.670271 
L 537.934592 202.122511 
L 538.391508 282.571381 
L 538.848425 111.863694 
L 540.219173 236.254658 
L 540.67609 193.002348 
L 541.133006 182.091493 
L 541.589922 251.638724 
L 542.046839 126.365147 
L 543.417587 180.285805 
L 543.874504 291.983076 
L 544.33142 164.931623 
L 544.788336 206.641257 
L 545.245253 205.273522 
L 546.616001 230.540555 
L 547.072918 157.205426 
L 547.529834 197.504025 
L 547.98675 219.356055 
L 548.443667 165.87793 
L 549.814415 246.62433 
L 550.271332 199.586576 
L 550.728248 208.808933 
L 551.185164 195.587581 
L 551.64208 219.23052 
L 553.012829 164.992482 
L 553.469746 206.271961 
L 553.926662 227.926364 
L 554.383578 170.360575 
L 554.840494 215.924582 
L 556.211243 194.956092 
L 556.66816 247.046631 
L 557.125076 167.774088 
L 557.581992 208.690052 
L 558.038908 234.951489 
L 559.409657 168.335829 
L 559.866573 200.911339 
L 560.32349 186.92582 
L 560.780406 235.753666 
L 561.237322 172.284326 
L 562.608071 177.285414 
L 563.064987 232.536453 
L 563.521904 217.19176 
L 563.97882 217.823739 
L 564.435736 177.577873 
L 565.806485 214.301197 
L 566.263401 185.495372 
L 566.720318 203.083651 
L 567.177234 189.301375 
L 567.63415 241.672921 
L 569.004899 178.007973 
L 569.461815 216.234656 
L 570.375648 194.777443 
L 570.832564 205.962761 
L 572.203313 185.51604 
L 572.660229 220.263207 
L 573.117146 193.756154 
L 573.574062 207.032366 
L 574.030978 188.109671 
L 576.31556 223.791693 
L 576.772476 187.204591 
L 577.229392 174.249468 
L 578.600141 219.903454 
L 579.057057 215.847364 
L 579.513973 188.932079 
L 579.97089 217.091856 
L 580.427806 187.039793 
L 581.798555 222.365007 
L 582.255471 173.588531 
L 582.712387 221.112718 
L 583.169304 208.221125 
L 583.62622 176.583414 
L 585.453885 227.005906 
L 585.910801 184.789718 
L 586.367718 197.177319 
L 586.824634 202.657259 
L 588.195383 210.3557 
L 588.652299 201.194091 
L 589.109215 210.998259 
L 589.566132 187.205791 
L 590.023048 188.848153 
L 594.592211 201.204889 
L 595.049127 211.931368 
L 595.506043 185.296 
L 595.96296 229.860095 
L 596.419876 221.900225 
L 597.790625 142.7007 
L 598.247541 240.842606 
L 598.704457 199.961597 
L 599.161373 210.472454 
L 599.61829 168.573101 
L 600.989039 145.238817 
L 601.445955 298.72474 
L 601.902871 184.806242 
L 602.359787 216.028031 
L 602.816704 166.348766 
L 604.187453 212.920974 
L 604.644369 206.060047 
L 605.101285 190.746819 
L 605.558201 226.037732 
L 606.015118 279.120767 
L 607.385866 96.674474 
L 607.842783 215.285295 
L 608.299699 238.655025 
L 609.213532 165.579363 
L 610.58428 178.521235 
L 611.041197 245.983243 
L 611.498113 199.512138 
L 611.955029 196.217543 
L 613.782694 237.095553 
L 614.239611 194.018729 
L 614.696527 163.273937 
L 615.153443 231.418314 
L 615.61036 134.900175 
L 617.438025 242.183566 
L 617.894941 184.295924 
L 618.351857 207.31261 
L 620.179522 219.768431 
L 620.636439 204.143712 
L 621.093355 198.255432 
L 621.550271 231.872898 
L 622.007187 174.686766 
L 623.377936 207.479698 
L 623.834853 155.044893 
L 624.291769 238.447965 
L 624.748685 214.533016 
L 625.205601 184.02217 
L 626.57635 243.933794 
L 627.033266 180.863034 
L 627.490183 191.680802 
L 627.947099 246.364154 
L 628.404015 180.287987 
L 629.774764 194.921082 
L 630.23168 180.625871 
L 632.973178 304.6639 
L 633.430094 97.702906 
L 633.887011 230.960511 
L 634.343927 207.842995 
L 634.800843 130.82707 
L 636.171592 269.784273 
L 636.628508 193.902247 
L 637.085425 161.305469 
L 637.542341 223.038868 
L 637.999257 251.621219 
L 639.370006 168.638268 
L 639.826922 176.636802 
L 640.283839 229.361339 
L 640.740755 215.889954 
L 641.197671 180.665135 
L 642.56842 181.082256 
L 643.025336 214.213563 
L 643.482253 209.248685 
L 643.939169 209.755949 
L 644.396085 201.326006 
L 645.766834 203.118824 
L 646.22375 212.759939 
L 646.680666 187.60737 
L 647.137583 220.161503 
L 648.965248 170.694425 
L 649.422164 175.438282 
L 649.87908 251.334867 
L 650.335997 192.646631 
L 650.792913 218.726856 
L 652.163662 183.530666 
L 652.620578 203.99462 
L 653.077494 188.604992 
L 653.534411 179.57339 
L 653.991327 231.992925 
L 655.362076 207.038637 
L 655.818992 219.879951 
L 656.275908 191.236196 
L 656.732825 187.956052 
L 657.189741 223.250782 
L 658.56049 156.523603 
L 659.017406 238.82604 
L 659.931239 192.119081 
L 660.388155 193.668083 
L 661.758904 247.835393 
L 662.21582 162.727847 
L 662.672736 206.54757 
L 663.129653 193.907209 
L 663.586569 196.666239 
L 664.957318 202.92267 
L 665.414234 211.136063 
L 665.87115 203.036916 
L 666.328066 215.708197 
L 666.784983 173.10079 
L 668.155732 235.153915 
L 668.612648 174.923711 
L 669.069564 196.64677 
L 669.52648 207.342057 
L 669.983397 206.061301 
L 671.354146 208.140744 
L 671.811062 194.191161 
L 672.267978 219.292088 
L 672.724894 204.428373 
L 673.181811 211.671029 
L 674.552559 205.249745 
L 675.009476 200.987685 
L 675.466392 183.176585 
L 675.466392 183.176585 
" clip-path="url(#pe30dbe6989)" style="fill: none; stroke: #7fffd4; stroke-width: 1.5; stroke-linecap: square"/>
   </g>
   <g id="patch_3">
    <path d="M 47.457813 388.4875 
L 47.457813 23.04375 
" style="fill: none; stroke: #000000; stroke-width: 0.8; stroke-linejoin: miter; stroke-linecap: square"/>
   </g>
   <g id="patch_4">
    <path d="M 705.371563 388.4875 
L 705.371563 23.04375 
" style="fill: none; stroke: #000000; stroke-width: 0.8; stroke-linejoin: miter; stroke-linecap: square"/>
   </g>
   <g id="patch_5">
    <path d="M 47.457812 388.4875 
L 705.371562 388.4875 
" style="fill: none; stroke: #000000; stroke-width: 0.8; stroke-linejoin: miter; stroke-linecap: square"/>
   </g>
   <g id="patch_6">
    <path d="M 47.457812 23.04375 
L 705.371562 23.04375 
" style="fill: none; stroke: #000000; stroke-width: 0.8; stroke-linejoin: miter; stroke-linecap: square"/>
   </g>
   <g id="text_18">
    <!-- 2016年至今上证指数二阶差分图 -->
    <g transform="translate(292.414688 17.04375) scale(0.12 -0.12)">
     <defs>
      <path id="SimHei-5e74" d="M 350 2925 
Q 900 3450 1375 4200 
Q 1850 4950 1900 5275 
Q 2275 5125 2600 5050 
Q 2375 4825 2100 4325 
L 4625 4325 
Q 5175 4325 5750 4350 
L 5750 3925 
Q 5225 3950 4625 3950 
L 3800 3950 
L 3800 2925 
Q 4750 2925 5475 2950 
L 5475 2525 
Q 4725 2550 3800 2550 
L 3800 1375 
L 5075 1375 
Q 5625 1375 6100 1400 
L 6100 975 
Q 5650 1000 5075 1000 
L 3800 1000 
L 3800 425 
Q 3800 -150 3825 -625 
L 3275 -625 
Q 3300 -150 3300 375 
L 3300 1000 
L 1600 1000 
Q 900 1000 275 975 
L 275 1400 
Q 875 1375 1450 1375 
Q 1450 2350 1425 2925 
L 3300 2925 
L 3300 3950 
L 1875 3950 
Q 1350 3150 925 2650 
Q 650 2875 350 2925 
z
M 3300 1375 
L 3300 2550 
L 1925 2550 
L 1925 1375 
L 3300 1375 
z
" transform="scale(0.015625)"/>
      <path id="SimHei-81f3" d="M 4250 3725 
Q 5275 2700 5575 2350 
Q 5350 2225 5175 2025 
Q 4950 2275 4750 2475 
Q 3925 2425 3475 2400 
L 3475 1450 
L 4275 1450 
Q 4800 1450 5250 1475 
L 5250 1000 
Q 4775 1025 4300 1025 
L 3475 1025 
L 3475 100 
L 4975 100 
Q 5550 100 5975 125 
L 5975 -350 
Q 5575 -325 4975 -325 
L 1325 -325 
Q 825 -325 450 -350 
L 450 125 
Q 850 100 1350 100 
L 2975 100 
L 2975 1025 
L 2025 1025 
Q 1550 1025 1150 1000 
L 1150 1475 
Q 1575 1450 2050 1450 
L 2975 1450 
L 2975 2375 
Q 2500 2350 1975 2300 
Q 1450 2250 1250 2175 
Q 1150 2425 1050 2650 
Q 1575 2800 2050 3350 
Q 2525 3900 2600 4275 
L 1700 4275 
Q 1150 4275 775 4250 
L 775 4725 
Q 1150 4700 1700 4700 
L 4700 4700 
Q 5225 4700 5650 4725 
L 5650 4250 
Q 5250 4275 4675 4275 
L 2800 4275 
Q 3000 4125 3225 3950 
Q 2900 3675 2537 3287 
Q 2175 2900 1950 2725 
Q 2700 2725 3300 2750 
Q 3900 2775 4475 2800 
Q 4250 3050 3900 3400 
Q 4075 3550 4250 3725 
z
" transform="scale(0.015625)"/>
      <path id="SimHei-4eca" d="M 3450 4850 
Q 4675 3100 6125 2525 
Q 5875 2300 5725 2025 
Q 4200 2925 3200 4525 
Q 2325 3150 700 2000 
Q 550 2250 300 2400 
Q 1150 2825 1912 3600 
Q 2675 4375 3025 5275 
Q 3250 5175 3575 5050 
L 3450 4850 
z
M 5250 1900 
L 5250 1475 
Q 5075 1400 4425 537 
Q 3775 -325 3550 -775 
Q 3450 -675 3100 -425 
Q 3500 75 4450 1450 
L 2050 1450 
Q 1575 1450 1375 1425 
L 1375 1925 
Q 1575 1900 2075 1900 
L 5250 1900 
z
M 2925 3400 
Q 3425 2825 3750 2450 
Q 3525 2300 3300 2100 
Q 2925 2700 2550 3050 
Q 2825 3275 2925 3400 
z
" transform="scale(0.015625)"/>
      <path id="SimHei-4e0a" d="M 3250 5075 
Q 3225 4650 3225 4275 
L 3225 3225 
L 4650 3225 
Q 5150 3225 5600 3250 
L 5600 2700 
Q 5100 2725 4600 2725 
L 3225 2725 
L 3225 200 
L 5200 200 
Q 5575 200 6075 225 
L 6075 -300 
Q 5600 -275 5200 -275 
L 1250 -275 
Q 850 -275 350 -300 
L 350 225 
Q 825 200 1250 200 
L 2700 200 
L 2700 4250 
Q 2700 4625 2675 5075 
L 3250 5075 
z
" transform="scale(0.015625)"/>
      <path id="SimHei-8bc1" d="M 5125 4675 
Q 5625 4675 6050 4700 
L 6050 4225 
Q 5625 4250 5125 4250 
L 4500 4250 
L 4500 2625 
L 5075 2625 
Q 5500 2625 5900 2650 
L 5900 2175 
Q 5525 2200 5075 2200 
L 4500 2200 
L 4500 125 
L 5200 125 
Q 5625 125 6175 150 
L 6175 -325 
Q 5625 -300 5200 -300 
L 3000 -300 
Q 2400 -300 2000 -325 
L 2000 150 
Q 2400 125 2775 125 
L 2775 2075 
Q 2775 2600 2750 2950 
L 3275 2950 
Q 3250 2625 3250 2075 
L 3250 125 
L 4000 125 
L 4000 4250 
L 3550 4250 
Q 2975 4250 2450 4225 
L 2450 4700 
Q 2975 4675 3550 4675 
L 5125 4675 
z
M 850 -125 
Q 1150 175 1150 500 
L 1150 2750 
L 925 2750 
Q 575 2750 225 2725 
L 225 3200 
Q 550 3175 925 3175 
L 1650 3175 
Q 1625 2700 1625 2175 
L 1625 800 
Q 1850 1075 2025 1325 
Q 2150 1050 2325 825 
Q 2050 500 1812 212 
Q 1575 -75 1225 -525 
Q 1050 -300 850 -125 
z
M 1525 3900 
Q 1100 4500 800 4825 
Q 1000 4975 1175 5175 
L 1925 4275 
Q 1675 4100 1525 3900 
z
" transform="scale(0.015625)"/>
      <path id="SimHei-6307" d="M 5625 2225 
Q 5600 1925 5600 1350 
L 5600 300 
Q 5600 -225 5625 -525 
L 5125 -525 
L 5125 -125 
L 3300 -125 
L 3300 -625 
L 2800 -625 
Q 2825 -300 2825 300 
L 2825 1350 
Q 2825 1925 2800 2225 
L 5625 2225 
z
M 500 25 
Q 1075 -25 1175 37 
Q 1275 100 1275 275 
L 1275 1675 
Q 1050 1600 925 1537 
Q 800 1475 475 1275 
Q 400 1525 225 1800 
Q 625 1900 825 1975 
Q 1025 2050 1275 2125 
L 1275 3300 
L 1100 3300 
Q 775 3300 450 3275 
L 450 3725 
Q 750 3700 1100 3700 
L 1275 3700 
L 1275 4450 
Q 1275 4800 1250 5125 
L 1775 5125 
Q 1750 4850 1750 4450 
L 1750 3700 
Q 2075 3700 2425 3725 
L 2425 3275 
Q 2050 3300 1750 3300 
L 1750 2325 
Q 1850 2350 2025 2425 
L 2375 2575 
Q 2350 2300 2375 2100 
Q 2225 2050 2062 1987 
Q 1900 1925 1750 1850 
L 1750 100 
Q 1725 -200 1575 -337 
Q 1425 -475 675 -525 
Q 625 -250 500 25 
z
M 3325 5025 
Q 3300 4675 3300 4125 
Q 4125 4275 4512 4412 
Q 4900 4550 5225 4725 
Q 5325 4475 5575 4250 
Q 5450 4225 5237 4175 
Q 5025 4125 4725 4050 
Q 4425 3975 4037 3887 
Q 3650 3800 3300 3725 
L 3300 3175 
Q 3275 2925 3700 2925 
L 4925 2925 
Q 5300 2925 5387 3087 
Q 5475 3250 5550 3600 
Q 5750 3400 6050 3300 
Q 5825 2725 5700 2637 
Q 5575 2550 5275 2525 
L 3350 2525 
Q 3050 2525 2937 2687 
Q 2825 2850 2825 2975 
L 2825 4125 
Q 2825 4775 2800 5025 
L 3325 5025 
z
M 5125 275 
L 5125 875 
L 3300 875 
L 3300 275 
L 5125 275 
z
M 5125 1250 
L 5125 1825 
L 3300 1825 
L 3300 1250 
L 5125 1250 
z
" transform="scale(0.015625)"/>
      <path id="SimHei-6570" d="M 4525 4925 
Q 4475 4800 4400 4587 
Q 4325 4375 4175 3825 
L 5325 3825 
Q 5575 3825 5925 3850 
L 5925 3400 
Q 5650 3425 5500 3425 
Q 5500 3025 5362 2162 
Q 5225 1300 4875 675 
Q 5125 375 5437 137 
Q 5750 -100 6025 -200 
Q 5725 -425 5625 -625 
Q 5325 -450 5075 -225 
Q 4825 0 4575 325 
Q 4300 25 3987 -187 
Q 3675 -400 3200 -650 
Q 3075 -425 2850 -300 
Q 3225 -150 3650 125 
Q 4075 400 4300 675 
Q 4125 1025 3962 1425 
Q 3800 1825 3675 2475 
Q 3600 2275 3425 1950 
Q 3250 2050 3000 2150 
Q 3400 2850 3650 3675 
Q 3900 4500 3975 5100 
Q 4275 4975 4525 4925 
z
M 2100 2250 
Q 2000 2150 1875 1925 
L 3250 1925 
Q 3100 1300 2725 675 
Q 3125 525 3350 400 
Q 3225 225 3125 25 
Q 2900 175 2450 325 
Q 1950 -225 725 -650 
Q 600 -375 400 -275 
Q 1575 0 2000 475 
Q 1300 650 850 775 
Q 1000 1000 1250 1525 
Q 1000 1525 425 1500 
L 425 1950 
Q 900 1925 1400 1925 
Q 1500 2150 1550 2425 
Q 1825 2325 2100 2250 
z
M 1775 3950 
Q 1775 4550 1750 5100 
L 2250 5100 
Q 2225 4575 2225 3950 
Q 3075 3950 3425 3975 
L 3425 3525 
Q 3075 3550 2225 3550 
Q 2225 2825 2250 2425 
L 1750 2425 
Q 1775 2775 1775 3300 
Q 1650 3100 1300 2787 
Q 950 2475 650 2300 
Q 525 2525 275 2625 
Q 500 2700 875 2975 
Q 1250 3250 1450 3550 
Q 950 3550 500 3525 
L 500 3975 
Q 925 3950 1775 3950 
z
M 3975 3175 
Q 4200 1700 4600 1125 
Q 4850 1700 4937 2287 
Q 5025 2875 5050 3425 
L 4075 3425 
L 3975 3175 
z
M 1450 1000 
Q 1750 925 2275 800 
Q 2475 1050 2650 1525 
L 1725 1525 
Q 1600 1275 1450 1000 
z
M 3325 4825 
Q 3200 4625 3125 4450 
Q 3050 4275 2925 4025 
Q 2725 4125 2525 4175 
Q 2725 4500 2900 5000 
Q 3150 4875 3325 4825 
z
M 2575 3375 
Q 2900 3050 3200 2725 
Q 3050 2600 2875 2425 
Q 2525 2850 2300 3100 
Q 2450 3225 2575 3375 
z
M 925 5000 
Q 1275 4650 1500 4300 
L 1125 4075 
Q 950 4425 600 4725 
Q 825 4875 925 5000 
z
" transform="scale(0.015625)"/>
      <path id="SimHei-56fe" d="M 5800 4975 
Q 5775 4350 5775 3600 
L 5775 925 
Q 5775 150 5800 -600 
L 5300 -600 
L 5300 -275 
L 1125 -275 
L 1125 -650 
L 625 -650 
Q 650 125 650 950 
L 650 3600 
Q 650 4325 625 4975 
L 5800 4975 
z
M 5300 150 
L 5300 4575 
L 1125 4575 
L 1125 150 
L 5300 150 
z
M 3225 4250 
Q 3075 4100 2950 3925 
L 4625 3925 
Q 4525 3700 4300 3375 
Q 4075 3050 3600 2600 
Q 4350 2225 5075 2150 
Q 4900 1925 4775 1675 
Q 3850 1950 3225 2350 
Q 2500 1875 1675 1650 
Q 1600 1875 1400 2075 
Q 2200 2200 2875 2600 
Q 2525 2925 2375 3150 
Q 2150 2900 1900 2650 
Q 1725 2850 1525 2950 
Q 1950 3300 2250 3737 
Q 2550 4175 2675 4475 
Q 2925 4350 3225 4250 
z
M 2450 1275 
Q 3550 950 4100 725 
Q 3975 525 3850 300 
Q 2825 725 2275 850 
Q 2375 1050 2450 1275 
z
M 2925 2050 
Q 3775 1700 4075 1600 
Q 3950 1400 3850 1150 
Q 3000 1550 2700 1650 
Q 2825 1825 2925 2050 
z
M 2625 3450 
Q 3000 3025 3275 2850 
Q 3600 3100 3875 3525 
L 2675 3525 
L 2625 3450 
z
" transform="scale(0.015625)"/>
     </defs>
     <use xlink:href="#SimHei-32"/>
     <use xlink:href="#SimHei-30" x="50"/>
     <use xlink:href="#SimHei-31" x="100"/>
     <use xlink:href="#SimHei-36" x="150"/>
     <use xlink:href="#SimHei-5e74" x="200"/>
     <use xlink:href="#SimHei-81f3" x="300"/>
     <use xlink:href="#SimHei-4eca" x="400"/>
     <use xlink:href="#SimHei-4e0a" x="500"/>
     <use xlink:href="#SimHei-8bc1" x="600"/>
     <use xlink:href="#SimHei-6307" x="700"/>
     <use xlink:href="#SimHei-6570" x="800"/>
     <use xlink:href="#SimHei-4e8c" x="900"/>
     <use xlink:href="#SimHei-9636" x="1000"/>
     <use xlink:href="#SimHei-5dee" x="1100"/>
     <use xlink:href="#SimHei-5206" x="1200"/>
     <use xlink:href="#SimHei-56fe" x="1300"/>
    </g>
   </g>
   <g id="legend_1">
    <g id="line2d_17">
     <path d="M 628.371563 36.551562 
L 638.371563 36.551562 
L 648.371563 36.551562 
" style="fill: none; stroke: #7fffd4; stroke-width: 1.5; stroke-linecap: square"/>
    </g>
    <g id="text_19">
     <!-- 二阶差分 -->
     <g transform="translate(656.371563 40.051562) scale(0.1 -0.1)">
      <use xlink:href="#SimHei-4e8c"/>
      <use xlink:href="#SimHei-9636" x="100"/>
      <use xlink:href="#SimHei-5dee" x="200"/>
      <use xlink:href="#SimHei-5206" x="300"/>
     </g>
    </g>
   </g>
  </g>
 </g>
 <defs>
  <clipPath id="pe30dbe6989">
   <rect x="47.457813" y="23.04375" width="657.91375" height="365.44375"/>
  </clipPath>
 </defs>
</svg>
