<?xml version="1.0" encoding="utf-8" standalone="no"?>
<!DOCTYPE svg PUBLIC "-//W3C//DTD SVG 1.1//EN"
  "http://www.w3.org/Graphics/SVG/1.1/DTD/svg11.dtd">
<svg xmlns:xlink="http://www.w3.org/1999/xlink" width="712.742188pt" height="423.667812pt" viewBox="0 0 712.742188 423.667812" xmlns="http://www.w3.org/2000/svg" version="1.1">
 <metadata>
  <rdf:RDF xmlns:dc="http://purl.org/dc/elements/1.1/" xmlns:cc="http://creativecommons.org/ns#" xmlns:rdf="http://www.w3.org/1999/02/22-rdf-syntax-ns#">
   <cc:Work>
    <dc:type rdf:resource="http://purl.org/dc/dcmitype/StillImage"/>
    <dc:date>2024-10-05T10:55:01.424675</dc:date>
    <dc:format>image/svg+xml</dc:format>
    <dc:creator>
     <cc:Agent>
      <dc:title>Matplotlib v3.7.1, https://matplotlib.org/</dc:title>
     </cc:Agent>
    </dc:creator>
   </cc:Work>
  </rdf:RDF>
 </metadata>
 <defs>
  <style type="text/css">*{stroke-linejoin: round; stroke-linecap: butt}</style>
 </defs>
 <g id="figure_1">
  <g id="patch_1">
   <path d="M -0 423.667812 
L 712.742188 423.667812 
L 712.742188 0 
L -0 0 
z
" style="fill: #ffffff"/>
  </g>
  <g id="axes_1">
   <g id="patch_2">
    <path d="M 47.223438 388.3975 
L 705.542188 388.3975 
L 705.542188 23.04375 
L 47.223438 23.04375 
z
" style="fill: #ffffff"/>
   </g>
   <g id="matplotlib.axis_1">
    <g id="xtick_1">
     <g id="line2d_1">
      <defs>
       <path id="m73dfcad8d0" d="M 0 0 
L 0 3.5 
" style="stroke: #000000; stroke-width: 0.8"/>
      </defs>
      <g>
       <use xlink:href="#m73dfcad8d0" x="75.777517" y="388.3975" style="stroke: #000000; stroke-width: 0.8"/>
      </g>
     </g>
     <g id="text_1">
      <!-- 2016-01 -->
      <g transform="translate(58.277517 402.2725) scale(0.1 -0.1)">
       <defs>
        <path id="SimHei-32" d="M 300 250 
Q 325 625 650 925 
Q 975 1225 1475 1862 
Q 1975 2500 2125 2850 
Q 2275 3200 2237 3450 
Q 2200 3700 2000 3862 
Q 1800 4025 1537 4000 
Q 1275 3975 1037 3800 
Q 800 3625 675 3275 
L 200 3350 
Q 400 3925 712 4187 
Q 1025 4450 1450 4475 
Q 1700 4500 1900 4462 
Q 2100 4425 2312 4287 
Q 2525 4150 2662 3875 
Q 2800 3600 2762 3212 
Q 2725 2825 2375 2287 
Q 2025 1750 1025 600 
L 2825 600 
L 2825 150 
L 300 150 
L 300 250 
z
" transform="scale(0.015625)"/>
        <path id="SimHei-30" d="M 225 2537 
Q 250 3200 412 3587 
Q 575 3975 875 4225 
Q 1175 4475 1612 4475 
Q 2050 4475 2375 4112 
Q 2700 3750 2800 3200 
Q 2900 2650 2862 1937 
Q 2825 1225 2612 775 
Q 2400 325 1975 150 
Q 1550 -25 1125 187 
Q 700 400 525 750 
Q 350 1100 275 1487 
Q 200 1875 225 2537 
z
M 750 2687 
Q 675 2000 800 1462 
Q 925 925 1212 700 
Q 1500 475 1800 612 
Q 2100 750 2237 1162 
Q 2375 1575 2375 2062 
Q 2375 2550 2337 2950 
Q 2300 3350 2112 3675 
Q 1925 4000 1612 4012 
Q 1300 4025 1062 3700 
Q 825 3375 750 2687 
z
" transform="scale(0.015625)"/>
        <path id="SimHei-31" d="M 1400 3600 
Q 1075 3275 575 2975 
L 575 3450 
Q 1200 3875 1600 4450 
L 1900 4450 
L 1900 150 
L 1400 150 
L 1400 3600 
z
" transform="scale(0.015625)"/>
        <path id="SimHei-36" d="M 250 1612 
Q 275 1975 387 2225 
Q 500 2475 725 2850 
L 1750 4450 
L 2325 4450 
L 1275 2800 
Q 1950 2975 2350 2750 
Q 2750 2525 2887 2237 
Q 3025 1950 3037 1612 
Q 3050 1275 2937 950 
Q 2825 625 2537 362 
Q 2250 100 1737 75 
Q 1225 50 862 262 
Q 500 475 362 862 
Q 225 1250 250 1612 
z
M 1025 787 
Q 1250 550 1625 525 
Q 2000 500 2250 775 
Q 2500 1050 2500 1575 
Q 2500 2100 2187 2300 
Q 1875 2500 1487 2450 
Q 1100 2400 925 2075 
Q 750 1750 775 1387 
Q 800 1025 1025 787 
z
" transform="scale(0.015625)"/>
        <path id="SimHei-2d" d="M 2975 2125 
L 125 2125 
L 125 2525 
L 2975 2525 
L 2975 2125 
z
" transform="scale(0.015625)"/>
       </defs>
       <use xlink:href="#SimHei-32"/>
       <use xlink:href="#SimHei-30" x="50"/>
       <use xlink:href="#SimHei-31" x="100"/>
       <use xlink:href="#SimHei-36" x="150"/>
       <use xlink:href="#SimHei-2d" x="200"/>
       <use xlink:href="#SimHei-30" x="250"/>
       <use xlink:href="#SimHei-31" x="300"/>
      </g>
     </g>
    </g>
    <g id="xtick_2">
     <g id="line2d_2">
      <g>
       <use xlink:href="#m73dfcad8d0" x="158.860529" y="388.3975" style="stroke: #000000; stroke-width: 0.8"/>
      </g>
     </g>
     <g id="text_2">
      <!-- 2016-07 -->
      <g transform="translate(141.360529 402.2725) scale(0.1 -0.1)">
       <defs>
        <path id="SimHei-37" d="M 850 150 
Q 1300 2050 2425 3925 
L 275 3925 
L 275 4375 
L 2950 4375 
L 2950 3950 
Q 1775 2050 1400 150 
L 850 150 
z
" transform="scale(0.015625)"/>
       </defs>
       <use xlink:href="#SimHei-32"/>
       <use xlink:href="#SimHei-30" x="50"/>
       <use xlink:href="#SimHei-31" x="100"/>
       <use xlink:href="#SimHei-36" x="150"/>
       <use xlink:href="#SimHei-2d" x="200"/>
       <use xlink:href="#SimHei-30" x="250"/>
       <use xlink:href="#SimHei-37" x="300"/>
      </g>
     </g>
    </g>
    <g id="xtick_3">
     <g id="line2d_3">
      <g>
       <use xlink:href="#m73dfcad8d0" x="242.856542" y="388.3975" style="stroke: #000000; stroke-width: 0.8"/>
      </g>
     </g>
     <g id="text_3">
      <!-- 2017-01 -->
      <g transform="translate(225.356542 402.2725) scale(0.1 -0.1)">
       <use xlink:href="#SimHei-32"/>
       <use xlink:href="#SimHei-30" x="50"/>
       <use xlink:href="#SimHei-31" x="100"/>
       <use xlink:href="#SimHei-37" x="150"/>
       <use xlink:href="#SimHei-2d" x="200"/>
       <use xlink:href="#SimHei-30" x="250"/>
       <use xlink:href="#SimHei-31" x="300"/>
      </g>
     </g>
    </g>
    <g id="xtick_4">
     <g id="line2d_4">
      <g>
       <use xlink:href="#m73dfcad8d0" x="325.483055" y="388.3975" style="stroke: #000000; stroke-width: 0.8"/>
      </g>
     </g>
     <g id="text_4">
      <!-- 2017-07 -->
      <g transform="translate(307.983055 402.2725) scale(0.1 -0.1)">
       <use xlink:href="#SimHei-32"/>
       <use xlink:href="#SimHei-30" x="50"/>
       <use xlink:href="#SimHei-31" x="100"/>
       <use xlink:href="#SimHei-37" x="150"/>
       <use xlink:href="#SimHei-2d" x="200"/>
       <use xlink:href="#SimHei-30" x="250"/>
       <use xlink:href="#SimHei-37" x="300"/>
      </g>
     </g>
    </g>
    <g id="xtick_5">
     <g id="line2d_5">
      <g>
       <use xlink:href="#m73dfcad8d0" x="409.479068" y="388.3975" style="stroke: #000000; stroke-width: 0.8"/>
      </g>
     </g>
     <g id="text_5">
      <!-- 2018-01 -->
      <g transform="translate(391.979068 402.2725) scale(0.1 -0.1)">
       <defs>
        <path id="SimHei-38" d="M 175 1375 
Q 175 1675 325 1962 
Q 475 2250 825 2425 
Q 525 2600 425 2812 
Q 325 3025 312 3300 
Q 300 3575 387 3775 
Q 475 3975 650 4150 
Q 825 4325 1037 4387 
Q 1250 4450 1500 4450 
Q 1750 4450 1950 4400 
Q 2150 4350 2375 4187 
Q 2600 4025 2700 3725 
Q 2800 3425 2687 3025 
Q 2575 2625 2100 2400 
Q 2525 2275 2700 2012 
Q 2875 1750 2875 1375 
Q 2875 1000 2762 775 
Q 2650 550 2512 400 
Q 2375 250 2137 162 
Q 1900 75 1537 75 
Q 1175 75 912 162 
Q 650 250 475 425 
Q 300 600 237 837 
Q 175 1075 175 1375 
z
M 687 1400 
Q 675 1100 787 875 
Q 900 650 1200 587 
Q 1500 525 1825 600 
Q 2150 675 2275 950 
Q 2400 1225 2362 1500 
Q 2325 1775 2050 1962 
Q 1775 2150 1450 2125 
Q 1125 2100 912 1900 
Q 700 1700 687 1400 
z
M 775 3350 
Q 775 3100 950 2875 
Q 1125 2650 1500 2650 
Q 1875 2650 2062 2875 
Q 2250 3100 2237 3412 
Q 2225 3725 2012 3875 
Q 1800 4025 1437 4000 
Q 1075 3975 925 3787 
Q 775 3600 775 3350 
z
" transform="scale(0.015625)"/>
       </defs>
       <use xlink:href="#SimHei-32"/>
       <use xlink:href="#SimHei-30" x="50"/>
       <use xlink:href="#SimHei-31" x="100"/>
       <use xlink:href="#SimHei-38" x="150"/>
       <use xlink:href="#SimHei-2d" x="200"/>
       <use xlink:href="#SimHei-30" x="250"/>
       <use xlink:href="#SimHei-31" x="300"/>
      </g>
     </g>
    </g>
    <g id="xtick_6">
     <g id="line2d_6">
      <g>
       <use xlink:href="#m73dfcad8d0" x="492.10558" y="388.3975" style="stroke: #000000; stroke-width: 0.8"/>
      </g>
     </g>
     <g id="text_6">
      <!-- 2018-07 -->
      <g transform="translate(474.60558 402.2725) scale(0.1 -0.1)">
       <use xlink:href="#SimHei-32"/>
       <use xlink:href="#SimHei-30" x="50"/>
       <use xlink:href="#SimHei-31" x="100"/>
       <use xlink:href="#SimHei-38" x="150"/>
       <use xlink:href="#SimHei-2d" x="200"/>
       <use xlink:href="#SimHei-30" x="250"/>
       <use xlink:href="#SimHei-37" x="300"/>
      </g>
     </g>
    </g>
    <g id="xtick_7">
     <g id="line2d_7">
      <g>
       <use xlink:href="#m73dfcad8d0" x="576.101593" y="388.3975" style="stroke: #000000; stroke-width: 0.8"/>
      </g>
     </g>
     <g id="text_7">
      <!-- 2019-01 -->
      <g transform="translate(558.601593 402.2725) scale(0.1 -0.1)">
       <defs>
        <path id="SimHei-39" d="M 800 75 
Q 1350 1000 1700 1750 
Q 1075 1650 662 1912 
Q 250 2175 162 2625 
Q 75 3075 175 3437 
Q 275 3800 487 4037 
Q 700 4275 1000 4375 
Q 1300 4475 1537 4475 
Q 1775 4475 2025 4375 
Q 2275 4275 2475 4075 
Q 2675 3875 2750 3662 
Q 2825 3450 2825 3112 
Q 2825 2775 2575 2250 
Q 2325 1725 1350 75 
L 800 75 
z
M 662 2875 
Q 700 2550 937 2337 
Q 1175 2125 1450 2150 
Q 1725 2175 1887 2300 
Q 2050 2425 2200 2725 
Q 2300 3100 2250 3362 
Q 2200 3625 1987 3800 
Q 1775 3975 1525 3975 
Q 1375 4000 1137 3900 
Q 900 3800 762 3500 
Q 625 3200 662 2875 
z
" transform="scale(0.015625)"/>
       </defs>
       <use xlink:href="#SimHei-32"/>
       <use xlink:href="#SimHei-30" x="50"/>
       <use xlink:href="#SimHei-31" x="100"/>
       <use xlink:href="#SimHei-39" x="150"/>
       <use xlink:href="#SimHei-2d" x="200"/>
       <use xlink:href="#SimHei-30" x="250"/>
       <use xlink:href="#SimHei-31" x="300"/>
      </g>
     </g>
    </g>
    <g id="xtick_8">
     <g id="line2d_8">
      <g>
       <use xlink:href="#m73dfcad8d0" x="658.728105" y="388.3975" style="stroke: #000000; stroke-width: 0.8"/>
      </g>
     </g>
     <g id="text_8">
      <!-- 2019-07 -->
      <g transform="translate(641.228105 402.2725) scale(0.1 -0.1)">
       <use xlink:href="#SimHei-32"/>
       <use xlink:href="#SimHei-30" x="50"/>
       <use xlink:href="#SimHei-31" x="100"/>
       <use xlink:href="#SimHei-39" x="150"/>
       <use xlink:href="#SimHei-2d" x="200"/>
       <use xlink:href="#SimHei-30" x="250"/>
       <use xlink:href="#SimHei-37" x="300"/>
      </g>
     </g>
    </g>
    <g id="text_9">
     <!-- 日期 -->
     <g transform="translate(366.382812 415.217812) scale(0.1 -0.1)">
      <defs>
       <path id="SimHei-65e5" d="M 5375 5000 
Q 5350 3775 5350 2275 
Q 5350 775 5375 -450 
L 4800 -450 
L 4800 175 
L 1800 175 
L 1800 -575 
L 1250 -575 
Q 1275 575 1275 2125 
Q 1275 3675 1250 5000 
L 5375 5000 
z
M 4800 600 
L 4800 2375 
L 1800 2375 
L 1800 600 
L 4800 600 
z
M 4800 2800 
L 4800 4550 
L 1800 4550 
L 1800 2800 
L 4800 2800 
z
" transform="scale(0.015625)"/>
       <path id="SimHei-671f" d="M 4900 -25 
Q 5475 -100 5425 175 
L 5425 1575 
L 4325 1575 
Q 4275 975 4050 425 
Q 3825 -125 3400 -600 
Q 3225 -375 2925 -275 
Q 3350 150 3562 625 
Q 3775 1100 3812 1575 
Q 3850 2050 3850 3125 
Q 3850 4225 3825 4875 
L 5950 4875 
Q 5925 4400 5925 3725 
L 5925 50 
Q 5925 -300 5700 -425 
Q 5475 -550 5100 -600 
Q 5100 -325 4900 -25 
z
M 950 4300 
Q 950 4675 925 5125 
L 1450 5125 
Q 1425 4625 1425 4300 
L 2550 4300 
Q 2550 4775 2525 5125 
L 3075 5125 
Q 3050 4700 3050 4300 
Q 3225 4300 3500 4325 
L 3500 3900 
Q 3250 3925 3050 3925 
L 3050 1550 
Q 3250 1550 3500 1575 
L 3500 1150 
Q 3025 1175 2575 1175 
L 1225 1175 
Q 675 1175 275 1150 
L 275 1575 
Q 650 1550 950 1550 
L 950 3925 
Q 725 3925 425 3900 
L 425 4325 
Q 700 4300 950 4300 
z
M 5425 3375 
L 5425 4500 
L 4350 4500 
L 4350 3375 
L 5425 3375 
z
M 5425 1950 
L 5425 3000 
L 4350 3000 
L 4350 1950 
L 5425 1950 
z
M 1600 725 
Q 1425 650 1162 287 
Q 900 -75 650 -350 
Q 400 -175 225 -75 
Q 450 100 700 412 
Q 950 725 1100 1025 
L 1600 725 
z
M 2550 3375 
L 2550 3925 
L 1425 3925 
L 1425 3375 
L 2550 3375 
z
M 2550 1550 
L 2550 2100 
L 1425 2100 
L 1425 1550 
L 2550 1550 
z
M 2550 2475 
L 2550 3000 
L 1425 3000 
L 1425 2475 
L 2550 2475 
z
M 2850 -75 
Q 2450 525 2225 725 
Q 2375 825 2550 1025 
Q 2850 725 3250 275 
Q 3050 125 2850 -75 
z
" transform="scale(0.015625)"/>
      </defs>
      <use xlink:href="#SimHei-65e5"/>
      <use xlink:href="#SimHei-671f" x="100"/>
     </g>
    </g>
   </g>
   <g id="matplotlib.axis_2">
    <g id="ytick_1">
     <g id="line2d_9">
      <defs>
       <path id="mc29c16a792" d="M 0 0 
L -3.5 0 
" style="stroke: #000000; stroke-width: 0.8"/>
      </defs>
      <g>
       <use xlink:href="#mc29c16a792" x="47.223438" y="330.652345" style="stroke: #000000; stroke-width: 0.8"/>
      </g>
     </g>
     <g id="text_10">
      <!-- 2600 -->
      <g transform="translate(20.223438 334.089845) scale(0.1 -0.1)">
       <use xlink:href="#SimHei-32"/>
       <use xlink:href="#SimHei-36" x="50"/>
       <use xlink:href="#SimHei-30" x="100"/>
       <use xlink:href="#SimHei-30" x="150"/>
      </g>
     </g>
    </g>
    <g id="ytick_2">
     <g id="line2d_10">
      <g>
       <use xlink:href="#mc29c16a792" x="47.223438" y="269.993225" style="stroke: #000000; stroke-width: 0.8"/>
      </g>
     </g>
     <g id="text_11">
      <!-- 2800 -->
      <g transform="translate(20.223438 273.430725) scale(0.1 -0.1)">
       <use xlink:href="#SimHei-32"/>
       <use xlink:href="#SimHei-38" x="50"/>
       <use xlink:href="#SimHei-30" x="100"/>
       <use xlink:href="#SimHei-30" x="150"/>
      </g>
     </g>
    </g>
    <g id="ytick_3">
     <g id="line2d_11">
      <g>
       <use xlink:href="#mc29c16a792" x="47.223438" y="209.334104" style="stroke: #000000; stroke-width: 0.8"/>
      </g>
     </g>
     <g id="text_12">
      <!-- 3000 -->
      <g transform="translate(20.223438 212.771604) scale(0.1 -0.1)">
       <defs>
        <path id="SimHei-33" d="M 250 1225 
L 700 1300 
Q 800 975 1025 762 
Q 1250 550 1587 562 
Q 1925 575 2125 837 
Q 2325 1100 2300 1437 
Q 2275 1775 2037 1962 
Q 1800 2150 1275 2225 
L 1275 2550 
Q 1800 2600 2037 2825 
Q 2275 3050 2250 3412 
Q 2225 3775 1925 3937 
Q 1625 4100 1287 3975 
Q 950 3850 750 3275 
L 300 3350 
Q 450 3800 712 4100 
Q 975 4400 1425 4450 
Q 1875 4500 2212 4337 
Q 2550 4175 2687 3837 
Q 2825 3500 2725 3100 
Q 2625 2700 2150 2400 
Q 2500 2250 2687 1950 
Q 2875 1650 2812 1162 
Q 2750 675 2375 375 
Q 2000 75 1525 87 
Q 1050 100 700 387 
Q 350 675 250 1225 
z
" transform="scale(0.015625)"/>
       </defs>
       <use xlink:href="#SimHei-33"/>
       <use xlink:href="#SimHei-30" x="50"/>
       <use xlink:href="#SimHei-30" x="100"/>
       <use xlink:href="#SimHei-30" x="150"/>
      </g>
     </g>
    </g>
    <g id="ytick_4">
     <g id="line2d_12">
      <g>
       <use xlink:href="#mc29c16a792" x="47.223438" y="148.674983" style="stroke: #000000; stroke-width: 0.8"/>
      </g>
     </g>
     <g id="text_13">
      <!-- 3200 -->
      <g transform="translate(20.223438 152.112483) scale(0.1 -0.1)">
       <use xlink:href="#SimHei-33"/>
       <use xlink:href="#SimHei-32" x="50"/>
       <use xlink:href="#SimHei-30" x="100"/>
       <use xlink:href="#SimHei-30" x="150"/>
      </g>
     </g>
    </g>
    <g id="ytick_5">
     <g id="line2d_13">
      <g>
       <use xlink:href="#mc29c16a792" x="47.223438" y="88.015863" style="stroke: #000000; stroke-width: 0.8"/>
      </g>
     </g>
     <g id="text_14">
      <!-- 3400 -->
      <g transform="translate(20.223438 91.453363) scale(0.1 -0.1)">
       <defs>
        <path id="SimHei-34" d="M 2000 1100 
L 75 1100 
L 75 1525 
L 2100 4450 
L 2475 4450 
L 2475 1525 
L 3075 1525 
L 3075 1100 
L 2475 1100 
L 2475 150 
L 2000 150 
L 2000 1100 
z
M 2000 1525 
L 2000 3500 
L 600 1525 
L 2000 1525 
z
" transform="scale(0.015625)"/>
       </defs>
       <use xlink:href="#SimHei-33"/>
       <use xlink:href="#SimHei-34" x="50"/>
       <use xlink:href="#SimHei-30" x="100"/>
       <use xlink:href="#SimHei-30" x="150"/>
      </g>
     </g>
    </g>
    <g id="ytick_6">
     <g id="line2d_14">
      <g>
       <use xlink:href="#mc29c16a792" x="47.223438" y="27.356742" style="stroke: #000000; stroke-width: 0.8"/>
      </g>
     </g>
     <g id="text_15">
      <!-- 3600 -->
      <g transform="translate(20.223438 30.794242) scale(0.1 -0.1)">
       <use xlink:href="#SimHei-33"/>
       <use xlink:href="#SimHei-36" x="50"/>
       <use xlink:href="#SimHei-30" x="100"/>
       <use xlink:href="#SimHei-30" x="150"/>
      </g>
     </g>
    </g>
    <g id="text_16">
     <!-- 指数 -->
     <g transform="translate(14.973438 215.720625) rotate(-90) scale(0.1 -0.1)">
      <defs>
       <path id="SimHei-6307" d="M 5625 2225 
Q 5600 1925 5600 1350 
L 5600 300 
Q 5600 -225 5625 -525 
L 5125 -525 
L 5125 -125 
L 3300 -125 
L 3300 -625 
L 2800 -625 
Q 2825 -300 2825 300 
L 2825 1350 
Q 2825 1925 2800 2225 
L 5625 2225 
z
M 500 25 
Q 1075 -25 1175 37 
Q 1275 100 1275 275 
L 1275 1675 
Q 1050 1600 925 1537 
Q 800 1475 475 1275 
Q 400 1525 225 1800 
Q 625 1900 825 1975 
Q 1025 2050 1275 2125 
L 1275 3300 
L 1100 3300 
Q 775 3300 450 3275 
L 450 3725 
Q 750 3700 1100 3700 
L 1275 3700 
L 1275 4450 
Q 1275 4800 1250 5125 
L 1775 5125 
Q 1750 4850 1750 4450 
L 1750 3700 
Q 2075 3700 2425 3725 
L 2425 3275 
Q 2050 3300 1750 3300 
L 1750 2325 
Q 1850 2350 2025 2425 
L 2375 2575 
Q 2350 2300 2375 2100 
Q 2225 2050 2062 1987 
Q 1900 1925 1750 1850 
L 1750 100 
Q 1725 -200 1575 -337 
Q 1425 -475 675 -525 
Q 625 -250 500 25 
z
M 3325 5025 
Q 3300 4675 3300 4125 
Q 4125 4275 4512 4412 
Q 4900 4550 5225 4725 
Q 5325 4475 5575 4250 
Q 5450 4225 5237 4175 
Q 5025 4125 4725 4050 
Q 4425 3975 4037 3887 
Q 3650 3800 3300 3725 
L 3300 3175 
Q 3275 2925 3700 2925 
L 4925 2925 
Q 5300 2925 5387 3087 
Q 5475 3250 5550 3600 
Q 5750 3400 6050 3300 
Q 5825 2725 5700 2637 
Q 5575 2550 5275 2525 
L 3350 2525 
Q 3050 2525 2937 2687 
Q 2825 2850 2825 2975 
L 2825 4125 
Q 2825 4775 2800 5025 
L 3325 5025 
z
M 5125 275 
L 5125 875 
L 3300 875 
L 3300 275 
L 5125 275 
z
M 5125 1250 
L 5125 1825 
L 3300 1825 
L 3300 1250 
L 5125 1250 
z
" transform="scale(0.015625)"/>
       <path id="SimHei-6570" d="M 4525 4925 
Q 4475 4800 4400 4587 
Q 4325 4375 4175 3825 
L 5325 3825 
Q 5575 3825 5925 3850 
L 5925 3400 
Q 5650 3425 5500 3425 
Q 5500 3025 5362 2162 
Q 5225 1300 4875 675 
Q 5125 375 5437 137 
Q 5750 -100 6025 -200 
Q 5725 -425 5625 -625 
Q 5325 -450 5075 -225 
Q 4825 0 4575 325 
Q 4300 25 3987 -187 
Q 3675 -400 3200 -650 
Q 3075 -425 2850 -300 
Q 3225 -150 3650 125 
Q 4075 400 4300 675 
Q 4125 1025 3962 1425 
Q 3800 1825 3675 2475 
Q 3600 2275 3425 1950 
Q 3250 2050 3000 2150 
Q 3400 2850 3650 3675 
Q 3900 4500 3975 5100 
Q 4275 4975 4525 4925 
z
M 2100 2250 
Q 2000 2150 1875 1925 
L 3250 1925 
Q 3100 1300 2725 675 
Q 3125 525 3350 400 
Q 3225 225 3125 25 
Q 2900 175 2450 325 
Q 1950 -225 725 -650 
Q 600 -375 400 -275 
Q 1575 0 2000 475 
Q 1300 650 850 775 
Q 1000 1000 1250 1525 
Q 1000 1525 425 1500 
L 425 1950 
Q 900 1925 1400 1925 
Q 1500 2150 1550 2425 
Q 1825 2325 2100 2250 
z
M 1775 3950 
Q 1775 4550 1750 5100 
L 2250 5100 
Q 2225 4575 2225 3950 
Q 3075 3950 3425 3975 
L 3425 3525 
Q 3075 3550 2225 3550 
Q 2225 2825 2250 2425 
L 1750 2425 
Q 1775 2775 1775 3300 
Q 1650 3100 1300 2787 
Q 950 2475 650 2300 
Q 525 2525 275 2625 
Q 500 2700 875 2975 
Q 1250 3250 1450 3550 
Q 950 3550 500 3525 
L 500 3975 
Q 925 3950 1775 3950 
z
M 3975 3175 
Q 4200 1700 4600 1125 
Q 4850 1700 4937 2287 
Q 5025 2875 5050 3425 
L 4075 3425 
L 3975 3175 
z
M 1450 1000 
Q 1750 925 2275 800 
Q 2475 1050 2650 1525 
L 1725 1525 
Q 1600 1275 1450 1000 
z
M 3325 4825 
Q 3200 4625 3125 4450 
Q 3050 4275 2925 4025 
Q 2725 4125 2525 4175 
Q 2725 4500 2900 5000 
Q 3150 4875 3325 4825 
z
M 2575 3375 
Q 2900 3050 3200 2725 
Q 3050 2600 2875 2425 
Q 2525 2850 2300 3100 
Q 2450 3225 2575 3375 
z
M 925 5000 
Q 1275 4650 1500 4300 
L 1125 4075 
Q 950 4425 600 4725 
Q 825 4875 925 5000 
z
" transform="scale(0.015625)"/>
      </defs>
      <use xlink:href="#SimHei-6307"/>
      <use xlink:href="#SimHei-6570" x="100"/>
     </g>
    </g>
   </g>
   <g id="line2d_15">
    <path d="M 77.147017 119.480355 
L 77.603517 122.072623 
L 78.060017 99.589623 
L 78.516517 171.421547 
L 78.973017 152.796164 
L 80.342518 204.267854 
L 80.799018 202.400463 
L 81.255518 224.621112 
L 81.712018 207.014196 
L 82.168518 239.369468 
L 83.538018 235.467054 
L 83.994518 206.986808 
L 84.451018 216.402772 
L 84.907518 245.583509 
L 85.364018 234.640361 
L 86.733519 227.982264 
L 87.190019 285.223092 
L 87.646519 289.53826 
L 88.103019 313.770639 
L 88.559519 288.918991 
L 89.929019 303.703439 
L 90.385519 285.288331 
L 90.842019 288.419373 
L 91.298519 275.748956 
L 91.755019 281.06594 
L 96.32002 286.311802 
L 96.77652 258.901553 
L 97.23302 249.569936 
L 97.68952 250.918145 
L 98.14602 251.78918 
L 99.51552 231.421606 
L 99.972021 238.653296 
L 100.428521 230.899635 
L 100.885021 287.813236 
L 101.341521 279.938378 
L 102.711021 303.968762 
L 103.167521 290.26247 
L 103.624021 254.925165 
L 104.080521 251.868825 
L 104.537021 247.504826 
L 105.906521 240.470582 
L 106.363021 239.242993 
L 106.819522 251.020265 
L 107.276022 268.560001 
L 107.732522 266.867035 
L 109.102022 251.947439 
L 110.015022 248.632115 
L 110.471522 238.19817 
L 110.928022 222.936972 
L 112.297522 203.631631 
L 112.754022 209.527364 
L 113.210523 206.313158 
L 113.667023 221.17161 
L 114.123523 215.57159 
L 115.493023 222.127112 
L 115.949523 233.648767 
L 116.406023 209.138509 
L 116.862523 208.146641 
L 117.319023 206.443758 
L 119.145023 193.239602 
L 119.601523 193.989773 
L 120.058024 206.780355 
L 120.514524 213.896216 
L 121.884024 199.035095 
L 122.340524 202.162255 
L 122.797024 189.123061 
L 123.253524 184.354223 
L 123.710024 185.641683 
L 125.079524 199.125053 
L 125.536024 196.346016 
L 125.992524 217.649347 
L 126.449025 223.622026 
L 126.905525 221.696433 
L 128.275025 225.508737 
L 128.731525 220.04053 
L 129.188025 223.385516 
L 130.101025 228.040315 
L 131.927025 211.565389 
L 132.383525 211.981238 
L 132.840026 209.988737 
L 133.296526 235.645725 
L 134.666026 260.253644 
L 135.122526 260.108457 
L 135.579026 258.760005 
L 136.035526 259.116498 
L 136.492026 261.771275 
L 137.861526 254.567095 
L 138.318026 256.744029 
L 138.774526 267.714231 
L 139.231026 267.898635 
L 139.687527 262.264312 
L 141.057027 256.755888 
L 141.513527 263.421931 
L 141.970027 265.417616 
L 142.426527 263.186392 
L 142.883027 263.610065 
L 144.252527 263.183965 
L 144.709027 234.624105 
L 145.165527 235.566838 
L 146.078528 227.931584 
L 147.448028 229.321921 
L 147.904528 228.731405 
L 148.361028 231.426459 
L 150.643528 259.963027 
L 151.100028 257.197608 
L 151.556528 243.542785 
L 152.013028 247.90827 
L 152.469528 244.181252 
L 153.839029 243.057815 
L 154.295529 246.16708 
L 154.752029 237.980525 
L 155.208529 242.1021 
L 155.665029 253.528398 
L 157.491029 235.85506 
L 157.947529 230.081859 
L 158.404029 230.684386 
L 158.860529 229.813897 
L 160.68653 207.395469 
L 161.14303 204.089395 
L 161.59953 204.224574 
L 162.05603 212.945172 
L 163.42553 210.875847 
L 163.88203 194.357064 
L 164.33853 190.927306 
L 164.79503 192.950621 
L 165.25153 192.866366 
L 166.621031 196.121243 
L 167.534031 200.872308 
L 167.990531 197.502815 
L 168.447031 205.447159 
L 169.816531 204.533602 
L 170.273031 194.118946 
L 170.729531 211.760742 
L 171.186031 211.055792 
L 171.642531 215.600555 
L 173.012032 223.472107 
L 173.468532 218.045148 
L 173.925032 215.866849 
L 174.381532 214.664191 
L 174.838032 216.402044 
L 176.207532 208.037 
L 176.664032 201.545321 
L 177.120532 203.648555 
L 177.577032 208.534131 
L 178.033532 193.966904 
L 179.403033 171.36295 
L 179.859533 175.960396 
L 180.316033 176.106585 
L 180.772533 177.756846 
L 181.229033 176.547243 
L 182.598533 183.61309 
L 183.055033 182.12682 
L 183.511533 183.286956 
L 183.968033 188.610097 
L 184.424533 188.009754 
L 185.794034 188.095132 
L 186.250534 186.684959 
L 186.707034 183.40506 
L 187.163534 190.133855 
L 187.620034 188.906539 
L 188.989534 187.467917 
L 189.446034 181.821341 
L 189.902534 181.452715 
L 190.359034 180.231587 
L 190.815534 185.41779 
L 192.185035 202.668546 
L 192.641535 202.203776 
L 193.098035 208.470136 
L 195.380535 201.432859 
L 195.837035 202.358457 
L 196.293535 201.486755 
L 196.750035 196.500696 
L 197.206535 199.053718 
L 198.576035 215.269751 
L 199.032536 209.888437 
L 199.489036 213.016841 
L 199.945536 209.794294 
L 200.402036 207.907705 
L 204.967036 194.732604 
L 205.423537 189.544157 
L 205.880037 191.591887 
L 206.793037 189.981236 
L 208.162537 196.848546 
L 208.619037 183.895155 
L 209.075537 183.639234 
L 209.532037 183.718455 
L 209.988537 181.752038 
L 211.358037 170.437444 
L 211.814538 169.317737 
L 212.271038 174.057216 
L 212.727538 175.258904 
L 213.184038 177.70938 
L 214.553538 178.855322 
L 215.010038 172.199925 
L 215.466538 178.175758 
L 215.923038 170.228503 
L 216.379538 171.3261 
L 217.749038 168.894913 
L 218.205538 164.480476 
L 218.662039 170.399987 
L 219.118539 157.385027 
L 219.575039 149.874942 
L 220.944539 145.529505 
L 221.401039 146.556221 
L 221.857539 147.141157 
L 222.314039 146.111377 
L 222.770539 150.841758 
L 224.140039 143.170866 
L 224.596539 134.010125 
L 225.05304 136.198434 
L 225.50954 136.016668 
L 225.96604 129.889521 
L 227.79204 123.52456 
L 228.24854 133.49977 
L 228.70504 126.440595 
L 229.16154 135.377534 
L 230.53104 147.246704 
L 230.98754 148.781956 
L 231.44404 141.929234 
L 231.900541 144.014604 
L 232.357041 138.701593 
L 233.726541 162.938854 
L 234.183041 162.311942 
L 234.639541 166.71173 
L 235.096041 173.643187 
L 235.552541 172.034356 
L 236.922041 173.519564 
L 237.378541 178.132296 
L 237.835041 167.65228 
L 238.291542 167.006776 
L 238.748042 175.924759 
L 240.117542 172.159465 
L 240.574042 174.557017 
L 241.030542 178.326466 
L 241.487042 180.188367 
L 241.943542 177.901367 
L 243.769542 168.109923 
L 244.226042 161.172582 
L 244.682542 159.165705 
L 245.139043 162.529223 
L 246.508543 157.398917 
L 246.965043 160.29991 
L 247.421543 167.857369 
L 247.878043 173.154396 
L 248.334543 175.133157 
L 249.704043 177.964846 
L 250.617043 175.05797 
L 251.073543 178.610502 
L 251.530044 171.986617 
L 252.899544 167.850909 
L 253.812544 163.974821 
L 254.269044 161.059756 
L 257.921045 166.821159 
L 259.290545 161.721608 
L 259.747045 162.903247 
L 261.116545 149.676162 
L 262.486045 143.567667 
L 262.942545 143.2375 
L 263.399045 144.736478 
L 263.855545 139.691853 
L 264.312045 148.045463 
L 266.138046 132.501533 
L 266.594546 130.107712 
L 267.051046 133.093172 
L 267.507546 132.46908 
L 268.877046 139.982471 
L 269.333546 136.017518 
L 269.790046 134.440259 
L 270.246546 139.567593 
L 270.703046 143.121095 
L 272.072547 138.403666 
L 272.529047 135.813339 
L 272.985547 136.341589 
L 273.442047 143.596086 
L 273.898547 144.804901 
L 275.268047 137.445646 
L 276.181047 136.00945 
L 276.637547 127.76718 
L 277.094047 137.317443 
L 278.463548 133.26508 
L 278.920048 129.988699 
L 279.376548 134.960017 
L 279.833048 133.950134 
L 280.289548 127.61259 
L 281.659048 128.367766 
L 282.572048 136.144508 
L 283.028548 145.570177 
L 283.485048 141.846526 
L 286.224049 124.106614 
L 286.680549 122.404732 
L 288.050049 127.628513 
L 288.506549 121.692078 
L 288.963049 126.282639 
L 289.419549 125.636558 
L 289.876049 134.703126 
L 291.24555 141.951739 
L 292.15855 157.565578 
L 293.07155 156.818106 
L 294.44105 170.047861 
L 295.35405 166.615798 
L 295.81055 163.176486 
L 296.26705 162.426891 
L 298.093051 165.746856 
L 299.006051 170.703737 
L 299.462551 178.083192 
L 300.832051 185.491157 
L 301.288551 184.910649 
L 301.745051 193.324646 
L 302.201551 190.681333 
L 302.658051 184.004918 
L 304.027552 181.968075 
L 304.484052 175.072559 
L 304.940552 177.657456 
L 305.397052 181.995342 
L 305.853552 181.846151 
L 307.223052 186.382027 
L 307.679552 190.545851 
L 308.136052 189.900165 
L 308.592552 176.629406 
L 309.049052 175.953784 
L 311.331553 173.794593 
L 311.788053 178.208939 
L 312.244553 177.324286 
L 313.614053 181.535212 
L 314.070553 178.359737 
L 314.527053 166.774179 
L 315.440053 161.291959 
L 316.809553 166.910146 
L 317.266054 162.704558 
L 317.722554 169.701254 
L 318.179054 169.151592 
L 318.635554 171.978337 
L 320.005054 165.546135 
L 320.461554 166.868595 
L 320.918054 161.955752 
L 321.374554 164.612197 
L 321.831054 161.451917 
L 323.200554 153.089785 
L 323.657054 151.344925 
L 324.113555 156.802881 
L 324.570055 152.295575 
L 325.026555 150.971871 
L 326.396055 149.914977 
L 326.852555 153.890485 
L 327.309055 146.511212 
L 328.222055 143.228795 
L 329.591555 144.843784 
L 330.048055 147.753723 
L 330.504556 149.419908 
L 330.961056 143.166165 
L 331.417556 141.876067 
L 332.787056 155.813106 
L 333.243556 152.445797 
L 333.700056 139.280038 
L 334.156556 135.067717 
L 334.613056 137.155301 
L 335.982556 133.32856 
L 336.439056 135.424181 
L 336.895557 134.215426 
L 337.352057 133.576504 
L 337.808557 132.527404 
L 339.178057 126.525821 
L 339.634557 120.578194 
L 340.091057 122.87763 
L 341.004057 129.846119 
L 342.373557 124.576146 
L 342.830057 123.843323 
L 343.286557 125.754025 
L 343.743058 129.946662 
L 344.199558 146.084445 
L 345.569058 137.343799 
L 346.025558 133.127535 
L 346.482058 134.586539 
L 346.938558 127.920526 
L 347.395058 127.831205 
L 348.764558 122.316927 
L 349.221058 121.309925 
L 349.677558 122.074473 
L 350.134059 126.985799 
L 350.590559 108.784909 
L 351.960059 99.343529 
L 352.416559 98.562634 
L 352.873059 99.047755 
L 353.329559 99.901927 
L 353.786059 97.988404 
L 355.612059 92.772448 
L 356.068559 92.447376 
L 356.525059 98.48035 
L 356.98156 98.557629 
L 359.26406 92.824008 
L 359.72056 96.682353 
L 360.17706 102.082956 
L 361.54656 99.280656 
L 362.00306 101.104706 
L 362.45956 98.329157 
L 362.91606 100.811207 
L 363.372561 102.413487 
L 364.742061 105.743885 
L 365.655061 104.614716 
L 366.111561 106.322149 
L 366.568061 103.501196 
L 371.133062 95.786873 
L 371.589562 93.175558 
L 372.046062 91.569335 
L 372.502562 92.231672 
L 372.959062 90.890104 
L 374.328562 94.545696 
L 374.785062 96.495796 
L 375.241562 93.537754 
L 375.698062 97.062534 
L 376.154562 94.4918 
L 377.524063 93.869771 
L 378.437063 88.956838 
L 379.350063 82.916736 
L 380.719563 90.946578 
L 381.632563 89.255584 
L 382.545563 96.585753 
L 383.915064 91.602576 
L 384.371564 83.898686 
L 384.828064 83.326852 
L 385.284564 79.585883 
L 387.110564 73.507475 
L 387.567064 79.054024 
L 388.023564 87.250193 
L 388.480064 88.243244 
L 388.936564 93.199943 
L 390.306065 90.321273 
L 391.219065 78.776175 
L 391.675565 102.598861 
L 392.132065 102.021842 
L 393.501565 111.603223 
L 393.958065 108.137403 
L 394.414565 106.862045 
L 394.871065 113.132257 
L 395.327565 113.002143 
L 396.697066 115.428235 
L 397.153566 117.230782 
L 397.610066 120.175873 
L 398.066566 126.821261 
L 398.523066 121.380684 
L 399.892566 111.613595 
L 400.349066 124.164574 
L 400.805566 117.424223 
L 401.262066 120.638793 
L 401.718566 128.615892 
L 403.088067 128.074418 
L 403.544567 119.395311 
L 404.001067 122.10456 
L 404.457567 118.327438 
L 404.914067 119.236202 
L 406.283567 124.271516 
L 406.740067 116.487859 
L 407.196567 125.690393 
L 407.653067 119.441928 
L 409.935568 103.68839 
L 410.848568 92.349896 
L 412.674568 85.140772 
L 413.131068 83.800175 
L 413.587568 81.393616 
L 414.500568 79.238276 
L 415.870068 84.834838 
L 416.326569 76.917064 
L 416.783069 74.467254 
L 417.239569 65.343303 
L 417.696069 61.367098 
L 419.065569 57.273153 
L 419.522069 43.581601 
L 419.978569 39.650739 
L 420.435069 43.035002 
L 420.891569 40.056093 
L 422.261069 50.710291 
L 422.71757 61.32312 
L 423.17407 63.499448 
L 423.63057 73.767066 
L 424.08707 69.187029 
L 425.45657 61.478408 
L 425.91307 96.916982 
L 426.82607 129.85537 
L 427.28257 169.950927 
L 428.65207 162.588548 
L 429.108571 153.236944 
L 429.565071 148.930085 
L 433.217071 127.881371 
L 433.673571 121.674365 
L 435.043071 109.37585 
L 435.956072 130.656798 
L 436.412572 126.305447 
L 436.869072 132.13679 
L 438.238572 131.409487 
L 438.695072 121.486989 
L 439.151572 126.938303 
L 440.064572 116.172128 
L 441.434072 110.247673 
L 442.347073 120.959255 
L 442.803573 121.041114 
L 443.260073 127.48005 
L 444.629573 124.638291 
L 445.086073 121.1843 
L 445.542573 124.122567 
L 445.999073 129.421688 
L 446.455573 163.002425 
L 447.825073 168.77687 
L 448.281573 158.790256 
L 448.738073 172.244236 
L 449.194574 160.645879 
L 449.651074 158.108508 
L 451.020574 159.842631 
L 451.477074 167.893855 
L 451.933574 169.568593 
L 454.216074 167.390263 
L 454.672574 151.6104 
L 455.129074 146.223809 
L 455.585575 154.692884 
L 456.042075 161.094301 
L 457.411575 175.774779 
L 457.868075 189.074959 
L 458.781075 173.734479 
L 459.237575 187.635578 
L 460.607075 188.706363 
L 461.063575 170.231081 
L 461.520075 173.553139 
L 461.976576 186.577805 
L 462.433076 184.393621 
L 464.715576 184.713386 
L 465.172076 178.744134 
L 465.628576 181.724074 
L 466.998076 167.890337 
L 467.454576 160.352592 
L 467.911076 161.064548 
L 468.367576 156.435499 
L 468.824077 159.817093 
L 470.193577 156.550964 
L 470.650077 151.065468 
L 471.106577 157.905724 
L 471.563077 162.5409 
L 472.019577 150.706033 
L 473.389077 144.477251 
L 473.845577 144.322783 
L 474.302077 158.088005 
L 475.215078 166.477465 
L 476.584578 168.364297 
L 477.041078 172.798964 
L 477.497578 196.764503 
L 477.954078 180.377351 
L 478.410578 186.545322 
L 479.780078 181.676305 
L 480.236578 174.696078 
L 480.693078 174.400425 
L 481.149578 176.123599 
L 481.606078 188.968472 
L 482.975579 193.325222 
L 483.432079 185.130569 
L 483.888579 194.231044 
L 484.345079 195.940661 
L 484.801579 202.691688 
L 486.627579 237.291256 
L 487.084079 234.8924 
L 487.540579 247.000415 
L 487.997079 242.76932 
L 489.36658 251.996755 
L 489.82308 256.494113 
L 490.73608 273.967428 
L 491.19258 255.611523 
L 492.56208 277.406679 
L 493.01858 273.970097 
L 493.93158 290.046553 
L 494.38808 285.998588 
L 495.757581 265.41058 
L 496.214081 261.614623 
L 496.670581 276.735152 
L 497.127081 258.571537 
L 497.583581 260.535345 
L 498.953081 265.734408 
L 499.409581 270.561631 
L 499.866081 273.85812 
L 500.322581 278.320084 
L 500.779081 261.115398 
L 502.148582 251.934276 
L 502.605082 237.976795 
L 503.061582 238.557636 
L 503.518082 245.054622 
L 503.974582 247.672549 
L 505.344082 249.050815 
L 505.800582 246.821167 
L 506.713582 279.691435 
L 507.170082 288.056631 
L 508.539583 298.758841 
L 508.996083 276.249 
L 509.452583 286.956669 
L 509.909083 271.6972 
L 510.365583 271.415711 
L 511.735083 274.278185 
L 512.191583 275.766578 
L 512.648083 293.268857 
L 513.104583 298.748165 
L 513.561083 309.735261 
L 514.930584 300.788101 
L 515.387084 290.063386 
L 515.843584 295.892182 
L 516.300084 292.854313 
L 516.756584 291.396553 
L 518.126084 275.786474 
L 518.582584 276.671551 
L 519.039084 279.306007 
L 519.495584 288.87741 
L 519.952084 292.664601 
L 521.321585 294.034132 
L 521.778085 284.981972 
L 522.234585 299.007452 
L 522.691085 302.872621 
L 523.147585 299.624993 
L 524.517085 309.578002 
L 524.973585 310.998881 
L 525.430085 313.634398 
L 525.886585 304.393497 
L 526.343085 305.890352 
L 527.712585 314.94509 
L 528.169086 300.337919 
L 528.625586 290.966024 
L 529.082086 291.453269 
L 529.538586 270.756074 
L 531.364586 275.713835 
L 531.821086 267.926781 
L 532.277586 272.487892 
L 532.734086 263.517833 
L 537.299087 295.315253 
L 538.212087 292.486627 
L 538.668587 335.669613 
L 539.125087 328.555814 
L 540.494587 340.32796 
L 540.951087 346.930341 
L 541.407588 342.29465 
L 541.864088 365.101084 
L 542.320588 345.676032 
L 543.690088 314.008635 
L 544.146588 332.221748 
L 544.603088 329.652956 
L 545.059588 329.499973 
L 545.516088 331.002106 
L 546.885588 348.21216 
L 547.342088 340.343216 
L 547.798589 329.808213 
L 548.255089 328.76063 
L 548.711589 307.45745 
L 550.081089 310.807532 
L 550.537589 312.64981 
L 550.994089 318.113498 
L 551.450589 319.845255 
L 551.907089 330.994614 
L 553.276589 321.395915 
L 553.733089 314.007634 
L 554.18959 320.873337 
L 554.64609 309.976562 
L 555.10259 306.658721 
L 556.47209 299.257732 
L 556.92859 316.744877 
L 557.38509 315.031014 
L 557.84159 316.872443 
L 558.29809 336.875031 
L 560.12409 338.332032 
L 560.58059 330.125672 
L 561.037091 340.526619 
L 562.863091 314.032353 
L 563.319591 310.647665 
L 563.776091 315.546677 
L 564.232591 329.08088 
L 564.689091 328.866662 
L 566.058591 335.328496 
L 566.971591 329.999471 
L 567.428092 320.325403 
L 567.884592 332.550763 
L 569.254092 331.266913 
L 569.710592 337.734449 
L 570.167092 345.949544 
L 570.623592 349.982132 
L 571.080092 356.05317 
L 572.449592 352.790771 
L 572.906092 359.520324 
L 573.362592 361.499358 
L 573.819092 366.111726 
L 574.275593 362.833161 
L 576.558093 371.508992 
L 577.014593 371.790511 
L 577.471093 356.472446 
L 578.840593 350.946248 
L 579.297093 352.956036 
L 579.753593 347.532292 
L 580.210093 350.336685 
L 580.666594 344.655109 
L 582.036094 350.134447 
L 582.492594 339.646606 
L 582.949094 339.623192 
L 583.405594 342.894265 
L 583.862094 331.863829 
L 585.231594 327.46489 
L 585.688094 336.808002 
L 586.144594 336.413718 
L 587.057595 330.129645 
L 588.427095 331.569299 
L 588.883595 332.395203 
L 589.340095 338.060158 
L 589.796595 335.331468 
L 590.253095 325.122569 
L 594.818096 314.305925 
L 595.274596 308.847302 
L 595.731096 293.932862 
L 596.187596 294.347892 
L 596.644096 305.665337 
L 598.013596 283.836667 
L 598.470096 283.445628 
L 598.926596 281.755362 
L 599.383096 284.611709 
L 601.209097 221.076679 
L 601.665597 227.071953 
L 602.122097 223.339021 
L 602.578597 227.242557 
L 603.035097 211.152361 
L 604.404597 200.970576 
L 604.861097 192.881349 
L 605.317597 178.367896 
L 605.774097 177.058023 
L 606.230597 218.475009 
L 607.600098 201.147397 
L 608.056598 191.043165 
L 608.969598 212.159303 
L 609.426098 202.737061 
L 610.795598 180.09107 
L 611.252098 181.741787 
L 611.708598 181.8433 
L 612.165098 178.563249 
L 612.621598 177.746261 
L 613.991099 196.2829 
L 614.447599 210.215056 
L 614.904099 202.443349 
L 615.360599 210.867749 
L 615.817099 181.807602 
L 617.186599 157.664362 
L 617.643099 155.704557 
L 618.556099 134.550083 
L 620.3821 135.084216 
L 620.8386 136.645097 
L 621.2951 135.957829 
L 621.7516 151.719495 
L 622.2081 152.124789 
L 623.5776 155.41221 
L 624.0341 132.419006 
L 624.4906 129.531602 
L 624.9471 133.44918 
L 625.4036 127.202474 
L 627.229601 149.101478 
L 627.686101 148.185555 
L 628.142601 171.778192 
L 628.599101 183.129698 
L 629.968601 190.378584 
L 630.425101 185.57426 
L 633.164102 237.703161 
L 633.620602 231.659451 
L 634.077102 241.55723 
L 634.533602 254.539191 
L 634.990102 227.771262 
L 636.359602 238.537497 
L 636.816102 244.634467 
L 637.272602 227.932767 
L 637.729102 222.766763 
L 638.185602 245.033149 
L 639.555102 248.57916 
L 640.011603 237.853353 
L 640.468103 242.179623 
L 640.924603 254.065565 
L 641.381103 253.920135 
L 642.750603 241.975323 
L 643.207103 236.657823 
L 643.663603 235.206311 
L 644.576603 240.059131 
L 645.946103 242.672084 
L 646.402604 251.103883 
L 646.859104 251.365385 
L 647.315604 261.562274 
L 649.141604 254.182364 
L 649.598104 231.864054 
L 650.054604 236.818873 
L 650.511104 236.406087 
L 650.967604 245.13078 
L 652.337104 243.417827 
L 652.793604 242.6487 
L 653.250105 234.264123 
L 653.706605 213.240976 
L 654.163105 208.733518 
L 655.532605 206.862882 
L 655.989105 214.771042 
L 656.445605 216.527153 
L 656.902105 210.306894 
L 657.358605 215.740192 
L 658.728105 195.715282 
L 659.184605 196.006446 
L 659.641106 204.704812 
L 660.097606 207.742166 
L 660.554106 205.980019 
L 661.923606 229.544692 
L 662.380106 231.101781 
L 662.836606 235.022574 
L 663.293106 234.276861 
L 663.749606 230.399136 
L 665.119106 226.869048 
L 665.575606 228.254654 
L 666.032106 230.051438 
L 666.488607 239.306807 
L 666.945107 232.323729 
L 668.314607 243.614393 
L 668.771107 239.680467 
L 669.227607 232.603701 
L 669.684107 228.33251 
L 670.140607 226.154575 
L 671.510107 227.226421 
L 671.966607 223.789688 
L 672.879608 237.004975 
L 673.336108 249.418379 
L 674.705608 263.473673 
L 675.162108 276.800421 
L 675.618608 279.492594 
L 675.618608 279.492594 
" clip-path="url(#p2419c8b1f6)" style="fill: none; stroke: #7fffd4; stroke-width: 1.5; stroke-linecap: square"/>
   </g>
   <g id="patch_3">
    <path d="M 47.223438 388.3975 
L 47.223438 23.04375 
" style="fill: none; stroke: #000000; stroke-width: 0.8; stroke-linejoin: miter; stroke-linecap: square"/>
   </g>
   <g id="patch_4">
    <path d="M 705.542188 388.3975 
L 705.542188 23.04375 
" style="fill: none; stroke: #000000; stroke-width: 0.8; stroke-linejoin: miter; stroke-linecap: square"/>
   </g>
   <g id="patch_5">
    <path d="M 47.223438 388.3975 
L 705.542188 388.3975 
" style="fill: none; stroke: #000000; stroke-width: 0.8; stroke-linejoin: miter; stroke-linecap: square"/>
   </g>
   <g id="patch_6">
    <path d="M 47.223438 23.04375 
L 705.542188 23.04375 
" style="fill: none; stroke: #000000; stroke-width: 0.8; stroke-linejoin: miter; stroke-linecap: square"/>
   </g>
   <g id="text_17">
    <!-- 2016年至今上证指数时序图 -->
    <g transform="translate(304.382812 17.04375) scale(0.12 -0.12)">
     <defs>
      <path id="SimHei-5e74" d="M 350 2925 
Q 900 3450 1375 4200 
Q 1850 4950 1900 5275 
Q 2275 5125 2600 5050 
Q 2375 4825 2100 4325 
L 4625 4325 
Q 5175 4325 5750 4350 
L 5750 3925 
Q 5225 3950 4625 3950 
L 3800 3950 
L 3800 2925 
Q 4750 2925 5475 2950 
L 5475 2525 
Q 4725 2550 3800 2550 
L 3800 1375 
L 5075 1375 
Q 5625 1375 6100 1400 
L 6100 975 
Q 5650 1000 5075 1000 
L 3800 1000 
L 3800 425 
Q 3800 -150 3825 -625 
L 3275 -625 
Q 3300 -150 3300 375 
L 3300 1000 
L 1600 1000 
Q 900 1000 275 975 
L 275 1400 
Q 875 1375 1450 1375 
Q 1450 2350 1425 2925 
L 3300 2925 
L 3300 3950 
L 1875 3950 
Q 1350 3150 925 2650 
Q 650 2875 350 2925 
z
M 3300 1375 
L 3300 2550 
L 1925 2550 
L 1925 1375 
L 3300 1375 
z
" transform="scale(0.015625)"/>
      <path id="SimHei-81f3" d="M 4250 3725 
Q 5275 2700 5575 2350 
Q 5350 2225 5175 2025 
Q 4950 2275 4750 2475 
Q 3925 2425 3475 2400 
L 3475 1450 
L 4275 1450 
Q 4800 1450 5250 1475 
L 5250 1000 
Q 4775 1025 4300 1025 
L 3475 1025 
L 3475 100 
L 4975 100 
Q 5550 100 5975 125 
L 5975 -350 
Q 5575 -325 4975 -325 
L 1325 -325 
Q 825 -325 450 -350 
L 450 125 
Q 850 100 1350 100 
L 2975 100 
L 2975 1025 
L 2025 1025 
Q 1550 1025 1150 1000 
L 1150 1475 
Q 1575 1450 2050 1450 
L 2975 1450 
L 2975 2375 
Q 2500 2350 1975 2300 
Q 1450 2250 1250 2175 
Q 1150 2425 1050 2650 
Q 1575 2800 2050 3350 
Q 2525 3900 2600 4275 
L 1700 4275 
Q 1150 4275 775 4250 
L 775 4725 
Q 1150 4700 1700 4700 
L 4700 4700 
Q 5225 4700 5650 4725 
L 5650 4250 
Q 5250 4275 4675 4275 
L 2800 4275 
Q 3000 4125 3225 3950 
Q 2900 3675 2537 3287 
Q 2175 2900 1950 2725 
Q 2700 2725 3300 2750 
Q 3900 2775 4475 2800 
Q 4250 3050 3900 3400 
Q 4075 3550 4250 3725 
z
" transform="scale(0.015625)"/>
      <path id="SimHei-4eca" d="M 3450 4850 
Q 4675 3100 6125 2525 
Q 5875 2300 5725 2025 
Q 4200 2925 3200 4525 
Q 2325 3150 700 2000 
Q 550 2250 300 2400 
Q 1150 2825 1912 3600 
Q 2675 4375 3025 5275 
Q 3250 5175 3575 5050 
L 3450 4850 
z
M 5250 1900 
L 5250 1475 
Q 5075 1400 4425 537 
Q 3775 -325 3550 -775 
Q 3450 -675 3100 -425 
Q 3500 75 4450 1450 
L 2050 1450 
Q 1575 1450 1375 1425 
L 1375 1925 
Q 1575 1900 2075 1900 
L 5250 1900 
z
M 2925 3400 
Q 3425 2825 3750 2450 
Q 3525 2300 3300 2100 
Q 2925 2700 2550 3050 
Q 2825 3275 2925 3400 
z
" transform="scale(0.015625)"/>
      <path id="SimHei-4e0a" d="M 3250 5075 
Q 3225 4650 3225 4275 
L 3225 3225 
L 4650 3225 
Q 5150 3225 5600 3250 
L 5600 2700 
Q 5100 2725 4600 2725 
L 3225 2725 
L 3225 200 
L 5200 200 
Q 5575 200 6075 225 
L 6075 -300 
Q 5600 -275 5200 -275 
L 1250 -275 
Q 850 -275 350 -300 
L 350 225 
Q 825 200 1250 200 
L 2700 200 
L 2700 4250 
Q 2700 4625 2675 5075 
L 3250 5075 
z
" transform="scale(0.015625)"/>
      <path id="SimHei-8bc1" d="M 5125 4675 
Q 5625 4675 6050 4700 
L 6050 4225 
Q 5625 4250 5125 4250 
L 4500 4250 
L 4500 2625 
L 5075 2625 
Q 5500 2625 5900 2650 
L 5900 2175 
Q 5525 2200 5075 2200 
L 4500 2200 
L 4500 125 
L 5200 125 
Q 5625 125 6175 150 
L 6175 -325 
Q 5625 -300 5200 -300 
L 3000 -300 
Q 2400 -300 2000 -325 
L 2000 150 
Q 2400 125 2775 125 
L 2775 2075 
Q 2775 2600 2750 2950 
L 3275 2950 
Q 3250 2625 3250 2075 
L 3250 125 
L 4000 125 
L 4000 4250 
L 3550 4250 
Q 2975 4250 2450 4225 
L 2450 4700 
Q 2975 4675 3550 4675 
L 5125 4675 
z
M 850 -125 
Q 1150 175 1150 500 
L 1150 2750 
L 925 2750 
Q 575 2750 225 2725 
L 225 3200 
Q 550 3175 925 3175 
L 1650 3175 
Q 1625 2700 1625 2175 
L 1625 800 
Q 1850 1075 2025 1325 
Q 2150 1050 2325 825 
Q 2050 500 1812 212 
Q 1575 -75 1225 -525 
Q 1050 -300 850 -125 
z
M 1525 3900 
Q 1100 4500 800 4825 
Q 1000 4975 1175 5175 
L 1925 4275 
Q 1675 4100 1525 3900 
z
" transform="scale(0.015625)"/>
      <path id="SimHei-65f6" d="M 2525 4575 
Q 2500 3675 2500 2400 
Q 2500 1125 2525 400 
L 2000 400 
L 2000 875 
L 1000 875 
L 1000 50 
L 475 50 
Q 500 1200 500 2350 
Q 500 3525 475 4575 
L 2525 4575 
z
M 4875 3825 
Q 4875 4575 4850 5225 
L 5400 5225 
Q 5375 4575 5375 3825 
Q 5750 3825 6175 3850 
L 6175 3375 
Q 5750 3400 5375 3400 
L 5375 50 
Q 5375 -325 5075 -425 
Q 4775 -525 4300 -575 
Q 4300 -275 4025 0 
Q 4500 -50 4687 -25 
Q 4875 0 4875 300 
L 4875 3400 
Q 3625 3400 2775 3375 
L 2775 3850 
Q 3575 3825 4875 3825 
z
M 2000 1300 
L 2000 2550 
L 1000 2550 
L 1000 1300 
L 2000 1300 
z
M 2000 2975 
L 2000 4150 
L 1000 4150 
L 1000 2975 
L 2000 2975 
z
M 3550 2725 
Q 3875 2200 4175 1600 
Q 3925 1525 3650 1375 
Q 3450 1975 3075 2500 
Q 3300 2600 3550 2725 
z
" transform="scale(0.015625)"/>
      <path id="SimHei-5e8f" d="M 4000 2075 
L 5975 2075 
Q 5750 1525 5575 1025 
Q 5325 1100 5050 1150 
Q 5175 1450 5275 1700 
L 4050 1700 
L 4050 150 
Q 4050 -375 3762 -462 
Q 3475 -550 2950 -575 
Q 2875 -300 2750 0 
Q 3350 -75 3475 25 
Q 3600 125 3575 375 
L 3575 1700 
L 2450 1700 
Q 2050 1700 1675 1675 
L 1675 2100 
Q 2100 2075 2425 2075 
L 3675 2075 
Q 3325 2400 2875 2775 
Q 2975 2875 3250 3100 
Q 3400 2975 3725 2725 
L 4575 3275 
L 3000 3275 
Q 2400 3275 1950 3250 
L 1950 3700 
Q 2400 3675 3000 3675 
L 5400 3675 
L 5400 3250 
Q 4700 2875 4025 2450 
L 4275 2250 
L 4000 2075 
z
M 3725 5275 
Q 3825 4925 3925 4525 
L 4850 4525 
Q 5425 4525 6000 4550 
L 6000 4125 
Q 5425 4150 4850 4150 
L 1400 4150 
Q 1400 2750 1362 2137 
Q 1325 1525 1200 887 
Q 1075 250 775 -350 
Q 625 -250 250 -125 
Q 475 300 600 700 
Q 725 1100 800 1637 
Q 875 2175 875 2825 
Q 875 3500 850 4525 
L 3350 4525 
Q 3275 4825 3150 5150 
Q 3425 5200 3725 5275 
z
" transform="scale(0.015625)"/>
      <path id="SimHei-56fe" d="M 5800 4975 
Q 5775 4350 5775 3600 
L 5775 925 
Q 5775 150 5800 -600 
L 5300 -600 
L 5300 -275 
L 1125 -275 
L 1125 -650 
L 625 -650 
Q 650 125 650 950 
L 650 3600 
Q 650 4325 625 4975 
L 5800 4975 
z
M 5300 150 
L 5300 4575 
L 1125 4575 
L 1125 150 
L 5300 150 
z
M 3225 4250 
Q 3075 4100 2950 3925 
L 4625 3925 
Q 4525 3700 4300 3375 
Q 4075 3050 3600 2600 
Q 4350 2225 5075 2150 
Q 4900 1925 4775 1675 
Q 3850 1950 3225 2350 
Q 2500 1875 1675 1650 
Q 1600 1875 1400 2075 
Q 2200 2200 2875 2600 
Q 2525 2925 2375 3150 
Q 2150 2900 1900 2650 
Q 1725 2850 1525 2950 
Q 1950 3300 2250 3737 
Q 2550 4175 2675 4475 
Q 2925 4350 3225 4250 
z
M 2450 1275 
Q 3550 950 4100 725 
Q 3975 525 3850 300 
Q 2825 725 2275 850 
Q 2375 1050 2450 1275 
z
M 2925 2050 
Q 3775 1700 4075 1600 
Q 3950 1400 3850 1150 
Q 3000 1550 2700 1650 
Q 2825 1825 2925 2050 
z
M 2625 3450 
Q 3000 3025 3275 2850 
Q 3600 3100 3875 3525 
L 2675 3525 
L 2625 3450 
z
" transform="scale(0.015625)"/>
     </defs>
     <use xlink:href="#SimHei-32"/>
     <use xlink:href="#SimHei-30" x="50"/>
     <use xlink:href="#SimHei-31" x="100"/>
     <use xlink:href="#SimHei-36" x="150"/>
     <use xlink:href="#SimHei-5e74" x="200"/>
     <use xlink:href="#SimHei-81f3" x="300"/>
     <use xlink:href="#SimHei-4eca" x="400"/>
     <use xlink:href="#SimHei-4e0a" x="500"/>
     <use xlink:href="#SimHei-8bc1" x="600"/>
     <use xlink:href="#SimHei-6307" x="700"/>
     <use xlink:href="#SimHei-6570" x="800"/>
     <use xlink:href="#SimHei-65f6" x="900"/>
     <use xlink:href="#SimHei-5e8f" x="1000"/>
     <use xlink:href="#SimHei-56fe" x="1100"/>
    </g>
   </g>
   <g id="legend_1">
    <g id="line2d_16">
     <path d="M 628.542188 36.395312 
L 638.542188 36.395312 
L 648.542188 36.395312 
" style="fill: none; stroke: #7fffd4; stroke-width: 1.5; stroke-linecap: square"/>
    </g>
    <g id="text_18">
     <!-- 上证指数 -->
     <g transform="translate(656.542188 39.895312) scale(0.1 -0.1)">
      <use xlink:href="#SimHei-4e0a"/>
      <use xlink:href="#SimHei-8bc1" x="100"/>
      <use xlink:href="#SimHei-6307" x="200"/>
      <use xlink:href="#SimHei-6570" x="300"/>
     </g>
    </g>
   </g>
  </g>
 </g>
 <defs>
  <clipPath id="p2419c8b1f6">
   <rect x="47.223438" y="23.04375" width="658.31875" height="365.35375"/>
  </clipPath>
 </defs>
</svg>
